<svg viewBox="0 0 300 54.482" width="250" height="45.401" xmlns="http://www.w3.org/2000/svg"><path d="M253.661 49.228c-6.161 0-11.382-2.173-15.436-6.42-4.086-4.282-6.162-9.405-6.162-15.275 0-3.924.973-7.589 2.854-10.897 1.913-3.307 4.54-5.934 7.88-7.88 3.34-1.913 6.973-2.919 10.8-2.919 5.804 0 10.896 2.14 15.08 6.357C272.86 16.409 275 21.598 275 27.662c0 6-2.108 11.156-6.226 15.307-4.12 4.151-9.21 6.26-15.113 6.26zm-.13-36.84c-4.118 0-7.653 1.46-10.442 4.313-2.821 2.854-4.248 6.551-4.248 10.961 0 4.93 1.784 8.854 5.35 11.74 2.757 2.238 5.935 3.373 9.503 3.373 4.021 0 7.491-1.46 10.345-4.378 2.821-2.919 4.248-6.519 4.248-10.767 0-4.216-1.427-7.848-4.28-10.799-2.887-2.951-6.39-4.443-10.475-4.443zm-3.145 4.216h6.259v21.89h-6.26zm-19.004 25.23c1.135 0 2.076.39 2.886 1.168.811.778 1.2 1.75 1.2 2.853 0 1.136-.389 2.076-1.2 2.887a3.966 3.966 0 01-2.886 1.2c-1.135 0-2.075-.39-2.886-1.2a3.966 3.966 0 01-1.2-2.887c0-1.135.39-2.075 1.2-2.853.778-.779 1.751-1.168 2.886-1.168z" fill="#22e392"/><path d="M47.085 15.404h7.07v28.181h-7.07v-2.983c-1.395 1.297-2.757 2.27-4.151 2.821-1.395.584-2.887.876-4.508.876-3.632 0-6.778-1.427-9.437-4.248C26.297 37.26 25 33.727 25 29.543c0-4.345 1.297-7.912 3.86-10.701 2.561-2.79 5.674-4.184 9.371-4.184 1.687 0 3.276.324 4.767.973 1.492.649 2.854 1.59 4.119 2.886v-3.113zm-7.46 5.805c-2.172 0-3.988.778-5.447 2.302-1.46 1.525-2.173 3.535-2.173 5.935 0 2.432.746 4.443 2.205 6 1.46 1.556 3.275 2.367 5.416 2.367 2.205 0 4.053-.778 5.513-2.303 1.46-1.524 2.205-3.567 2.205-6.064 0-2.465-.746-4.443-2.205-5.967-1.427-1.524-3.276-2.27-5.513-2.27zM64.046 4.54v13.977c1.265-1.264 2.66-2.237 4.151-2.886a11.826 11.826 0 014.767-.973c3.665 0 6.81 1.395 9.373 4.184 2.562 2.789 3.859 6.356 3.859 10.701 0 4.184-1.33 7.719-3.99 10.54-2.658 2.821-5.804 4.248-9.436 4.248-1.622 0-3.146-.292-4.54-.875-1.395-.584-2.79-1.524-4.184-2.822v2.984H57.04V4.54zm7.427 16.669c-2.238 0-4.086.746-5.546 2.27s-2.205 3.502-2.205 5.967c0 2.497.746 4.54 2.205 6.064 1.46 1.557 3.308 2.303 5.546 2.303 2.172 0 3.988-.778 5.448-2.367 1.492-1.557 2.205-3.568 2.205-6 0-2.4-.713-4.41-2.173-5.935-1.46-1.524-3.243-2.302-5.48-2.302zm69.788 10.313h-22.7c.324 2.01 1.2 3.6 2.626 4.767 1.427 1.167 3.243 1.783 5.448 1.783 2.627 0 4.897-.908 6.81-2.756l5.968 2.789c-1.492 2.108-3.276 3.664-5.319 4.67-2.075 1.005-4.54 1.524-7.394 1.524-4.41 0-8.01-1.395-10.799-4.184-2.789-2.788-4.183-6.29-4.183-10.474 0-4.313 1.394-7.88 4.15-10.702 2.757-2.821 6.26-4.248 10.41-4.248 4.444 0 8.043 1.427 10.832 4.248 2.79 2.854 4.184 6.583 4.184 11.253zm-7.07-5.546c-.453-1.556-1.394-2.854-2.756-3.827-1.362-.972-2.983-1.491-4.8-1.491-1.978 0-3.697.551-5.188 1.654-.94.68-1.784 1.913-2.595 3.664zm8.562-10.572h7.07v2.886c1.589-1.362 3.048-2.302 4.345-2.821a10.65 10.65 0 013.99-.778c2.788 0 5.155.973 7.101 2.918 1.622 1.654 2.465 4.119 2.465 7.362v18.614h-7.005V31.262c0-3.373-.162-5.578-.454-6.713-.292-1.102-.81-1.946-1.59-2.53-.745-.583-1.685-.875-2.788-.875-1.427 0-2.66.487-3.665 1.427-1.037.973-1.75 2.27-2.14 3.956-.195.876-.324 2.79-.324 5.708v11.286h-7.07V15.404zm55.13 5.708l-5.87 3.243c-1.102-1.168-2.205-1.946-3.275-2.4-1.07-.454-2.335-.681-3.794-.681-2.66 0-4.767.778-6.421 2.367-1.622 1.59-2.465 3.6-2.465 6.065 0 2.4.779 4.345 2.368 5.87 1.556 1.523 3.632 2.27 6.194 2.27 3.178 0 5.61-1.07 7.394-3.244l5.577 3.827c-3.015 3.924-7.296 5.902-12.777 5.902-4.962 0-8.82-1.459-11.642-4.41-2.789-2.919-4.216-6.356-4.216-10.313 0-2.724.681-5.253 2.043-7.523 1.362-2.303 3.276-4.087 5.708-5.416 2.432-1.297 5.189-1.978 8.204-1.978 2.79 0 5.319.55 7.524 1.654 2.238 1.135 4.054 2.691 5.448 4.767zm30.354 10.41h-22.7c.324 2.01 1.2 3.6 2.627 4.767 1.426 1.167 3.243 1.783 5.448 1.783 2.627 0 4.897-.908 6.81-2.756l5.967 2.789c-1.492 2.108-3.275 3.664-5.318 4.67-2.076 1.005-4.54 1.524-7.394 1.524-4.41 0-8.01-1.395-10.8-4.184-2.788-2.788-4.183-6.29-4.183-10.474 0-4.313 1.395-7.88 4.151-10.702 2.757-2.821 6.259-4.248 10.41-4.248 4.443 0 8.043 1.427 10.831 4.248 2.79 2.854 4.184 6.583 4.184 11.253zm-7.07-5.546c-.453-1.556-1.394-2.854-2.756-3.827-1.362-.972-2.983-1.491-4.8-1.491-1.977 0-3.696.551-5.188 1.654-.94.68-1.784 1.913-2.594 3.664zM95.957 44.04c-3.567-.648-6.907-2.01-9.534-4.118l-.746-.551 3.178-6.39s5.286 4.25 10.183 4.541c1.2.065 2.075-.13 2.919-.519 1.07-.389 1.556-1.005 1.556-1.913 0-.746-.486-1.719-4.702-2.335-3.827-.681-6.26-1.395-7.394-1.946-1.492-.746-2.692-1.783-3.567-3.048-.876-1.265-1.265-2.66-1.265-4.249 0-1.653.584-3.242 1.719-4.67.94-1.2 2.27-2.14 4.28-3.048 1.622-.68 3.503-1.005 5.708-1.005.778 0 1.557.065 2.27.13 3.146.454 6.259 1.654 8.82 3.405l1.071.746-5.059 5.188-1.005-.68c-2.497-1.784-4.638-2.076-5.902-2.076-.94 0-1.784.13-2.562.454-.94.454-1.427 1.135-1.427 1.589 0 .876.713 1.524 4.41 2.27 4.832 1.005 6.389 1.524 7.394 1.913 1.978 1.006 2.854 1.849 3.567 2.66 1.07 1.33 1.557 2.983 1.557 4.734 0 1.849-.584 3.47-1.622 4.8-1.037 1.33-2.497 2.465-4.54 3.34-1.621.681-3.762 1.07-5.902 1.07-1.038.033-2.108-.097-3.405-.292z" fill="#232c3b"/></svg>