<svg xmlns="http://www.w3.org/2000/svg" id="Layer_1" x="0" y="0" version="1.1" viewBox="0 0 454.545 98.939" xml:space="preserve"><style id="style1" type="text/css">.st0{fill:#333333;}
	.st1{fill:#FCB400;}
	.st2{fill:#18BFFF;}
	.st3{fill:#F82B60;}
	.st4{fill:#BA1E45;}</style><g id="g5" transform="translate(29.723 6.486)"><path id="path1" d="M158.5 49.5 151.7 31c-.3-.8-1.4-.8-1.6 0l-6.9 18.5c-.2.6.2 1.2.8 1.2h13.8c.5 0 1-.6.7-1.2m3.2 10.4H140c-.4 0-.7.2-.8.6L134.9 72c-.1.3-.5.6-.8.6h-9.4c-.6 0-1-.6-.8-1.2l21.7-54.1c.1-.3.5-.5.8-.5h9c.4 0 .7.2.8.5l21.7 54.1c.2.6-.2 1.2-.8 1.2h-9.4c-.4 0-.7-.2-.8-.6l-4.3-11.5c-.2-.3-.5-.6-.9-.6m20.6-24.1h8.1c.5 0 .9.4.9.9v35.1c0 .5-.4.9-.9.9h-8.1c-.5 0-.9-.4-.9-.9V36.6c0-.4.4-.8.9-.8m38.3 8.5c0 .5-.4.9-.9.9h-.2c-4 0-6.9 1-8.8 2.9-1.9 1.9-2.8 5.1-2.8 9.5v14.2c0 .5-.4.9-.9.9h-8c-.5 0-.9-.4-.9-.9V36.6c0-.5.4-.9.9-.9h7.9c.5 0 .9.4.9.9v6.9h.2c1-2.9 2.5-5.1 4.5-6.6 2.1-1.5 4.6-2.3 7.7-2.3h.4zm22.1-.3c-.5 0-.9.4-.9.9v14.6c0 1.5.3 2.6.9 3.2.6.6 1.6 1 3 1h.8c.5 0 .9.4.9.9v7.3c0 .5-.4.9-.9.9h-3.4c-3.6 0-6.3-.9-8.2-2.7-1.9-1.8-2.9-4.6-2.9-8.2v-17c0-.5-.4-.9-.9-.9h-5c-.5 0-.9-.4-.9-.9v-6.5c0-.5.4-.9.9-.9h5c.5 0 .9-.4.9-.9v-13c0-.5.4-.9.9-.9h8.1c.5 0 .9.4.9.9v13c0 .5.4.9.9.9h5.8c.5 0 .9.4.9.9v6.5c0 .5-.4.9-.9.9zm36.9 17.7c1.8-1.9 2.7-4.4 2.7-7.5 0-3.1-.9-5.6-2.7-7.5-1.8-1.9-4.2-2.9-7.2-2.9s-5.4 1-7.2 2.9c-1.8 1.9-2.7 4.4-2.7 7.5 0 3.1.9 5.6 2.7 7.5 1.8 1.9 4.2 2.9 7.2 2.9 2.9 0 5.3-1 7.2-2.9M261 71.5c-2.7-1.5-4.8-3.8-6.4-6.7-1.6-2.9-2.4-6.5-2.4-10.6s.8-7.6 2.4-10.6c1.6-2.9 3.7-5.2 6.4-6.7s5.7-2.3 8.9-2.3c2.9 0 5.3.6 7.4 1.7 2 1.1 3.7 2.7 4.9 4.7h.2v-4.3c0-.5.4-.9.9-.9h8c.5 0 .9.4.9.9v35.1c0 .5-.4.9-.9.9h-8c-.5 0-.9-.4-.9-.9v-4.3h-.2c-1.2 2-2.9 3.6-4.9 4.7-2 1.1-4.5 1.7-7.4 1.7-3.3-.1-6.2-.9-8.9-2.4m64.2-9.8c1.8-1.9 2.7-4.4 2.7-7.5 0-3.1-.9-5.6-2.7-7.5-1.8-1.9-4.2-2.9-7.2-2.9s-5.4 1-7.2 2.9c-1.8 1.9-2.8 4.4-2.8 7.5 0 3.1.9 5.6 2.8 7.5 1.8 1.9 4.2 2.9 7.2 2.9s5.4-1 7.2-2.9m-12.1 10.4c-2-1.1-3.7-2.7-4.9-4.7h-.2v4.3c0 .5-.4.9-.9.9H299c-.5 0-.9-.4-.9-.9v-54c0-.5.4-.9.9-.9h8.1c.5 0 .9.4.9.9V41h.2c1.2-2 2.9-3.6 4.9-4.7 2-1.1 4.5-1.7 7.4-1.7 3.2 0 6.2.8 8.9 2.3 2.7 1.5 4.8 3.8 6.4 6.7 1.6 2.9 2.4 6.5 2.4 10.6s-.8 7.6-2.4 10.6c-1.6 2.9-3.7 5.2-6.4 6.7s-5.7 2.3-8.9 2.3c-2.9 0-5.3-.6-7.4-1.7m38.7.5h-8.1c-.5 0-.9-.4-.9-.9v-54c0-.5.4-.9.9-.9h8.1c.5 0 .9.4.9.9v54.1c-.1.4-.4.8-.9.8m19-28.3c-1.3 1-2.2 2.5-2.7 4.5-.1.5.3 1.1.9 1.1h15.3c.5 0 1-.5.9-1-.3-1.9-1.1-3.3-2.4-4.5-1.5-1.3-3.5-2-5.9-2-2.5.1-4.5.7-6.1 1.9m19.6-4.6c3.1 3.4 4.7 8.3 4.7 14.5v1c0 .5-.4.9-.9.9h-25.6c-.5 0-1 .5-.9 1 .4 2.3 1.4 4.2 3.1 5.5 1.9 1.6 4.3 2.4 7.1 2.4 3.7 0 7.1-1.4 10.3-4.3.4-.4 1-.3 1.3.2l3.9 5.6c.3.4.2.9-.1 1.2-1.9 1.7-4 3.1-6.4 4.2-2.6 1.2-5.6 1.9-9 1.9-4 0-7.5-.8-10.4-2.4-3-1.6-5.3-3.9-6.9-6.9-1.6-2.9-2.5-6.4-2.5-10.2 0-3.9.8-7.3 2.4-10.3 1.6-3 3.8-5.3 6.7-6.9 2.9-1.6 6.2-2.5 10-2.5 5.7 0 10.1 1.7 13.2 5.1M192.3 22.8c0 3.3-2.7 6-6 6s-6-2.7-6-6 2.7-6 6-6 6 2.7 6 6" class="st0"/><path id="path2" d="M45.9 1.1 7.6 16.9c-2.1.9-2.1 3.9 0 4.8L46.1 37c3.4 1.3 7.1 1.3 10.5 0l38.5-15.3c2.1-.9 2.2-3.9 0-4.8L56.8 1.1c-3.5-1.5-7.4-1.5-10.9 0" class="st1"/><path id="path3" d="M54.8 45.3v38.1c0 1.8 1.8 3.1 3.5 2.4l42.9-16.6c1-.4 1.6-1.3 1.6-2.4V28.7c0-1.8-1.8-3.1-3.5-2.4L56.4 42.9c-1 .4-1.6 1.3-1.6 2.4" class="st2"/><path id="path4" d="M0 28.8v35.8c0 1.9 2.2 3.1 3.9 2.3L30.7 54l1.3-.6L.8 27.1c-.4.4-.8 1-.8 1.7z" class="st3"/><path id="path5" d="M44.6 42.6 3.8 26.4c-.8-.3-1.7-.2-2.3.2-.2.1-.5.3-.7.5L32 53.4l12.7-6.1c2.1-1 1.9-3.9-.1-4.7z" class="st4"/></g></svg>