<svg xmlns="http://www.w3.org/2000/svg" xml:space="preserve" width="250" height="85.515" viewBox="0 0 312.5 106.894"><path d="M89.404 56.131c-.103-10.821 8.84-16.02 9.243-16.268-5.034-7.355-12.854-8.366-15.639-8.48-6.654-.68-12.988 3.92-16.371 3.92-3.384 0-8.594-3.827-14.113-3.713-7.262.103-13.957 4.219-17.702 10.718-7.53 13.06-1.919 32.454 5.437 43.069 3.6 5.189 7.87 11.038 13.503 10.821 5.426-.216 7.469-3.507 14.01-3.507 6.54 0 8.386 3.507 14.112 3.404 5.828-.113 9.521-5.302 13.09-10.512 4.106-6.035 5.808-11.863 5.912-12.173-.135-.051-11.358-4.353-11.482-17.279M78.644 24.348c2.992-3.621 5.004-8.645 4.457-13.659-4.302.176-9.511 2.868-12.596 6.49-2.765 3.197-5.189 8.314-4.529 13.224 4.777.372 9.687-2.445 12.668-6.055m48.485 42.419-4.951 15.01h-6.365l16.206-47.701h7.428l16.268 47.7h-6.582l-5.096-15.009Zm15.64-4.818-4.663-13.73c-1.063-3.116-1.764-5.942-2.476-8.707h-.134c-.712 2.827-1.486 5.726-2.404 8.635l-4.663 13.792Zm17.774-3.25c0-4.383-.134-7.932-.289-11.182h5.591l.29 5.88h.133c2.548-4.177 6.582-6.653 12.173-6.653 8.284 0 14.504 7.004 14.504 17.413 0 12.317-7.5 18.393-15.567 18.393-4.528 0-8.49-1.98-10.542-5.374h-.135v18.61h-6.158zm6.148 9.13c0 .929.134 1.765.289 2.549 1.135 4.312 4.88 7.293 9.346 7.293 6.582 0 10.41-5.375 10.41-13.235 0-6.87-3.612-12.73-10.193-12.73-4.24 0-8.201 3.043-9.419 7.716-.216.774-.423 1.702-.423 2.548zm32.691-9.13c0-4.383-.134-7.932-.288-11.182h5.59l.29 5.88h.134c2.548-4.177 6.581-6.653 12.173-6.653 8.283 0 14.504 7.004 14.504 17.413 0 12.317-7.5 18.393-15.567 18.393-4.529 0-8.49-1.98-10.543-5.374h-.134v18.61h-6.159zm6.16 9.13c0 .929.133 1.765.288 2.549 1.135 4.312 4.88 7.293 9.346 7.293 6.582 0 10.409-5.375 10.409-13.235 0-6.87-3.61-12.73-10.192-12.73-4.24 0-8.201 3.043-9.419 7.716-.216.774-.423 1.702-.423 2.548zm32.69-36.301h6.231v50.238h-6.23zm18.755 34.249c.134 8.417 5.519 11.894 11.74 11.894 4.456 0 7.148-.774 9.48-1.764l1.062 4.456c-2.187.99-5.942 2.126-11.389 2.126-10.542 0-16.845-6.933-16.845-17.27 0-10.336 6.086-18.475 16.061-18.475 11.183 0 14.154 9.83 14.154 16.134 0 1.279-.134 2.26-.217 2.899zm18.26-4.457c.071-3.961-1.63-10.12-8.635-10.12-6.303 0-9.058 5.808-9.553 10.12z"/></svg>