<svg xmlns="http://www.w3.org/2000/svg" width="250" height="53.92" fill="none" viewBox="0 0 312.5 67.4"><path fill="#172a4d" fill-rule="evenodd" d="M110.62 45.867c0 2.288.73 4.16 2.295 5.512 1.564 1.351 3.546 2.08 5.945 1.975 2.816 0 5.215-1.04 7.3-3.223v1.768c0 .312.105.52.313.727.105.104.313.208.626.208h3.025c.209 0 .417-.104.625-.312.21-.103.313-.311.313-.623V35.884c0-1.768-.416-3.328-1.251-4.68-.834-1.352-1.982-2.392-3.441-3.12-1.461-.728-3.13-1.143-5.112-1.143-2.19 0-4.067.415-5.736 1.351-1.773.832-3.024 2.08-3.859 3.744-.104.208-.104.312-.104.416 0 .312.104.52.417.728l2.503 1.664c.21.104.418.208.626.208.313 0 .626-.208.835-.624 1.042-1.768 2.815-2.6 5.215-2.6 1.46 0 2.502.416 3.44 1.04.94.624 1.357 1.56 1.357 2.6s-.626 1.664-1.67 1.872c-.416.104-1.667.312-3.753.52-.418.138-.835.185-1.252.23-.209.024-.417.047-.626.082-2.503.416-4.485 1.248-5.945 2.6-1.356 1.351-2.086 3.015-2.086 5.095zm14.497-.312c-.625.936-1.46 1.664-2.502 2.288-1.044.624-2.087.936-3.338.936-1.148 0-1.982-.312-2.712-.832-.73-.52-1.043-1.248-1.043-2.184 0-1.664 1.252-2.704 3.65-3.12l.268-.045c.664-.112 1.733-.294 3.278-.475l3.338-.52v.936c0 1.04-.313 2.08-.939 3.016z" clip-rule="evenodd"/><path fill="#172a4d" d="M136.277 52.626c-.208-.208-.313-.415-.313-.623v-3.328c0-.312.105-.52.313-.624.21-.208.418-.312.626-.312h3.338V32.556h-3.86c-.312 0-.52-.104-.625-.312-.105-.208-.313-.416-.313-.624V28.5c0-.312.105-.52.313-.624.208-.104.417-.312.626-.312h6.884c.52 0 .938.208 1.355.52.418.416.522.832.522 1.352v1.56l2.399-1.872c.938-.728 1.668-1.248 2.294-1.456.626-.312 1.46-.416 2.295-.416h1.355c.313 0 .522.104.626.312.105.208.313.416.313.624v3.432c0 .312-.104.52-.313.624-.208.104-.417.312-.626.312h-1.147c-.73 0-1.46.104-1.981.416-.522.312-1.46.832-2.608 1.768l-2.399 1.976v11.127h4.381c.313 0 .521.104.626.312.208.208.313.416.313.624v3.224c0 .311-.105.52-.313.623-.21.104-.418.312-.626.312H136.8c-.104-.104-.313-.104-.522-.312zM162.664 52.003c-1.564-.936-2.92-2.184-3.86-3.848-.937-1.664-1.46-3.432-1.46-5.304v-5.303c0-1.872.523-3.64 1.46-5.304.94-1.664 2.191-2.912 3.86-3.848 1.668-.936 3.338-1.455 5.32-1.455 1.46 0 2.92.311 4.276.935 1.355.624 2.502 1.456 3.545 2.496.209.208.313.416.313.728s-.104.624-.417.936l-1.877 1.872c-.209.208-.417.312-.73.312s-.521-.104-.73-.416a5.915 5.915 0 0 0-4.277-1.768c-1.46 0-2.711.52-3.65 1.56-1.042 1.04-1.564 2.288-1.564 3.744v5.823c0 1.456.522 2.704 1.564 3.64 1.043 1.04 2.295 1.56 3.65 1.56 1.67 0 3.13-.624 4.276-1.768a.906.906 0 0 1 .73-.416c.21 0 .522.104.731.312l1.877 1.872c.313.312.417.52.417.936 0 .312-.104.52-.313.728-.938 1.04-2.19 1.976-3.545 2.495a10.228 10.228 0 0 1-4.276.936c-1.878 0-3.652-.52-5.32-1.455zM181.542 52.627c-.209-.208-.313-.416-.313-.624v-32.03c0-.312.104-.52.313-.624.209-.208.417-.312.626-.312h3.441c.313 0 .522.104.626.312.21.208.313.416.313.624v9.776c.835-.832 1.877-1.56 2.92-1.976 1.043-.52 2.191-.728 3.338-.728 1.878 0 3.442.416 4.902 1.144 1.356.832 2.503 1.872 3.233 3.224.73 1.351 1.148 3.015 1.148 4.887v15.703c0 .312-.105.52-.313.624-.21.104-.418.312-.626.312h-3.337c-.313 0-.522-.104-.626-.312-.105-.208-.313-.416-.313-.624V36.924c0-1.56-.418-2.808-1.148-3.64-.834-.832-1.877-1.248-3.337-1.248-1.773 0-3.13.52-4.172 1.664-1.043 1.144-1.564 2.704-1.564 4.68v13.519c0 .312-.105.52-.313.624-.209.104-.418.312-.626.312h-3.442c-.313 0-.521 0-.73-.208z"/><path fill="#172a4d" fill-rule="evenodd" d="M213.04 50.131a8.141 8.141 0 0 0 2.816 2.496c1.147.52 2.294.832 3.65.728 1.773 0 3.338-.416 4.902-1.352 1.565-.936 2.712-2.184 3.65-3.744.94-1.56 1.357-3.224 1.357-4.991v-6.136c0-1.768-.522-3.432-1.357-4.992-.834-1.56-2.085-2.807-3.545-3.743-1.565-.936-3.234-1.352-5.007-1.352-1.147 0-2.19.208-3.234.728-1.042.416-1.98 1.144-2.711 2.08v-9.88c0-.208-.104-.416-.313-.624-.104-.208-.313-.312-.626-.312h-3.441c-.21 0-.417.104-.626.312-.209.104-.313.312-.313.624v32.03c0 .208.104.416.313.624.104.208.313.312.626.312h2.92c.139 0 .278-.093.417-.185.07-.046.14-.093.209-.127.208-.104.313-.312.313-.624zm11.055-7.072c0 1.456-.522 2.704-1.564 3.744-1.044 1.04-2.295 1.664-3.755 1.664s-2.712-.52-3.755-1.56c-1.043-1.04-1.565-2.288-1.565-3.744v-5.927c0-1.352.522-2.6 1.565-3.64s2.295-1.56 3.755-1.56 2.711.52 3.755 1.56c1.042.936 1.564 2.184 1.564 3.64zM235.672 47.635c.939 1.664 2.295 2.912 3.86 3.848 1.668.936 3.441 1.351 5.422 1.351h7.093c.139 0 .278-.092.417-.184a2.02 2.02 0 0 1 .209-.128c.208-.103.312-.311.312-.623v-3.224c0-.139-.092-.278-.185-.416a2.035 2.035 0 0 1-.127-.208c-.105-.208-.313-.312-.626-.312h-7.093c-1.355 0-2.607-.52-3.65-1.56-1.043-.936-1.564-2.184-1.564-3.64v-.208h13.871c.522 0 .939-.104 1.356-.52.313-.416.522-.832.522-1.352v-2.911c0-1.872-.522-3.64-1.46-5.304-.939-1.664-2.19-2.912-3.86-3.848-1.668-.936-3.337-1.455-5.318-1.455-1.982 0-3.651.52-5.32 1.455-1.669.936-2.92 2.184-3.86 3.848-.938 1.664-1.46 3.432-1.46 5.304v4.783c0 1.872.522 3.64 1.46 5.304zm14.393-10.4v.416H239.53v-.416c0-1.456.522-2.704 1.564-3.743.939-1.04 2.19-1.56 3.65-1.56 1.461 0 2.713.52 3.755 1.56 1.044 1.04 1.565 2.287 1.565 3.743zM261.434 47.635c.939 1.664 2.294 2.912 3.859 3.848 1.564.936 3.337 1.351 5.423 1.351h7.092c.14 0 .279-.092.418-.184a2.02 2.02 0 0 1 .208-.128c.209-.103.313-.311.313-.623v-3.224c0-.139-.093-.278-.186-.416-.045-.07-.092-.139-.127-.208-.104-.208-.313-.312-.626-.312h-7.092c-1.356 0-2.607-.52-3.65-1.56-1.043-.936-1.565-2.184-1.565-3.64v-.208h13.872c.522 0 .938-.104 1.356-.52.313-.416.521-.832.521-1.352v-2.911c0-1.872-.521-3.64-1.46-5.304-.939-1.664-2.19-2.912-3.86-3.848-1.668-.936-3.337-1.455-5.318-1.455-1.982 0-3.65.52-5.32 1.455-1.668.936-2.92 2.184-3.858 3.848-.939 1.664-1.46 3.432-1.46 5.304v4.783c0 1.872.521 3.64 1.46 5.304zm14.393-10.4v.416h-10.534v-.416c0-1.456.52-2.704 1.564-3.743.939-1.04 2.19-1.56 3.65-1.56s2.712.52 3.755 1.56c1.043 1.04 1.565 2.287 1.565 3.743z" clip-rule="evenodd"/><path fill="#2166ae" d="m75.055 23.093-4.694 2.703c-.417.312-.73.728-.73 1.248V31.1c0 .52.522.832.939.52l4.902-2.808a.666.666 0 0 1 .626 0l10.742 6.24a.572.572 0 0 1 .313.52v12.375a.572.572 0 0 1-.313.52l-10.742 6.24a.666.666 0 0 1-.626 0l-10.743-6.24a.571.571 0 0 1-.313-.52v-30.99c0-.52-.312-1.04-.73-1.248L48.563 6.974a1.256 1.256 0 0 0-1.46 0L31.98 15.709c-.417.312-.73.728-.73 1.248v17.47c0 .52.313 1.04.73 1.249l15.123 8.735a1.256 1.256 0 0 0 1.46 0l4.694-2.704c.417-.312.73-.728.73-1.248v-4.055c0-.52-.522-.832-.939-.52l-4.902 2.807a.667.667 0 0 1-.626 0l-10.742-6.239a.572.572 0 0 1-.313-.52V19.453c0-.208.104-.416.313-.52l10.742-6.24a.667.667 0 0 1 .626 0l11.056 6.344v31.406c0 .52.312 1.04.73 1.247l15.123 8.736a1.256 1.256 0 0 0 1.46 0l15.123-8.736c.417-.312.73-.728.73-1.247V33.076c0-.52-.313-1.04-.73-1.248l-15.123-8.735c-.417-.208-1.043-.208-1.46 0z"/></svg>