<svg xmlns="http://www.w3.org/2000/svg" width="250" height="38.322" fill="none" viewBox="0 0 312.5 47.902"><g clip-path="url(#a)" transform="translate(12.089 -19.161) scale(1.19756)"><path fill="url(#b)" fill-rule="evenodd" d="M194.103 20h-5.298v5.298h5.298zM92.483 44.122c-.71 2.82-3.726 3.432-6.197 3.432-2.662 0-4.432-.654-5.409-1.999-.849-1.168-1.007-2.755-1.03-4.059H97.56c0-4.682-1.139-8.68-3.045-10.897-1.873-2.178-4.64-3.282-8.226-3.282-7.416 0-11.337 4.52-11.337 13.075 0 2.025.332 4.938 1.915 7.307 1.882 2.822 5.053 4.252 9.422 4.252 2.86 0 5.38-.717 7.29-2.073 1.945-1.38 3.152-3.366 3.51-5.756h-4.604Zm-6.197-12.476c3.879 0 5.662 1.75 6.113 6.025H79.948c.469-4.22 2.374-6.025 6.338-6.025zM125.4 30.56c2.001-2.125 4.894-3.204 8.598-3.204 3.703 0 6.596 1.077 8.597 3.204 1.998 2.124 3.012 5.191 3.012 9.118 0 3.928-1.014 6.995-3.012 9.118C140.593 50.921 137.7 52 133.997 52c-3.704 0-6.597-1.077-8.598-3.205-1.998-2.123-3.012-5.19-3.012-9.118 0-3.927 1.014-6.994 3.012-9.117zm13.716 15.198c1.428-1.598 1.727-4.189 1.727-6.08 0-1.893-.3-4.485-1.727-6.081-1.084-1.213-2.806-1.967-5.118-1.967-2.313 0-4.035.754-5.119 1.967-1.428 1.597-1.727 4.188-1.727 6.08 0 1.892.3 4.484 1.727 6.08 1.084 1.215 2.806 2.106 5.119 2.106 2.312 0 4.034-.892 5.118-2.105zM33.489 51.6v-5.875C31.726 48.877 28.17 52 24.253 52c-2.69 0-4.786-.739-6.227-2.198C16.7 48.462 16 46.54 16 44.247c0-1.851.725-3.303 2.135-4.628 3.561-3.351 10.167-3.224 15.344-2.933v-.003c-.022-1.357-.106-5.376-5.866-5.376h-.073c-1.2-.002-5.385-.01-6.392 3.77h-4.18c.942-4.618 4.849-7.677 10.859-7.677 6.632 0 10.294 2.346 10.294 13.182v11.019Zm-.281-11.318c-3.045 5.775-6.119 7.883-8.837 7.893-2.653.01-4.351-1.155-4.351-3.624 0-2.855 2.522-3.72 4.614-4.106 2.452-.452 6.814-.505 8.574-.164zm31.514 7.21-3.836-16.151c-.322-1.614-2.338-2.612-4.02-2.612h-.456c-1.576 0-3.475.79-3.92 2.526L48.556 47.51l-4.55-19.563h-4.524l5.046 21.259c.365 1.49 1.747 2.529 3.365 2.529h1.438c1.617 0 3.002-1.04 3.366-2.53l3.942-15.87 3.944 15.87c.362 1.49 1.745 2.53 3.365 2.53h1.532c1.618 0 3-1.04 3.365-2.53l5.045-21.258h-4.623Zm102.274-15c1.201-2.886 4.828-4.818 8.024-4.818v.002c5.896 0 9.553 3.803 9.553 10.173V51.6h-5.447V38.437c0-3.865-1.031-5.902-4.388-5.902-1.826 0-5.627 1.075-5.627 5.568V51.6h-5.447V38.437c0-4.325-.906-6.174-4.609-6.174-1.883 0-5.247 1.347-5.247 5.84V51.6h-5.311V27.947h4.768v2.941c1.293-2.08 3.609-3.213 6.359-3.213 5.094 0 6.441 2.361 7.372 4.817zM188.805 51.6h5.298V27.947h-5.298zm-83.476-17.486c0 1.146.425 2.558 4.806 3.316v.001c6.975 1.054 9.951 3.33 9.951 7.609 0 3.188-2.506 6.91-9.572 6.91-3.013 0-5.603-.9-7.489-2.604-1.679-1.517-2.696-3.615-2.889-5.938h4.832c.333 2.856 2.334 4.366 5.548 4.366 2.801 0 4.62-1.004 4.62-2.636 0-2.109-.952-2.853-5.157-3.62-7.277-1.418-9.35-3.783-9.35-7.536 0-1.867.664-3.457 2.195-4.603 1.649-1.233 4.116-2.021 7.132-2.021 3.48 0 6.094 1.07 7.768 2.91 1.069 1.176 1.726 2.683 1.953 4.483h-4.822c-.283-2.831-2.049-3.384-4.899-3.384s-4.627 1.103-4.627 2.747zM210.57 46.752a6.423 6.423 0 0 0 1.76-.405l.002-.001c.091-.036.18-.071.27-.11l1.539 4.673a13.014 13.014 0 0 1-4.367.711h-.022c-3.267 0-6.277-1.207-8.477-3.4-2.24-2.233-3.476-5.348-3.481-8.758-.006-3.408 1.219-6.515 3.449-8.745 2.188-2.189 5.189-3.403 8.446-3.403h.025c1.5-.013 2.99.232 4.407.724l-1.516 4.6a7.316 7.316 0 0 0-2.786-.55c-4.049 0-7.217 3.29-7.217 7.35 0 4.059 3.168 7.35 7.217 7.35.167 0 .33-.008.494-.018.082-.005.163-.011.243-.018zm14.163-13.43a.132.132 0 0 0-.042-.081.133.133 0 0 0-.086-.033h-2.334l1.651-1.656a.136.136 0 0 0 .038-.084.132.132 0 0 0-.029-.088 3.537 3.537 0 0 0-.27-.303 3.966 3.966 0 0 0-.301-.272.134.134 0 0 0-.089-.029.125.125 0 0 0-.084.039l-1.651 1.654v-2.34a.129.129 0 0 0-.114-.131 3.829 3.829 0 0 0-.808 0 .132.132 0 0 0-.114.13v2.341l-1.651-1.654a.127.127 0 0 0-.172-.01 3.762 3.762 0 0 0-.572.575.126.126 0 0 0-.028.088.119.119 0 0 0 .038.084l1.65 1.656h-2.334a.123.123 0 0 0-.085.033.126.126 0 0 0-.042.081c-.03.27-.03.542 0 .811a.132.132 0 0 0 .042.082.13.13 0 0 0 .085.032h2.334l-1.65 1.655a.134.134 0 0 0-.009.174 3.76 3.76 0 0 0 .574.574.127.127 0 0 0 .172-.01l1.651-1.654v2.34c0 .032.012.063.032.087.021.023.051.039.082.043a3.628 3.628 0 0 0 .809 0 .13.13 0 0 0 .115-.13V34.99l1.65 1.655a.13.13 0 0 0 .173.01c.209-.17.4-.36.567-.571a.13.13 0 0 0 .029-.089.133.133 0 0 0-.037-.085l-1.65-1.655h2.334c.031 0 .062-.01.085-.033.023-.02.04-.05.042-.081.03-.272.032-.545.003-.817zm-.073 11.945a3.54 3.54 0 0 1-3.535 3.544 3.54 3.54 0 0 1-3.535-3.544 3.54 3.54 0 0 1 3.535-3.544 3.54 3.54 0 0 1 3.535 3.544z" clip-rule="evenodd" style="fill:url(#b)"/></g><defs><linearGradient id="b" x1="224.758" x2="15.95" y1="52" y2="36.675" gradientUnits="userSpaceOnUse"><stop offset=".061" stop-color="#040308"/><stop offset=".96" stop-color="#595963"/></linearGradient><clipPath id="a"><path fill="#fff" d="M16 20h208.758v32H16z"/></clipPath></defs></svg>