<svg viewBox="0 0 300 83.077" width="250" height="69.231" xmlns="http://www.w3.org/2000/svg"><path d="M60.335 64.243c.778-.404 1.698.173 1.698 1.065v9.65c0 .891-.92 1.468-1.698 1.065l-7.137-3.706-7.138 3.706c-.777.403-1.698-.174-1.698-1.065v-9.65c0-.892.921-1.469 1.698-1.065l7.138 3.706zm-7.137-57.32a4.514 4.514 0 014.511 4.517 4.517 4.517 0 01-2.631 4.107v6.403h9.062c9.515 0 17.255 7.751 17.255 17.278v4.595c0 9.527-7.74 17.278-17.255 17.278H42.256C32.74 61.1 25 53.35 25 43.823v-4.595c0-9.527 7.741-17.278 17.256-17.278h9.062v-6.403a4.517 4.517 0 01-2.632-4.107 4.514 4.514 0 014.512-4.517zm145.892 18.58c2.28-.037 4.44.356 6.483 1.177 2.042.822 3.792 1.95 5.252 3.383 1.458 1.433 2.602 3.15 3.432 5.149.83 2 1.227 4.113 1.19 6.34.037 2.228-.36 4.341-1.19 6.34-.83 2-1.974 3.712-3.432 5.136-1.46 1.424-3.21 2.547-5.252 3.368-2.043.822-4.204 1.215-6.483 1.178-2.28.037-4.44-.356-6.483-1.178-2.042-.821-3.793-1.944-5.252-3.368-1.459-1.424-2.603-3.136-3.432-5.136-.83-1.999-1.227-4.112-1.19-6.34-.037-2.227.36-4.34 1.19-6.34.829-2 1.973-3.716 3.432-5.15 1.46-1.432 3.21-2.56 5.252-3.382 2.042-.821 4.203-1.214 6.483-1.177zm-87.842 0c1.878 0 3.597.392 5.156 1.177 1.559.786 2.849 1.909 3.87 3.37v-3.753h9.41v30.51h-9.41v-3.78a10.335 10.335 0 01-3.87 3.37c-1.56.784-3.278 1.177-5.156 1.177-2.809 0-5.343-.703-7.605-2.109-2.26-1.406-4.02-3.332-5.279-5.779-1.258-2.446-1.887-5.158-1.887-8.134s.63-5.687 1.887-8.134c1.259-2.447 3.018-4.378 5.28-5.793 2.26-1.415 4.795-2.122 7.604-2.122zm31.676.794l5.306 19.007 5.334-18.678h8.616l5.334 18.678 5.307-19.007h9.984l-10.312 30.51h-9.464l-5.28-16.789-5.252 16.79h-9.464l-10.312-30.511zm93.464-.575c1.422 0 2.635.191 3.638.575v8.627c-1.131-.346-2.407-.52-3.83-.52-2.297 0-4.148.662-5.552 1.985-1.405 1.324-2.107 3.1-2.107 5.327v15.091h-9.409v-30.51h9.41v4.464a8.285 8.285 0 013.159-3.684c1.413-.903 2.977-1.355 4.69-1.355zm17.058-11.284V39.06l10.202-12.763h10.75l-12.336 15.2L275 56.807h-10.86l-10.694-12.9v12.9h-9.41v-42.37zM64.14 31.36H42.256c-4.34 0-7.857 3.522-7.857 7.867v4.595c0 4.345 3.518 7.867 7.857 7.867H64.14c4.339 0 7.856-3.522 7.856-7.867v-4.595c0-4.345-3.517-7.867-7.856-7.867zm48.694 2.276c-2.188 0-3.966.744-5.334 2.232-1.367 1.488-2.051 3.382-2.051 5.683 0 2.3.684 4.19 2.051 5.67 1.368 1.478 3.146 2.218 5.334 2.218 2.189 0 3.967-.74 5.334-2.219 1.368-1.478 2.052-3.368 2.052-5.669 0-2.3-.684-4.195-2.052-5.683-1.367-1.488-3.145-2.232-5.334-2.232zm86.256.11c-2.207 0-3.99.73-5.348 2.19-1.358 1.462-2.037 3.333-2.037 5.615 0 2.283.679 4.15 2.037 5.6 1.359 1.452 3.141 2.178 5.348 2.178 2.206 0 3.989-.726 5.348-2.177 1.358-1.452 2.037-3.318 2.037-5.6 0-2.283-.68-4.154-2.037-5.615-1.36-1.461-3.142-2.192-5.348-2.192zM44.55 36.998a4.514 4.514 0 014.512 4.517 4.514 4.514 0 01-4.512 4.518 4.514 4.514 0 01-4.511-4.518A4.514 4.514 0 0144.55 37zm17.295 0a4.514 4.514 0 014.512 4.517 4.514 4.514 0 01-4.512 4.518 4.514 4.514 0 01-4.512-4.518A4.514 4.514 0 0161.845 37z" fill="currentColor" fill-rule="evenodd"/></svg>