<svg xmlns="http://www.w3.org/2000/svg" width="250" height="41.496" viewBox="0 0 312.5 51.87"><path fill-rule="evenodd" d="M92.976 34.988h4.016c2.312 0 5.617-.462 5.617-3.764 0-2.628-1.812-3.551-5.439-3.551h-4.194zm0-11.15h3.982c2.986 0 4.585-1.242 4.585-3.41 0-2.237-1.6-3.123-4.976-3.123h-3.591zM88.497 13.61h9.811c3.805 0 7.714 1.74 7.714 6.321 0 2.841-1.778 4.722-4.372 5.503v.071c3.164.427 5.44 2.558 5.44 5.931 0 5.47-4.766 7.314-9.527 7.314h-9.066zm21.258 8.097h4.088v2.84h.071c.925-1.952 2.737-3.338 4.977-3.338.32 0 .747.035 1.031.107v3.906a4.989 4.989 0 0 0-1.316-.178c-3.838 0-4.585 3.338-4.585 4.581v9.125h-4.266V21.708m21.898 9.267h-.96c-2.701 0-6.505.32-6.505 2.841 0 1.633 1.529 2.131 2.986 2.131 2.915 0 4.479-1.669 4.479-4.367v-.606zm.07 5.611h-.106c-.852 1.49-2.878 2.592-5.295 2.592-2.738 0-6.4-1.314-6.4-5.29 0-5.078 6.4-5.79 11.73-5.79v-.425c0-2.096-1.776-3.126-3.909-3.126-1.813 0-3.554.854-4.657 1.954l-2.203-2.592c1.919-1.776 4.62-2.698 7.217-2.698 6.114 0 7.606 3.763 7.606 7.172V38.75h-3.982zm8.036 2.165h4.266V21.708h-4.266zm2.097-25.387c1.564 0 2.772 1.1 2.772 2.555 0 1.457-1.208 2.556-2.772 2.556-1.563 0-2.701-1.206-2.701-2.556 0-1.349 1.138-2.557 2.701-2.557zm6.363 8.344h4.053v2.734h.07c.747-1.704 2.773-3.23 5.298-3.23 4.443 0 6.292 3.408 6.292 6.886v10.653h-4.266v-9.445c0-2.023-.462-4.545-3.201-4.545-2.7 0-3.98 2.344-3.98 4.616v9.374h-4.266V21.708m31.923-2.841c-.96-1.244-2.845-2.167-4.62-2.167-2.064 0-4.446.994-4.446 3.444 0 2.31 1.957 2.984 4.8 3.871 3.235.995 7.36 2.416 7.36 7.351 0 5.398-4.232 8.026-9.173 8.026-3.271 0-6.647-1.244-8.638-3.587l3.199-2.983c1.245 1.704 3.52 2.77 5.51 2.77 2.097 0 4.55-1.03 4.55-3.73 0-2.627-2.63-3.372-5.795-4.367-3.056-.959-6.362-2.45-6.362-7.137 0-5.113 4.656-7.385 9.206-7.385 2.525 0 5.404.887 7.323 2.697l-2.914 3.197m3.876 6.25v-3.41h2.986v-4.934h4.194v4.935h4.265v3.408h-4.265v7.919c0 1.527.356 2.628 2.238 2.628.57 0 1.316-.107 1.814-.356l.142 3.339c-.747.283-1.883.461-2.845.461-4.513 0-5.543-2.77-5.543-6.036v-7.955h-2.988m24.778 5.859h-.96c-2.702 0-6.506.32-6.506 2.841 0 1.633 1.53 2.131 2.986 2.131 2.915 0 4.48-1.669 4.48-4.367v-.606zm.072 5.611h-.107c-.854 1.49-2.88 2.592-5.297 2.592-2.737 0-6.398-1.314-6.398-5.29 0-5.078 6.398-5.79 11.73-5.79v-.425c0-2.096-1.778-3.126-3.91-3.126-1.813 0-3.555.854-4.656 1.954l-2.205-2.592c1.92-1.776 4.62-2.698 7.217-2.698 6.114 0 7.606 3.763 7.606 7.172V38.75h-3.98zm5.655-11.47v-3.408h2.986v-4.935h4.195v4.935h4.266v3.408h-4.266v7.919c0 1.527.355 2.628 2.239 2.628.569 0 1.316-.107 1.812-.356l.144 3.339c-.747.283-1.885.461-2.845.461-4.515 0-5.545-2.77-5.545-6.036v-7.955h-2.986m14.646 13.635h4.265V21.708h-4.265zm2.098-25.387c1.564 0 2.772 1.1 2.772 2.555 0 1.457-1.208 2.556-2.772 2.556-1.565 0-2.702-1.206-2.702-2.556 0-1.349 1.137-2.557 2.702-2.557zm14.077 22.334c3.377 0 4.94-2.875 4.94-5.54 0-2.663-1.563-5.468-4.94-5.468-3.378 0-4.942 2.805-4.942 5.468 0 2.664 1.564 5.54 4.942 5.54zm0-14.488c5.154 0 9.277 3.586 9.277 8.948s-4.123 9.091-9.277 9.091c-5.155 0-9.278-3.729-9.278-9.09 0-5.363 4.123-8.95 9.278-8.95zm11.91.498h4.051v2.734h.071c.746-1.704 2.772-3.23 5.296-3.23 4.444 0 6.292 3.408 6.292 6.886v10.653h-4.265v-9.445c0-2.023-.462-4.545-3.2-4.545-2.701 0-3.98 2.344-3.98 4.616v9.374h-4.266V21.708m-209.04 3.145L35.72 17.49l12.491-7.968v15.33Zm-13.28 8.689 13.28-5.616.001 13.25-13.279-7.634zm6.551 11.06-6.642-8.927 12.736 7.28zm-7.148-25.766L47.14 26.36l-13.872 5.872zm9.36-11.59 3.301.815-8.925 5.676zm5.636-.556-5.625-1.468a1.186 1.186 0 0 0-1.175.369l-9.684 11.242a1.37 1.37 0 0 0-.321.767l-1.272 15.955a1.325 1.325 0 0 0 .249.867l8.737 11.797a1.156 1.156 0 0 0 1.23.423l7.87-2.192a1.135 1.135 0 0 0 .837-1.093l-.003-16.201.003-19.375a1.13 1.13 0 0 0-.845-1.092Zm7.021 19.668 12.805-7.524 1.067 13.398zm5.656 18.244-6.093-1.648 12.737-7.28zm-6.729-16.676 13.28 5.616-13.28 7.634zM67.77 17.488l-12.49 7.366-.001-15.333 12.49 7.966ZM59.796 7.245l5.623 6.494-8.922-5.68Zm10.848 9.588L60.96 5.591a1.186 1.186 0 0 0-1.175-.37L54.16 6.69a1.13 1.13 0 0 0-.845 1.092l.001 19.375v16.201c0 .51.341.96.835 1.093l7.87 2.192a1.156 1.156 0 0 0 1.23-.421l8.736-11.799a1.328 1.328 0 0 0 .25-.867L70.966 17.6a1.375 1.375 0 0 0-.321-.767Zm207.279 2.124a1.399 1.399 0 0 0 .54-.107c.171-.07.257-.215.257-.432 0-.2-.078-.332-.235-.399a1.245 1.245 0 0 0-.491-.1h-.597v1.038zm-1.181-1.592h1.28c.17 0 .337.02.498.058a1.326 1.326 0 0 1 .434.184.978.978 0 0 1 .306.327.993.993 0 0 1 .114.497.919.919 0 0 1-.228.646 1.137 1.137 0 0 1-.613.335l.983 1.59h-.796l-.853-1.519h-.47v1.52h-.655zm-1.465 1.834c0 .37.072.72.214 1.052.142.33.336.622.582.873a2.68 2.68 0 0 0 1.934.803 2.678 2.678 0 0 0 1.936-.803 2.84 2.84 0 0 0 .582-.875 2.638 2.638 0 0 0 .214-1.05c0-.38-.071-.734-.214-1.066a2.765 2.765 0 0 0-.582-.867 2.752 2.752 0 0 0-.869-.582 2.687 2.687 0 0 0-1.067-.214 2.734 2.734 0 0 0-2.518 1.663 2.688 2.688 0 0 0-.212 1.066zm-.51 0a3.203 3.203 0 0 1 .952-2.28c.294-.29.637-.518 1.03-.689a3.11 3.11 0 0 1 1.26-.256c.444 0 .864.084 1.258.256.394.17.737.4 1.032.69a3.21 3.21 0 0 1 .951 2.279c0 .444-.084.862-.255 1.25a3.235 3.235 0 0 1-2.988 1.946 3.27 3.27 0 0 1-2.29-.93 3.228 3.228 0 0 1-.696-1.015 3.066 3.066 0 0 1-.255-1.251z" style="stroke-width:1.48204"/></svg>