<svg viewBox="0 0 300 49.795" width="250" height="41.496" xmlns="http://www.w3.org/2000/svg"><path d="M86.726 33.951h4.016c2.312 0 5.617-.462 5.617-3.764 0-2.628-1.812-3.551-5.439-3.551h-4.194zm0-11.15h3.982c2.986 0 4.585-1.243 4.585-3.41 0-2.238-1.6-3.124-4.976-3.124h-3.591zm-4.479-10.227h9.811c3.805 0 7.714 1.74 7.714 6.32 0 2.842-1.778 4.723-4.372 5.504v.07c3.164.428 5.44 2.559 5.44 5.932 0 5.469-4.766 7.314-9.527 7.314h-9.066zm21.258 8.096h4.088v2.84h.071c.925-1.952 2.737-3.338 4.977-3.338.32 0 .747.036 1.031.107v3.907a4.989 4.989 0 00-1.316-.178c-3.838 0-4.585 3.337-4.585 4.58v9.126h-4.266V20.67m21.898 9.268h-.96c-2.701 0-6.505.32-6.505 2.84 0 1.634 1.529 2.132 2.986 2.132 2.915 0 4.479-1.669 4.479-4.368v-.606zm.07 5.61h-.106c-.852 1.492-2.878 2.593-5.295 2.593-2.738 0-6.4-1.315-6.4-5.291 0-5.078 6.4-5.79 11.73-5.79v-.424c0-2.096-1.776-3.126-3.91-3.126-1.812 0-3.553.854-4.656 1.953l-2.203-2.592c1.919-1.775 4.62-2.697 7.217-2.697 6.114 0 7.606 3.763 7.606 7.171v10.369h-3.982zm8.036 2.166h4.266V20.67h-4.266zm2.097-25.388c1.564 0 2.772 1.1 2.772 2.556s-1.208 2.556-2.772 2.556c-1.563 0-2.701-1.206-2.701-2.556s1.138-2.557 2.701-2.557zm6.363 8.344h4.053v2.735h.07c.747-1.705 2.773-3.231 5.298-3.231 4.443 0 6.292 3.409 6.292 6.887v10.653h-4.266v-9.445c0-2.023-.462-4.546-3.201-4.546-2.7 0-3.98 2.345-3.98 4.617v9.374h-4.266V20.67m31.923-2.84c-.96-1.244-2.845-2.167-4.62-2.167-2.064 0-4.446.994-4.446 3.444 0 2.309 1.957 2.983 4.8 3.87 3.235.995 7.36 2.417 7.36 7.352 0 5.397-4.232 8.025-9.173 8.025-3.271 0-6.647-1.243-8.638-3.586l3.199-2.984c1.245 1.705 3.52 2.77 5.51 2.77 2.097 0 4.55-1.03 4.55-3.729 0-2.627-2.63-3.373-5.795-4.367-3.056-.96-6.362-2.45-6.362-7.138 0-5.113 4.656-7.385 9.206-7.385 2.525 0 5.404.888 7.323 2.698l-2.914 3.196m3.876 6.25V20.67h2.986v-4.935h4.194v4.935h4.265v3.41h-4.265v7.918c0 1.526.356 2.627 2.238 2.627.57 0 1.316-.106 1.814-.355l.142 3.339c-.747.283-1.883.46-2.845.46-4.513 0-5.543-2.77-5.543-6.036V24.08h-2.988m24.778 5.859h-.96c-2.702 0-6.506.32-6.506 2.84 0 1.634 1.53 2.132 2.986 2.132 2.915 0 4.48-1.669 4.48-4.368v-.606zm.072 5.61h-.107c-.854 1.492-2.88 2.593-5.297 2.593-2.737 0-6.398-1.315-6.398-5.291 0-5.078 6.398-5.79 11.73-5.79v-.424c0-2.096-1.778-3.126-3.91-3.126-1.813 0-3.555.854-4.656 1.953l-2.205-2.592c1.92-1.775 4.62-2.697 7.217-2.697 6.114 0 7.606 3.763 7.606 7.171v10.369h-3.98zm5.655-11.469V20.67h2.986v-4.935h4.195v4.935h4.266v3.41h-4.266v7.918c0 1.526.355 2.627 2.239 2.627.569 0 1.316-.106 1.812-.355l.144 3.339c-.747.283-1.885.46-2.845.46-4.515 0-5.545-2.77-5.545-6.036V24.08h-2.986m14.646 13.635h4.265V20.67h-4.265zm2.098-25.388c1.564 0 2.772 1.1 2.772 2.556s-1.208 2.556-2.772 2.556c-1.565 0-2.702-1.206-2.702-2.556s1.137-2.557 2.702-2.557zm14.077 22.335c3.377 0 4.94-2.875 4.94-5.54 0-2.663-1.563-5.469-4.94-5.469-3.378 0-4.942 2.806-4.942 5.469 0 2.663 1.564 5.54 4.942 5.54zm0-14.489c5.154 0 9.277 3.587 9.277 8.949s-4.123 9.09-9.277 9.09c-5.155 0-9.278-3.728-9.278-9.09s4.123-8.949 9.278-8.949zm11.91.498h4.051v2.735h.071c.746-1.705 2.772-3.231 5.296-3.231 4.444 0 6.292 3.409 6.292 6.887v10.653h-4.265v-9.445c0-2.023-.462-4.546-3.2-4.546-2.701 0-3.98 2.345-3.98 4.617v9.374H251V20.67m-209.04 3.145l-12.49-7.363 12.491-7.967v15.33zm-13.28 8.69l13.28-5.616.001 13.25-13.279-7.635zm6.551 11.06l-6.642-8.928 12.736 7.28zm-7.148-25.767l12.805 7.525-13.872 5.871zm9.36-11.59l3.301.816L31.82 12.7zm5.636-.555l-5.625-1.469a1.186 1.186 0 00-1.175.37l-9.684 11.242a1.37 1.37 0 00-.321.766l-1.272 15.956a1.325 1.325 0 00.249.867l8.737 11.797a1.156 1.156 0 001.23.422l7.87-2.192a1.135 1.135 0 00.837-1.092l-.003-16.202.003-19.374a1.13 1.13 0 00-.845-1.093zM50.1 25.32l12.805-7.524 1.067 13.397zm5.656 18.244l-6.093-1.648 12.737-7.28zm-6.729-16.676l13.28 5.615-13.28 7.634zM61.52 16.451L49.03 23.817l-.001-15.333 12.49 7.966zM53.546 6.207l5.623 6.494-8.922-5.679zm10.848 9.589L54.71 4.553a1.186 1.186 0 00-1.175-.369L47.91 5.651a1.13 1.13 0 00-.845 1.093l.001 19.374V42.32c0 .51.341.959.835 1.092l7.87 2.192a1.156 1.156 0 001.23-.42l8.736-11.8a1.328 1.328 0 00.25-.866l-1.27-15.956a1.375 1.375 0 00-.321-.766zm207.279 2.124a1.399 1.399 0 00.54-.107c.171-.071.257-.215.257-.433 0-.2-.078-.332-.235-.398a1.245 1.245 0 00-.491-.1h-.597v1.038zm-1.181-1.592h1.28c.17 0 .337.02.498.058a1.326 1.326 0 01.434.184.978.978 0 01.306.327.993.993 0 01.114.497.919.919 0 01-.228.646 1.137 1.137 0 01-.613.335l.983 1.59h-.796l-.853-1.52h-.47v1.52h-.655zm-1.465 1.833c0 .37.072.72.214 1.053.142.33.336.622.582.872a2.68 2.68 0 001.934.804 2.678 2.678 0 001.936-.804 2.84 2.84 0 00.582-.874 2.638 2.638 0 00.214-1.05c0-.38-.071-.734-.214-1.066a2.765 2.765 0 00-.582-.867 2.752 2.752 0 00-.869-.583 2.687 2.687 0 00-1.067-.213 2.734 2.734 0 00-2.518 1.663 2.688 2.688 0 00-.212 1.065zm-.51 0a3.203 3.203 0 01.952-2.28c.294-.29.637-.518 1.03-.688a3.11 3.11 0 011.26-.257c.444 0 .864.085 1.258.257.394.17.737.4 1.032.689a3.21 3.21 0 01.951 2.28c0 .444-.084.862-.255 1.25a3.235 3.235 0 01-2.988 1.946 3.27 3.27 0 01-2.29-.93 3.228 3.228 0 01-.696-1.016 3.066 3.066 0 01-.255-1.25z" fill-rule="evenodd"/></svg>