<svg xmlns="http://www.w3.org/2000/svg" id="LOGO" version="1.1" viewBox="0 0 2499.975 234.698"><defs id="defs1"><style id="style1">.cls-1{fill:#d20515;}.cls-2{fill:#fff;}</style></defs><g id="g2" transform="translate(95.022 -41.277)"><path id="rect1" d="M56.69 56.69H311.81V260.78H56.69z" class="cls-1"/><path id="path1" d="M267 164.14c.14.51-.31.86-1.23 1.53l-.56.31.19.37c.13.24-.09.6-.48.79l-.84.42c-.38.2-.8.16-.92-.08l-.18-.34-1.06.52.17.36c.12.24-.11.6-.51.78l-.85.4c-.39.18-.8.13-.92-.12l-.15-.32c-3.27 1.54-6.93 3.17-10.7 4.92l.21.48c.13.24-.11.59-.49.77l-.86.4c-.39.18-.81.12-.91-.12l-.23-.48-1.21.59.23.49c.11.25-.11.59-.51.78l-.85.39c-.4.18-.8.13-.92-.11l-.22-.47c-1.71.68-3.58 1-4.94-1.57-.58-1.18-.61-3.89-1.06-5.33a1.43 1.43 0 0 0-1.1-.88c-16.62-3.19-22.25.36-32.9-2.27-3.35-.82-5.17-3.9-9.3-3.95-9-.27-11.65-.14-21.41-.51-.42 1.41-.47 1.72-.47 1.72l-34.3-.16 5.24 2.57 1.68 15.13s-1.39.4-1.79.45c.33 3 .65 7.1.82 10.78.15 3.3.32 6.74.29 8.93a8.61 8.61 0 0 1-1 4.09 9.19 9.19 0 0 1-2.57 2.79c-.31.23-1.64 1.13-3.17 2-1.53.87-3.37 1.87-4.3 2.31a10.87 10.87 0 0 0 .49 1.18c-20.86 10.07-46.71 13.51-55.08 29.53-1 1.86-4.37.89-4.47-1.11v-3.24h-.3c-.27 0-.48-.37-.45-.81v-.94c0-.43.26-.77.52-.76h.36a18.15 18.15 0 0 1 .53-2.74l-.32-.11c-.25-.09-.33-.5-.19-.91l.31-.88c.15-.41.46-.66.73-.58l.31.11c1.49-3.47 4.36-5 5.7-8.29l-.21-.08c-.27-.1-.35-.5-.2-.91l.31-.89c.15-.41.47-.66.73-.57l.23.08c.2-.48.43-1 .69-1.53l-.28-.19c-.24-.15-.24-.56 0-.93l.51-.79c.22-.36.59-.54.82-.39l.12.07h.12c.07 0 .1 0 .17-.08a5.62 5.62 0 0 1 .41-.41 3.79 3.79 0 0 1 4.42-.06c1.31.79 6.43 3.71 11.36-.72 8.13-7.3 17.64-17.21 24.79-17.55-1.94-4.18-5.31-12.94-5.69-16.17l-2.4-.51c-1.25-2.69-4.29-15.12-5.15-24.46 0 0-1-10.07 0-13.61-.55-.06-1.56.77-1.84.78-1.31-3.21 2.94-30.34 7.15-38.24l6.45-2.57c-.67-.08-5.33-.29-17.59-1.29-6.83 6.05-14.74 12.58-18.75 16.14-.68.5-1.82 4.38-1.82 4.38s-2 1.78-3.91 3.09c-2.48 1.74-8.55 3.08-9.87 1-.3-.51-.25-.73 0-1 .94-1 4.49-2.68 5.69-4.93-1.94 1-4.1 2-5.79 1.83-.74 0-1.12-1.85-.17-2.18 2.58-1.09 4.62-1.56 6.14-3.7 1.52-2.14 3.24-3.43 5.58-3.48 0 0 11.4-14.89 18.12-22 1.86-1.94 5.31-1.3 5.31-1.3l.58-2.26s23-2.75 33.76.8c-.25-6.51 2.67-15.16 12.86-15.16 5.24 0 12.95 4.63 14 10.25.32 1.73-.68 2.88-1.21 5.07-.91 3.31.36 7 0 8.15-.3.95-1.37.87-2.3 2.16a26.94 26.94 0 0 0-2.11 4l-1.37 3.21-7.18-.52c-2.62 5.67-8 17.22-9.9 28.67 5.64.48 31.2 4.18 31.2 4.18l.62 2.08s10.77 1.29 19.58 5.49c2 .48 6.92-.26 10.17 1.23.22-.13.76-.68 1-.83 11.49 3.54 21 9.56 32.07 12.24 0 0 5.18 1.26 6.92 1.6a69.74 69.74 0 0 0 8.89 1.14c3.55.28 5.52.23 8.11.38 1.84.11 4.08-.2 4.81 2.48m16.45-34.94a14.17 14.17 0 1 0 14.17 14.17 14.17 14.17 0 0 0-14.2-14.17z" class="cls-2"/><path id="path2" d="M561.28 204c0 35.4-16.56 54.24-61.38 54.24H396.85v-199h99.34c46.24 0 62.23 18.27 62.23 52 0 25.69-9.71 37.4-37.11 44.25l-5.14 1.43 4.57.86c30.83 6.79 40.54 18.22 40.54 46.22zm-117-61.66h41.68c16.56 0 24-7.14 24-24.27 0-18-6.85-25.12-24-25.12h-41.72zM513 199.12c0-18.27-7.42-26-24.27-26h-44.49v51.38h44.53c17.7.02 24.23-7.4 24.23-25.38zm80.64-5.71V59.24h49.67V192c0 22 10 30.26 36.83 30.26S717 214 717 192V59.24h49.67v134.17c0 46.82-27.12 68.23-86.5 68.23-59.38 0-86.49-21.41-86.49-68.23zM999.61 59.24v199H939.1l-84.5-143.91v143.88h-46.25v-199h60.52l84.5 143.88V59.24zm40.88 0h88.78c69.65 0 87.92 28.55 87.92 99.34 0 68.8-20 99.63-87.92 99.63h-88.78zm87.35 161c29.12 0 38.54-15.13 38.54-61.66 0-46.25-9.42-61.38-38.54-61.38h-37.68v123zm125.52-161h139.31v38H1303v42h74.51v37.4H1303v43.68h91.64v38h-141.28zm170.73 191.26v-38.82a204.71 204.71 0 0 0 66.51 10.85c22.84 0 32.83-6 32.83-21.41 0-13.42-4.28-17.41-22.55-21.12l-33.11-6.85c-34.54-7.14-46-21.12-46-55.1 0-43.67 25.69-62.52 77.36-62.52 23.41 0 45.39 4 63.37 10.85v38.82a181.5 181.5 0 0 0-60.5-10.56c-24.55 0-32.83 6.56-32.83 22 0 12.84 5.71 16.56 21.69 20l32.26 6.85c37.4 8 47.67 20.55 47.67 56.24 0 42.54-26.26 62-79.93 62a198.77 198.77 0 0 1-66.77-11.23zm181.6-191.26h49.67v161h85.36v38h-135zm166.06 0h49.67v199h-49.67zm255.37 83.93v108.19c-18.56 6.28-43.11 10.28-68.8 10.28-69.08 0-101.63-30.55-101.63-103.06 0-71.94 32.54-103.06 101.63-103.06 24.55 0 48 4 65.65 11.14v38.54c-19.41-6.57-41.11-10.56-61.66-10.56-41.68 0-54.81 16.84-54.81 63.94 0 49.1 13.7 65.37 53.09 65.37a191.74 191.74 0 0 0 26-1.71v-44.53h-36.82v-34.54zm162.21 73.36h-77.93l-14 41.68H2048l71.08-199h63.37l70.79 199h-50zM2150.8 90.64l-28.8 89.92h57.38z"/></g></svg>