<svg xmlns="http://www.w3.org/2000/svg" width="250" height="47.358" fill="none" viewBox="0 0 312.5 59.197"><mask id="a" width="159" height="30" x="0" y="0" maskUnits="userSpaceOnUse"><path fill="#fff" d="M159 0H0v30h159z"/></mask><g mask="url(#a)" transform="translate(31.25 5.92) scale(1.5786)"><g fill="#191924"><path d="m16.906 6.611-.019-.011-.043-.014c.017.015.039.024.062.025zM16.914 6.607a.036.036 0 0 1-.008-.002v.006a.016.016 0 0 0 .008-.004ZM17.164 8.643l.032-.019.011-.007.011-.012a.18.18 0 0 0-.054.038zM16.958 6.655l-.03-.03-.022-.012c.012.02.03.036.052.042zM9.196 26.363a.161.161 0 0 0-.063.05l.02-.012c.013-.013.031-.028.043-.038ZM13.698 25.441c0-.029-.013-.024-.01.079 0-.008.003-.017.005-.025l.005-.054zM13.235 26.363a.162.162 0 0 0-.063.05l.02-.012c.013-.013.031-.028.043-.038zM6.011 26.579a.13.13 0 0 0-.066-.032l.053.027zM5.292 25.866a.224.224 0 0 0-.026-.085c.01.028.018.056.025.084Z"/></g><path fill="#fd0" d="M10.1 13.124c-.982.438-2.096.933-3.54.933a6.465 6.465 0 0 1-1.787-.256l1 10.662c.034.446.23.861.546 1.164.316.303.73.471 1.16.471 0 0 1.416.077 1.889.077.508 0 2.033-.077 2.033-.077.43 0 .844-.168 1.16-.47a1.81 1.81 0 0 0 .547-1.165l1.07-11.782c-.478-.17-.96-.283-1.504-.283-.94 0-1.699.337-2.574.727z"/><path fill="#191924" d="m1.68 8.586.017.016.01.007a.17.17 0 0 0-.027-.023Z"/><path fill="#191924" d="m18.795 7.597-.15-.79c-.135-.707-.442-1.376-1.14-1.631-.224-.082-.478-.117-.65-.287-.171-.17-.222-.432-.262-.676-.073-.448-.142-.896-.218-1.343-.065-.384-.116-.816-.286-1.169-.22-.473-.678-.75-1.133-.933a6.347 6.347 0 0 0-.713-.23C13.104.228 11.91.113 10.74.047A28.283 28.283 0 0 0 6.526.12c-1.042.099-2.14.218-3.131.593-.363.137-.736.302-1.011.593-.338.358-.448.91-.202 1.356.176.317.473.54.788.689.41.19.839.335 1.279.433 1.224.281 2.492.391 3.743.439 1.386.058 2.775.01 4.155-.142.341-.039.682-.085 1.022-.14.4-.064.657-.608.539-.988-.141-.453-.52-.629-.95-.56l-.19.029-.045.007a22.255 22.255 0 0 1-1.34.136 29.193 29.193 0 0 1-4.026.008 24.446 24.446 0 0 1-1.316-.127l-.13-.018-.029-.004-.135-.02a13.725 13.725 0 0 1-.824-.153.123.123 0 0 1-.07-.045.132.132 0 0 1 0-.161.123.123 0 0 1 .07-.046h.005a12.915 12.915 0 0 1 .954-.174h.002c.15-.01.3-.038.449-.057a27.464 27.464 0 0 1 3.9-.143 25.26 25.26 0 0 1 2.298.172l.155.02.104.016c.305.047.608.104.909.172.446.1 1.02.134 1.218.642.063.162.092.34.127.51l.044.216a.291.291 0 0 1 .276 1.76.273.273 0 0 1-.184.118h-.003l-.064.009-.064.009a37.582 37.582 0 0 1-1.8.199 40.21 40.21 0 0 1-3.6.15 40.622 40.622 0 0 1-5.35-.36l-.145-.02-.331-.05c-.37-.058-.738-.13-1.108-.192-.447-.076-.874-.038-1.278.192-.332.188-.6.478-.77.83-.174.374-.226.782-.304 1.185-.078.402-.199.836-.153 1.249.099.892.699 1.617 1.561 1.779a43.466 43.466 0 0 0 12.916.445.532.532 0 0 1 .449.163.577.577 0 0 1 .16.466l-.082.825-.493 5.002a4165.441 4165.441 0 0 1-.665 6.73c-.047.485-.054.986-.142 1.465-.14.754-.631 1.217-1.347 1.387a9.048 9.048 0 0 1-2 .243c-.746.004-1.491-.03-2.237-.026-.797.005-1.772-.072-2.387-.688-.54-.542-.615-1.39-.688-2.123-.098-.97-.196-1.94-.292-2.91l-.54-5.395-.35-3.49-.017-.174c-.042-.416-.326-.824-.772-.803-.383.018-.817.356-.773.803l.26 2.588.536 5.353.457 4.563c.03.291.057.583.088.875.168 1.592 1.337 2.45 2.785 2.691.845.142 1.712.171 2.57.186 1.1.018 2.211.062 3.293-.145 1.603-.306 2.807-1.42 2.978-3.147l.147-1.496.489-4.95.531-5.391.244-2.471a.584.584 0 0 1 .142-.329.547.547 0 0 1 .302-.176c.459-.092.897-.251 1.223-.614.52-.578.623-1.33.44-2.09zM1.548 8.13c.007-.004-.006.059-.012.088 0-.044.001-.083.012-.088Zm.044.358c.004-.003.015.012.026.03-.017-.016-.028-.029-.026-.03Zm.044.06c.024.045.016.028 0 0zm.088.074h.002c0 .002.004.005.006.008a.055.055 0 0 0-.008-.008Zm15.388-.111c-.165.163-.413.239-.658.276-2.75.425-5.54.64-8.321.545-1.99-.07-3.959-.3-5.929-.59-.193-.028-.402-.065-.535-.213-.25-.28-.127-.841-.062-1.179.06-.309.173-.72.527-.764.551-.068 1.192.174 1.737.26.657.105 1.317.188 1.979.25 2.824.269 5.696.227 8.508-.165a34.232 34.232 0 0 0 1.532-.25c.453-.084.956-.243 1.23.246.188.332.213.778.184 1.153a.653.653 0 0 1-.192.43z"/><path fill="#0d0c23" fill-rule="evenodd" d="M38.365 17.672a3.333 3.333 0 0 1-.874 1.055c-.37.299-.803.542-1.297.73a6.534 6.534 0 0 1-1.491.378c-.5.064-.986.058-1.456-.018s-.87-.231-1.2-.466l.37-3.85c.342-.118.77-.238 1.289-.361.517-.123 1.05-.211 1.597-.264a6.845 6.845 0 0 1 1.553.018c.488.064.873.22 1.155.466.153.14.283.293.389.457.106.164.17.334.194.51.059.492-.018.94-.23 1.345zm-5.383-8.203c.247-.152.544-.287.891-.404.348-.117.703-.2 1.068-.246.365-.047.72-.053 1.068-.018a2.2 2.2 0 0 1 .917.29c.265.158.462.387.591.686.13.299.165.677.106 1.134a1.596 1.596 0 0 1-.432.923 3.08 3.08 0 0 1-.882.633c-.347.17-.715.305-1.103.404-.389.1-.762.174-1.12.22-.36.047-.671.077-.936.088a14.98 14.98 0 0 1-.52.018zm7.288 5.715a3.606 3.606 0 0 0-.758-1.082 2.845 2.845 0 0 0-1.13-.676c.188-.153.374-.393.556-.721a6.353 6.353 0 0 0 .732-2.242c.047-.393.03-.73-.052-1.011-.2-.704-.515-1.255-.945-1.653a3.503 3.503 0 0 0-1.5-.827c-.57-.151-1.2-.184-1.888-.096a9.966 9.966 0 0 0-2.108.518c0-.058.005-.12.017-.184s.018-.132.018-.202c0-.176-.089-.328-.265-.457a1.225 1.225 0 0 0-.609-.23 1.11 1.11 0 0 0-.67.15c-.218.124-.368.35-.45.677a512.325 512.325 0 0 0-.283 3.288 414.425 414.425 0 0 1-.3 3.447l-.317 3.455A432.49 432.49 0 0 1 30 20.634c.035.317.124.563.265.739a.821.821 0 0 0 .494.317.94.94 0 0 0 .59-.097c.207-.1.386-.273.54-.519.47.258 1 .425 1.587.501a7.055 7.055 0 0 0 1.792 0 8.385 8.385 0 0 0 1.79-.43 7.576 7.576 0 0 0 1.607-.792 5.322 5.322 0 0 0 1.217-1.081c.33-.405.547-.841.653-1.31.106-.48.135-.961.088-1.442a4.156 4.156 0 0 0-.353-1.336zM57.486 24.465a12.27 12.27 0 0 1-.274 1.222 8.022 8.022 0 0 1-.415 1.17 3.333 3.333 0 0 1-.529.852c-.194.217-.403.308-.627.273-.176-.024-.288-.135-.335-.334-.047-.2-.047-.446 0-.739a5.41 5.41 0 0 1 .274-.993 8.628 8.628 0 0 1 1.156-2.145 4.67 4.67 0 0 1 .776-.835c.059.07.085.246.08.527a7.189 7.189 0 0 1-.106 1.002zm5.982-7.63a.884.884 0 0 0-.583-.3c-.229-.023-.461.106-.697.387-.153.282-.347.551-.582.81a7.44 7.44 0 0 1-.732.702 8.34 8.34 0 0 1-1.262.88c-.047-.375-.074-.78-.08-1.214-.006-.433.003-.873.027-1.318.035-.633.109-1.272.22-1.917a12.49 12.49 0 0 1 .486-1.9c0-.327-.077-.594-.23-.799a.974.974 0 0 0-.556-.387.976.976 0 0 0-.67.088c-.23.112-.426.314-.591.607-.141.387-.303.82-.485 1.3-.183.482-.389.97-.618 1.469-.23.499-.485.982-.768 1.45-.282.47-.59.886-.926 1.25a4.01 4.01 0 0 1-1.094.852 2.45 2.45 0 0 1-1.28.272c-.211-.058-.364-.216-.458-.474-.095-.258-.15-.58-.168-.967a8.06 8.06 0 0 1 .053-1.275c.053-.463.123-.923.212-1.38.088-.458.185-.891.29-1.302.107-.41.206-.756.3-1.037.142-.34.142-.624 0-.853a1.022 1.022 0 0 0-.581-.457 1.304 1.304 0 0 0-.777.009.894.894 0 0 0-.582.545c-.2.48-.383 1.02-.547 1.618a16.65 16.65 0 0 0-.397 1.854c-.1.64-.157 1.273-.168 1.9v.12c-.256.681-.5 1.196-.732 1.541-.3.446-.639.64-1.015.58-.165-.07-.274-.234-.326-.492a3.873 3.873 0 0 1-.054-.95c.018-.374.062-.8.133-1.274.07-.475.159-.967.264-1.477.107-.51.218-1.023.336-1.539a74.07 74.07 0 0 0 .317-1.46c-.011-.41-.132-.723-.362-.94-.229-.216-.55-.301-.96-.255-.283.118-.492.27-.628.457a2.275 2.275 0 0 0-.326.721c-.047.153-.118.458-.212.915a40.72 40.72 0 0 1-.361 1.573 33.72 33.72 0 0 1-.52 1.855c-.201.645-.425 1.229-.672 1.75-.247.521-.517.94-.811 1.257-.294.316-.612.446-.953.387-.189-.035-.31-.229-.362-.58-.053-.352-.062-.785-.027-1.301a16.88 16.88 0 0 1 .212-1.697c.106-.616.215-1.199.327-1.75a76.53 76.53 0 0 1 .503-2.303c0-.34-.077-.612-.23-.818a.975.975 0 0 0-.556-.387.976.976 0 0 0-.67.088c-.23.112-.427.314-.592.607a29.87 29.87 0 0 1-.229 1.099 69.674 69.674 0 0 0-.52 2.576c-.077.422-.133.791-.168 1.108-.024.246-.05.548-.08.905-.029.358-.044.736-.044 1.134 0 .399.03.794.089 1.187.058.393.164.753.317 1.081.153.329.368.598.645.81.276.21.626.327 1.05.35a3.62 3.62 0 0 0 1.138-.096 2.77 2.77 0 0 0 .882-.413c.265-.187.506-.41.723-.668.218-.258.433-.54.645-.844.2.446.458.791.776 1.037.318.246.653.393 1.006.44.353.046.712-.003 1.076-.15.365-.146.694-.395.989-.747.193-.216.376-.46.547-.732.073.127.15.25.238.363.288.375.68.633 1.174.773.529.141 1.046.165 1.552.07a4.956 4.956 0 0 0 1.447-.509 6.828 6.828 0 0 0 1.28-.888 8.052 8.052 0 0 0 1.032-1.081c-.012.27-.018.524-.018.764s-.006.501-.017.783a10.01 10.01 0 0 0-1.668 1.477 11.779 11.779 0 0 0-1.377 1.837 9.838 9.838 0 0 0-.926 1.978c-.223.669-.332 1.293-.326 1.873.005.58.144 1.087.414 1.52.27.435.712.745 1.324.933.635.2 1.194.205 1.677.017a3.072 3.072 0 0 0 1.261-.932 5.41 5.41 0 0 0 .882-1.573c.23-.616.412-1.257.547-1.925.136-.669.221-1.325.256-1.97.036-.645.036-1.22 0-1.723 1.012-.422 1.841-.955 2.488-1.6a10.27 10.27 0 0 0 1.606-2.04.803.803 0 0 0 .133-.633 1.227 1.227 0 0 0-.3-.633zM85.725 15.707c.035-.27.088-.554.159-.853.07-.298.159-.589.265-.87.105-.281.229-.524.37-.73.141-.205.291-.351.45-.44.159-.087.32-.078.485.027.177.106.285.328.327.668.04.34 0 .704-.124 1.09a2.88 2.88 0 0 1-.662 1.09c-.317.34-.747.563-1.288.669a2.483 2.483 0 0 1 .018-.65zm6.114.721a1.006 1.006 0 0 0-.555-.017c-.177.046-.289.17-.336.369a5.247 5.247 0 0 1-.45 1.151 6.046 6.046 0 0 1-.758 1.117c-.3.352-.639.662-1.015.932-.377.27-.77.463-1.182.58-.413.13-.754.144-1.024.044-.27-.1-.485-.27-.644-.51a2.476 2.476 0 0 1-.344-.87 6.142 6.142 0 0 1-.124-1.055c.67.047 1.268-.073 1.791-.36a4.227 4.227 0 0 0 1.333-1.143 5.182 5.182 0 0 0 .829-1.6c.188-.592.294-1.181.318-1.768.011-.55-.07-1.016-.247-1.397a2.171 2.171 0 0 0-.715-.888 2.086 2.086 0 0 0-1.032-.37 2.778 2.778 0 0 0-1.183.159c-.482.164-.891.43-1.226.8-.335.369-.615.797-.838 1.283a8.11 8.11 0 0 0-.53 1.574c-.13.563-.223 1.116-.282 1.662-.053.489-.081.957-.091 1.408l-.077.174c-.182.416-.394.824-.635 1.222a4.525 4.525 0 0 1-.803 1.002c-.294.27-.6.364-.918.282-.188-.047-.29-.264-.308-.65-.018-.388.002-.868.061-1.443.06-.574.127-1.196.203-1.864.077-.668.115-1.306.115-1.916 0-.528-.1-1.034-.3-1.521-.2-.486-.474-.891-.82-1.213a2.604 2.604 0 0 0-1.21-.642c-.458-.106-.952-.035-1.481.21-.53.247-.95.593-1.262 1.038-.312.446-.598.915-.856 1.407a4.191 4.191 0 0 0-.415-1.046 3.376 3.376 0 0 0-.67-.844 3.032 3.032 0 0 0-.891-.563 2.73 2.73 0 0 0-1.042-.202c-.353 0-.68.068-.98.202-.3.135-.573.308-.82.519-.247.21-.47.448-.67.712-.2.264-.377.525-.53.782a16.94 16.94 0 0 0-.08-.8 1.896 1.896 0 0 0-.158-.58.813.813 0 0 0-.326-.36c-.142-.082-.342-.123-.6-.123a1.109 1.109 0 0 0-.733.299.928.928 0 0 0-.229.342.924.924 0 0 0-.044.466c.011.13.044.284.097.466.053.182.103.42.15.712.047.293.085.648.114 1.064.03.416.039.926.027 1.53s-.056 1.31-.132 2.119a49.22 49.22 0 0 1-.362 2.813c-.024.246.07.445.282.598.212.152.453.24.724.263.27.024.526-.023.767-.14.241-.118.38-.323.415-.616.035-.55.103-1.137.203-1.758.1-.621.223-1.236.37-1.846.148-.61.315-1.19.504-1.741.188-.55.397-1.037.626-1.46.23-.421.468-.758.715-1.01.247-.252.505-.378.776-.378.33 0 .585.149.768.448.182.299.311.683.388 1.152.076.469.112.982.106 1.538-.006.557-.03 1.093-.07 1.609-.042.516-.089.976-.142 1.38-.053.405-.091.683-.114.836 0 .27.102.483.308.641.206.158.435.252.688.282.253.029.491-.018.715-.141.224-.123.353-.331.388-.624.118-.844.28-1.691.485-2.54.206-.85.442-1.612.707-2.287.264-.674.558-1.225.882-1.652.323-.428.667-.642 1.032-.642.188 0 .333.129.432.387.1.257.15.609.15 1.054 0 .329-.026.666-.079 1.012-.053.345-.114.703-.185 1.072-.07.37-.133.747-.186 1.134a8.97 8.97 0 0 0-.079 1.213c0 .294.03.634.088 1.02.059.387.17.754.335 1.1.165.345.392.638.68.878.288.24.656.36 1.103.36.67 0 1.264-.143 1.782-.43a4.462 4.462 0 0 0 1.333-1.125l.055-.074c.028.068.054.14.086.206.253.515.597.914 1.032 1.195.435.282.947.437 1.535.466.589.03 1.23-.08 1.924-.325a5.33 5.33 0 0 0 1.35-.703 5.046 5.046 0 0 0 1.032-1.03c.306-.403.585-.87.838-1.397.253-.528.509-1.131.768-1.811a.515.515 0 0 0-.132-.501 1.093 1.093 0 0 0-.495-.308zM101.433 14.472c-.059.346-.138.727-.238 1.143-.1.416-.227.847-.379 1.292a5.869 5.869 0 0 1-.565 1.204 3.03 3.03 0 0 1-.768.853c-.288.211-.62.299-.997.264-.188-.024-.332-.152-.432-.387-.1-.234-.153-.533-.159-.897a6.789 6.789 0 0 1 .097-1.195c.07-.434.18-.859.327-1.275.147-.416.326-.8.538-1.152.211-.351.455-.624.732-.818a1.46 1.46 0 0 1 .909-.272c.329.012.682.176 1.059.492-.024.153-.065.402-.124.747zm6.273 1.345a.758.758 0 0 0-.564-.062c-.194.053-.333.232-.415.537a5.85 5.85 0 0 1-.317 1.16 7.408 7.408 0 0 1-.609 1.266c-.242.398-.518.73-.83.993-.312.264-.644.385-.997.36a.687.687 0 0 1-.617-.448c-.118-.275-.18-.62-.186-1.037a7.868 7.868 0 0 1 .124-1.407c.088-.521.194-1.04.317-1.556.124-.515.25-1.01.38-1.485.129-.475.235-.877.318-1.205.094-.293.064-.542-.089-.747a1.295 1.295 0 0 0-1.27-.51c-.236.041-.388.167-.459.378-.694-.598-1.362-.92-2.003-.967a2.928 2.928 0 0 0-1.773.422c-.542.328-1.021.803-1.439 1.424a8.994 8.994 0 0 0-1.014 2.031 8.977 8.977 0 0 0-.485 2.242c-.065.762-.016 1.457.15 2.084.164.627.455 1.14.873 1.538.417.398.985.598 1.703.598.318 0 .623-.065.918-.193a4.743 4.743 0 0 0 1.464-1.011 8.16 8.16 0 0 0 .441-.484c.082.422.218.78.406 1.072.188.293.403.534.644.721.241.188.494.325.759.414.265.087.521.131.768.131.553 0 1.07-.187 1.553-.563a6.366 6.366 0 0 0 1.297-1.38c.382-.545.697-1.119.944-1.723.247-.603.411-1.14.494-1.609.082-.176.067-.36-.044-.553a1.075 1.075 0 0 0-.442-.431zM139.476 25.525a2.704 2.704 0 0 1-.467 1.01c-.212.276-.477.42-.794.432-.2.011-.353-.094-.459-.317-.106-.223-.179-.51-.221-.862a9.143 9.143 0 0 1-.053-1.178c.006-.433.024-.861.053-1.283.03-.422.065-.815.106-1.178l.097-.844c.4.047.733.22.997.518.265.3.468.654.609 1.064.141.41.224.853.247 1.328.024.474-.015.911-.115 1.31zm-6.388 0a2.72 2.72 0 0 1-.467 1.01c-.212.276-.477.42-.794.432-.2.011-.353-.094-.459-.317-.106-.223-.18-.51-.221-.862a9.143 9.143 0 0 1-.053-1.178c.006-.433.024-.861.053-1.283.029-.422.065-.815.106-1.178.041-.364.073-.645.097-.844.4.047.733.22.997.518.265.3.468.654.609 1.064.141.41.224.853.247 1.328.024.474-.015.911-.115 1.31zm-6.555-9.987c-.012.28-.039.53-.08.747-.041.217-.097.354-.167.413-.13-.07-.289-.252-.477-.545a3.736 3.736 0 0 1-.441-.994 2.754 2.754 0 0 1-.097-1.09c.041-.357.226-.635.556-.835.129-.07.241-.044.335.08.094.122.171.301.23.535.058.235.099.505.123.81.023.304.029.597.018.879zm-1.562 3.507c-.183.194-.386.36-.609.501a2.78 2.78 0 0 1-.688.317c-.235.07-.447.088-.635.053-.53-.106-.936-.334-1.218-.686a2.6 2.6 0 0 1-.538-1.24 4.568 4.568 0 0 1 .026-1.52 5.67 5.67 0 0 1 .477-1.504c.223-.463.494-.861.811-1.195.318-.335.665-.542 1.042-.625a6.058 6.058 0 0 0-.142 1.855c.047.64.201 1.24.459 1.802.165.34.362.651.591.932.23.282.509.522.839.721-.094.2-.233.396-.415.59zm19.526-3.332c.035-.269.088-.554.159-.852.07-.3.159-.59.264-.87.106-.282.23-.525.371-.73.141-.205.291-.352.45-.44.159-.088.32-.08.485.026.177.106.285.329.327.668.041.34 0 .704-.124 1.09-.123.388-.344.75-.661 1.09-.318.341-.748.563-1.289.669a2.535 2.535 0 0 1 .018-.65zm7.112 0a8.63 8.63 0 0 1 .158-.852c.071-.3.159-.59.265-.87a3.35 3.35 0 0 1 .371-.73c.141-.205.291-.352.45-.44.159-.088.32-.08.485.026.176.106.285.329.326.668.042.34 0 .704-.123 1.09-.124.388-.344.75-.662 1.09-.317.341-.747.563-1.288.669a2.447 2.447 0 0 1 .018-.65zm6.608 1.029a1.091 1.091 0 0 0-.494-.308 1.005 1.005 0 0 0-.556-.017c-.176.047-.288.17-.335.369-.094.375-.244.76-.45 1.151a6.03 6.03 0 0 1-.759 1.117c-.3.352-.638.663-1.014.932-.377.27-.771.463-1.183.58-.412.13-.753.144-1.023.044a1.28 1.28 0 0 1-.644-.51 2.462 2.462 0 0 1-.344-.87 6.137 6.137 0 0 1-.124-1.055c.671.047 1.268-.073 1.791-.36a4.238 4.238 0 0 0 1.333-1.143 5.185 5.185 0 0 0 .829-1.6c.188-.592.294-1.181.318-1.767.011-.551-.071-1.017-.248-1.398a2.165 2.165 0 0 0-.714-.888 2.086 2.086 0 0 0-1.033-.37 2.78 2.78 0 0 0-1.182.159c-.482.164-.891.43-1.226.8-.336.37-.615.797-.839 1.283a8.127 8.127 0 0 0-.529 1.574c-.13.563-.224 1.117-.282 1.662a16.053 16.053 0 0 0-.095 1.52 6.085 6.085 0 0 1-.902 1.407c-.3.352-.639.663-1.015.932-.377.27-.771.463-1.182.58-.412.13-.753.144-1.024.044-.271-.1-.485-.27-.644-.51a2.462 2.462 0 0 1-.344-.87 6.137 6.137 0 0 1-.124-1.055c.671.047 1.268-.073 1.792-.36a4.234 4.234 0 0 0 1.332-1.143 5.185 5.185 0 0 0 .829-1.6c.188-.592.294-1.181.318-1.767.011-.551-.071-1.017-.247-1.398a2.175 2.175 0 0 0-.715-.888 2.086 2.086 0 0 0-1.032-.37 2.784 2.784 0 0 0-1.183.159c-.482.164-.891.43-1.226.8a5 5 0 0 0-.838 1.283 8.129 8.129 0 0 0-.53 1.574 14.337 14.337 0 0 0-.354 2.56c-.114.096-.225.193-.343.288a10.52 10.52 0 0 1-1.279.888 7.95 7.95 0 0 1-1.394.651c-.483.17-.977.273-1.483.308l1.095-11.676c.07-.246.035-.462-.106-.65a1.072 1.072 0 0 0-.547-.387 1.152 1.152 0 0 0-.715.018c-.253.082-.462.27-.627.562a28.386 28.386 0 0 0-.255 1.829c-.089.773-.177 1.618-.265 2.532-.088.914-.176 1.858-.265 2.83-.088.974-.165 1.882-.229 2.726l-.008.109c-.103.086-.203.174-.31.26a10.52 10.52 0 0 1-1.279.888 7.95 7.95 0 0 1-1.394.651c-.483.17-.977.273-1.483.308l1.095-11.676c.07-.246.035-.462-.106-.65a1.07 1.07 0 0 0-.548-.387 1.149 1.149 0 0 0-.714.018c-.253.082-.462.27-.627.562a28.386 28.386 0 0 0-.255 1.829c-.089.773-.177 1.618-.265 2.532-.088.914-.176 1.858-.265 2.83-.088.974-.165 1.882-.229 2.726l-.004.05c-.185.085-.386.16-.605.223a3.207 3.207 0 0 1-.759.114c.047-.211.085-.446.115-.703.029-.258.053-.528.071-.81a10.181 10.181 0 0 0-.027-1.618 6.678 6.678 0 0 0-.326-1.432 3.39 3.39 0 0 0-.644-1.134 1.997 1.997 0 0 0-1.015-.615c-.406-.106-.88-.07-1.421.105-.8-.105-1.52-.032-2.162.22a4.722 4.722 0 0 0-1.667 1.099 5.974 5.974 0 0 0-1.156 1.697c-.3.65-.5 1.318-.6 2.004-.042.29-.063.58-.069.869a5.242 5.242 0 0 1-1.572 1.918 4.412 4.412 0 0 1-.997.563 4.82 4.82 0 0 1-.882.263 2.49 2.49 0 0 1-.883.018 1.466 1.466 0 0 1-.776-.404c-.188-.164-.333-.428-.433-.792a5.488 5.488 0 0 1-.176-1.24c-.018-.462 0-.946.053-1.45s.144-.981.273-1.433c.13-.451.294-.855.495-1.213.199-.357.435-.612.705-.765.153.024.248.114.283.273.035.158.044.346.026.562a9.13 9.13 0 0 1-.079.668c-.035.229-.053.42-.053.572.059.316.173.563.344.738.17.176.362.279.574.308.211.03.42-.02.626-.15.206-.128.373-.333.503-.615.012.012.029.018.053.018l.247-2.233c.07-.305.023-.574-.141-.809a.917.917 0 0 0-.653-.404c-.342-.493-.803-.754-1.385-.783-.583-.03-1.18.161-1.792.572-.376.27-.708.641-.997 1.116a7.185 7.185 0 0 0-.705 1.583c-.183.58-.312 1.192-.389 1.837a9.683 9.683 0 0 0-.044 1.881c.047.61.156 1.185.327 1.723.17.54.408.991.714 1.354.259.317.553.548.883.695.329.147.673.237 1.032.272.359.036.715.02 1.068-.043a5.94 5.94 0 0 0 1.005-.273 9.952 9.952 0 0 0 1.271-.58 7.806 7.806 0 0 0 1.253-.844c.21-.173.413-.361.609-.563.089.22.189.433.309.633a3.73 3.73 0 0 0 1.288 1.284c.541.328 1.205.486 1.994.474a4.732 4.732 0 0 0 2.347-.641c.717-.416 1.306-1.03 1.765-1.838a6.31 6.31 0 0 0 2.028-.337l-.017.214a20.554 20.554 0 0 0-.071 1.266c-.011.387-.037.864-.079 1.433a34.041 34.041 0 0 0-.079 1.793c-.012.627.012 1.26.07 1.9.059.638.183 1.219.371 1.74.188.522.456.964.803 1.328.347.363.803.58 1.368.65.599.082 1.117-.023 1.552-.316a3.267 3.267 0 0 0 1.059-1.205c.271-.51.462-1.099.574-1.767.111-.668.144-1.339.097-2.013a7.666 7.666 0 0 0-.371-1.908c-.2-.598-.476-1.09-.829-1.477.212-.058.464-.17.759-.334.293-.164.596-.349.909-.554.076-.05.152-.103.228-.155-.029.415-.043.712-.043.885a34.3 34.3 0 0 1-.08 1.433 34.041 34.041 0 0 0-.079 1.793c-.012.627.012 1.26.07 1.9.059.638.183 1.219.371 1.74.188.522.456.964.803 1.328.347.363.803.58 1.368.65.599.082 1.117-.023 1.552-.316a3.25 3.25 0 0 0 1.059-1.204c.271-.51.462-1.1.574-1.768.111-.668.144-1.339.097-2.013a7.666 7.666 0 0 0-.371-1.907c-.2-.599-.476-1.09-.829-1.478.212-.058.464-.17.759-.334a14.925 14.925 0 0 0 1.392-.883c.061.573.191 1.076.399 1.499.253.516.597.914 1.032 1.196.435.28.947.436 1.535.465.589.03 1.23-.079 1.924-.325a5.34 5.34 0 0 0 1.35-.703 5.06 5.06 0 0 0 1.032-1.029c.018-.023.035-.049.052-.072.054.164.115.322.186.468.253.516.598.914 1.033 1.196.435.28.947.436 1.535.465.588.03 1.229-.079 1.924-.325a5.34 5.34 0 0 0 1.35-.703 5.06 5.06 0 0 0 1.032-1.029c.306-.404.585-.87.838-1.398.253-.527.509-1.13.768-1.81a.516.516 0 0 0-.133-.502z" clip-rule="evenodd"/></g></svg>