<svg xmlns="http://www.w3.org/2000/svg" fill="none" version="1.1" viewBox="0 0 121.951 23.01"><path fill="#090c14" d="M33.454 5.655v-3.97l-4.773 2.508v-.15c.001-1.584-1.135-2.538-2.777-2.538H10.77c-1.733 0-2.778.955-2.778 2.537V8.05l6.688 3.454-6.688 3.49v4c0 1.557 1.052 2.51 2.778 2.51H25.9c1.642 0 2.778-.955 2.778-2.507v-.208l4.775 2.536v-4.03l-11.103-5.79zM18.5 13.477l8.208 4.297H10.263zm8.15-8.24-8.15 4.27-8.237-4.27zm21.133 12.248c-4.788 0-8.13-3.041-8.13-7.394s3.343-7.395 8.13-7.395c1.21 0 2.626.137 4.806 1.127V6.92c-1.575-.877-3.13-1.322-4.625-1.322-3.004 0-5.095 1.848-5.095 4.493 0 2.645 2.103 4.492 5.095 4.492 1.456 0 3.053-.452 4.625-1.313v3.088c-2.18.989-3.597 1.127-4.806 1.127m11.213 0c-2.83 0-4.806-2.15-4.806-5.228 0-3.042 2.06-5.25 4.903-5.25 1.57 0 2.662.48 3.538 1.555l.071.087v-1.13h2.768v9.74h-2.767v-1.384l-.072.106c-.712 1.025-1.866 1.503-3.633 1.503m.958-8.156c-1.653 0-2.862 1.23-2.862 2.928s1.202 2.905 2.862 2.905c1.66 0 2.882-1.223 2.882-2.905 0-1.682-1.212-2.928-2.883-2.928m7.615 12.177V7.517h2.791v1.216l.072-.1c.536-.751 1.803-1.627 3.615-1.627 2.783 0 4.807 2.208 4.807 5.25 0 3.077-1.984 5.227-4.826 5.227-1.694 0-2.904-.49-3.593-1.453l-.072-.1v5.573H67.57zm5.52-12.177c-1.654 0-2.863 1.23-2.863 2.928s1.202 2.905 2.862 2.905c1.66 0 2.837-1.223 2.837-2.905 0-1.682-1.192-2.928-2.837-2.928m15.602 8.156c-4.79 0-8.133-3.041-8.133-7.394S83.9 2.695 88.69 2.695c1.201 0 2.625.137 4.806 1.127v3.097c-1.574-.877-3.13-1.322-4.623-1.322-3.004 0-5.095 1.848-5.095 4.493 0 2.645 2.102 4.492 5.095 4.492 1.453 0 3.052-.452 4.623-1.313v3.088c-2.18.989-3.6 1.127-4.806 1.127m11.63 0c-3.12 0-5.137-1.473-5.137-3.755v-6.5h2.768v5.698c0 1.4.886 2.236 2.368 2.236 1.456 0 2.326-.835 2.326-2.235v-5.7h2.77v6.5c0 2.284-2 3.755-5.095 3.755m11.205 0c-3.067 0-4.155-1.902-4.155-3.53V6.707l2.77-1.457v1.978h3.82v2.267h-3.82V13.4c0 .525.2 1.744 2.054 1.744a5.1 5.1 0 0 0 1.765-.374v2.335c-.968.35-2.106.378-2.434.378"/></svg>