<svg aria-label="Carbon Logo" viewBox="0 0 300 73.38" width="250" height="61.15" xmlns="http://www.w3.org/2000/svg"><path d="M246.252 63.983v-23.97c0-3.431.887-6.253 2.68-8.42 1.836-2.22 4.402-3.336 7.602-3.336 2.822 0 4.936.84 6.231 2.567 1.22 1.629 1.812 3.842 1.812 6.614v26.545h8.18V36.69c0-4.75-1.056-8.417-3.136-11.038-2.021-2.547-5.209-3.834-9.667-3.834-2.814 0-5.14.585-7 1.742-1.882 1.17-3.411 2.826-4.597 4.987l-2.105 3.839v-9.53h-8.18v41.127zm5.517-42.328c2.239-1.392 4.974-2.08 8.185-2.08 5.097 0 8.939 1.551 11.424 4.682C273.803 27.313 275 31.469 275 36.69v29.536h-12.666V37.438c0-2.324-.467-4.072-1.364-5.268-.822-1.097-2.263-1.67-4.436-1.67-2.554 0-4.48.837-5.873 2.522-1.438 1.738-2.165 4.053-2.165 6.991v26.213H235.83V20.613h12.666v3.825a14.586 14.586 0 013.273-2.783zm-59 21.765c0 3.293.431 6.265 1.29 8.918.852 2.636 2.079 4.903 3.68 6.811 1.584 1.889 3.527 3.335 5.84 4.346 2.321 1.016 4.991 1.526 8.018 1.526 3.027 0 5.697-.51 8.02-1.526 2.312-1.01 4.254-2.457 5.839-4.346 1.6-1.907 2.82-4.172 3.658-6.806.846-2.655 1.27-5.628 1.27-8.923 0-3.296-.424-6.277-1.27-8.946-.839-2.646-2.057-4.91-3.656-6.802-1.584-1.876-3.528-3.316-5.842-4.328-2.322-1.015-4.992-1.526-8.019-1.526s-5.697.51-8.019 1.526c-2.313 1.012-4.257 2.452-5.842 4.328-1.6 1.893-2.825 4.159-3.677 6.807-.859 2.667-1.29 5.647-1.29 8.94zm-2.243 0c0-3.52.465-6.73 1.398-9.629.939-2.919 2.305-5.444 4.099-7.567 1.807-2.14 4.03-3.787 6.656-4.935 2.619-1.145 5.594-1.714 8.918-1.714 3.325 0 6.3.569 8.918 1.714 2.626 1.148 4.85 2.796 6.657 4.935 1.795 2.125 3.154 4.651 4.08 7.572.919 2.898 1.376 6.106 1.376 9.624 0 3.517-.458 6.72-1.376 9.604-.926 2.905-2.285 5.43-4.078 7.567-1.808 2.155-4.031 3.81-6.659 4.96-2.618 1.145-5.593 1.714-8.918 1.714-3.324 0-6.3-.57-8.918-1.714-2.627-1.15-4.85-2.805-6.659-4.96-1.792-2.135-3.157-4.659-4.096-7.562-.933-2.886-1.398-6.09-1.398-9.61zm10.87 6.273V37.105c0-2.925 1-5.255 2.997-6.89 1.933-1.585 4.35-2.374 7.204-2.374 2.851 0 5.264.772 7.197 2.325 2.003 1.61 3.004 3.957 3.004 6.94v12.587c0 3.009-1 5.37-3.004 6.98-1.933 1.553-4.346 2.325-7.197 2.325-2.856 0-5.275-.797-7.209-2.397-1.993-1.65-2.991-3.984-2.991-6.908zm2.244 0c0 2.282.725 3.977 2.179 5.18 1.513 1.252 3.424 1.882 5.778 1.882 2.36 0 4.277-.613 5.792-1.83 1.442-1.159 2.166-2.869 2.166-5.232V37.105c0-2.335-.723-4.031-2.166-5.19-1.515-1.217-3.431-1.83-5.792-1.83-2.356 0-4.269.624-5.783 1.864-1.45 1.19-2.174 2.875-2.174 5.156zm-47.755 14.29v-8.697l2.077 3.373c1.236 2.007 2.8 3.566 4.704 4.69 1.882 1.112 4.128 1.672 6.758 1.672 2.637 0 4.918-.55 6.86-1.642 1.965-1.105 3.586-2.605 4.873-4.51 1.307-1.935 2.279-4.208 2.913-6.824.643-2.652.966-5.527.966-8.625 0-3.044-.323-5.913-.967-8.609-.634-2.656-1.606-4.94-2.91-6.858a14.298 14.298 0 00-4.875-4.493c-1.942-1.092-4.223-1.642-6.86-1.642-2.656 0-4.908.56-6.775 1.67-1.891 1.125-3.45 2.684-4.687 4.692l-2.077 3.373V8.358h-8.18v55.625zm2.243 2.243h-12.666V6.115h12.666v18.158c1-1.065 2.125-1.97 3.374-2.713 2.232-1.327 4.88-1.985 7.922-1.985 3.009 0 5.668.64 7.96 1.93a16.541 16.541 0 015.63 5.186c1.464 2.153 2.542 4.688 3.237 7.599.686 2.87 1.028 5.914 1.028 9.13 0 3.271-.342 6.323-1.029 9.154-.695 2.867-1.773 5.386-3.234 7.55-1.482 2.193-3.362 3.934-5.632 5.21-2.292 1.29-4.951 1.93-7.96 1.93-3.015 0-5.655-.658-7.899-1.983a15.394 15.394 0 01-3.397-2.719zm-2.243-19.566v-6.48c0-3.633.825-6.588 2.503-8.835 1.75-2.344 4.518-3.504 8.186-3.504 3.016 0 5.44.846 7.213 2.559 1.777 1.718 2.662 4.033 2.662 6.871v12.255c0 2.84-.893 5.162-2.683 6.892-1.784 1.726-4.202 2.58-7.192 2.58-3.668 0-6.435-1.16-8.186-3.504-1.678-2.247-2.503-5.202-2.503-8.834zm2.243 0c0 3.18.695 5.667 2.057 7.492 1.29 1.726 3.38 2.603 6.39 2.603 2.438 0 4.295-.656 5.632-1.949 1.332-1.288 2-3.023 2-5.28V37.271c0-2.257-.662-3.985-1.98-5.258-1.322-1.278-3.185-1.928-5.653-1.928-3.008 0-5.1.876-6.389 2.602-1.362 1.825-2.057 4.312-2.057 7.492zM126.7 63.983V28.922h13.313v-6.066H118.52v41.127zm2.243 2.243h-12.666V20.613h25.98v10.552h-13.314zm-46.998-36.59c1.54-1.202 3.507-1.795 5.861-1.795 2.312 0 4.196.585 5.61 1.782 1.477 1.25 2.189 3.205 2.189 5.78v3.855l-1.027.087-11.758.996c-4.25.392-7.44 1.763-9.626 4.095-2.193 2.34-3.28 5.098-3.28 8.33 0 1.852.306 3.507.913 4.972a11.317 11.317 0 002.576 3.822 12.14 12.14 0 003.898 2.549c1.476.607 3.116.912 4.927.912 3.071 0 5.503-.64 7.322-1.898 1.866-1.291 3.366-3.04 4.505-5.26l.313-.61h2.16l.081 6.73h14.178v-6.024h-7.166V35.57c0-4.565-1.353-7.947-4.043-10.239-2.739-2.333-6.512-3.512-11.365-3.512-2.45 0-4.707.298-6.774.891-2.043.586-3.792 1.433-5.252 2.537a12.307 12.307 0 00-3.472 4.098c-.712 1.337-1.15 2.87-1.31 4.604h8.181c.225-1.802 1.012-3.26 2.36-4.311zm8.88 35.332c-2.225 1.54-5.099 2.297-8.597 2.297-2.096 0-4.026-.36-5.78-1.082a14.382 14.382 0 01-4.611-3.017 13.56 13.56 0 01-3.083-4.57c-.723-1.747-1.083-3.693-1.083-5.83 0-3.801 1.303-7.108 3.886-9.864 2.591-2.764 6.295-4.356 11.065-4.796l10.74-.91v-1.794c0-1.968-.483-3.295-1.395-4.067-.975-.824-2.347-1.25-4.16-1.25-1.881 0-3.362.446-4.481 1.32-1.044.815-1.564 2-1.564 3.665v1.121H69.07l.027-1.147c.058-2.55.601-4.805 1.637-6.753a14.55 14.55 0 014.1-4.834c1.688-1.277 3.686-2.244 5.986-2.904 2.275-.653 4.74-.978 7.393-.978 5.353 0 9.641 1.34 12.82 4.048 3.226 2.748 4.832 6.76 4.832 11.945v20.148h7.165v10.51H94.393l-.056-4.614a15.557 15.557 0 01-3.511 3.356zM78.502 53.97v-3.756c.036-2.264 1.231-3.694 3.383-3.924l13.72-1.232v2.93c0 2.989-.847 5.57-2.544 7.699-1.751 2.198-4.173 3.31-7.167 3.31-2.024 0-3.716-.365-5.066-1.118-1.52-.848-2.326-2.197-2.326-3.909zm3.603-5.448c-.962.103-1.341.557-1.36 1.71v3.738c0 .892.36 1.495 1.176 1.95.984.548 2.305.834 3.973.834 2.325 0 4.097-.813 5.413-2.465 1.37-1.72 2.056-3.806 2.056-6.3v-.477zM60.117 29.787c-.944-1.837-2.17-3.336-3.68-4.507a15.324 15.324 0 00-5.144-2.614 21.532 21.532 0 00-6.077-.848c-2.777 0-5.253.495-7.437 1.48a15.672 15.672 0 00-5.609 4.249c-1.57 1.862-2.783 4.14-3.635 6.842-.86 2.725-1.292 5.817-1.292 9.28 0 3.247.393 6.186 1.175 8.82.772 2.6 1.93 4.817 3.47 6.662 1.536 1.839 3.418 3.274 5.657 4.313C39.778 64.5 42.4 65.02 45.42 65.02c2.219 0 4.294-.314 6.229-.942a15.518 15.518 0 005.13-2.79c1.493-1.23 2.706-2.761 3.64-4.606.786-1.548 1.335-3.35 1.645-5.412h-8.176c-.43 2.626-1.333 4.556-2.757 5.759-1.563 1.321-3.658 1.968-6.24 1.968-2.63 0-4.822-.87-6.505-2.604-1.684-1.734-2.515-4.1-2.515-7.034V37.438c0-3.176.884-5.614 2.694-7.234 1.754-1.57 3.852-2.363 6.244-2.363 2.354 0 4.354.615 5.958 1.855 1.488 1.149 2.408 3.01 2.806 5.54h8.179c-.292-2.085-.839-3.9-1.635-5.449zM25 43.67c0-3.682.464-7.001 1.396-9.955.938-2.975 2.29-5.516 4.059-7.613a17.914 17.914 0 016.402-4.849c2.484-1.12 5.274-1.677 8.36-1.677 2.33 0 4.567.312 6.706.938a17.567 17.567 0 015.89 2.994c1.773 1.376 3.208 3.132 4.3 5.255 1.087 2.116 1.756 4.617 2.012 7.496l.11 1.221H51.567l-.099-1.012c-.244-2.49-.957-4.133-2.073-4.996-1.191-.92-2.707-1.386-4.587-1.386-1.842 0-3.408.591-4.748 1.79-1.284 1.15-1.947 2.978-1.947 5.563V49.36c0 2.384.634 4.186 1.881 5.47 1.248 1.286 2.856 1.925 4.896 1.925 2.086 0 3.669-.489 4.792-1.439 1.09-.92 1.817-2.67 2.114-5.293l.112-.995h12.664l-.123 1.233c-.285 2.846-.959 5.326-2.03 7.437-1.073 2.116-2.48 3.894-4.216 5.323a17.76 17.76 0 01-5.863 3.192c-2.163.702-4.472 1.052-6.921 1.052-3.332 0-6.274-.586-8.818-1.766-2.538-1.177-4.686-2.816-6.435-4.91-1.743-2.087-3.043-4.577-3.9-7.462C25.422 50.277 25 47.124 25 43.67z" fill="currentColor"/></svg>