<svg xmlns="http://www.w3.org/2000/svg" version="1.1" viewBox="0 0 357.143 62.954"><path fill="#2e39bf" fill-rule="nonzero" stroke="none" stroke-width="1" d="M117.97 40.733c-5.234 0-7.65 3.797-7.65 7.466 0 3.668 2.283 7.336 7.65 7.336 1.947 0 4.026-.784 5.505-2.161l2.279 2.16c-2.145 2.03-4.9 3.015-7.786 3.015-7.516 0-10.871-5.045-10.871-10.35 0-5.306 3.489-10.543 10.871-10.543 2.751 0 5.437.983 7.587 3.077l-2.215 2.097c-1.478-1.444-3.423-2.097-5.37-2.097zm9.665 17.357V37.917h3.353v17.157h10.871v3.015h-14.224zm26.915.46c-7.185 0-10.61-5.113-10.61-10.42 0-6.153 4.43-10.543 10.61-10.543 7.11 0 10.595 5.044 10.595 10.543 0 5.438-3.427 10.42-10.595 10.42zm.058-18.013c-4.76 0-7.377 3.27-7.377 7.661.065 3.537 2.214 7.399 7.319 7.399 5.162 0 7.307-3.536 7.307-7.399 0-3.735-2.213-7.597-7.249-7.66zm21.269 17.943c-4.627-.13-8.519-3.014-8.519-8.712V37.98h3.298v11.788c0 3.669 2.203 5.636 5.22 5.767 3.296.193 5.71-1.9 5.71-5.767V37.98h3.286v11.788c.001 5.96-4.03 8.912-8.995 8.712zm19.938-.39h-7.852V37.917h7.852c7.051 0 10.267 4.913 10.328 9.89.14 5.107-3.15 10.283-10.328 10.283zm0-17.097h-4.567v14.018h4.567c5.025 0 7.178-3.603 7.11-7.204-.059-3.407-2.215-6.814-7.11-6.814zm34.494 17.161h-2.958l-2.75-7.14-2.216-6.746-2.283 6.814-2.68 7.073h-2.88l-7.525-20.174h3.693l5.242 15.523 5.363-15.523h2.144l5.441 15.523 5.165-15.523h3.692zm25.362 0-2.008-4.258h-11.208l-1.948 4.258h-3.485l9.254-20.174h3.625l9.263 20.174zm-7.588-16.831-4.349 9.629h8.718zm20.207 8.514v8.253h-3.287v-8.253L257.02 38.05v-.132h3.95l5.64 8.905 5.898-8.905h3.972v.132zm18.12-9.629c-2.76 0-4.765 1.115-4.765 3.078 0 1.967 2.284 2.492 5.023 2.882 4.23.593 8.332 1.701 8.332 6.221 0 4.522-4.232 6.221-8.59 6.221-3.96 0-6.98-1.176-8.858-4.582l2.483-1.64c1.471 2.423 4.024 3.34 6.434 3.34 2.483 0 5.243-.785 5.243-3.34 0-2.16-2.422-2.944-5.301-3.339-4.092-.522-7.983-1.574-7.983-5.894 0-4.192 4.219-5.762 7.983-5.762 2.947 0 5.967.717 7.716 3.405l-2.612 1.639c-1.014-1.375-2.96-2.229-5.104-2.229zM66.566 63.394c-11.71 0-21.204-9.264-21.204-20.694 0-11.431 9.493-20.7 21.204-20.7 11.713 0 21.21 9.269 21.21 20.7 0 11.43-9.497 20.694-21.21 20.694zM81.5 74C71.282 74 63 65.72 63 55.499 63 45.28 71.282 37 81.5 37S100 45.28 100 55.499C100 65.72 91.718 74 81.5 74zm-31.002 0C40.285 74 32 65.72 32 55.499 32 45.28 40.285 37 50.498 37 60.714 37 69 45.28 69 55.499 69 65.72 60.714 74 50.498 74zM51 74V60h31v14zM5.5 58h15a2.5 2.5 0 1 1 0 5h-15a2.5 2.5 0 1 1 0-5zm25 0h15a2.5 2.5 0 1 1 0 5h-15a2.5 2.5 0 1 1 0-5zm36.503 16H17.48C16.136 74 15 72.86 15 71.5c0-1.35 1.136-2.5 2.481-2.5h49.522c1.34 0 2.482 1.15 2.482 2.5 0 1.36-1.141 2.5-2.482 2.5zM52.004 51.997H2.483C1.137 51.997 0 50.847 0 49.498c0-1.355 1.137-2.5 2.483-2.5h49.521c1.345 0 2.483 1.145 2.483 2.5 0 1.35-1.138 2.5-2.483 2.5zM65.01 41H15.483C14.142 41 13 39.85 13 38.5s1.142-2.5 2.483-2.5h49.526c1.341 0 2.483 1.15 2.483 2.5S66.414 41 65.009 41zm4.996-11H20.483C19.137 30 18 28.856 18 27.5c0-1.35 1.137-2.5 2.483-2.5h49.522c1.345 0 2.483 1.15 2.483 2.5 0 1.356-1.138 2.5-2.483 2.5z" transform="translate(31.071 -16.523)"/></svg>