<svg xmlns="http://www.w3.org/2000/svg" id="Ebene_2" data-name="Ebene 2" version="1.1" viewBox="0 0 312.5 73.955"><defs id="defs1"><style id="style1">.cls-1 {        fill: #99cca1;      }      .cls-1, .cls-2, .cls-3, .cls-4, .cls-5, .cls-6 {        stroke-width: 0px;      }      .cls-2 {        fill: #df515a;      }      .cls-3 {        fill: #73b978;      }      .cls-4 {        fill: #ef8d8b;      }      .cls-5 {        fill: #fbd99b;      }      .cls-6 {        fill: #002343;      }</style></defs><g id="Ebene_1-2" data-name="Ebene 1" transform="translate(20.04 4.743)"><g id="g17"><g id="g5"><path id="path1" d="M43.08 21.39 55.03 9.44C49.19 3.61 41.13 0 32.23 0v16.9c4.24 0 8.07 1.72 10.84 4.49z" class="cls-3"/><path id="path2" d="M9.44 9.44C3.61 15.27 0 23.33 0 32.23h16.9c0-4.24 1.72-8.07 4.49-10.84 2.78-2.78 6.61-4.49 10.84-4.49V0c-8.9 0-16.96 3.61-22.79 9.44z" class="cls-1"/><path id="path3" d="M32.23 47.57v16.9c8.9 0 16.96-3.61 22.79-9.44L43.07 43.08a15.274 15.274 0 0 1-10.84 4.49z" class="cls-2"/><path id="path4" d="M21.39 43.08 9.44 55.03c5.83 5.83 13.89 9.44 22.79 9.44v-16.9c-4.24 0-8.07-1.72-10.84-4.49z" class="cls-4"/><path id="path5" d="M16.9 32.23H0c0 8.9 3.61 16.96 9.44 22.79l11.95-11.95a15.274 15.274 0 0 1-4.49-10.84z" class="cls-5"/></g><g id="g16"><path id="path6" d="M55.2 31.5c0-3.43.89-5.97 2.67-7.63 1.78-1.66 4.18-2.49 7.21-2.49 2.76 0 4.96.69 6.62 2.07 1.65 1.38 2.48 3.25 2.48 5.61v.54h-6.07v-.65c0-1.17-.26-1.99-.77-2.47-.51-.48-1.29-.72-2.34-.72-1.13 0-2.01.33-2.64 1-.63.67-.94 1.93-.94 3.8v3.16c0 1.74.3 2.98.9 3.72.6.74 1.53 1.1 2.8 1.1 1.02 0 1.78-.27 2.27-.82.49-.55.73-1.35.73-2.42v-.6h6.07v.6c0 2.31-.83 4.16-2.48 5.54s-3.86 2.07-6.62 2.07c-3.05 0-5.46-.84-7.23-2.53-1.77-1.69-2.65-4.22-2.65-7.59v-1.28z" class="cls-6"/><path id="path7" d="M75.68 34.73c0-2.46.79-4.37 2.37-5.71 1.58-1.34 3.58-2.01 6.02-2.01 2.44 0 4.44.67 6.02 2.01 1.58 1.34 2.37 3.24 2.37 5.71v.45c0 2.46-.79 4.37-2.37 5.71-1.58 1.35-3.58 2.02-6.02 2.02-2.44 0-4.44-.67-6.02-2.02-1.58-1.35-2.37-3.25-2.37-5.71zm5.94.92c0 1.25.22 2.07.67 2.44.45.38 1.04.57 1.77.57s1.32-.19 1.76-.57c.45-.38.67-1.19.67-2.44v-1.39c0-1.24-.23-2.05-.7-2.43-.47-.38-1.04-.57-1.73-.57s-1.27.19-1.74.57c-.47.38-.7 1.19-.7 2.43z" class="cls-6"/><path id="path8" d="M94.61 27.45h5.61l.07 1.51h.09c.35-.62.9-1.07 1.63-1.36a6.14 6.14 0 0 1 2.26-.44c1.08 0 2.03.24 2.84.72s1.39 1.12 1.72 1.93h.03c.39-.8 1.08-1.45 2.08-1.93s1.98-.72 2.94-.72c1.46 0 2.68.51 3.65 1.54.97 1.03 1.46 2.75 1.46 5.15v8.64h-5.81v-9.12c0-.6-.12-1.07-.35-1.41-.23-.35-.61-.52-1.13-.53-.46 0-.87.11-1.21.36-.34.25-.61.65-.8 1.19v9.52h-5.81v-9.04c0-.64-.12-1.14-.36-1.5-.24-.36-.64-.53-1.2-.53-.45 0-.84.11-1.17.34-.32.23-.57.63-.75 1.21v9.52h-5.8V27.46z" class="cls-6"/><path id="path9" d="M121.95 27.45h5.51l.07 1.44h.07c.24-.53.73-.95 1.49-1.27.76-.32 1.55-.48 2.37-.48 1.96 0 3.56.66 4.78 1.98 1.22 1.32 1.84 3.19 1.84 5.61v.45c0 2.4-.59 4.26-1.78 5.59-1.18 1.33-2.71 2-4.58 2-.82 0-1.61-.13-2.39-.38s-1.31-.63-1.61-1.14v7.15h-5.8V27.45zm6.67 10.64c.44.31.93.46 1.46.46.67 0 1.19-.21 1.55-.62.36-.41.54-1.17.54-2.28v-1.38c0-1.11-.18-1.87-.54-2.28-.36-.41-.89-.62-1.59-.62-.6 0-1.08.14-1.45.43-.37.28-.65.63-.84 1.05v4.09c.14.46.43.84.87 1.14z" class="cls-6"/><path id="path10" d="M141.94 34.07c1.38-.83 3.1-1.25 5.15-1.26h2.42v-.67c0-.44-.11-.79-.34-1.06-.23-.27-.65-.41-1.26-.41s-1.04.11-1.29.33c-.24.22-.36.52-.36.9v.37h-5.7v-.37c0-1.51.72-2.7 2.17-3.57 1.45-.87 3.26-1.31 5.44-1.31 2.18 0 3.94.41 5.22 1.22 1.28.81 1.92 2.13 1.92 3.94v6.99c0 .6.06 1.17.19 1.73.13.55.29 1.01.49 1.36v.23h-5.74c-.09-.2-.16-.46-.23-.8a8.81 8.81 0 0 1-.16-.94c-.22.51-.76.97-1.62 1.39-.86.41-1.9.62-3.11.62-1.51 0-2.76-.38-3.75-1.13-.99-.75-1.49-1.94-1.49-3.56 0-1.84.69-3.17 2.07-4zm4.16 4.58c.27.33.71.49 1.32.49.74 0 1.27-.2 1.6-.61.33-.41.49-1 .49-1.76v-.71h-1.54c-.82 0-1.4.11-1.75.33-.35.22-.53.58-.53 1.07 0 .46.13.86.4 1.19z" class="cls-6"/><path id="path11" d="M158.61 27.45h5.63l.07 1.45h.07c.23-.47.72-.89 1.46-1.24.75-.36 1.57-.53 2.46-.53 1.57 0 2.89.45 3.94 1.34 1.05.89 1.58 2.53 1.58 4.92v9.11h-5.8v-9.35c0-.67-.13-1.13-.4-1.36-.27-.24-.66-.36-1.16-.36-.37 0-.76.12-1.17.36-.41.24-.7.62-.88 1.15v9.57h-5.8V27.47z" class="cls-6"/><path id="path12" d="M177.12 44.39c.22.08.46.14.74.18.28.04.54.06.78.06.63 0 1.17-.16 1.63-.47.46-.31.76-.9.9-1.75h-.3l-6.05-14.97h6l2.54 7.59c.11.34.19.65.21.92.02.27.07.58.11.93h.1c.05-.35.09-.66.11-.92.03-.26.1-.57.21-.92l2.56-7.59h5.09l-6.24 16.61c-.6 1.57-1.43 2.74-2.5 3.49s-2.37 1.13-3.89 1.13c-.46 0-.87-.02-1.2-.06-.33-.04-.64-.12-.9-.23l.1-3.99z" class="cls-6"/><path id="path13" d="M194.48 21.8h7.62l3.75 11.24c.12.36.22.67.28.92.07.26.12.59.16 1.01h.07c.05-.42.11-.76.18-1.02.07-.26.16-.57.28-.92l3.79-11.24h7.79v20.69h-5.98v-11.5c0-.35 0-.73.03-1.14.02-.41.04-.79.07-1.13h-.11c-.04.34-.09.72-.16 1.13-.07.41-.16.79-.28 1.14l-3.87 11.5h-4.76l-3.81-11.5c-.11-.35-.21-.73-.28-1.14-.07-.41-.13-.79-.18-1.13h-.11c.03.34.05.72.06 1.13.01.41.02.79.02 1.14v11.5h-4.56V21.79z" class="cls-6"/><path id="path14" d="M220.18 34.73c0-2.46.79-4.37 2.37-5.71 1.58-1.34 3.58-2.01 6.02-2.01 2.44 0 4.44.67 6.02 2.01 1.58 1.34 2.37 3.24 2.37 5.71v.45c0 2.46-.79 4.37-2.37 5.71-1.58 1.35-3.58 2.02-6.02 2.02-2.44 0-4.44-.67-6.02-2.02-1.58-1.35-2.37-3.25-2.37-5.71zm5.94.92c0 1.25.22 2.07.67 2.44.45.38 1.04.57 1.77.57s1.32-.19 1.76-.57c.45-.38.67-1.19.67-2.44v-1.39c0-1.24-.23-2.05-.7-2.43-.47-.38-1.04-.57-1.73-.57s-1.27.19-1.74.57c-.47.38-.7 1.19-.7 2.43z" class="cls-6"/><path id="path15" d="M238.22 34.73c0-2.46.79-4.37 2.37-5.71 1.58-1.34 3.58-2.01 6.02-2.01 2.44 0 4.44.67 6.02 2.01 1.58 1.34 2.37 3.24 2.37 5.71v.45c0 2.46-.79 4.37-2.37 5.71-1.58 1.35-3.58 2.02-6.02 2.02-2.44 0-4.44-.67-6.02-2.02-1.58-1.35-2.37-3.25-2.37-5.71zm5.94.92c0 1.25.22 2.07.67 2.44.45.38 1.04.57 1.77.57s1.32-.19 1.76-.57c.45-.38.67-1.19.67-2.44v-1.39c0-1.24-.23-2.05-.7-2.43-.47-.38-1.04-.57-1.73-.57s-1.27.19-1.74.57c-.47.38-.7 1.19-.7 2.43z" class="cls-6"/><path id="path16" d="M256.26 34.74c0-2.29.64-4.13 1.91-5.51s2.9-2.07 4.87-2.07c.82 0 1.56.15 2.2.44.64.29 1.11.67 1.41 1.14v-7.95h5.77v21.69h-5.61l-.07-1.51h-.06c-.25.54-.7.97-1.37 1.3-.67.33-1.41.49-2.24.49-2.17 0-3.85-.69-5.03-2.08-1.18-1.38-1.78-3.22-1.78-5.5v-.45zm6.54 3.06c.41.5.97.75 1.67.75.52 0 .96-.13 1.32-.4.36-.27.63-.63.82-1.07v-4.22c-.17-.46-.42-.81-.74-1.08-.32-.26-.78-.4-1.38-.4-.68 0-1.24.25-1.67.76-.43.51-.65 1.24-.65 2.2v1.28c0 .96.21 1.69.62 2.19z" class="cls-6"/></g><path id="path17" d="M34.21 21.12v10.75l-1.78 1.76-1.78-1.76V21.12c-5.33.86-9.41 5.46-9.41 11.04 0 6.18 5.01 11.19 11.19 11.19s11.19-5.01 11.19-11.19c0-5.57-4.08-10.18-9.41-11.04z" class="cls-6"/></g></g></svg>