<svg xmlns="http://www.w3.org/2000/svg" xml:space="preserve" width="250" height="73.962" style="clip-rule:evenodd;fill-rule:evenodd;stroke-linejoin:round;stroke-miterlimit:2" viewBox="0 0 312.5 92.452"><path d="M68.48 88.906h336.775v110.811H68.48z" style="fill:none" transform="matrix(.74234 0 0 .66746 -19.585 -50.096)"/><path d="M12.04 0c3.15 0 5.757.828 7.822 2.485 2.065 1.657 3.401 3.897 4.008 6.72h-6.335c-.467-1.143-1.184-2.042-2.153-2.695-.968-.653-2.117-.98-3.447-.98-1.75 0-3.162.642-4.235 1.925-1.073 1.283-1.61 2.998-1.61 5.145 0 2.147.537 3.856 1.61 5.127 1.073 1.272 2.485 1.908 4.235 1.908 1.33 0 2.479-.327 3.447-.98.969-.653 1.686-1.54 2.153-2.66h6.335c-.607 2.8-1.943 5.034-4.008 6.702-2.065 1.669-4.672 2.503-7.822 2.503-2.403 0-4.515-.531-6.335-1.593-1.82-1.061-3.226-2.549-4.218-4.462C.496 17.232 0 15.05 0 12.6s.496-4.632 1.487-6.545c.992-1.913 2.398-3.401 4.218-4.463C7.525.531 9.637 0 12.04 0Zm24.325 5.215c1.937 0 3.669.402 5.197 1.207a8.847 8.847 0 0 1 3.605 3.483c.875 1.517 1.313 3.29 1.313 5.32 0 2.03-.438 3.803-1.313 5.32a8.845 8.845 0 0 1-3.605 3.482c-1.528.805-3.26 1.208-5.197 1.208-1.937 0-3.675-.403-5.215-1.208a8.823 8.823 0 0 1-3.623-3.482c-.875-1.517-1.312-3.29-1.312-5.32 0-2.03.437-3.803 1.312-5.32a8.825 8.825 0 0 1 3.623-3.483c1.54-.805 3.278-1.207 5.215-1.207zm0 5.18c-1.143 0-2.106.414-2.888 1.242-.781.829-1.172 2.025-1.172 3.588 0 1.563.391 2.753 1.172 3.57.782.817 1.745 1.225 2.888 1.225 1.143 0 2.1-.408 2.87-1.225.77-.817 1.155-2.007 1.155-3.57 0-1.563-.385-2.759-1.155-3.588-.77-.828-1.727-1.242-2.87-1.242zm25.62-5.145c2.24 0 4.019.747 5.337 2.24 1.319 1.493 1.978 3.547 1.978 6.16v11.34h-5.985V14.35c0-1.307-.344-2.328-1.033-3.063-.688-.735-1.604-1.102-2.747-1.102-1.213 0-2.176.385-2.888 1.155-.711.77-1.067 1.867-1.067 3.29v10.36h-5.985V5.46h5.985v3.57a6.443 6.443 0 0 1 2.502-2.765c1.109-.677 2.41-1.015 3.903-1.015Zm20.44 14.595h1.89v5.145H81.62c-2.287 0-4.066-.566-5.338-1.698-1.271-1.131-1.907-3.004-1.907-5.617V10.5H71.75V5.46h2.625V.665h5.985V5.46h3.92v5.04h-3.92v7.28c0 .77.157 1.307.472 1.61.315.303.846.455 1.593.455zm23.8-5.145c0 .49-.058 1.027-.175 1.61H92.505c.07 1.47.443 2.526 1.12 3.167.677.642 1.54.963 2.59.963.887 0 1.622-.222 2.205-.665a3.108 3.108 0 0 0 1.155-1.715h6.335a8.281 8.281 0 0 1-1.68 3.692c-.863 1.085-1.96 1.937-3.29 2.555-1.33.619-2.812.928-4.445.928-1.913 0-3.611-.403-5.093-1.208-1.481-.805-2.642-1.965-3.482-3.482-.84-1.517-1.26-3.29-1.26-5.32 0-2.053.414-3.833 1.242-5.338a8.522 8.522 0 0 1 3.483-3.465c1.493-.805 3.197-1.207 5.11-1.207 1.937 0 3.64.397 5.11 1.19a8.402 8.402 0 0 1 3.412 3.342c.805 1.435 1.208 3.086 1.208 4.953zm-6.055-.91c.023-1.283-.321-2.246-1.033-2.888-.711-.641-1.592-.962-2.642-.962-1.097 0-2.007.327-2.73.98-.723.653-1.132 1.61-1.225 2.87zm21.56-8.54c2.24 0 4.019.747 5.337 2.24 1.319 1.493 1.978 3.547 1.978 6.16v11.34h-5.985V14.35c0-1.307-.344-2.328-1.033-3.063-.688-.735-1.604-1.102-2.747-1.102-1.213 0-2.176.385-2.888 1.155-.711.77-1.067 1.867-1.067 3.29v10.36h-5.985V5.46h5.985v3.57a6.443 6.443 0 0 1 2.502-2.765c1.109-.677 2.41-1.015 3.903-1.015zm20.44 14.595h1.89v5.145h-2.695c-2.287 0-4.066-.566-5.338-1.698-1.271-1.131-1.907-3.004-1.907-5.617V10.5h-2.625V5.46h2.625V.665h5.985V5.46h3.92v5.04h-3.92v7.28c0 .77.157 1.307.472 1.61.315.303.846.455 1.593.455zm5.25-19.6h5.985V24.99h-5.985zm22.505 5.005c2.24 0 4.019.747 5.337 2.24 1.319 1.493 1.978 3.547 1.978 6.16v11.34h-5.985V14.35c0-1.307-.344-2.328-1.033-3.063-.688-.735-1.604-1.102-2.747-1.102-1.213 0-2.176.385-2.888 1.155-.711.77-1.067 1.867-1.067 3.29v10.36h-5.985V5.46h5.985v3.57a6.443 6.443 0 0 1 2.502-2.765c1.109-.677 2.41-1.015 3.903-1.015z" style="fill:#52403e;fill-rule:nonzero" transform="matrix(.9357 0 0 .9357 113.172 33.75)"/><path d="M108.58 77.67V63.1l-31.5-18.19L45.57 63.1v14.57l31.51 18.18ZM50.46 65.92l26.62-15.37 26.62 15.37v8.93L77.08 90.21 50.46 74.85Zm58.12 18.21v5.64L77.08 108 45.6 89.78v-5.64l31.48 18.18zm-31.5 30.32 31.5-18.19v5.64l-31.5 18.19-31.48-18.18v-5.64z" style="fill:#52403e;fill-rule:nonzero" transform="matrix(.9357 0 0 .9357 -8.468 -31.17)"/></svg>