<svg xmlns="http://www.w3.org/2000/svg" width="250" height="73.488" fill="none" viewBox="0 0 312.5 91.861"><g clip-path="url(#a)" transform="translate(28.525 8.076) scale(2.53633)"><path fill="#171717" d="M9.113 11.403c1.745 0 2.898.872 3.396 2.586l3.708-1.247c-.374-1.433-1.153-2.648-2.4-3.645C12.572 8.1 10.952 7.57 9.02 7.57c-2.243 0-4.144.78-5.67 2.306-1.527 1.558-2.275 3.49-2.275 5.826 0 2.337.748 4.269 2.306 5.827 1.558 1.558 3.458 2.306 5.764 2.306 1.9 0 3.49-.499 4.736-1.527 1.246-.997 2.056-2.212 2.43-3.646l-3.645-1.215a4 4 0 0 1-1.184 1.839c-.592.498-1.371.747-2.337.747-1.122 0-2.056-.373-2.804-1.152-.748-.78-1.122-1.839-1.122-3.179 0-1.308.374-2.367 1.122-3.146.748-.748 1.651-1.153 2.773-1.153zm15.966 8.661c-1.09 0-2.026-.373-2.773-1.152-.748-.748-1.122-1.839-1.122-3.21 0-1.37.374-2.43 1.122-3.209a3.81 3.81 0 0 1 2.773-1.153c1.059 0 1.994.405 2.742 1.153.747.78 1.152 1.839 1.152 3.21 0 1.37-.405 2.46-1.152 3.209-.748.779-1.683 1.153-2.742 1.153zm0-12.494c-2.306 0-4.238.78-5.764 2.306-1.527 1.558-2.275 3.49-2.275 5.826 0 2.368.748 4.3 2.275 5.827 1.526 1.558 3.458 2.306 5.764 2.306 2.305 0 4.206-.748 5.733-2.306 1.526-1.527 2.305-3.459 2.305-5.827 0-2.336-.779-4.268-2.305-5.826-1.527-1.527-3.428-2.306-5.733-2.306Zm14.44 21.717v-7.415c.904 1.246 2.369 1.87 4.425 1.87 2.119 0 3.864-.749 5.204-2.275 1.34-1.496 2.025-3.428 2.025-5.796 0-2.337-.654-4.237-1.9-5.733-1.278-1.495-2.992-2.243-5.173-2.243-1.122 0-2.087.218-2.898.654-.84.436-1.433.935-1.807 1.558v-1.87h-4.02v21.25Zm7.572-13.585c0 1.34-.374 2.4-1.09 3.178-.717.78-1.62 1.153-2.711 1.153-1.122 0-2.025-.374-2.742-1.184-.748-.779-1.09-1.838-1.09-3.147 0-1.308.342-2.336 1.09-3.115.717-.78 1.62-1.184 2.742-1.184 1.09 0 1.994.405 2.71 1.152.717.78 1.091 1.839 1.091 3.147zm11.647 13.71 9.628-21.374H63.94l-3.77 8.973-4.081-8.973h-4.643l6.512 13.397-3.614 7.977z"/><path fill="#693ee0" d="M69.813 20.533c0 .877.303 1.586.91 2.194.608.607 1.317.877 2.161.877.844 0 1.587-.27 2.194-.877.608-.608.912-1.317.912-2.194 0-.844-.304-1.553-.912-2.16a3.009 3.009 0 0 0-2.194-.912c-.844 0-1.553.304-2.16.911-.608.608-.912 1.317-.912 2.16z"/><path fill="#171717" d="M78.313 19.194c0 1.247.467 2.337 1.433 3.24.966.936 2.243 1.372 3.832 1.372 2.025 0 3.52-.748 4.518-2.275 0 .78.031 1.402.156 1.839h3.801c-.125-.686-.187-1.496-.187-2.43V13.4c0-1.683-.56-3.085-1.62-4.176-1.09-1.09-2.773-1.651-5.048-1.651-1.931 0-3.458.53-4.611 1.526-1.184 1.029-1.838 2.213-1.963 3.521l3.677.78a2.803 2.803 0 0 1 .84-1.777c.5-.467 1.216-.716 2.088-.716.81 0 1.465.186 1.901.56.436.374.686.873.686 1.434 0 .623-.406.997-1.153 1.09l-3.77.56c-1.371.219-2.462.718-3.303 1.497-.872.81-1.278 1.838-1.278 3.146zm6.137 1.527c-.623 0-1.121-.156-1.464-.498-.374-.343-.53-.78-.53-1.278 0-1.09.624-1.745 1.901-1.932l3.459-.53v.686c0 1.278-.343 2.181-.966 2.742-.623.56-1.434.81-2.4.81zm14.725 2.648V8.04H95.03v15.33ZM94.532 3.024c0 .685.25 1.277.748 1.776.498.498 1.09.747 1.807.747.685 0 1.308-.249 1.807-.747.499-.499.748-1.091.748-1.776 0-.717-.25-1.34-.748-1.839a2.496 2.496 0 0 0-1.807-.748c-.717 0-1.309.28-1.807.78a2.495 2.495 0 0 0-.748 1.807z"/></g><defs><clipPath id="a"><path fill="#fff" d="M.016 0H99.98v29.859H.016z"/></clipPath></defs></svg>