<svg xmlns="http://www.w3.org/2000/svg" version="1.1" viewBox="0 0 1000 178.133"><path fill="#0072bb" d="M17.875 112.892C5.958 100.096 0 84.494 0 65.912c0-18.757 5.958-34.358 17.875-46.804C29.967 6.31 45.04 0 62.914 0h19.453S72.202 26.645 62.564 26.645c-10.515 0-19.278 3.682-26.463 11.22-6.835 7.537-10.515 16.828-10.515 28.047 0 11.22 3.505 20.51 10.515 28.048 7.185 7.538 15.948 11.219 26.463 11.219 8.762 0 14.02 26.646 14.02 26.646H62.738c-17.7.175-32.772-6.136-44.864-18.933z" transform="translate(129 22.98)"/><path fill="#7dc24b" d="M34.699 112.892c-11.917-12.796-17.875-28.398-17.875-46.98 0-18.757 5.958-34.358 17.875-46.804C46.791 6.31 61.862 0 79.738 0H99.19S89.026 26.645 79.387 26.645c-10.515 0-19.277 3.682-26.462 11.22C46.09 45.401 42.41 54.692 42.41 65.912c0 11.22 3.505 20.51 10.515 28.048 7.185 7.538 15.947 11.219 26.462 11.219 8.763 0 14.02 26.646 14.02 26.646H79.562c-17.7.175-32.77-6.136-44.863-18.933z" transform="translate(129 22.98)"/><path fill="#fed035" d="M51.523 112.892c-11.917-12.796-17.875-28.398-17.875-46.98 0-18.757 5.958-34.358 17.875-46.98C63.79 6.311 78.686 0 96.562 0h19.452s-9.989 26.645-19.627 26.645c-10.515 0-19.278 3.682-26.463 11.22-6.835 7.537-10.515 16.828-10.515 28.047 0 11.22 3.505 20.51 10.515 28.048 7.185 7.713 15.948 11.395 26.462 11.395 8.763 0 14.02 26.645 14.02 26.645H96.562c-17.876 0-32.772-6.311-45.039-19.108z" transform="translate(129 22.98)"/><path fill="#ff4c3d" d="M68.347 112.892C56.43 100.096 50.47 84.494 50.47 65.912c0-18.757 5.959-34.358 17.876-46.98C80.614 6.311 95.51 0 113.385 0h19.453s-10.164 26.645-19.803 26.645c-10.515 0-19.277 3.682-26.462 11.22-6.835 7.537-10.515 16.828-10.515 28.047 0 11.22 3.505 20.51 10.514 28.048 7.186 7.538 15.948 11.219 26.463 11.219 8.762 0 14.02 26.646 14.02 26.646H113.21c-17.7.175-32.596-6.136-44.863-18.933z" transform="translate(129 22.98)"/><path fill="#0b0b0b" fill-opacity="1" d="M86.047 112.892C74.13 100.096 68.17 84.494 68.17 65.912c0-18.757 5.959-34.358 17.876-46.98C98.139 6.311 113.21 0 131.085 0c23.133 0 43.637 12.621 53.101 32.43l-22.082 13.498c-5.432-12.095-16.999-19.283-31.194-19.283-10.515 0-19.277 3.682-26.462 11.22-6.835 7.537-10.515 16.828-10.515 28.047 0 11.22 3.505 20.51 10.515 28.048 7.185 7.538 15.947 11.219 26.462 11.219 14.02 0 25.937-7.538 31.72-19.283l22.081 13.323C174.547 119.378 154.218 132 131.085 132c-17.875 0-32.946-6.311-45.038-19.108zM213.102 112.892c-12.092-12.796-18.401-28.398-18.401-46.98 0-18.581 6.134-34.183 18.401-46.98C225.194 6.311 240.265 0 257.615 0c17.7 0 32.421 6.31 44.513 19.108 12.092 12.796 18.401 28.398 18.401 46.98 0 18.581-6.134 34.183-18.401 46.98-12.092 12.797-26.988 19.107-44.513 19.107-17.35-.175-32.421-6.486-44.513-19.283zm44.513-7.187c10.515 0 19.277-3.681 26.462-11.219 7.186-7.538 10.691-17.004 10.691-28.398 0-11.22-3.505-20.86-10.691-28.399-7.185-7.538-15.947-11.394-26.462-11.394s-19.277 3.681-26.462 11.219c-7.186 7.538-10.691 17.004-10.691 28.398 0 11.22 3.505 20.86 10.691 28.399 7.185 7.538 15.947 11.394 26.462 11.394zM419.895 3.33h28.039l-46.44 125.514h-29.793L325.261 3.331H353.3l33.298 95.362zM479.654 77.482c3.855 19.108 18.401 29.626 38.204 29.626 13.669 0 23.833-5.259 30.668-15.602l21.205 12.972c-11.742 18.231-29.091 27.347-52.224 27.347-19.277 0-35.05-6.311-46.966-18.582-11.917-12.621-17.876-28.398-17.876-47.506 0-18.757 5.959-34.358 17.7-46.98C482.107 6.311 497.354 0 515.755 0c17.349 0 31.72 6.486 42.935 19.283 11.216 12.797 16.999 28.574 16.999 46.98 0 2.805-.175 6.486-.876 11.22zm69.924-22.088c-3.505-20.334-17.175-30.852-33.999-30.852-19.102 0-32.421 11.745-35.925 30.852zM623.883 24.366c6.484-15.602 18.751-23.315 36.627-23.315v29.275c-9.814-.701-18.401 1.753-25.762 7.538-7.36 5.434-11.041 14.725-11.041 27.522v63.283h-25.761V3.33h25.937zM705.374 24.366C711.858 8.764 724.125 1.051 742 1.051v29.275c-9.813-.701-18.401 1.753-25.761 7.538-7.36 5.434-11.041 14.725-11.041 27.522v63.283h-25.761V3.33h25.761v21.036z" transform="translate(129 22.98)"/></svg>