<svg xmlns="http://www.w3.org/2000/svg" width="250" height="44.289" fill="none" viewBox="0 0 312.5 55.361"><g fill-rule="evenodd" clip-rule="evenodd"><path fill="#00c78a" d="M69 9.422V47.48H56.683l2.064-2.881h7.456V12.303H34.046V44.6h7.457l2.13 2.88H31.25V9.423Z"/><path fill="#464d4b" d="M50.158 15.787c-7.257 0-13.182 5.964-13.182 13.267 0 3.015.999 5.762 2.663 7.973l10.586 12.798L60.81 37.027a13.186 13.186 0 0 0 2.663-7.973c-.133-7.303-6.059-13.267-13.316-13.267Zm0 20.235c-3.795 0-6.924-3.082-6.924-6.968 0-3.752 3.063-6.901 6.924-6.901 3.795 0 6.924 3.082 6.924 6.968-.066 3.82-3.129 6.901-6.924 6.901zM267.601 15.386h5.528v3.283c.6-1.273 1.398-2.211 2.33-2.881.999-.67 2.063-1.006 3.195-1.006.799 0 1.665.201 2.596.67l-1.998 5.562c-.733-.402-1.33-.536-1.863-.536-1 0-1.797.603-2.465 1.809-.665 1.206-.997 3.618-.997 7.17v11.59h-6.326zm-8.522 9.648c-.398-1.407-1.264-2.546-2.462-3.417-1.266-.871-2.664-1.34-4.328-1.34-1.797 0-3.33.469-4.661 1.474-.866.603-1.597 1.675-2.33 3.216h13.781zm6.326 5.025h-20.507c.267 1.81 1.066 3.283 2.397 4.355 1.266 1.072 2.93 1.608 4.927 1.608 2.397 0 4.395-.87 6.126-2.546l5.325 2.546c-1.331 1.943-2.928 3.35-4.794 4.221-1.864.939-4.06 1.407-6.657 1.407-3.994 0-7.191-1.273-9.72-3.819-2.53-2.546-3.729-5.695-3.729-9.514 0-3.886 1.266-7.17 3.728-9.715 2.53-2.613 5.66-3.887 9.388-3.887 3.995 0 7.258 1.274 9.787 3.82 2.53 2.546 3.796 5.963 3.796 10.184zm-50.6-24.523h6.392v20.436l9.454-10.586h7.99l-10.92 12.261 12.25 13.4h-7.923l-10.851-11.792v11.792h-6.392Zm-10.586 9.85v3.283c.6-1.273 1.398-2.211 2.331-2.881.999-.67 2.064-1.006 3.195-1.006.799 0 1.664.201 2.597.67l-1.996 5.562c-.733-.402-1.333-.536-1.866-.536-.999 0-1.797.603-2.463 1.809-.665 1.206-.998 3.618-.998 7.17v11.59h-6.392V15.386Zm-20.972 5.427c-1.997 0-3.661.67-4.993 2.077-1.331 1.407-1.997 3.149-1.997 5.293 0 2.211.666 4.02 1.93 5.427 1.332 1.407 2.93 2.077 4.994 2.077 1.997 0 3.662-.67 4.993-2.077 1.332-1.407 1.998-3.216 1.998-5.36 0-2.211-.666-3.953-1.931-5.36-1.332-1.407-2.996-2.077-4.994-2.077zm-.133-6.03c2.397 0 4.66.603 6.791 1.809 2.13 1.206 3.795 2.814 4.994 4.89a13.128 13.128 0 0 1 1.797 6.701c0 2.412-.6 4.69-1.797 6.767-1.199 2.077-2.797 3.752-4.86 4.891-2.064 1.206-4.328 1.81-6.792 1.81-3.661 0-6.79-1.274-9.387-3.887-2.597-2.613-3.862-5.762-3.862-9.514 0-4.02 1.465-7.303 4.395-9.983 2.463-2.345 5.392-3.485 8.721-3.485zm-49.8.603h6.192l5.193 14.606 5.526-14.606h3.861l5.393 14.405 5.127-14.405h6.258l-9.188 25.594h-4.061l-5.46-14.606-5.592 14.606h-3.995z"/><path fill="#00c78a" d="M119.532 20.813c-1.997 0-3.662.67-4.993 2.077-1.332 1.407-1.998 3.149-1.998 5.293 0 2.211.666 4.02 1.931 5.427 1.332 1.407 2.93 2.077 4.994 2.077 1.997 0 3.661-.67 4.993-2.077 1.331-1.407 1.997-3.216 1.997-5.36 0-2.211-.666-3.953-1.93-5.36-1.332-1.407-2.997-2.077-4.994-2.077zm-.133-6.03c2.397 0 4.66.603 6.791 1.808 2.13 1.206 3.795 2.815 4.993 4.892a13.125 13.125 0 0 1 1.798 6.7c0 2.412-.6 4.69-1.798 6.767s-2.796 3.752-4.86 4.891c-2.064 1.206-4.327 1.81-6.79 1.81-3.663 0-6.792-1.274-9.388-3.887-2.597-2.613-3.862-5.762-3.862-9.514 0-4.02 1.465-7.303 4.394-9.983 2.463-2.346 5.393-3.485 8.722-3.485zm-15.58 5.829-5.326 2.948c-.998-1.072-1.997-1.81-2.93-2.211-.998-.402-2.13-.603-3.394-.603-2.397 0-4.328.737-5.793 2.144-1.464 1.407-2.197 3.283-2.197 5.494 0 2.144.733 3.953 2.13 5.293 1.399 1.407 3.263 2.077 5.593 2.077 2.863 0 5.06-1.005 6.658-2.948l4.993 3.484c-2.73 3.551-6.59 5.36-11.584 5.36-4.46 0-7.99-1.34-10.52-4.02-2.53-2.68-3.795-5.762-3.795-9.313 0-2.48.6-4.757 1.865-6.834 1.265-2.077 2.93-3.753 5.193-4.892 2.197-1.205 4.66-1.809 7.39-1.809 2.53 0 4.794.536 6.79 1.541 1.998 1.006 3.663 2.413 4.928 4.289z"/></g></svg>