<svg xmlns="http://www.w3.org/2000/svg" fill="none" class="icon-logo-text" version="1.1" viewBox="0 0 227.273 28.409"><path fill="#010101" fill-opacity="1" d="M45.129 19.102a1.595 1.595 0 0 0-1.076.411c-1.47 1.261-2.911 1.964-5.048 1.964-3.861 0-6.661-3.253-6.661-7.287v-.058c0-4.008 2.828-7.24 6.661-7.24a7.254 7.254 0 0 1 4.819 1.847 1.775 1.775 0 0 0 2.535-.492c.176-.274.276-.591.29-.918a1.824 1.824 0 0 0-.18-.8 1.793 1.793 0 0 0-.512-.636C44.2 4.516 42.149 3.58 39.034 3.58c-6.095 0-10.398 4.776-10.398 10.61v.058c0 5.896 4.385 10.567 10.269 10.567 3.259 0 5.424-1.053 7.328-2.755a1.74 1.74 0 0 0 .577-1.29 1.73 1.73 0 0 0-.508-1.18 1.675 1.675 0 0 0-1.173-.488zm13.211-6.537c-3.897-.94-4.818-1.643-4.818-3.225v-.058c0-1.352 1.212-2.434 3.288-2.434 1.588 0 3.086.525 4.66 1.552.278.176.599.268.925.266a1.63 1.63 0 0 0 1.178-.483 1.683 1.683 0 0 0 .493-1.19 1.642 1.642 0 0 0-.197-.824 1.61 1.61 0 0 0-.58-.61 10.986 10.986 0 0 0-6.404-1.907c-4.009 0-6.891 2.43-6.891 5.95v.059c0 3.782 2.42 5.072 6.719 6.129 3.75.878 4.557 1.668 4.557 3.137v.058c0 1.523-1.384 2.58-3.586 2.58a8.665 8.665 0 0 1-5.654-2.11 1.696 1.696 0 0 0-2.434.465 1.763 1.763 0 0 0-.276.883c-.001.27.06.535.181.774.12.24.296.447.51.604a12.418 12.418 0 0 0 7.584 2.58c4.241 0 7.213-2.289 7.213-6.13v-.058c.011-3.4-2.201-4.955-6.468-6.008zm17.88 0c-3.893-.94-4.815-1.643-4.815-3.225v-.058c0-1.352 1.212-2.434 3.288-2.434 1.585 0 3.087.525 4.66 1.552.278.176.6.268.926.266a1.63 1.63 0 0 0 1.178-.483 1.681 1.681 0 0 0 .493-1.19 1.642 1.642 0 0 0-.198-.824 1.61 1.61 0 0 0-.58-.61 10.985 10.985 0 0 0-6.422-1.907c-4.008 0-6.894 2.43-6.894 5.95v.059c0 3.782 2.423 5.072 6.722 6.129 3.75.878 4.557 1.668 4.557 3.137v.058c0 1.523-1.384 2.58-3.585 2.58a8.665 8.665 0 0 1-5.65-2.11 1.7 1.7 0 0 0-2.436.466c-.17.263-.266.568-.279.882 0 .27.062.534.183.774.12.24.295.446.51.604a12.439 12.439 0 0 0 7.586 2.58c4.241 0 7.21-2.289 7.21-6.13v-.058c.007-3.4-2.184-4.955-6.454-6.008zm16.356 1.173h-5.424c-.442.02-.858.213-1.163.538a1.76 1.76 0 0 0-.476 1.206c0 .449.17.88.476 1.205.305.325.721.518 1.163.538h5.424c.442-.02.858-.213 1.164-.538a1.76 1.76 0 0 0 .475-1.205c0-.45-.17-.881-.475-1.206a1.706 1.706 0 0 0-1.164-.538zm16.342-9.794H95.516a1.622 1.622 0 0 0-1.213.46 1.674 1.674 0 0 0-.51 1.21 1.697 1.697 0 0 0 .51 1.21 1.642 1.642 0 0 0 1.213.461h4.901v15.54c0 .484.19.947.525 1.289.337.341.793.533 1.268.533s.931-.192 1.268-.533c.336-.342.525-.805.525-1.288V7.286h4.915c.423-.02.822-.206 1.114-.517a1.687 1.687 0 0 0 0-2.31 1.634 1.634 0 0 0-1.114-.515zm13.929 0h-7.2a1.739 1.739 0 0 0-1.276.525 1.795 1.795 0 0 0-.516 1.297v17.063c.061.434.274.832.6 1.12a1.776 1.776 0 0 0 2.35 0 1.83 1.83 0 0 0 .6-1.12v-5.516h4.47l4.901 6.361c.187.293.444.533.747.697.303.164.642.248.985.244a1.65 1.65 0 0 0 1.192-.478 1.724 1.724 0 0 0 .511-1.195 2.122 2.122 0 0 0-.577-1.377l-3.865-4.956c2.71-.849 4.585-2.842 4.585-6.128v-.059a6.266 6.266 0 0 0-1.674-4.427c-1.294-1.29-3.27-2.051-5.822-2.051zm3.904 6.74c0 2.081-1.613 3.43-4.151 3.43h-5.192V7.226h5.163c2.624 0 4.18 1.202 4.18 3.403zm9.662-6.886a1.723 1.723 0 0 0-.684.125 1.76 1.76 0 0 0-.973.97 1.81 1.81 0 0 0-.135.694v17.239c.02.463.216.901.546 1.222.33.321.77.5 1.227.5a1.76 1.76 0 0 0 1.226-.5c.33-.32.526-.759.547-1.222V5.584a1.8 1.8 0 0 0-.51-1.265 1.737 1.737 0 0 0-1.244-.52zm22.47 15.304a1.583 1.583 0 0 0-1.076.411c-1.474 1.261-2.915 1.964-5.048 1.964-3.865 0-6.665-3.253-6.665-7.287v-.058c0-4.008 2.828-7.24 6.665-7.24a7.247 7.247 0 0 1 4.815 1.847c.308.24.687.368 1.075.364a1.703 1.703 0 0 0 1.246-.502 1.768 1.768 0 0 0 .515-1.257 1.854 1.854 0 0 0-.183-.8 1.818 1.818 0 0 0-.509-.636c-1.76-1.377-3.808-2.314-6.923-2.314-6.117 0-10.398 4.777-10.398 10.61v.059c0 5.895 4.381 10.567 10.268 10.567 3.26 0 5.421-1.053 7.325-2.755a1.747 1.747 0 0 0 .577-1.29 1.727 1.727 0 0 0-.504-1.191 1.676 1.676 0 0 0-1.18-.492zm14.7-6.13 6.288-6.153a1.776 1.776 0 0 0 .634-1.352 1.66 1.66 0 0 0-.477-1.187 1.614 1.614 0 0 0-1.168-.482 1.84 1.84 0 0 0-1.463.692l-9.573 9.773v-8.68a1.815 1.815 0 0 0-.546-1.222 1.758 1.758 0 0 0-2.453 0c-.33.32-.526.759-.547 1.223v17.238c.021.464.216.902.547 1.223a1.758 1.758 0 0 0 2.453 0c.33-.321.526-.76.546-1.223v-4.249l3.288-3.224 6.49 8.417c.16.258.381.47.644.619.262.148.557.227.857.23a1.727 1.727 0 0 0 1.657-1.071c.09-.219.137-.453.136-.69a1.974 1.974 0 0 0-.488-1.29zm18.571-.407c-3.894-.94-4.815-1.643-4.815-3.225v-.058c0-1.352 1.212-2.434 3.287-2.434 1.59 0 3.087.525 4.661 1.552.278.176.6.268.925.266a1.632 1.632 0 0 0 1.178-.483 1.694 1.694 0 0 0 .493-1.19 1.637 1.637 0 0 0-.767-1.435 10.985 10.985 0 0 0-6.403-1.906c-4.009 0-6.895 2.43-6.895 5.95v.059c0 3.782 2.424 5.072 6.722 6.129 3.751.878 4.557 1.668 4.557 3.137v.058c0 1.523-1.384 2.58-3.585 2.58a8.662 8.662 0 0 1-5.65-2.11 1.701 1.701 0 0 0-2.436.466 1.75 1.75 0 0 0-.278.882 1.705 1.705 0 0 0 .695 1.378 12.417 12.417 0 0 0 7.583 2.58c4.241 0 7.21-2.289 7.21-6.13v-.058c-.01-3.4-2.2-4.955-6.47-6.008z"/></svg>