<svg viewBox="0 0 300 311.781" fill="none" width="250" height="259.817" xmlns="http://www.w3.org/2000/svg"><g clip-path="url(#clip0)" transform="translate(25 25.982) scale(1.5625)"><path d="M28.163 116.805c-14.774 0-26.794-12.026-26.794-26.806 0-14.355 11.22-26.116 25.54-26.776l1.983-.091-.789-1.823a18.45 18.45 0 01-1.52-7.369c0-10.245 8.33-18.578 18.57-18.578s18.57 8.333 18.57 18.578c0 .737-.044 1.486-.133 2.226l-.185 1.555 14.316-.208-.02-1.506c-.002-.088-.002-.18-.002-.271 0-16.625 13.52-30.152 30.137-30.152 16.618 0 30.138 13.527 30.138 30.152 0 .813-.034 1.646-.101 2.475l-.087 1.06 1.009.347c11.864 4.07 19.838 15.242 19.838 27.8 0 16.201-13.174 29.382-29.369 29.382H28.163z" fill="#fff"/><path d="M107.834 26.956c7.685 0 14.91 2.995 20.342 8.43 5.433 5.436 8.427 12.664 8.427 20.352 0 .774-.033 1.57-.097 2.364l-.173 2.124 2.015.692c11.313 3.883 18.911 14.533 18.911 26.504 0 7.483-2.912 14.518-8.201 19.808-5.29 5.291-12.319 8.204-19.799 8.204H28.163c-14.02 0-25.424-11.409-25.424-25.435a25.307 25.307 0 017.059-17.587c4.538-4.74 10.636-7.517 17.173-7.819l3.965-.183-1.577-3.645a17.084 17.084 0 01-1.406-6.825c0-9.488 7.717-17.208 17.2-17.208 9.485 0 17.201 7.72 17.201 17.208 0 .682-.042 1.377-.123 2.065l-.371 3.11 3.132-.044 11.382-.166 2.736-.04-.037-2.737-.002-.14c-.003-.082-.003-.166-.003-.248 0-7.688 2.993-14.916 8.426-20.351 5.433-5.438 12.656-8.433 20.34-8.433zm0-2.742c-17.4 0-31.507 14.113-31.507 31.521 0 .144.003.285.005.428l-11.382.166c.094-.784.143-1.58.143-2.389 0-11.016-8.928-19.948-19.94-19.948-11.011 0-19.939 8.932-19.939 19.948 0 2.812.583 5.487 1.631 7.913C11.904 62.543 0 74.877 0 90c0 15.561 12.608 28.175 28.163 28.175h101.096c16.978 0 30.741-13.768 30.741-30.754 0-13.492-8.683-24.951-20.763-29.096.07-.853.107-1.716.107-2.586-.003-17.409-14.109-31.524-31.51-31.524z" fill="#dce1e6"/><path d="M41.315 88.9h77.367l-3.698-74.71L117.748.01 100.76 0v14.19H87.729V0H72.27v14.19H59.24V0L42.248.01l2.766 14.18z" fill="url(#paint0_linear)"/><path d="M54.937 35.683c-.002.173-.007.348-.007.524 0 13.85 11.224 25.08 25.068 25.08 13.844 0 25.068-11.23 25.068-25.08 0-.176-.002-.349-.007-.524z" fill="#fff"/><path d="M80 57.587c5.598 0 10.136-4.54 10.136-10.14 0-5.602-4.538-10.142-10.136-10.142-5.598 0-10.137 4.54-10.137 10.141S74.402 57.587 80 57.587z" fill="#000"/><path d="M127.668 67.87c-8.285 0-15.151 6.07-16.402 14.008a15.777 15.777 0 00-4.254-.586 15.69 15.69 0 00-10.527 4.038c-2.783-3.902-7.344-6.447-12.5-6.447a15.317 15.317 0 00-11.454 5.131 14.662 14.662 0 00-11.18-5.16c-1.243 0-2.446.156-3.598.445-2.904-3.363-7.195-5.495-11.986-5.495-8.745 0-15.833 7.092-15.833 15.841 0 8.749 7.088 15.841 15.833 15.841a15.81 15.81 0 005.68-1.053 14.65 14.65 0 009.905 3.84c4.157 0 7.907-1.729 10.581-4.503 2.813 3.558 7.163 5.846 12.05 5.846 3.819 0 7.309-1.397 9.996-3.707 2.835 4.167 7.612 6.907 13.033 6.907 7.606 0 13.95-5.391 15.429-12.562 1.643.544 3.398.845 5.227.845 9.17 0 16.605-7.438 16.605-16.612s-7.432-16.618-16.605-16.618z" fill="#fff"/><path d="M21.417 138.945h-.084c-1.963-2.578-3.968-3.436-6.667-3.436-6.054 0-9.736 5.198-9.736 11.053 0 5.85 3.968 11.132 9.82 11.132 2.699 0 5.154-1.022 6.831-3.52h.08v2.948h5.646v-30.778h-5.89zm-5.032 13.997c-3.477 0-5.318-2.906-5.318-6.22 0-3.192 1.761-6.221 5.154-6.221 3.683 0 5.398 2.987 5.398 6.141.004 3.516-1.88 6.3-5.234 6.3zm22.503-17.437c-6.34 0-10.758 4.34-10.758 11.133 0 6.712 4.419 11.048 10.758 11.048 4.952 0 8.795-2.25 10.228-6.548l-5.726-.45c-.82 1.636-2.413 2.498-4.212 2.498-3.149 0-4.662-2.456-4.91-4.912H49.65v-1.636c0-6.793-4.422-11.133-10.762-11.133zm-4.62 9.005c.328-2.376 1.841-4.501 4.91-4.501 2.82 0 4.376 2.457 4.582 4.501zm23.974-14.485h-5.89v6.056h-2.698v4.5h2.698v11.297c0 4.542 2.334 5.484 6.18 5.484.942 0 1.883-.122 2.82-.244v-4.626c-.369.08-.697.122-1.185.122-1.513 0-1.921-.45-1.921-1.392v-10.641h3.11v-4.5h-3.11zm14.322 5.48c-6.34 0-10.757 4.34-10.757 11.133 0 6.712 4.418 11.048 10.757 11.048 4.952 0 8.795-2.25 10.228-6.548l-5.726-.45c-.82 1.636-2.413 2.498-4.212 2.498-3.149 0-4.662-2.456-4.91-4.912h15.382v-1.636c-.004-6.793-4.422-11.133-10.762-11.133zm-4.624 9.005c.328-2.376 1.842-4.501 4.91-4.501 2.821 0 4.377 2.457 4.582 4.501zm26.594-4.009c1.555 0 3.274.698 3.396 3.643l6.138-.244c-.286-4.463-3.275-8.391-9.53-8.391-6.382 0-10.228 4.542-10.228 11.297 0 6.464 3.476 10.884 10.35 10.884 5.645 0 8.428-3.356 9.324-7.982l-5.768-.206c-.328 2.048-1.471 3.436-3.72 3.436-3.07 0-4.049-3.112-4.049-5.892-.004-2.7.446-6.545 4.087-6.545zm18.496-10.476h-5.89v6.056h-2.699v4.5h2.699v11.297c0 4.542 2.333 5.484 6.18 5.484.941 0 1.879-.122 2.824-.244v-4.626c-.369.08-.697.122-1.185.122-1.513 0-1.925-.45-1.925-1.392v-10.641h3.11v-4.5h-3.11zm4.582 27.093h5.89v-21.037h-5.89zm2.947-31.025c-1.963 0-3.439 1.758-3.439 3.478 0 1.636 1.472 3.398 3.439 3.398 1.879 0 3.435-1.678 3.435-3.478.003-1.884-1.678-3.398-3.435-3.398zm7.487 7.242v2.742h-2.985v4.501h2.985v16.536h5.89v-16.536h3.396v-4.501h-3.396v-3.276c0-1.186.735-1.716 1.757-1.716h1.635v-4.992h-1.143c-5.192 0-8.139 1.35-8.139 7.242zm25.244 2.746l-4.46 13.913h-.084l-4.46-13.913h-6.462l7.895 21.037-3.519 9.169h6.18l11.371-30.202h-6.461z" fill="#000"/></g><defs id="defs32"><linearGradient id="paint0_linear" x1="80.135" y1="95.963" x2="79.039" y2="2.765" gradientUnits="userSpaceOnUse"><stop stop-color="#F05145" id="stop18"/><stop offset=".24" stop-color="#F17B6E" id="stop20"/><stop offset=".48" stop-color="#F69674" id="stop22"/><stop offset=".78" stop-color="#F8A575" id="stop24"/><stop offset="1" stop-color="#F9AB77" id="stop26"/></linearGradient><clipPath id="clip0"><path fill="#fff" id="rect29" d="M0 0h160v166.283H0z"/></clipPath></defs></svg>