<svg xmlns="http://www.w3.org/2000/svg" fill="none" version="1.1" viewBox="0 0 5000 2301.253"><path fill="#008746" d="M4069 0v1872.76H164.69c-105.82 0-199.56-42.38-151.97-188.95L482.25 237.98C526.39 110.24 637.68.1 767.2.1z" transform="translate(465.5 214.247)"/><path fill="#fff" d="m3221.85 861.07 193.99 359.06h-163.72l-128.13-240.52-68.94 84.42v156.05h-163.19V654.03h163.19v234.86l176.39-234.86h160.27zm-1040 359.06H1787.2V654.08h375.17v96.04h-217.11v120.55h210.01v94.02h-210.11v143.67h236.69zm466.37-.11h-236.55l-158.68-566.05h169.19l109.28 459.65 121.27-459.65h154.22zm-1498.12.22V653.23h252.33c61.01 0 157 .62 212.17 61.02 54.11 59.24 58.57 163.05 58.57 220.9 0 242.49-126.02 285.18-290.65 285.18zm220.86-102.28c18.91-.33 38.4-1.25 57.47-5.84 62.65-15.09 78.28-56.6 84.66-100.93 4.17-29.02 5.32-49.94 5.32-78.29 0-29-.8-58.09-6.06-87.11-3.78-23.97-12.03-48.79-27.97-66.1-29.39-31.99-75.6-31.25-108.12-31.25h-60.44l-.01 369.28c18.37.29 36.75.62 55.11.3z" transform="translate(465.5 214.247)"/></svg>