<?xml version="1.0" encoding="UTF-8" standalone="no"?>
<svg xmlns="http://www.w3.org/2000/svg" width="250" height="75" viewBox="0 0 300 90">
  <g transform="translate(50, 20)">
    <!-- DEVK logo with shield -->
    <path d="M 25 5 L 35 5 L 45 15 L 45 35 Q 35 50 25 50 Q 15 50 5 35 L 5 15 Z" fill="#004D9D" stroke="#004D9D" stroke-width="1"/>
    <text x="25" y="32" font-family="Arial, sans-serif" font-size="18" font-weight="bold" fill="#FFFFFF" text-anchor="middle">D</text>
    
    <!-- DEVK text -->
    <g transform="translate(55, 15)">
      <path d="M 0 0 L 8 0 Q 18 0 18 10 Q 18 20 8 20 L 0 20 Z M 3 3 L 3 17 L 8 17 Q 15 17 15 10 Q 15 3 8 3 Z" fill="#004D9D"/>
      <path d="M 22 0 L 35 0 L 35 3 L 25 3 L 25 8 L 34 8 L 34 11 L 25 11 L 25 17 L 35 17 L 35 20 L 22 20 Z" fill="#004D9D"/>
      <path d="M 39 0 L 43 0 L 49 12 L 55 0 L 59 0 L 50 20 L 48 20 Z" fill="#004D9D"/>
      <path d="M 63 0 L 66 0 L 66 10 L 70 10 L 75 0 L 79 0 L 73 11 L 79 20 L 75 20 L 70 12 L 66 12 L 66 20 L 63 20 Z" fill="#004D9D"/>
    </g>
  </g>
</svg>
