<svg xmlns="http://www.w3.org/2000/svg" id="Layer_1" x="0" y="0" version="1.1" viewBox="0 0 714.286 120.357" xml:space="preserve"><style id="style1" type="text/css">.st0{fill:#FFFFFF;}
	.st1{fill-rule:evenodd;clip-rule:evenodd;fill:#FFFFFF;}</style><g id="XMLID_2369_" fill="#0069ff" fill-opacity="1" transform="translate(57.143 9.625)"><g id="XMLID_2638_"><g id="XMLID_2639_" fill="#0069ff" fill-opacity="1"><g id="g1" fill="#0069ff" fill-opacity="1"><g id="XMLID_44_" fill="#0069ff" fill-opacity="1"><g id="XMLID_48_" fill="#0069ff" fill-opacity="1"><path id="XMLID_49_" fill="#0069ff" fill-opacity="1" d="M50.6 101.1V81.5c20.8 0 36.8-20.6 28.9-42.4-3-8.1-9.4-14.5-17.5-17.5-21.8-7.9-42.4 8.1-42.4 28.9L0 50.6C0 17.5 32-8.3 66.7 2.5c15.2 4.7 27.2 16.8 31.9 31.9 10.8 34.7-14.9 66.7-48 66.7z" class="st0"/></g><path id="XMLID_47_" fill="#0069ff" fill-opacity="1" d="M50.6 62.1 50.6 81.6 31.1 81.6 31.1 62.1z" class="st1"/><path id="XMLID_46_" fill="#0069ff" fill-opacity="1" d="M31.1 96.6 16.1 96.6 16.1 81.6 31.1 81.6z" class="st1"/><path id="XMLID_45_" fill="#0069ff" fill-opacity="1" d="M3.5 69 16.1 69 16.1 81.6 3.5 81.6z" class="st1"/></g></g></g></g><g id="XMLID_2370_"><path id="XMLID_2635_" fill="#0069ff" fill-opacity="1" d="M180 29.2c-5.8-4-13-6.1-21.4-6.1h-18.3v58.1h18.3c8.4 0 15.6-2.1 21.4-6.4 3.2-2.2 5.7-5.4 7.4-9.3 1.7-3.9 2.6-8.5 2.6-13.7 0-5.1-.9-9.7-2.6-13.6-1.7-3.8-4.2-6.8-7.4-9zM151 33h5.8c6.4 0 11.7 1.3 15.7 3.7 4.4 2.7 6.7 7.8 6.7 15.1 0 7.6-2.3 12.9-6.7 15.8-3.8 2.5-9.1 3.8-15.6 3.8H151z" class="st0"/><path id="XMLID_2634_" fill="#0069ff" fill-opacity="1" d="M202.8 22.5c-1.8 0-3.3.6-4.5 1.8-1.2 1.2-1.9 2.7-1.9 4.4 0 1.8.6 3.3 1.9 4.5 1.2 1.2 2.7 1.9 4.5 1.9 1.8 0 3.3-.6 4.5-1.9 1.2-1.2 1.9-2.8 1.9-4.5 0-1.8-.6-3.3-1.9-4.4-1.2-1.2-2.8-1.8-4.5-1.8z" class="st0"/><path id="XMLID_2564_" fill="#0069ff" fill-opacity="1" d="M197.5 40.4H207.8V81.4H197.5z" class="st0"/><path id="XMLID_2561_" fill="#0069ff" fill-opacity="1" d="M245.3 43.8c-3.1-2.8-6.6-4.4-10.3-4.4-5.7 0-10.4 2-14.1 5.8-3.7 3.8-5.5 8.8-5.5 14.7 0 5.8 1.8 10.7 5.5 14.7 3.7 3.8 8.4 5.8 14.1 5.8 4 0 7.4-1.1 10.2-3.3v.9c0 3.4-.9 6-2.7 7.9-1.8 1.8-4.3 2.7-7.4 2.7-4.8 0-7.7-1.9-11.4-6.8l-7 6.7.2.3c1.5 2.1 3.8 4.2 6.9 6.2 3.1 2 6.9 3 11.5 3 6.1 0 11.1-1.9 14.7-5.6 3.7-3.7 5.5-8.7 5.5-14.9V40.4h-10.1v3.4zM242.6 68c-1.8 2-4.1 3-7.1 3s-5.3-1-7-3c-1.8-2-2.7-4.7-2.7-8s.9-6.1 2.7-8.1c1.8-2 4.1-3.1 7-3.1 3 0 5.3 1 7.1 3.1 1.8 2 2.7 4.8 2.7 8.1s-1 6-2.7 8z" class="st0"/><path id="XMLID_2560_" fill="#0069ff" fill-opacity="1" d="M264.2 40.4H274.5V81.4H264.2z" class="st0"/><path id="XMLID_2552_" fill="#0069ff" fill-opacity="1" d="M269.5 22.5c-1.8 0-3.3.6-4.5 1.8-1.2 1.2-1.9 2.7-1.9 4.4 0 1.8.6 3.3 1.9 4.5 1.2 1.2 2.7 1.9 4.5 1.9 1.8 0 3.3-.6 4.5-1.9 1.2-1.2 1.9-2.8 1.9-4.5 0-1.8-.6-3.3-1.9-4.4-1.2-1.2-2.8-1.8-4.5-1.8z" class="st0"/><path id="XMLID_2509_" fill="#0069ff" fill-opacity="1" d="M297.1 29.3H287v11.1h-5.9v9.4h5.9v17c0 5.3 1.1 9.1 3.2 11.3 2.1 2.2 5.8 3.3 11.1 3.3 1.7 0 3.4-.1 5-.2h.5v-9.4l-3.5.2c-2.5 0-4.1-.4-4.9-1.3-.8-.9-1.2-2.7-1.2-5.4V49.8h9.6v-9.4h-9.6V29.3z" class="st0"/><path id="XMLID_2508_" fill="#0069ff" fill-opacity="1" d="M355 23.2H365.3V81.3H355z" class="st0"/><path id="XMLID_2470_" fill="#0069ff" fill-opacity="1" d="M469.4 66.7c-1.8 2.1-3.7 3.9-5.2 4.8-1.4.9-3.2 1.4-5.3 1.4-3 0-5.5-1.1-7.5-3.4s-3-5.2-3-8.7c0-3.5 1-6.4 2.9-8.6 2-2.3 4.4-3.4 7.4-3.4 3.3 0 6.8 2.1 9.8 5.6l6.8-6.5c-4.4-5.8-10.1-8.5-16.9-8.5-5.7 0-10.6 2.1-14.6 6.1-4 4-6 9.2-6 15.3 0 6.1 2 11.2 6 15.3 4 4.1 8.9 6.1 14.6 6.1 7.5 0 13.5-3.2 17.5-9.1z" class="st0"/><path id="XMLID_2460_" fill="#0069ff" fill-opacity="1" d="M511.7 46.1c-1.5-2-3.5-3.7-5.9-4.9-2.5-1.2-5.3-1.8-8.5-1.8-5.8 0-10.5 2.1-14 6.3-3.4 4.2-5.2 9.3-5.2 15.4 0 6.2 1.9 11.3 5.7 15.3 3.7 3.9 8.8 5.9 14.9 5.9 6.9 0 12.7-2.8 16.9-8.4l.2-.3-6.7-6.5c-.6.8-1.5 1.6-2.3 2.4-1 1-2 1.7-3 2.2-1.5.8-3.3 1.1-5.2 1.1-2.9 0-5.2-.8-7-2.5-1.7-1.5-2.7-3.6-2.9-6.2H516l.1-3.8c0-2.7-.4-5.2-1.1-7.6-.7-2.3-1.8-4.6-3.3-6.6zm-22.5 9.6c.5-2 1.4-3.6 2.7-4.9 1.4-1.4 3.2-2.1 5.4-2.1 2.5 0 4.4.7 5.7 2.1 1.2 1.3 1.9 2.9 2.1 4.8h-15.9z" class="st0"/><path id="XMLID_2456_" fill="#0069ff" fill-opacity="1" d="M551.3 43.4c-3.1-2.7-7.4-4-12.8-4-3.4 0-6.6.8-9.5 2.2-2.7 1.4-5.3 3.6-7 6.6l.1.1 6.6 6.3c2.7-4.3 5.7-5.8 9.7-5.8 2.2 0 3.9.6 5.3 1.7s2 2.6 2 4.4v2c-2.6-.8-5.1-1.2-7.6-1.2-5.1 0-9.3 1.2-12.4 3.6-3.1 2.4-4.7 5.9-4.7 10.2 0 3.8 1.3 7 4 9.3 2.7 2.2 6 3.4 9.9 3.4 3.9 0 7.6-1.6 10.9-4.3v3.4h10.1V55c.2-5-1.4-8.9-4.6-11.6zM533 65.7c1.2-.8 2.8-1.2 4.9-1.2 2.5 0 5.1.5 7.8 1.5v4c-2.2 2.1-5.2 3.1-8.9 3.1-1.8 0-3.2-.4-4.1-1.2-.9-.8-1.4-1.7-1.4-3 0-1.4.6-2.4 1.7-3.2z" class="st0"/><path id="XMLID_2454_" fill="#0069ff" fill-opacity="1" d="M595.7 44.2c-2.9-3.2-6.9-4.8-12-4.8-4.1 0-7.4 1.2-9.9 3.5v-2.5h-10.1v41H574V58.7c0-3.1.7-5.6 2.2-7.3 1.5-1.8 3.4-2.6 6.1-2.6 2.3 0 4.1.8 5.4 2.3 1.3 1.6 2 3.7 2 6.4v23.7H600V57.6c0-5.7-1.4-10.2-4.3-13.4z" class="st0"/><path id="XMLID_2450_" fill="#0069ff" fill-opacity="1" d="M342.1 43.4c-3.1-2.7-7.4-4-12.8-4-3.4 0-6.6.8-9.5 2.2-2.7 1.4-5.3 3.6-7 6.6l.1.1 6.6 6.3c2.7-4.3 5.7-5.8 9.7-5.8 2.2 0 3.9.6 5.3 1.7s2 2.6 2 4.4v2c-2.6-.8-5.1-1.2-7.6-1.2-5.1 0-9.3 1.2-12.4 3.6-3.1 2.4-4.7 5.9-4.7 10.2 0 3.8 1.3 7 4 9.3 2.7 2.2 6 3.4 9.9 3.4 3.9 0 7.6-1.6 10.9-4.3v3.4h10.1V55c.1-5-1.5-8.9-4.6-11.6zm-18.3 22.3c1.2-.8 2.8-1.2 4.9-1.2 2.5 0 5.1.5 7.8 1.5v4c-2.2 2.1-5.2 3.1-8.9 3.1-1.8 0-3.2-.4-4.1-1.2-.9-.8-1.4-1.7-1.4-3 0-1.4.5-2.4 1.7-3.2z" class="st0"/><path id="XMLID_2371_" fill="#0069ff" fill-opacity="1" d="M402.7 82.2c-16.5 0-30-13.4-30-30s13.4-30 30-30 30 13.4 30 30-13.5 30-30 30zm0-49.4c-10.7 0-19.4 8.7-19.4 19.4s8.7 19.4 19.4 19.4 19.4-8.7 19.4-19.4-8.7-19.4-19.4-19.4z" class="st0"/></g></g></svg>