<svg xmlns="http://www.w3.org/2000/svg" xml:space="preserve" width="250" height="101.137" viewBox="0 0 312.5 126.421"><path d="M10719.427 10071.084c-90.639 0-164.377-73.738-164.377-164.377 0-90.639 73.738-164.376 164.377-164.376 90.639 0 164.377 73.737 164.377 164.376 0 90.64-73.738 164.377-164.377 164.377zm0-349.381c-102.012 0-185.005 82.993-185.005 185.004 0 102.012 82.993 185.005 185.005 185.005s185.004-82.993 185.004-185.005c0-102.011-82.992-185.004-185.004-185.004M10031.29 9827.551h33.339c15.517 0 28.59 2.764 39.219 8.293 10.627 5.542 18.628 14.15 24.005 25.826 5.373 11.689 8.061 26.775 8.061 45.285 0 18.345-2.688 33.335-8.061 44.982-5.377 11.635-13.357 20.202-23.945 25.703-10.589 5.487-23.639 8.237-39.157 8.237h-33.461zm35.521-44.982h-88.015v248.291h88.742c24.974 0 46.472-4.965 64.497-14.852 18.022-9.902 31.903-24.107 41.644-42.618 9.737-18.51 14.608-40.65 14.608-66.435 0-25.867-4.871-48.09-14.608-66.683-9.741-18.593-23.683-32.854-41.825-42.796-18.148-9.943-39.826-14.907-65.043-14.907M10227.08 10030.86h64.744l68.361-166.825h2.915l68.375 166.825h64.744v-248.291h-50.923v161.6h-2.063l-64.249-160.39h-34.669l-64.262 160.994h-2.063V9782.57h-50.91v248.291" style="fill:#222526;fill-opacity:1;fill-rule:nonzero;stroke:none;stroke-width:.137519" transform="matrix(.13333 0 0 -.13333 -1204.997 1383.902)"/><path d="M10827.201 9943.934h-53.097c-.976 6.862-2.956 12.982-5.94 18.36-2.998 5.376-6.835 9.97-11.525 13.764-4.689 3.796-10.08 6.711-16.186 8.733-6.105 2.008-12.706 3.025-19.816 3.025-12.858 0-24.052-3.177-33.582-9.516-9.544-6.34-16.929-15.554-22.182-27.642-5.253-12.087-7.88-26.733-7.88-43.95 0-17.7 2.64-32.565 7.935-44.612 5.294-12.046 12.707-21.137 22.25-27.284 9.531-6.133 20.573-9.2 33.088-9.2 7.041 0 13.559.922 19.582 2.778 6.024 1.857 11.373 4.593 16.063 8.183 4.689 3.603 8.595 7.99 11.702 13.16 3.108 5.17 5.267 11.07 6.491 17.699l53.097-.248c-1.376-11.386-4.786-22.36-10.246-32.908-5.459-10.548-12.775-19.968-21.948-28.247-9.172-8.292-20.077-14.838-32.729-19.637-12.652-4.813-26.927-7.22-42.851-7.22-22.155 0-41.93 5.006-59.34 15.03-17.424 10.026-31.162 24.534-41.228 43.526-10.067 18.991-15.086 41.984-15.086 68.98 0 27.077 5.088 50.111 15.265 69.103 10.19 18.991 24.011 33.486 41.462 43.47 17.465 9.97 37.102 14.962 58.927 14.962 14.384 0 27.737-2.022 40.059-6.051 12.336-4.043 23.255-9.929 32.798-17.644 9.544-7.715 17.314-17.149 23.337-28.315 6.024-11.153 9.888-23.915 11.58-38.299" style="fill:#28de22;fill-opacity:1;fill-rule:nonzero;stroke:none;stroke-width:.137519" transform="matrix(.13333 0 0 -.13333 -1204.997 1383.902)"/><path d="m11003.583 9880.152 30.57 93.967h1.939l30.516-93.967zm65.363 150.694h-67.646l-85.702-248.277h56.245l18.414 56.616h89.649l18.386-56.616h56.246l-85.592 248.277" style="fill:#222526;fill-opacity:1;fill-rule:nonzero;stroke:none;stroke-width:.137519" transform="matrix(.13333 0 0 -.13333 -1204.997 1383.902)"/><path d="m9568.956 9744.795 23.36-48.31c1.498-3.08-.793-6.656-4.187-6.656h-69.461c-3.438 0-5.685 3.575-4.187 6.656l23.316 48.31c1.147 2.338.088 5.116-2.291 6.216-14.282 6.738-24.242 21.288-24.242 38.12 0 14.234 7.095 26.844 17.982 34.476 8.023 5.68 18.158 8.595 28.956 7.358 7.097-.798 13.752-3.438 19.349-7.358 9.388-6.614 16-16.97 17.586-28.741 2.556-19.212-7.934-36.319-23.845-43.855-2.379-1.1-3.436-3.878-2.336-6.216zm-132.662 437.312c0 16.969 13.838 30.804 30.807 30.804h172.552c17.014 0 30.853-13.835 30.853-30.804v-193.848h-234.212Zm383.534-205.124-4.272 1.251a251.118 251.118 0 0 1-70.28 10.025h-10.158v193.848c0 52.724-42.741 95.465-95.465 95.465h-172.552c-52.724 0-95.465-42.741-95.465-95.465v-193.848h-10.152c-23.758 0-47.397-3.369-70.207-10.011l-4.354-1.265a11.389 11.389 0 0 1-8.197-10.933v-411.031c0-5.034 3.35-9.49 8.197-10.933l.084-.028a282.278 282.278 0 0 1 78.924-11.263h374.893c26.736 0 53.337 3.795 79.006 11.29 4.848 1.444 8.196 5.9 8.196 10.933v411.031c0 5.061-3.339 9.517-8.197 10.933" style="fill:#28de22;fill-opacity:1;fill-rule:nonzero;stroke:none;stroke-width:.137519" transform="matrix(.13333 0 0 -.13333 -1204.997 1383.902)"/><path d="M9443.17 9995.135h220.46v186.972c0 13.188-10.757 23.928-23.977 23.928h-172.552c-13.196 0-23.931-10.74-23.931-23.928zm234.212-13.752h-247.964v200.724c0 20.779 16.904 37.68 37.683 37.68h172.552c20.803 0 37.729-16.901 37.729-37.68zm-145.777-233.604s-.01-.014-.012-.014zm42.66-2.97c-.01 0-.019-.014-.029-.014.01 0 .018.014.028.014zm-41.676-.028c.01 0 .02 0 .03-.014-.01.014-.02.014-.03.014zm-10.366-48.077h62.35l-21.837 45.161a11.386 11.386 0 0 0-.399 8.802c1.066 2.929 3.221 5.267 6.069 6.587 13.93 6.6 21.958 21.357 19.916 36.704-1.292 9.585-6.66 18.345-14.73 24.024-4.819 3.37-10.409 5.501-16.153 6.148-8.64.99-17.24-1.197-24.216-6.134-9.457-6.628-15.083-17.41-15.083-28.865 0-13.56 7.97-26.074 20.302-31.905a11.673 11.673 0 0 0 6.037-6.628 11.308 11.308 0 0 0-.51-8.829zm-1.546-3.19v-.014zm67.452-10.562h-69.461a11.454 11.454 0 0 0-9.778 5.419 11.433 11.433 0 0 0-.595 11.125l22.335 46.275c-16.03 8.471-26.242 25.249-26.242 43.36 0 15.938 7.818 30.928 20.914 40.1 9.712 6.89 21.684 9.93 33.681 8.568 8.01-.908 15.803-3.864 22.515-8.568 11.2-7.88 18.65-20.077 20.453-33.444 2.742-20.6-7.583-40.445-25.816-50.044l22.373-46.261c1.732-3.576 1.507-7.729-.61-11.112-2.124-3.383-5.777-5.418-9.769-5.418zm-226.645 298.43c-23.116 0-46.09-3.272-68.284-9.736l-4.354-1.265a4.54 4.54 0 0 1-3.244-4.332v-411.031c0-1.98 1.356-3.768 3.297-4.346a275.195 275.195 0 0 1 77.032-11.001h374.893c26.092 0 52.026 3.713 77.08 11.015 1.891.564 3.246 2.352 3.246 4.332v411.031a4.54 4.54 0 0 1-3.247 4.332l-4.271 1.252a244.137 244.137 0 0 1-68.356 9.75h-17.034v200.723c0 48.846-39.74 88.589-88.589 88.589h-172.552c-48.848 0-88.588-39.743-88.588-88.589v-200.723zm379.34-455.463H9365.93a288.795 288.795 0 0 0-80.846 11.538l-.138.04c-7.71 2.311-13.097 9.517-13.097 17.52v411.032c0 8.073 5.408 15.279 13.15 17.534l4.355 1.265a257.608 257.608 0 0 0 72.129 10.287h3.277v186.971c0 56.424 45.909 102.341 102.34 102.341h172.552c56.431 0 102.34-45.917 102.34-102.341v-186.971h3.283c24.443 0 48.736-3.466 72.205-10.3l4.271-1.252c7.743-2.255 13.15-9.461 13.15-17.534v-411.031c0-8.004-5.385-15.21-13.097-17.52a289.013 289.013 0 0 0-80.981-11.58" style="fill:#222526;fill-opacity:1;fill-rule:nonzero;stroke:none;stroke-width:.137519" transform="matrix(.13333 0 0 -.13333 -1204.997 1383.902)"/></svg>