<svg xmlns="http://www.w3.org/2000/svg" fill="none" class="index-header__logo" data-test-id="index-header-logo" version="1.1" viewBox="0 0 89.286 22.212"><path fill="#5dd25e" d="m72.797 5.64 1.276 7.91h-2.554l1.278-7.91zm6.845 13.81L76.698 2.762h-7.802L65.952 19.45h4.616l.614-3.845h3.238l.61 3.845zm-19.8 0h4.908V2.762h-4.907zm-6.65-9.19C51.87 9.755 51.6 9.461 51.6 9.002c0-.58.49-.895 1.52-.895 1.424 0 2.994.483 4.515 1.088V3.802C56.58 2.932 54.69 2.4 52.752 2.4c-3.364 0-5.373 1.596-5.373 4.426 0 2.467 1.276 3.628 4.196 4.692l1.08.388c1.176.432 1.57.75 1.57 1.281 0 .411-.246.92-1.473.92-1.693 0-3.73-.823-5.128-1.573v6.023c1.325.677 3.41 1.257 5.472 1.257 3.51 0 5.52-1.45 5.52-4.547 0-2.104-.86-3.29-4.146-4.523l-1.276-.484zm-10.72.846c0 1.91-.76 3.023-2.526 3.023-1.766 0-2.527-1.114-2.527-3.023 0-1.91.76-3.023 2.527-3.023 1.767 0 2.527 1.112 2.527 3.023zM39.945 2.4c-5.153 0-6.455 3.918-6.455 8.707 0 4.813 1.3 8.707 6.453 8.707 5.153 0 6.452-3.893 6.452-8.707 0-4.789-1.3-8.707-6.452-8.707zm-11.9 5.925c1.473 0 2.576.433 4.147 1.282v-5.49c-.908-.992-2.748-1.717-4.588-1.717-4.22 0-6.474 2.66-6.474 8.707 0 5.466 1.84 8.707 6.502 8.707 1.816 0 3.656-.725 4.563-1.74v-5.468c-1.57.847-2.673 1.283-4.146 1.283-1.938 0-2.993-.678-2.993-2.806s1.447-2.758 2.993-2.758h-.003zm-8.04-5.562H9.644V19.45h10.354v-5.32H13.57v-2.008h4.168V10.09H13.57V8.083h6.428l.007-5.32z"/></svg>