<svg xmlns="http://www.w3.org/2000/svg" xml:space="preserve" width="250" height="56.62" viewBox="0 0 312.5 70.774"><g fill="currentColor"><path d="M55.768 63.697 31.25 49.539V21.236L55.768 7.077l24.515 14.16v28.305ZM34.05 47.926l21.718 12.537L77.48 47.926V22.85L55.768 10.313 34.05 22.85Z"/><path d="m41.053 29.693 13.07 6.905.682.32 15.826-8.402v6.762l2.628-1.463v-8.522l-7.173-4.144-2.863 1.54 6.337 3.367-14.776 7.726-14.44-7.633-2.102-1.082.04 20.413 9.081 5.243-.543-1.744 1.143-.985-6.865-4.114zM93.839 21.492h16.353v4.27h-11.39v7.16H108v4.27h-9.196v7.347h12.006v4.274h-16.97ZM115.196 29.187h4.694v2.27c0 .73-.078 1.347-.078 1.347h.078c.96-1.925 3.308-4.079 6.386-4.079 3.001 0 4.926 1.385 5.734 4.04h.077c1.078-2.119 3.617-4.04 6.696-4.04 4.08 0 6.426 2.309 6.426 7.464v12.624h-4.888v-11.7c0-2.231-.423-3.925-2.693-3.925-2.502 0-4.156 2.001-4.734 4.464-.192.77-.23 1.616-.23 2.54v8.619h-4.888V37.114c0-2.116-.346-3.926-2.654-3.926-2.54 0-4.194 2.001-4.81 4.501-.193.733-.232 1.619-.232 2.501v8.62h-4.886V29.187ZM160.294 36.498h.653v-.27c0-2.577-1.617-3.464-3.773-3.464-2.809 0-5.386 1.883-5.386 1.883l-1.848-3.501s3.04-2.423 7.696-2.423c5.158 0 8.154 2.846 8.154 7.81V48.81h-4.501V47.19c0-.77.078-1.385.078-1.385h-.078c.04 0-1.5 3.464-5.964 3.464-3.501 0-6.658-2.193-6.658-6.117.006-6.23 8.432-6.654 11.627-6.654zm-3.734 8.965c2.578 0 4.425-2.768 4.425-5.156v-.462h-.846c-2.5 0-6.541.346-6.541 3.078 0 1.31.961 2.54 2.962 2.54zM170.877 21.492h4.847v4.348h-4.847zm0 7.695h4.885V48.81h-4.885zM180.88 21.492h4.849v20.47c0 2.155.732 2.697 2 2.697.386 0 .73-.04.73-.04v4.272s-.73.115-1.538.115c-2.695 0-6.041-.693-6.041-6.308zM271.265 23.126h-2.125v-.753h5.118v.753h-2.124v5.441h-.869zM275.454 22.372h.91l1.422 3.353c.14.34.307.833.307.833h.019s.168-.49.307-.833l1.42-3.353h.913l.498 6.196h-.857l-.308-3.905c-.026-.377-.008-.912-.008-.912h-.02s-.182.57-.335.912l-1.237 2.79h-.774l-1.228-2.79c-.14-.333-.334-.93-.334-.93h-.019s.01.554-.02.93l-.296 3.905h-.87zM193.434 21.772h2.64v24.665h12.474v2.389h-15.112zM222.706 36.856h1.071v-.5c0-3.73-2.03-5.003-4.783-5.003-3.176 0-5.434 1.847-5.434 1.847l-1.224-2s2.527-2.19 6.85-2.19c4.63 0 7.195 2.578 7.195 7.426v12.39h-2.489v-2.12c0-.962.078-1.618.078-1.618h-.078s-1.607 4.193-6.428 4.193c-3.215 0-6.543-1.885-6.543-5.735-.001-6.537 8.455-6.69 11.785-6.69zm-4.822 10.196c3.675 0 5.893-3.846 5.893-7.195v-.847h-1.11c-3.023 0-9.068.115-9.068 4.386 0 1.809 1.416 3.656 4.285 3.656zM232.385 21.772h2.6v9.388c0 .887-.075 1.577-.075 1.577h.076s1.608-3.73 6.544-3.73c5.165 0 8.38 4.154 8.38 10.159 0 6.118-3.634 10.12-8.686 10.12-4.591 0-6.312-3.774-6.312-3.774h-.078s.078.656.078 1.578v1.732h-2.527zm8.649 25.203c3.405 0 6.198-2.886 6.198-7.812 0-4.732-2.489-7.771-6.086-7.771-3.215 0-6.238 2.308-6.238 7.81.004 3.887 1.992 7.773 6.126 7.773zM254.77 44.589s2.142 2.347 5.739 2.347c2.065 0 3.864-1.04 3.864-3.078 0-4.233-10.37-3.194-10.37-9.505 0-3.463 3.1-5.345 6.583-5.345 4.055 0 5.93 2.116 5.93 2.116l-1.184 2.001s-1.647-1.773-4.82-1.773c-1.952 0-3.83.85-3.83 3.003 0 4.274 10.37 3.117 10.37 9.504 0 3.158-2.716 5.427-6.582 5.427-4.668 0-7.118-2.81-7.118-2.81z"/></g></svg>