<svg xmlns="http://www.w3.org/2000/svg" width="250" height="40.155" viewBox="0 0 312.5 50.194"><g fill="currentColor" data-name="Warstwa_2"><path d="M31.25 5.02h23.59v6.174H38.447V21.54h13.286v6.175H38.446v10.603h17.331v6.174H31.25ZM62.08 16.133h6.77v3.28c0 1.064-.128 1.958-.128 1.958h.128c1.405-2.768 4.77-5.876 9.198-5.876 4.428 0 7.111 2.001 8.26 5.833h.129c1.532-3.066 5.237-5.833 9.666-5.833 5.876 0 9.283 3.321 9.283 10.773v18.225h-7.07V27.588c0-3.236-.595-5.663-3.874-5.663-3.62 0-6.004 2.895-6.813 6.43-.298 1.107-.34 2.341-.34 3.661V44.45h-7.07V27.588c0-3.066-.51-5.663-3.832-5.663-3.662 0-6.047 2.895-6.94 6.515-.299 1.064-.341 2.342-.341 3.62v12.433h-7.07V16.176zM127.145 26.651h.937v-.383c0-3.705-2.342-5.025-5.45-5.025-4.046 0-7.75 2.725-7.75 2.725l-2.683-5.067s4.386-3.492 11.114-3.492c7.452 0 11.795 4.13 11.795 11.285v17.714h-6.515v-2.342c0-1.107.128-2.001.128-2.001h-.128s-2.172 5.024-8.602 5.024c-5.067 0-9.58-3.15-9.58-8.814 0-8.985 12.178-9.581 16.777-9.581zm-5.365 12.945c3.704 0 6.387-4.003 6.387-7.452v-.681h-1.192c-3.62 0-9.453.51-9.453 4.428 0 1.874 1.405 3.663 4.258 3.663zM142.432 5.02h6.984v6.259h-6.984zm0 11.113h7.069V44.45h-7.069V16.133zM156.867 5.02h6.984V34.57c0 3.109 1.064 3.875 2.896 3.875.553 0 1.064-.042 1.064-.042v6.174s-1.064.17-2.214.17c-3.875 0-8.73-.979-8.73-9.112zM174.965 5.403h3.832V41h18.013v3.45h-21.803V5.402zM217.206 27.162h1.533v-.724c0-5.365-2.938-7.196-6.898-7.196-4.599 0-7.835 2.683-7.835 2.683l-1.746-2.896s3.662-3.151 9.88-3.151c6.685 0 10.39 3.704 10.39 10.688V44.45h-3.62v-3.065c0-1.406.127-2.342.127-2.342h-.127s-2.3 6.046-9.283 6.046c-4.642 0-9.453-2.725-9.453-8.303 0-9.411 12.22-9.666 17.032-9.666zm-6.94 14.734c5.322 0 8.516-5.536 8.516-10.39V30.27h-1.618c-4.344 0-13.073.17-13.073 6.344 0 2.598 2.044 5.28 6.174 5.28zM231.173 5.403h3.748v13.54c0 1.278-.128 2.3-.128 2.3h.128s2.299-5.365 9.453-5.365 12.093 6.004 12.093 14.648-5.237 14.606-12.562 14.606c-6.642 0-9.112-5.45-9.112-5.45h-.128s.128.936.128 2.299v2.512h-3.662V5.403zm12.52 36.407c4.896 0 8.942-4.173 8.942-11.284 0-7.111-3.62-11.242-8.772-11.242-4.642 0-8.985 3.322-8.985 11.285 0 5.62 2.853 11.241 8.857 11.241zM263.493 38.361s3.109 3.364 8.304 3.364c2.98 0 5.578-1.49 5.578-4.428 0-6.09-14.946-4.6-14.946-13.712 0-5.024 4.47-7.707 9.496-7.707 5.833 0 8.559 3.066 8.559 3.066l-1.704 2.895s-2.384-2.555-6.94-2.555c-2.811 0-5.536 1.235-5.536 4.344 0 6.174 14.946 4.47 14.946 13.711 0 4.557-3.918 7.835-9.496 7.835-6.728 0-10.262-4.045-10.262-4.045l2.044-2.725z"/></g></svg>