<svg xmlns="http://www.w3.org/2000/svg" width="250" height="57.575" viewBox="0 0 312.5 71.968"><g fill="none"><path fill="#000" d="M75.079 39.172c.059.903-.065 2.006-.837 2.71-.6.546-1.525.776-2.443.609-1.473-.5-3.98-2.916-6.345-7.26-2.342-4.3-3.781-9.157-3.86-13.021.237-2.15.97-3.673 2.18-4.535.926-.66 2.031-.875 2.957-.919-.602 4.71 1.382 10.17 3.362 14.217 1.127 2.313 2.762 5.66 4.986 8.2m-11.572 7.02c-1.655-.347-8.084-5.299-9.892-17.114-.33-2.263.022-4.007 1.055-5.176.834-.946 2.01-1.443 3.047-1.708.119 7.265 4.246 16.501 8.853 21.198-.574 2.703-2.409 2.943-3.063 2.8m44.834-38.622c-3.269-1.21-7.145.608-8.83 4.137-2.903 6.077-5.034 9.833-6.55 12.153-1.07-1.996-2.674-4.753-4.633-7.407C83.078 9.35 78.03 6.668 73.32 8.48c-2.44.94-4.229 2.429-5.354 4.426-1.622-.113-4.193.029-6.403 1.586-1.264.89-2.217 2.102-2.872 3.604-1.764.193-4.81.867-6.902 3.213a8.113 8.113 0 0 0-1.417 2.236c-2.134-2.116-4.554-5.462-6.917-8.735-.571-.789-1.146-1.585-1.727-2.379l-.05-.062c-1.42-1.783-4.027-2.541-6.336-1.85-2.305.69-3.822 2.703-4.068 5.38l-.024.295.063.287c2.975 13.928 16.954 35.052 23.546 41.887 3.95 4.254 8.18 6.404 12.583 6.404.22 0 .44-.004.66-.014 3.721-.18 6.478-1.872 7.793-2.864l-2.335-3.091c-2.298 1.736-8.448 4.91-15.886-3.097-6.133-6.36-19.571-26.665-22.504-39.727.143-.946.576-1.534 1.284-1.747.833-.248 1.787.071 2.18.532.563.773 1.124 1.55 1.68 2.32 3.249 4.494 6.336 8.758 9.316 10.924.022.53.07 1.08.154 1.648 1.899 12.416 8.837 19.473 12.93 20.33.376.08.766.12 1.16.12 2.304 0 4.756-1.373 5.964-4.247.309.147.615.274.919.365l.16.04c.494.106.99.156 1.48.156 1.666 0 3.265-.588 4.457-1.674a6.298 6.298 0 0 0 1.74-2.737 6.92 6.92 0 0 0 4.158.676c.12-.017.24-.046.355-.088 2.654-.93 3.825-2.593 4.339-3.822.625-1.495.613-3.213-.037-4.595l-.046-.086a68.77 68.77 0 0 0-1.475-2.56c-1.774-2.994-4.753-8.008-4.283-10.246l-3.793-.796c-.777 3.717 2.284 8.875 4.748 13.02.54.913 1.008 1.707 1.356 2.354.132.304.193.843-.045 1.412-.284.681-.93 1.23-1.867 1.597-3.154.294-6.03-4.68-8.43-9.6-2.854-5.845-3.773-10.724-2.589-13.738.625-1.589 1.843-2.714 3.725-3.437 6.07-2.342 13.917 11.306 16.186 16.27a1.94 1.94 0 0 0 3.243.446c2.288-2.712 5.272-7.907 8.867-15.435.916-1.916 2.788-2.619 3.99-2.175 1.278.473 1.653 2.202.992 4.66-1.078 4.34-1.941 8.414-2.774 12.35-3.004 14.172-5.177 24.418-13.396 28.992-8.887 4.41-14.678-4.73-14.921-5.123l-3.303 2.026c2.039 3.332 6.938 8.185 13.431 8.185 2.044 0 4.244-.481 6.562-1.638l.073-.04c9.799-5.423 12.245-16.974 15.344-31.6.827-3.904 1.684-7.943 2.733-12.182.906-3.357.56-7.799-3.396-9.264" data-name="Logo"/><path fill="#222" d="M129.818 34.035c-.726.657-1.186 1.642-1.382 2.953h8.175c-.147-1.29-.596-2.267-1.344-2.935-.749-.667-1.663-1.002-2.744-1.002-1.081 0-1.982.328-2.705.984m5.246 10.351c.664-.456 1.056-1.06 1.18-1.811h5.264a6.804 6.804 0 0 1-1.563 3.024c-.8.913-1.832 1.632-3.095 2.161-1.264.527-2.695.79-4.292.79-1.938 0-3.607-.405-5.006-1.212a8.013 8.013 0 0 1-3.203-3.393c-.736-1.451-1.105-3.125-1.105-5.024 0-1.781.369-3.374 1.105-4.782a8.238 8.238 0 0 1 3.203-3.336c1.4-.821 3.058-1.232 4.97-1.232 2.136 0 3.966.534 5.488 1.6 1.52 1.066 2.578 2.512 3.168 4.342.392 1.193.588 2.717.588 4.567h-13.44c.073 1.735.497 2.999 1.27 3.796.774.796 1.761 1.194 2.964 1.194 1.007 0 1.842-.228 2.504-.684m35.48-12.811c1.165 1.243 1.75 3.058 1.75 5.448v10.965h-5.159V37.513c0-1.31-.256-2.294-.773-2.95-.516-.657-1.239-.984-2.173-.984-1.103 0-1.95.45-2.541 1.351-.588.904-.884 2.198-.884 3.886v9.172h-5.153V37.2c0-1.149-.253-2.04-.757-2.671-.501-.634-1.233-.95-2.19-.95-1.104 0-1.952.452-2.54 1.352-.59.904-.884 2.198-.884 3.886v9.172h-5.156V30.135h4.86v2.038h.075c.688-.845 1.448-1.465 2.282-1.864.835-.397 1.805-.596 2.91-.596 1.3 0 2.424.257 3.37.772.945.517 1.673 1.279 2.19 2.286.737-1.007 1.571-1.769 2.504-2.286.932-.515 2.086-.772 3.463-.772 2.036 0 3.638.62 4.803 1.862m10.423 3.338c-.75 1.03-1.124 2.414-1.124 4.148 0 1.735.374 3.117 1.124 4.148.748 1.03 1.76 1.545 3.037 1.545 1.276 0 2.288-.513 3.038-1.545.749-1.031 1.124-2.413 1.124-4.148 0-1.734-.375-3.116-1.124-4.148-.75-1.03-1.762-1.546-3.038-1.546-1.277 0-2.289.517-3.037 1.546m8.1-4.181a8.121 8.121 0 0 1 3.333 3.303c.785 1.43 1.177 3.105 1.177 5.026 0 1.923-.392 3.599-1.177 5.026a8.11 8.11 0 0 1-3.332 3.303c-1.436.774-3.124 1.16-5.064 1.16-1.939 0-3.627-.386-5.063-1.16a8.103 8.103 0 0 1-3.332-3.303c-.785-1.43-1.179-3.103-1.179-5.026 0-1.921.394-3.595 1.18-5.026a8.115 8.115 0 0 1 3.331-3.303c1.436-.774 3.124-1.16 5.063-1.16 1.94 0 3.628.388 5.064 1.16m6.903-5.658a2.572 2.572 0 0 1 2.578-2.568 2.573 2.573 0 0 1 2.578 2.568 2.573 2.573 0 0 1-2.578 2.566 2.572 2.572 0 0 1-2.578-2.568m3.443 28.064c-1.142 1.02-2.694 1.529-4.658 1.529a10.993 10.993 0 0 1-2.54-.28v-3.548c.295.067.625.103.993.103.958 0 1.656-.24 2.098-.72.443-.482.664-1.341.664-2.583V30.134h5.156v18.241c0 2.154-.57 3.742-1.713 4.761m5.248-5.148h5.154V30.135h-5.154zm0-22.914a2.572 2.572 0 0 1 2.578-2.568 2.572 2.572 0 0 1 2.576 2.568 2.572 2.572 0 0 1-2.576 2.566 2.572 2.572 0 0 1-2.578-2.568zm21.3 5.411a7.743 7.743 0 0 1 3.094 2.566c.774 1.102 1.222 2.344 1.345 3.726h-5.376c-.098-1.055-.461-1.886-1.086-2.496-.625-.608-1.431-.914-2.413-.914-1.252 0-2.233.51-2.944 1.53-.715 1.018-1.07 2.407-1.07 4.164 0 1.757.355 3.146 1.07 4.164.71 1.02 1.692 1.53 2.944 1.53.98 0 1.786-.333 2.413-1.002.625-.668.975-1.587 1.047-2.758h5.415c-.198 2.273-1.093 4.1-2.688 5.483-1.596 1.382-3.647 2.073-6.15 2.073-1.89 0-3.547-.394-4.97-1.178a8.131 8.131 0 0 1-3.296-3.321c-.774-1.428-1.16-3.092-1.16-4.991 0-1.897.388-3.562 1.16-4.99a8.131 8.131 0 0 1 3.294-3.32c1.425-.786 3.082-1.18 4.97-1.18 1.646 0 3.114.306 4.402.914m12.15 4.428c-.748 1.03-1.123 2.414-1.123 4.148 0 1.735.375 3.117 1.124 4.148.748 1.03 1.762 1.545 3.037 1.545 1.278 0 2.29-.513 3.038-1.545.75-1.031 1.124-2.413 1.124-4.148 0-1.734-.374-3.116-1.124-4.148-.748-1.03-1.76-1.546-3.038-1.546-1.275 0-2.289.517-3.037 1.546m8.1-4.181a8.121 8.121 0 0 1 3.334 3.303c.786 1.43 1.178 3.105 1.178 5.026 0 1.923-.392 3.599-1.178 5.026a8.11 8.11 0 0 1-3.333 3.303c-1.436.774-3.124 1.16-5.064 1.16s-3.625-.386-5.061-1.16a8.103 8.103 0 0 1-3.334-3.303c-.785-1.43-1.179-3.103-1.179-5.026 0-1.921.394-3.595 1.18-5.026a8.115 8.115 0 0 1 3.333-3.303c1.436-.774 3.122-1.16 5.061-1.16 1.94 0 3.628.388 5.064 1.16m33.288.843c1.165 1.243 1.75 3.058 1.75 5.448v10.965h-5.156V37.513c0-1.31-.257-2.294-.774-2.95-.514-.657-1.238-.984-2.173-.984-1.103 0-1.95.45-2.54 1.351-.589.904-.883 2.198-.883 3.886v9.172h-5.156V37.2c0-1.149-.253-2.04-.755-2.671-.502-.634-1.234-.95-2.19-.95-1.105 0-1.953.452-2.54 1.352-.59.904-.884 2.198-.884 3.886v9.172h-5.157V30.135h4.861v2.038h.074c.688-.845 1.448-1.465 2.283-1.864.834-.397 1.804-.596 2.91-.596 1.3 0 2.424.257 3.37.772.944.517 1.672 1.279 2.19 2.286.736-1.007 1.57-1.769 2.503-2.286.933-.515 2.087-.772 3.463-.772 2.036 0 3.638.62 4.804 1.862" data-name="Text"/></g></svg>