<svg xmlns="http://www.w3.org/2000/svg" id="a" version="1.1" viewBox="0 0 312.5 181.116"><defs id="defs1"><style id="style1">.b{fill:#1d1d1b;}.b,.c{stroke-width:0px;}.c{fill:#e2051b;}</style></defs><g id="g14" transform="translate(9.592 5.563)"><path id="path1" d="M162.45 13.03c-.03 1.46-1.27 3.66-3.84 3.66-1.58 0-2.27-1.73-2.23-2.96.04-.59.19-1.51.81-2.15.77-.75 1.74-.97 2.51-.97 1.31 0 2.79.86 2.75 2.42" class="b"/><path id="path2" d="m72.29 48.26.36-.11c1.57.27 1.94 2.32 1.57 3.18-.57 1.3-6.3 4.68-11.01 5.98-4.09 1.08-9.86 2.05-12.88-.38-3.04-2.37-2.74-6.68-1.79-10.18.5-1.78 1.16-3.45 1.72-4.74l.24-.54c-.54-.05-1.07-.27-1.45-.59-.94-.86-.92-1.99-.76-2.96l.07-.59.57.11.73.16h.46c.73-.06 1.45-.16 2.21-.27 1.26-2.96 3.58-7.86 6.98-13.68l.52-.97-.22.11c-1.05.06-3.92-.81-2.18-3.93l.5-.27c1.86-.11 3.19-.22 4.68-.44 1.87-2.8 3.36-4.36 4.78-4.31.36 0 .75-.05 1.11.06.57.11 1.13.54 1.16 1.4.02.54-.25.97-.59 1.4 2.61-.7 5.69-1.78 8.75-2.7 1.24-.43 2.61-.97 3.76-1.45 1.12-.38 2.25-.81 2.91-.75 1.47.11 2.93 1.24 3.17 2.42.18.81-.36 1.3-.86 1.51-.23.16-.5.27-.74.32l-.7.22c-4.4 1.51-7.14 2.37-11.8 3.55-3.23.81-5.47 1.51-8 2.05-1.76 2.8-4.19 7.22-7.48 14.22h-.03c.46-.11.92-.21 1.35-.37 2.96-.81 5.43-1.62 6.54-1.94 3.81-1.08 7.62-2.59 10.8-3.56 3.02-.92 5.91-1.51 7.34-.11l.38.44c.16.27.31.54.43.92.08.37.15.86.15 1.4 1.28-1.72 2.87-3.34 5.1-4.63 2.32-1.4 5.6-2.96 7.65-1.94.58.32.99.7 1.09 1.4.07.54-.22 1.13-.5 1.62-.3.54-.69 1.02-.97 1.35-.15.21-.35.27-.59.21-.93-.21-1.43-.32-2.33-.21-2.57.21-5.24 3.44-7.91 6.95-2.51 3.28-5.12 8.99-6.25 11.9-.12.27-.18.49-.22.65l-.12.59c-.03.16-.05.32-.13.49a.97.97 0 0 1-.45.49c-.7.43-1.44.7-2.33.32-.92-.37-1.33-1.08-1.54-1.94-.16-.92.36-2.37.94-3.72.63-1.4 1.43-3.07 1.99-4.63.5-1.4 1.2-3.01 1.69-4.47.21-.7.39-1.35.43-1.83.03-.54-.04-.81-.13-.92-.06-.06-.23-.16-.7-.16-.44.05-1.02.16-1.7.32-1.35.32-2.88.87-3.99 1.24-3.1.92-13.73 3.94-18.23 4.96-.86 1.99-1.66 3.93-2.22 5.77-1.11 3.55-1.14 5.87.08 6.62 1.84.97 7.04-.16 10.21-1.08 1.72-.54 3.31-1.24 4.7-1.88 1.4-.75 2.64-1.46 3.66-2.05" class="b"/><path id="path3" d="M112.54 30.86c-.46.38-1.05.97-1.68 1.67-1.55 1.67-3.41 3.88-4.8 5.55-3.48 4.31-5.31 7.22-6.44 9.11-.57.97-.97 1.61-1.27 2.1-.31.37-.73.86-1.37.81-1.5-.16-2.56-.92-2.99-2.37-.35-1.13 1.63-7.49 3.51-11.47.92-1.99 1.83-4.42 2.8-6.36.92-1.78 2.1-3.66 3.72-3.5.65.06 1.09.22 1.46.43.43.27.89.87.73 1.4-1.21 2.21-1.85 3.5-2.91 5.82-.43.97-.8 1.73-1.13 2.53l.57-.81c1.22-1.61 2.58-3.34 3.92-4.68.84-.87 1.64-1.72 2.4-2.53.76-.75 1.52-1.45 2.28-1.94 1.57-1.13 3.22-1.56 5.07-.49 1.9 1.08 1.6 2.91.92 4.52-.69 1.62-1.91 3.45-2.65 5.01-.73 1.67-1.75 3.61-2.37 5.28-.33.87-.54 1.56-.58 2.1-.11 1.18.65.97 1.42.37.67-.49 1.52-1.35 2.46-2.48 1.87-2.26 3.97-5.17 5.79-7.32.85-.97 1.69-2.15 2.52-3.28.84-1.19 1.61-2.37 2.33-3.39.69-1.13 1.36-2.15 1.93-2.91.54-.7 1.06-1.35 1.54-1.56.59-.32 1.19-.11 1.7.11.44.22.89.54 1.36.81l.42.16-.15.49c-.19.54-.35 1.02-.5 1.45-.12.38-.18.81-.21 1.4-.21 3.01.73 6.36.59 12.44-.11 4.9-3.1 9.8-8.68 9.8-2.23-.06-4.71-1.67-4.75-3.82-.03-1.18.78-2.21 2-2.37.23-.05.46 0 .62.11.13.11.27.21.35.32.2.22.42.44.68.76.47.48.87.86 1.28.86 3.04.06 4-2.96 4.1-6.25.07-2.27-.21-5.18-.35-7.6-2.14 3.13-4.35 5.93-7.22 9.64-1.51 1.94-3.53 4.42-5.64 6.09-2.07 1.61-4.43 2.58-6.49 1.08-2.18-1.56-2.15-3.99-1.48-6.2.33-1.18.84-2.32 1.37-3.5.54-1.13 1.11-2.21 1.55-3.23.51-1.13 1.31-2.42 1.91-3.5l.39-.65z" class="b"/><path id="path4" d="M221.42 20.25c1.72-2.1 3.56-4.68 5.13-6.79.76-1.02 1.51-2.04 2.1-2.69.32-.38.61-.65.88-.92.25-.22.52-.38.82-.43.9-.22 1.71 0 2.18.32l.49.44.63.54-.16.43c-.21.54-.39.97-.54 1.4-.13.43-.23.81-.3 1.4-.27 3.07.23 6.84.2 12.44-.06 4.9-2.69 10.29-9.12 9.86-2.21-.16-4.77-1.94-4.73-4.15 0-1.13 1.03-2.48 2.33-2.37.55.06.89.27 1.14.65.11.16.2.27.25.43l.21.43c.2.49.46.87 1.38.97 2.65.32 4.15-3.18 4-6.46-.12-2.21.01-5.23.09-7.75-2.18 3.07-4.35 5.82-7.31 9.37-.61.75-1.51 1.78-2.43 2.75-.92.86-1.75 1.29-2.6 1.4-1.65.21-3.27-.75-2.27-2.21 2.55-3.07 5.07-6.09 7.62-9.05" class="b"/><path id="path5" d="M227.87 2.69c-.19 1.83-1.78 6.25-5.13 6.52-.88.05-1.63-.65-1.71-1.4a.89.89 0 0 1 .07-.44l.6-1.02c.35-.49.78-1.18 1.09-2.21.35-1.03.44-1.62.5-2.7.03-.7.49-.97.92-1.18.43-.22.95-.27 1.36-.27 1.39.11 2.46 1.29 2.31 2.69" class="b"/><path id="path6" d="M154.57 24.88c-.75.16-2.12.54-3.79.97-1.57.37-3.26.8-4.68 1.18-1.44 4.09-3.42 10.77-3.8 12.66-.22 1.19-.31 2.15-.33 2.91v.92c-.28 1.67-3.22 1.72-4.28.91-.66-.59-.67-1.72-.52-2.9.16-1.3.59-2.86 1.12-4.53.85-2.75 2.05-6.03 3.13-9.05-1.01.22-1.98.49-2.87.54-1.71.27-3.54.11-4.31-1.51-.43-1.02 0-2.58 1.21-2.91 1.72.16 3.22 0 4.89-.32.88-.11 1.76-.32 2.69-.54 1.32-3.82 2.52-7.27 3.6-10.02.66-1.61 1.26-2.96 1.81-3.87.33-.54.95-1.62 1.78-1.62 1.07.06 1.73.54 2.15 1.02.28.44.42.87.54 1.35-2.24 4.79-3.53 8.24-5.02 12.17 2.96-.65 5.34-1.4 7.16-1.78 1.11-.27 2.06-.49 2.87-.49.76 0 1.5.22 1.9.86.7 1.08.45 2.05-.15 3.29-.55 1.18-1.56 2.96-2.72 5.98-.74 1.89-1.54 3.82-1.94 5.33-.25.81-.3 1.35-.28 1.73.03.43.15.49.19.54.71.22 2.13-.7 4.09-2.8 1.82-1.99 3.77-4.53 5.43-6.52.78-.97 1.56-2.1 2.32-3.18.75-1.18 1.48-2.32 2.18-3.34.65-1.03 1.32-1.99 1.94-2.64.58-.7 1.24-1.3 1.95-1.24.39.06.92.11 1.4.22.46.16.92.54 1.07 1.18.04.21 0 .43-.04.59-.07.16-.13.32-.23.54-.17.38-.43.87-.73 1.46-.58 1.08-1.31 2.42-1.93 3.93-.52 1.3-.92 2.21-1.29 3.18.54-.65 1.07-1.3 1.6-1.94 1.31-1.56 2.66-3.12 4.24-4.58.78-.81 1.59-1.61 2.37-2.37s1.6-1.51 2.41-2.1c1.61-1.18 3.43-1.94 5.32-1.08.82.32 1.17 1.03 1.19 1.78.02.7-.26 1.56-.57 2.42-.68 1.73-1.91 3.99-2.87 6.41-.43 1.13-.88 2.15-1.26 3.13-.34.97-.6 1.78-.71 2.53-.41 2.7.5 4.04 2.7 3.72.64-.11 1.14.92 1.2 1.4.12 1.45-2.02 2.32-3.22 2.26-3.19-.16-5.66-2.75-5.47-5.92.22-3.13 1.65-6.52 2.94-9.11.56-1.08 1.11-2.1 1.48-2.85-1.52 1.51-4.27 4.47-6.49 6.94-2.95 3.29-4.92 6.2-6.29 8.19-.7 1.02-1.25 1.89-1.72 2.42-.43.54-.91 1.13-1.54 1.19-.93.05-2.15-.22-2.62-1.35-.43-1.02-.06-2.58.47-4.2.21-.54.43-1.19.69-1.83l-.57.75c-1.19 1.45-2.53 3.01-3.89 4.31-2.61 2.53-5.76 4.68-8.37 3.07-3.1-2.05-1.98-6.84-.55-10.61.71-1.99 1.63-3.88 2.3-5.28l.74-1.51z" class="b"/><path id="path7" d="M210.54 31.51c-.93 0-2.06.21-3.53.97.83-2.53 1.44-4.53 2.56-7.38.11-.32.22-.65.42-.87l.42-.8c.31-.65.6-1.24.6-2.37.11-.75-.21-1.24-.74-1.67-.19-.11-.42-.22-.61-.32.59-2.05.59-4.15-1.28-5.39-3.43-2.37-10.05 2.32-14.17 6.84-4.43 4.9-8.44 12.6-3.77 15.94 3.85 2.91 8.4.59 11.81-2.1l-.44.97-.07.06c-3.41 2.21-7.24 4.9-10.33 7.43-4.44 3.5-10.43 9.91-9.06 12.98 2.21 4.85 10.68 1.4 13.99-1.83 2.98-2.8 4.63-5.71 5.97-8.83.92-2.37 1.71-4.8 2.72-7.65l.06-.06c.82-.49 1.22-.59 1.95-.92 1.03-.32 3.31-.97 4.04-.97.62-.11 2.71 0 2.48-2.1-.21-1.51-2.09-1.94-3.01-1.94zm-15.06 17.24c-2.17 3.18-7.13 6.3-8.89 5.28.09-.22.09-.54.3-.87.41-.7 1.03-1.61 1.98-2.69 1.74-2.15 4.21-4.58 6.4-6.25 1.02-.81 2.45-1.83 4.12-3.13-1.32 3.13-2.67 5.92-3.91 7.65zm9.6-29.03c-.61 1.13-1.54 2.53-2.36 3.72-.42.54-.93 1.18-1.46 1.56l-.82.97c-.11.11-.22.32-.22.43-.08.7 1.07 2.27 2.12 2.05.08 0 .28 0 .39-.11l-.31.43c-1.86 1.61-3.92 3.44-5.67 4.47-1.87 1.08-3.1 1.13-3.73.54-1.57-1.94 1.52-6.94 5.04-10.88 1.33-1.51 3.19-3.18 4.74-4.25.82-.54 1.54-1.02 2.08-1.18.31-.16.51-.22.73-.22.31.38.09 1.24-.52 2.48z" class="b"/><path id="path8" d="M27.84 58.28c-3.2-.38-4.54-.43-4.78-.38-5.7.27-7.41 1.13-10.9 4.1-2.98 2.58-4.81 7.7-5.19 11.53-.27 1.78-.4 4.36-.4 8.08l-.03 11.15v.32c-3.66.26-6.66 4.31-6.54 7.11.16 3.5 1.55 5.98 6.54 7.22v32.26c0 4.31 3.56 7.76 8.06 7.76s7.66-3.34 7.66-7.65v-32.21h2.43c3.68 0 6.77-3.61 6.74-7.38-.03-3.61-3.28-7.17-7.27-7.17h-1.9l.03-9.26v-6.89c0-3.07 1.13-5.23 3.94-5.71l3.14-.81c1.98-.64 3.55-3.39 3.42-6.19-.12-2.64-1.87-5.06-4.94-5.87" class="c"/><path id="path9" d="M145.05 97.82c-2.36-2.26-3.95-3.34-5.76-4.2-2.63-1.24-6.55-2.1-9.71-2.1-3.38 0-7.58.97-10.33 2.58l-1.97 1.08c-.12.16-.26.16-.39.16s-.27-.16-.79-.86c-1.04-1.56-3.92-2.1-5.63-2.1-3.55 0-6.93 2.7-7.32 5.93l-.27 1.83.12 38.41.15 3.23c.26 2.91 4.04 5.77 7.87 5.77 4.43 0 7.58-3.72 7.58-8.99v-17.51c0-4.31.12-7.11.27-8.19 0-.86.26-1.72.77-2.64.54-1.08 1.18-1.94 1.98-2.58 1.44-1.08 3.41-1.73 5.63-1.73 3.41 0 5.37 1.3 6.55 3.99.38.87.65 1.72.65 2.32v26.23c-.01 1.08.09 1.99.26 3.07.47 3.07 4.05 5.87 7.73 5.87 2.62 0 5.5-1.67 6.81-3.94.66-1.07.78-1.83 1.04-5.01v-17.4c0-8.73.55-10.94 3.41-13.25 1.46-1.24 3.29-1.89 5.26-1.89 2.87 0 4.97 1.3 6.01 3.82.92 2.1 1.17 3.56 1.17 9.65l-.13 18.74c0 1.24.06 2.43.4 3.66 1.2 3.94 3.81 5.82 7.74 5.82 4.58 0 7.19-3.01 7.72-8.99v-24.45c0-14.39-7.33-22.63-20.04-22.63-4.32 0-9.31 1.24-12.58 3.23-1.31.7-2.09 1.3-4.19 3.07" class="c"/><path id="path10" d="m216.57 64.64.08 75.84c-.08 3.83 2.72 6.63 6.99 6.63s7.2-2.8 7.2-6.73V64.54c0-4.15-2.63-6.84-6.76-6.84s-7.5 3.07-7.5 6.95" class="c"/><path id="path11" d="M198.84 64.21c-5.26 0-9.74 4.2-9.74 9.11 0 4.91 4.35 9.16 9.87 9.16s9.75-4.09 9.75-9.16-4.5-9.11-9.89-9.11" class="c"/><path id="path12" d="M191.46 99.7v40.51c0 4.04 3.56 7.32 7.77 7.32 4.21 0 7.5-3.18 7.5-7.32V99.7c0-3.93-3.57-7.27-7.75-7.27s-7.51 3.23-7.51 7.27" class="c"/><path id="path13" d="m257.59 136.65-13.09 23.43c-.52.92-.64 1.73-.64 2.7 0 3.99 3.28 7.22 7.47 7.22 2.63 0 5.13-1.51 6.45-3.94l14.12-25.53 20.74-38.68c.54-.75.68-1.51.68-2.37 0-3.71-3.29-6.94-7.24-6.94-1.97 0-4.45 1.02-5.24 2.26l-1.57 2.1-13.67 24.83L251.27 97c-1.95-3.23-3.91-4.47-6.94-4.47-4.48 0-7.74 3.12-7.74 7.32 0 .86.26 1.73.51 2.32l20.48 34.47z" class="c"/><path id="path14" d="M85.69 91.46c-4.95 0-4.95 2.21-7.86 4.9-5.81-4.68-10.91-5.33-18.38-5.01-13.72.54-23.24 15.25-23.39 27.9-.17 13.79 6.54 26.93 22.92 29.36 3.87.54 9.33-.65 12.94-2.32 5.29-2.58 5.2-3.34 5.48-3.5l.69-.38c.83-.43.56 4.68 7.32 4.68 3.7 0 7.42-2.69 7.42-5.71V97.86c0-3.45-3.65-6.46-7.14-6.41zm-21.32 44.6c-7.98 0-13.96-7.11-13.96-16s5.98-16.27 13.96-16.27 14.84 7.27 14.84 16.16-6.84 16.11-14.84 16.11z" class="c"/></g></svg>