<svg xmlns="http://www.w3.org/2000/svg" width="250" height="66.99" fill="none" viewBox="0 0 312.5 83.737"><g transform="matrix(.32805 0 0 .32805 31.25 8.374)"><path fill="#3762e3" d="M267.216 138.451v-84.52h50.888v14.146h-36.742v21.07h29.699v14.087h-29.699v35.217zm86.197 1.761c-6.417 0-12.052-1.39-16.904-4.168-4.852-2.778-8.647-6.632-11.386-11.562-2.7-4.931-4.05-10.604-4.05-17.022 0-6.926 1.33-12.932 3.991-18.019 2.661-5.126 6.358-9.097 11.093-11.915 4.735-2.817 10.213-4.226 16.434-4.226 6.574 0 12.15 1.546 16.728 4.637 4.617 3.052 8.041 7.376 10.271 12.972 2.231 5.595 3.072 12.188 2.524 19.779h-14.028v-5.165c-.039-6.886-1.252-11.915-3.639-15.084-2.386-3.17-6.143-4.754-11.269-4.754-5.791 0-10.095 1.8-12.912 5.4-2.818 3.56-4.226 8.784-4.226 15.671 0 6.417 1.408 11.387 4.226 14.908 2.817 3.522 6.925 5.283 12.325 5.283 3.483 0 6.476-.763 8.98-2.289 2.544-1.566 4.5-3.815 5.87-6.75l13.969 4.226c-2.426 5.713-6.182 10.154-11.269 13.323-5.048 3.17-10.624 4.755-16.728 4.755zm-21.834-29.524v-10.682h43.609v10.682zm90.102 29.524c-6.417 0-12.051-1.39-16.904-4.168-4.852-2.778-8.647-6.632-11.386-11.562-2.7-4.931-4.05-10.604-4.05-17.022 0-6.926 1.33-12.932 3.991-18.019 2.661-5.126 6.359-9.097 11.093-11.915 4.735-2.817 10.213-4.226 16.435-4.226 6.573 0 12.149 1.546 16.727 4.637 4.618 3.052 8.041 7.376 10.272 12.972 2.23 5.595 3.071 12.188 2.524 19.779h-14.028v-5.165c-.039-6.886-1.252-11.915-3.639-15.084-2.387-3.17-6.144-4.754-11.269-4.754-5.792 0-10.096 1.8-12.913 5.4-2.817 3.56-4.226 8.784-4.226 15.671 0 6.417 1.409 11.387 4.226 14.908 2.817 3.522 6.926 5.283 12.326 5.283 3.482 0 6.476-.763 8.98-2.289 2.543-1.566 4.5-3.815 5.869-6.75l13.969 4.226c-2.426 5.713-6.182 10.154-11.269 13.323-5.048 3.17-10.623 4.755-16.728 4.755zm-21.834-29.524v-10.682h43.61v10.682zm86.698 29.524c-5.83 0-10.917-1.468-15.26-4.403-4.343-2.934-7.708-6.925-10.095-11.973-2.387-5.048-3.581-10.741-3.581-17.08 0-6.417 1.194-12.13 3.581-17.139 2.426-5.047 5.849-9.019 10.271-11.915 4.422-2.934 9.626-4.401 15.613-4.401 6.026 0 11.073 1.467 15.143 4.401 4.108 2.896 7.219 6.868 9.332 11.915 2.113 5.048 3.169 10.761 3.169 17.139 0 6.3-1.056 11.993-3.169 17.08-2.113 5.048-5.263 9.039-9.45 11.973-4.187 2.935-9.371 4.403-15.554 4.403zm2.172-12.678c3.796 0 6.848-.861 9.156-2.583 2.348-1.761 4.05-4.206 5.107-7.337 1.095-3.13 1.643-6.749 1.643-10.858 0-4.148-.548-7.767-1.643-10.858-1.057-3.13-2.72-5.557-4.989-7.278-2.27-1.761-5.204-2.642-8.804-2.642-3.796 0-6.926.94-9.391 2.818-2.466 1.839-4.285 4.343-5.459 7.512-1.174 3.13-1.761 6.613-1.761 10.448 0 3.874.568 7.395 1.702 10.565 1.174 3.13 2.955 5.615 5.342 7.454 2.386 1.839 5.419 2.759 9.097 2.759zm15.906 10.917v-44.49h-1.761V53.93h14.263v84.52zm26.61 0v-84.52h14.146V89.5h40.029V53.931h14.086v84.52h-14.086v-35.686h-40.029v35.686zm83.543-73.015V52.464h14.145v12.972zm0 73.015v-63.39h14.145v63.39zm46.518 0-23.008-63.39h14.145l15.965 45.958 15.906-45.958h14.204l-23.008 63.39zm71.924 1.761c-6.418 0-12.052-1.39-16.904-4.168-4.852-2.778-8.648-6.632-11.387-11.562-2.7-4.931-4.05-10.604-4.05-17.022 0-6.926 1.331-12.932 3.991-18.019 2.661-5.126 6.359-9.097 11.094-11.915 4.734-2.817 10.212-4.225 16.434-4.225 6.574 0 12.149 1.545 16.728 4.636 4.617 3.052 8.041 7.376 10.271 12.972 2.23 5.595 3.072 12.188 2.524 19.779h-14.028v-5.165c-.039-6.886-1.252-11.915-3.639-15.084-2.387-3.17-6.143-4.754-11.269-4.754-5.791 0-10.096 1.8-12.913 5.4-2.817 3.56-4.226 8.784-4.226 15.671 0 6.417 1.409 11.387 4.226 14.908 2.817 3.522 6.926 5.283 12.326 5.283 3.482 0 6.476-.763 8.98-2.289 2.543-1.566 4.5-3.815 5.869-6.75l13.97 4.226c-2.427 5.713-6.183 10.154-11.27 13.323-5.047 3.17-10.623 4.755-16.727 4.755zm-21.835-29.524v-10.682h43.61v10.682z"/><ellipse cx="102.58" cy="102.103" fill="#fff" rx="94.082" ry="94.766"/><rect width="202.731" height="204.206" fill="#2563eb" rx="101.366"/><path fill="#fff" d="M80.475 84.74V70.927c0-2.103 0-3.154.308-4.093.273-.83.72-1.593 1.31-2.238.668-.729 1.584-1.244 3.417-2.273l13.153-7.387c1.753-.985 2.63-1.477 3.559-1.672a6.173 6.173 0 0 1 2.496-.006c.93.19 1.809.678 3.567 1.654l13.367 7.42c1.849 1.026 2.773 1.539 3.446 2.269a6.163 6.163 0 0 1 1.321 2.245c.312.943.312 2 .312 4.114v13.749c0 2.094 0 3.142-.307 4.078a6.16 6.16 0 0 1-1.302 2.233c-.663.728-1.574 1.244-3.397 2.276l-13.367 7.568c-1.783 1.01-2.674 1.514-3.62 1.71-.836.174-1.7.172-2.536-.006-.944-.201-1.833-.71-3.611-1.728l-13.153-7.536c-1.808-1.035-2.712-1.553-3.37-2.28a6.168 6.168 0 0 1-1.29-2.226c-.303-.931-.303-1.973-.303-4.056zM106.198 126.834v-13.815c0-2.103 0-3.154.309-4.093.273-.83.72-1.593 1.31-2.238.667-.729 1.584-1.244 3.417-2.273l13.153-7.387c1.753-.985 2.629-1.477 3.559-1.671a6.167 6.167 0 0 1 2.495-.007c.931.19 1.81.678 3.567 1.654l13.368 7.42c1.848 1.026 2.772 1.539 3.445 2.269a6.166 6.166 0 0 1 1.322 2.245c.311.943.311 2 .311 4.114v13.749c0 2.094 0 3.142-.306 4.078a6.174 6.174 0 0 1-1.302 2.233c-.663.728-1.575 1.244-3.398 2.276l-13.366 7.568c-1.783 1.01-2.675 1.514-3.62 1.71a6.156 6.156 0 0 1-2.536-.006c-.945-.201-1.834-.71-3.612-1.728l-13.153-7.536c-1.808-1.035-2.711-1.553-3.369-2.28a6.166 6.166 0 0 1-1.29-2.225c-.304-.932-.304-1.974-.304-4.057zM54.751 126.834v-13.815c0-2.103 0-3.154.309-4.093.273-.83.72-1.593 1.31-2.238.667-.729 1.584-1.244 3.417-2.273l13.153-7.387c1.753-.985 2.63-1.477 3.559-1.671a6.168 6.168 0 0 1 2.495-.007c.93.19 1.81.678 3.567 1.654l13.368 7.42c1.848 1.026 2.772 1.539 3.445 2.269a6.174 6.174 0 0 1 1.322 2.245c.311.943.311 2 .311 4.114v13.749c0 2.094 0 3.142-.306 4.078a6.177 6.177 0 0 1-1.302 2.233c-.664.728-1.575 1.244-3.398 2.276l-13.366 7.568c-1.783 1.01-2.675 1.514-3.62 1.71-.837.174-1.7.172-2.536-.006-.945-.201-1.834-.71-3.612-1.728l-13.153-7.536c-1.808-1.035-2.711-1.553-3.369-2.28a6.168 6.168 0 0 1-1.29-2.225c-.304-.932-.304-1.974-.304-4.057z"/></g></svg>