<svg xmlns="http://www.w3.org/2000/svg" width="250" height="45.086" viewBox="0 0 312.5 56.357"><g fill="none" fill-rule="evenodd"><g transform="translate(31.25 5.636) scale(1.07775)"><circle cx="20" cy="20" r="20" fill="#ffd701"/><path fill="#000" d="M23.181 22.148c0 .05.004.13.01.24.008.11.03.223.065.337a.82.82 0 0 0 .165.299c.075.085.184.128.326.128a.79.79 0 0 0 .572-.235c.16-.156.299-.352.416-.587.118-.235.214-.49.289-.764.075-.274.137-.532.187-.774.042-.221.108-.381.197-.48a.451.451 0 0 1 .289-.166.505.505 0 0 1 .315.08.98.98 0 0 1 .278.25c.078.104.137.22.176.348a.67.67 0 0 1 .016.363c-.1.363-.23.744-.39 1.143s-.365.765-.614 1.1a3.33 3.33 0 0 1-.898.833c-.349.22-.758.331-1.228.331-.292 0-.55-.055-.775-.165a1.812 1.812 0 0 1-.94-1.095 2.516 2.516 0 0 1-.123-.79v-5.16l-3.546-.032v.492c.498.62.949 1.258 1.351 1.917a12.943 12.943 0 0 1 1.677 4.374c.153.804.23 1.659.23 2.563 0 .912-.07 1.754-.208 2.526-.14.773-.335 1.439-.588 1.998-.253.559-.559.995-.919 1.308-.36.313-.756.47-1.19.47-.385 0-.706-.094-.962-.283a2.021 2.021 0 0 1-.614-.748 3.837 3.837 0 0 1-.332-1.052 7.014 7.014 0 0 1-.101-1.196V17.726a1.543 1.543 0 0 1-.07-.074 87.147 87.147 0 0 0-.534-.555.672.672 0 0 1-.208-.482c0-.113.04-.224.118-.33.078-.107.206-.172.384-.193a.824.824 0 0 0 .123-.01c.046-.008.109-.011.187-.011v-6.003c0-.157-.013-.281-.037-.374a1.392 1.392 0 0 0-.075-.219.678.678 0 0 0-.075-.128.163.163 0 0 1-.037-.101c0-.043.02-.079.064-.107a.644.644 0 0 1 .17-.075c.072-.021.148-.037.23-.048.082-.01.162-.016.24-.016.364 0 .65.094.86.283.21.189.316.415.316.678v5.992c.491-.028.956-.064 1.394-.107.438-.042.828-.085 1.17-.128l.854-.107c.228-.028.374-.042.438-.042.3 0 .538.034.716.101.178.068.315.157.411.267.096.11.159.233.187.369.029.135.043.267.043.395zm-3.61 4.55c0-.498-.035-1.018-.102-1.56a14.6 14.6 0 0 0-.305-1.644 16.459 16.459 0 0 0-.502-1.666c-.2-.556-.43-1.097-.694-1.624v9.517c0 .17.007.356.021.555.014.2.041.381.08.545.04.164.093.3.16.411.068.11.155.166.262.166.157 0 .303-.114.438-.342.136-.228.25-.55.342-.967.093-.416.166-.911.22-1.484.052-.573.08-1.209.08-1.907zm2.884-13.233c-.178 0-.348-.036-.508-.107-.16-.071-.299-.168-.417-.289a1.439 1.439 0 0 1-.283-.421 1.26 1.26 0 0 1-.106-.518 1.351 1.351 0 0 1 .39-.956 1.291 1.291 0 0 1 .924-.38c.192 0 .37.034.534.102.164.068.304.16.422.278.117.117.21.258.277.421.068.164.102.342.102.535 0 .185-.034.357-.102.518a1.307 1.307 0 0 1-1.234.817z"/></g><g fill="#000"><path d="M89.545 23.182v.858a32.7 32.7 0 0 1 2.414 3.328 21.966 21.966 0 0 1 1.831 3.595c.503 1.259.891 2.587 1.164 3.986.274 1.399.41 2.905.41 4.52 0 1.627-.123 3.131-.371 4.51-.248 1.38-.598 2.569-1.05 3.567-.451.998-.998 1.777-1.64 2.336-.643.56-1.352.84-2.128.84-.687 0-1.26-.17-1.717-.506a3.61 3.61 0 0 1-1.098-1.335 6.854 6.854 0 0 1-.591-1.879 12.52 12.52 0 0 1-.181-2.136V23.85a2.71 2.71 0 0 1-.248-.287 48.808 48.808 0 0 1-.83-.848c-.248-.261-.372-.55-.372-.868 0-.19.07-.385.21-.582.14-.197.368-.314.686-.353.064 0 .14-.006.23-.019.088-.012.197-.019.324-.019v-11.1c0-.279-.023-.502-.067-.667a2.507 2.507 0 0 0-.134-.39 1.205 1.205 0 0 0-.133-.23.29.29 0 0 1-.067-.18c0-.077.038-.14.115-.191a1.15 1.15 0 0 1 .305-.134c.127-.038.264-.067.41-.086.146-.019.29-.028.43-.028.648 0 1.16.168 1.535.505.375.337.563.74.563 1.21v11.063c.458-.039.916-.074 1.374-.106.458-.031.903-.063 1.336-.095a31.381 31.381 0 0 1 2.137-.086c.432 0 .807.083 1.125.248.318.166.477.452.477.858 0 .14-.016.344-.047.61-.032.268-.077.541-.134.82a3.24 3.24 0 0 1-.229.726c-.095.203-.207.305-.334.305-.063 0-.111-.023-.143-.067a.678.678 0 0 0-.153-.143 1.347 1.347 0 0 0-.305-.153 2.443 2.443 0 0 0-.6-.114zm2.862 16.287c0-.89-.06-1.809-.181-2.756a25.131 25.131 0 0 0-.544-2.88 27.132 27.132 0 0 0-.897-2.898c-.356-.96-.77-1.892-1.24-2.794v16.725c0 .305.013.636.038.992.026.356.073.68.143.973.07.292.166.537.287.734.12.197.276.295.467.295.28 0 .54-.203.782-.61s.446-.982.61-1.726c.166-.744.297-1.627.392-2.65.095-1.024.143-2.159.143-3.405zM105.573 35.712a4.97 4.97 0 0 1-1.402-.21 3.372 3.372 0 0 1-1.298-.725c-.388-.343-.706-.797-.954-1.363s-.372-1.281-.372-2.146c0-1.258.169-2.59.506-3.995.337-1.405.823-2.953 1.46-4.644h-3.417a72.74 72.74 0 0 1-.066 1.45 32.397 32.397 0 0 1-.458 3.871c-.12.674-.27 1.297-.448 1.869-.127.407-.328.642-.601.705a1.067 1.067 0 0 1-.811-.143 1.765 1.765 0 0 1-.649-.696 1.25 1.25 0 0 1-.114-.953c.101-.394.19-.874.267-1.44a28.39 28.39 0 0 0 .181-1.793c.045-.63.08-1.259.105-1.888.026-.63.044-1.192.057-1.688a3.832 3.832 0 0 1-1.202-1.02c-.318-.413-.477-.906-.477-1.478 0-.267.054-.512.162-.734.108-.223.252-.414.43-.573.178-.158.388-.28.63-.362.24-.083.49-.124.743-.124.23 0 .468.032.716.096.248.063.483.178.706.343.223.165.423.381.601.648s.324.598.439.992c.318.038.588.067.81.086l.564.047c.152.013.28.02.381.02h2.347c.115 0 .283.07.506.21.222.14.442.32.658.543a3.6 3.6 0 0 1 .544.715c.146.254.2.496.162.725 0 .076-.044.26-.134.553a69.965 69.965 0 0 0-.744 2.641 29.815 29.815 0 0 0-.744 3.795c-.089.68-.133 1.345-.133 1.993 0 .267.031.528.095.782.064.255.159.48.286.677.127.197.29.353.487.468.197.114.429.171.696.171.445 0 .827-.14 1.145-.42.318-.279.585-.629.801-1.048.217-.42.391-.874.525-1.364.134-.49.245-.95.334-1.382.076-.407.204-.703.382-.887.178-.185.362-.277.553-.277.153 0 .312.048.477.143.165.096.315.22.448.372.134.153.242.324.325.515.082.19.124.381.124.572a.496.496 0 0 1-.02.153.363.363 0 0 0-.018.114c-.179.649-.41 1.329-.697 2.04a8.716 8.716 0 0 1-1.097 1.965 5.947 5.947 0 0 1-1.603 1.488c-.623.394-1.355.591-2.194.591z"/><path d="M118.052 23.258c0 .725-.124 1.469-.372 2.232a7.835 7.835 0 0 1-1.107 2.164 8.521 8.521 0 0 1-1.813 1.831c-.718.54-1.548.95-2.49 1.23.128.33.296.646.506.944.21.299.461.556.754.773.292.216.633.387 1.02.515.389.127.837.19 1.346.19.763 0 1.418-.143 1.965-.429a4.293 4.293 0 0 0 1.383-1.135c.376-.47.678-.998.907-1.582.229-.585.4-1.177.515-1.774.089-.432.27-.722.544-.868.273-.146.553-.181.84-.105.285.076.534.239.743.486.21.248.296.544.258.887-.051.394-.137.846-.258 1.354a8.157 8.157 0 0 1-.543 1.545 8.638 8.638 0 0 1-.926 1.536c-.375.502-.836.95-1.383 1.344a6.993 6.993 0 0 1-1.927.954c-.738.241-1.584.362-2.538.362a6.62 6.62 0 0 1-2.585-.524 6.714 6.714 0 0 1-2.214-1.507c-.642-.655-1.157-1.462-1.545-2.422-.388-.96-.582-2.05-.582-3.271 0-1.233.172-2.38.515-3.442.343-1.062.795-1.98 1.355-2.756.56-.776 1.195-1.383 1.908-1.822.712-.438 1.443-.658 2.194-.658.547 0 1.04.096 1.479.287.439.19.81.46 1.116.81.305.35.537.766.696 1.25.16.482.239 1.016.239 1.601zm-6.297 4.616c0 .114.007.228.02.343.012.114.018.235.018.362a5.405 5.405 0 0 0 1.317-.877 5.5 5.5 0 0 0 1.011-1.22 5.96 5.96 0 0 0 .65-1.498c.152-.54.228-1.103.228-1.688 0-.432-.073-.769-.22-1.01-.146-.242-.346-.363-.6-.363-.318 0-.601.108-.85.324a2.91 2.91 0 0 0-.648.85c-.185.349-.337.743-.458 1.182-.121.438-.22.88-.296 1.325a12.01 12.01 0 0 0-.153 1.268c-.025.4-.031.735-.019 1.002z"/><path d="M129.653 23.258c0 .725-.124 1.469-.372 2.232a7.845 7.845 0 0 1-1.107 2.164 8.53 8.53 0 0 1-1.812 1.831 7.8 7.8 0 0 1-2.49 1.23c.127.33.295.646.505.944.21.299.461.556.754.773.293.216.633.387 1.02.515.389.127.837.19 1.346.19.763 0 1.418-.143 1.965-.429a4.29 4.29 0 0 0 1.384-1.135c.375-.47.677-.998.906-1.582.229-.585.4-1.177.515-1.774.089-.432.27-.722.544-.868.273-.146.553-.181.84-.105.286.076.534.239.743.486.21.248.296.544.258.887-.05.394-.137.846-.258 1.354a8.157 8.157 0 0 1-.543 1.545 8.638 8.638 0 0 1-.926 1.536 6.32 6.32 0 0 1-1.383 1.344 6.991 6.991 0 0 1-1.927.954c-.738.241-1.584.362-2.538.362a6.62 6.62 0 0 1-2.585-.524 6.716 6.716 0 0 1-2.214-1.507c-.642-.655-1.157-1.462-1.545-2.422-.388-.96-.582-2.05-.582-3.271 0-1.233.172-2.38.515-3.442.344-1.062.795-1.98 1.355-2.756.56-.776 1.196-1.383 1.908-1.822.712-.438 1.444-.658 2.194-.658.547 0 1.04.096 1.479.287a3.1 3.1 0 0 1 1.116.81c.305.35.537.766.696 1.25.16.482.239 1.016.239 1.601zm-6.296 4.616c0 .114.006.228.019.343.012.114.019.235.019.362a5.41 5.41 0 0 0 1.316-.877 5.504 5.504 0 0 0 1.011-1.22c.28-.458.497-.957.65-1.498.152-.54.228-1.103.228-1.688 0-.432-.073-.769-.22-1.01-.146-.242-.346-.363-.6-.363-.318 0-.601.108-.85.324-.247.217-.464.5-.648.85-.185.349-.337.743-.458 1.182-.12.438-.22.88-.296 1.325-.076.445-.127.868-.152 1.268-.026.4-.032.735-.02 1.002zM142.934 15.84c-.318 0-.62-.064-.907-.191a2.365 2.365 0 0 1-.744-.515 2.57 2.57 0 0 1-.505-.753 2.252 2.252 0 0 1-.191-.925 2.413 2.413 0 0 1 .696-1.707c.21-.21.458-.376.744-.496.287-.121.589-.181.907-.181.343 0 .661.06.954.18.292.121.543.287.753.497.21.21.376.46.496.753.121.292.182.61.182.954 0 .33-.06.638-.182.925a2.336 2.336 0 0 1-1.25 1.268c-.292.127-.61.19-.953.19zm.897 15.505c0 .089.006.232.019.429.012.197.05.397.114.6.064.204.165.382.305.535.14.152.337.228.592.228.381 0 .715-.14 1.001-.42.287-.279.535-.629.745-1.048.21-.42.384-.874.524-1.364.14-.49.255-.95.344-1.382.076-.395.194-.68.353-.859.159-.178.33-.276.515-.295a.866.866 0 0 1 .553.143 1.942 1.942 0 0 1 .82 1.068c.07.229.08.445.03.648-.179.649-.41 1.329-.697 2.04a8.716 8.716 0 0 1-1.097 1.965 5.95 5.95 0 0 1-1.603 1.488c-.623.394-1.355.591-2.194.591-.522 0-.986-.099-1.393-.296a3.103 3.103 0 0 1-1.03-.791 3.445 3.445 0 0 1-.64-1.163 4.486 4.486 0 0 1-.219-1.412V21.618c0-.369-.029-.636-.086-.8a1.407 1.407 0 0 1-.086-.459c0-.19.102-.346.305-.467.204-.12.446-.181.726-.181.648 0 1.16.168 1.536.505.375.337.563.74.563 1.211z"/><path d="M150.585 23.068c.14-.267.277-.627.41-1.078.134-.451.261-.95.382-1.497.12-.547.232-1.119.334-1.717.102-.597.19-1.182.267-1.754.076-.572.137-1.11.181-1.612.045-.502.067-.931.067-1.287 0-1.297-.095-2.247-.286-2.851-.19-.604-.445-.906-.763-.906-.102 0-.191.05-.267.153-.077.101-.14.231-.191.39-.051.16-.086.331-.105.515a4.94 4.94 0 0 0-.029.506zm5.553 5.893c.076-.382.194-.658.352-.83.16-.172.331-.267.516-.286a.933.933 0 0 1 .563.133c.19.109.356.252.496.43s.245.378.314.6c.07.223.08.442.03.658a18.025 18.025 0 0 1-.764 1.831c-.33.7-.75 1.36-1.26 1.984a7.364 7.364 0 0 1-1.793 1.583c-.687.432-1.475.648-2.366.648-.75 0-1.412-.124-1.984-.372a3.926 3.926 0 0 1-1.44-1.049 4.53 4.53 0 0 1-.879-1.62c-.197-.63-.295-1.333-.295-2.108V12.788c0-.725.092-1.395.276-2.012.185-.617.44-1.144.764-1.583a3.697 3.697 0 0 1 1.135-1.03 2.72 2.72 0 0 1 1.374-.372c.572 0 1.055.105 1.45.315.394.21.718.486.973.83.254.343.455.737.601 1.182.146.445.251.9.315 1.364.063.464.102.921.114 1.373.013.451.02.861.02 1.23 0 .953-.09 1.955-.268 3.004a33.56 33.56 0 0 1-.677 3.099 42.848 42.848 0 0 1-.897 2.927 46.938 46.938 0 0 1-.935 2.49 24.117 24.117 0 0 1-.801 1.773c-.236.457-.398.724-.487.8v2.27c0 .789.166 1.434.496 1.936.33.502.859.753 1.584.753a2.13 2.13 0 0 0 1.25-.41 4.401 4.401 0 0 0 1.03-1.03c.3-.413.55-.864.754-1.354.203-.49.35-.95.439-1.382z"/><path d="M159.19 23.068a6.12 6.12 0 0 0 .41-1.078c.135-.451.262-.95.382-1.497.121-.547.233-1.119.334-1.717.102-.597.191-1.182.268-1.754.076-.572.136-1.11.18-1.612.045-.502.068-.931.068-1.287 0-1.297-.096-2.247-.287-2.851-.19-.604-.445-.906-.763-.906-.102 0-.19.05-.267.153-.076.101-.14.231-.19.39a2.53 2.53 0 0 0-.106.515 4.94 4.94 0 0 0-.028.506zm5.553 5.893c.076-.382.194-.658.353-.83.16-.172.33-.267.515-.286a.933.933 0 0 1 .563.133c.19.109.356.252.496.43s.245.378.315.6c.07.223.08.442.029.658a17.945 17.945 0 0 1-.764 1.831c-.33.7-.75 1.36-1.259 1.984a7.364 7.364 0 0 1-1.793 1.583c-.687.432-1.476.648-2.366.648-.75 0-1.412-.124-1.985-.372a3.926 3.926 0 0 1-1.44-1.049 4.528 4.528 0 0 1-.878-1.62c-.197-.63-.296-1.333-.296-2.108V12.788c0-.725.093-1.395.277-2.012.184-.617.439-1.144.763-1.583a3.699 3.699 0 0 1 1.135-1.03 2.72 2.72 0 0 1 1.374-.372c.573 0 1.056.105 1.45.315.395.21.719.486.973.83.255.343.455.737.602 1.182.146.445.25.9.314 1.364.064.464.102.921.115 1.373.012.451.019.861.019 1.23 0 .953-.09 1.955-.267 3.004a33.56 33.56 0 0 1-.678 3.099 42.848 42.848 0 0 1-.896 2.927 46.948 46.948 0 0 1-.935 2.49 24.036 24.036 0 0 1-.802 1.773c-.235.457-.397.724-.486.8v2.27c0 .789.165 1.434.496 1.936.33.502.858.753 1.583.753a2.13 2.13 0 0 0 1.25-.41 4.394 4.394 0 0 0 1.03-1.03c.3-.413.55-.864.754-1.354.204-.49.35-.95.44-1.382z"/><path d="M175.581 35.712c-.445 0-.849-.07-1.212-.21a3.024 3.024 0 0 1-.953-.582c-.274-.247-.5-.54-.678-.877a3.533 3.533 0 0 1-.362-1.096c-.471.826-1.024 1.5-1.66 2.021-.636.521-1.387.782-2.252.782-.649 0-1.23-.133-1.746-.4a3.719 3.719 0 0 1-1.307-1.135c-.356-.49-.626-1.08-.81-1.774-.185-.693-.277-1.465-.277-2.317 0-1.03.073-2.066.219-3.109.146-1.042.309-1.983.487-2.822.203-.98.438-1.926.706-2.842.063-.165.11-.334.143-.505a1.02 1.02 0 0 1 .22-.468c.114-.14.295-.254.543-.343.248-.089.633-.133 1.154-.133.484 0 .795.085.935.257s.194.372.162.6a2.279 2.279 0 0 1-.229.706c-.12.242-.2.44-.238.592-.178.725-.337 1.386-.477 1.983a23.98 23.98 0 0 0-.572 3.69 28.621 28.621 0 0 0-.077 2.203c0 1.068.156 1.876.468 2.422.311.547.753.82 1.326.82.394 0 .76-.146 1.097-.438.337-.293.642-.684.916-1.173.273-.49.512-1.049.715-1.678.204-.63.363-1.288.477-1.974v-6.294c0-.28-.022-.502-.067-.667a2.47 2.47 0 0 0-.133-.391 1.215 1.215 0 0 0-.134-.23.317.317 0 0 1-.067-.2c0-.063.039-.12.115-.171a1.15 1.15 0 0 1 .305-.134c.128-.038.264-.066.41-.085.147-.02.29-.03.43-.03.649 0 1.16.17 1.536.506.375.337.563.74.563 1.211v9.918c0 .089.006.232.019.429.013.197.05.397.114.6.064.204.166.382.306.535.14.152.337.228.591.228.394 0 .735-.14 1.02-.42.287-.279.535-.629.745-1.048.21-.42.382-.874.515-1.364.134-.49.245-.95.334-1.382.076-.407.204-.703.382-.887.178-.185.362-.277.553-.277.153 0 .312.048.477.143.165.096.315.22.448.372.134.153.242.324.325.515.082.19.124.381.124.572v.095a.608.608 0 0 1-.038.172c-.178.649-.41 1.329-.697 2.04a8.709 8.709 0 0 1-1.097 1.965 5.948 5.948 0 0 1-1.603 1.488c-.623.394-1.354.591-2.194.591z"/><path d="M181.267 29.266c-.101.407-.292.658-.572.753-.28.095-.557.086-.83-.028a1.527 1.527 0 0 1-.687-.592 1.134 1.134 0 0 1-.162-.915c.19-.865.467-1.822.83-2.87.362-1.05.722-2.095 1.078-3.138a4.71 4.71 0 0 1-.458-.886 2.619 2.619 0 0 1-.172-.944c0-.331.124-.678.372-1.04s.547-.696.897-1.001c.35-.305.712-.556 1.088-.754.375-.197.696-.295.963-.295.47 0 .824.159 1.06.477.235.318.352.743.352 1.277 0 .293-.048.582-.143.868-.095.286-.2.553-.315.801-.114.248-.22.461-.315.64-.095.177-.149.291-.162.342.458.814.935 1.532 1.431 2.155.496.623.951 1.24 1.365 1.85.413.61.753 1.26 1.02 1.946.267.686.4 1.494.4 2.422 0 .229-.015.464-.047.705-.032.242-.08.47-.143.687a4.19 4.19 0 0 0 2.128-1.078c.26-.247.477-.518.648-.81.172-.292.315-.598.43-.915.14-.37.28-.636.42-.801.14-.166.298-.248.477-.248.165 0 .333.054.505.162.172.108.325.244.458.41.134.165.242.337.324.515.083.178.124.337.124.476 0 .191-.05.42-.152.687-.102.267-.239.54-.41.82a7.03 7.03 0 0 1-.582.81c-.217.261-.44.487-.668.678a8.46 8.46 0 0 1-2.156 1.249c-.827.337-1.851.55-3.072.639-.47.407-1.027.74-1.67 1-.642.262-1.364.392-2.165.392-.407 0-.824-.051-1.25-.153a8.296 8.296 0 0 1-2.28-.915 3.96 3.96 0 0 1-.763-.572c-.484-.458-.796-.919-.936-1.383-.14-.464-.174-.88-.104-1.249.07-.369.206-.67.41-.906.203-.235.413-.353.63-.353.127 0 .327.054.6.162.274.108.589.248.945.42s.744.353 1.164.543c.42.191.84.372 1.26.544.42.172.83.311 1.23.42.4.108.766.162 1.097.162.216-.255.413-.591.592-1.011.178-.42.267-.877.267-1.373 0-.61-.083-1.176-.248-1.698a6.798 6.798 0 0 0-.65-1.45 8.808 8.808 0 0 0-.906-1.248 21.353 21.353 0 0 0-1.02-1.097c-.305.75-.573 1.49-.802 2.222-.229.731-.47 1.56-.725 2.489z"/><path d="M187.984 16.259c.292.025.617.045.973.057.305.026.674.042 1.107.048.432.006.916.016 1.45.028V9.775c0-.28-.022-.503-.067-.668a2.49 2.49 0 0 0-.134-.39 1.215 1.215 0 0 0-.133-.23.29.29 0 0 1-.067-.18c0-.077.038-.14.115-.191a1.15 1.15 0 0 1 .305-.134c.127-.038.264-.067.41-.086.146-.019.29-.028.43-.028.648 0 1.16.168 1.535.505.376.337.563.74.563 1.21v6.848c1.196 0 2.458-.013 3.788-.039 1.329-.025 2.661-.07 3.997-.133.178-.19.321-.26.43-.21.107.051.177.172.21.363.031.19.034.426.009.705-.025.28-.076.55-.153.81-.076.261-.18.487-.314.678-.134.19-.284.286-.449.286-1.564.038-2.948.06-4.15.067-1.202.006-2.324.01-3.367.01v12.377c0 .635.12 1.093.362 1.373s.566.42.973.42c.394 0 .735-.14 1.02-.42.287-.28.535-.63.745-1.05.21-.419.382-.873.515-1.363.134-.49.245-.95.334-1.382.076-.407.204-.703.382-.887.178-.185.362-.277.553-.277.153 0 .312.048.477.143.165.096.315.22.448.372.134.153.242.324.325.515.082.19.124.381.124.572v.095a.605.605 0 0 1-.038.172 16.305 16.305 0 0 1-.678 2.04 8.504 8.504 0 0 1-1.106 1.965 6.08 6.08 0 0 1-1.613 1.488c-.623.394-1.354.591-2.194.591a4.2 4.2 0 0 1-1.44-.238 2.807 2.807 0 0 1-1.136-.763c-.318-.35-.566-.798-.744-1.345-.178-.547-.267-1.208-.267-1.983V18.967c-.433 0-.817-.003-1.155-.01-.337-.006-.62-.015-.849-.028a48.265 48.265 0 0 1-.706-.038c-.305 0-.575-.137-.81-.41a2.395 2.395 0 0 1-.497-.906c-.095-.33-.108-.633-.038-.906s.245-.41.525-.41Z"/><path d="M207.103 35.712a4.97 4.97 0 0 1-1.403-.21 3.373 3.373 0 0 1-1.297-.725c-.388-.343-.706-.797-.954-1.363s-.372-1.281-.372-2.146c0-1.258.168-2.59.505-3.995.337-1.405.824-2.953 1.46-4.644h-3.415c-.013.381-.035.864-.067 1.45a32.35 32.35 0 0 1-.458 3.871c-.12.674-.27 1.297-.449 1.869-.127.407-.327.642-.6.705a1.067 1.067 0 0 1-.811-.143 1.764 1.764 0 0 1-.65-.696 1.252 1.252 0 0 1-.114-.953c.102-.394.191-.874.268-1.44.076-.566.136-1.163.18-1.793.045-.63.08-1.259.106-1.888.025-.63.044-1.192.057-1.688a3.832 3.832 0 0 1-1.202-1.02c-.318-.413-.477-.906-.477-1.478 0-.267.054-.512.162-.734.108-.223.251-.414.43-.573.177-.158.387-.28.629-.362.242-.083.49-.124.744-.124.229 0 .468.032.716.096.248.063.483.178.705.343.223.165.423.381.602.648.178.267.324.598.438.992.318.038.589.067.811.086l.563.047c.153.013.28.02.382.02h2.347c.114 0 .283.07.505.21.223.14.442.32.659.543a3.6 3.6 0 0 1 .543.715c.147.254.2.496.163.725 0 .076-.045.26-.134.553a77.46 77.46 0 0 0-.744 2.641 30.831 30.831 0 0 0-.744 3.795c-.09.68-.134 1.345-.134 1.993 0 .267.032.528.096.782.063.255.159.48.286.677.127.197.29.353.486.468.198.114.43.171.697.171.445 0 .827-.14 1.145-.42.318-.279.585-.629.801-1.048.216-.42.391-.874.525-1.364.133-.49.245-.95.334-1.382.076-.407.203-.703.381-.887.178-.185.363-.277.554-.277.152 0 .311.048.477.143.165.096.314.22.448.372.134.153.242.324.324.515.083.19.124.381.124.572a.5.5 0 0 1-.019.153.357.357 0 0 0-.019.114c-.178.649-.41 1.329-.696 2.04a8.709 8.709 0 0 1-1.097 1.965 5.948 5.948 0 0 1-1.603 1.488c-.623.394-1.355.591-2.194.591z"/><path d="M221.642 33.137c.395 0 .735-.14 1.021-.42.286-.279.534-.629.744-1.048.21-.42.382-.874.515-1.364.134-.49.245-.95.334-1.382.09-.407.22-.703.391-.887.172-.185.36-.277.563-.277.153 0 .309.048.468.143a1.965 1.965 0 0 1 .763.887c.083.19.124.381.124.572v.095a.61.61 0 0 1-.038.172 16.247 16.247 0 0 1-.678 2.04 8.708 8.708 0 0 1-1.097 1.965 5.894 5.894 0 0 1-1.612 1.488c-.63.394-1.364.591-2.204.591-.687 0-1.284-.146-1.793-.439a3.298 3.298 0 0 1-1.202-1.163 5.457 5.457 0 0 1-1.422 1.135c-.553.311-1.199.467-1.936.467-.764 0-1.435-.153-2.013-.458a4.312 4.312 0 0 1-1.46-1.249c-.394-.528-.69-1.15-.887-1.869a8.723 8.723 0 0 1-.296-2.317c0-1.628.26-3.09.782-4.387.522-1.296 1.215-2.4 2.08-3.309a9.028 9.028 0 0 1 2.967-2.088 8.611 8.611 0 0 1 3.463-.725c.534 0 .967.147 1.298.44.33.292.496.692.496 1.2 0 .331-.035.563-.105.697-.07.133-.2.2-.391.2-.178 0-.363-.013-.554-.038a4.481 4.481 0 0 0-.591-.038c-.738 0-1.488.162-2.252.486-.763.324-1.453.82-2.07 1.488-.617.667-1.122 1.513-1.517 2.536-.394 1.024-.591 2.241-.591 3.652 0 1.03.197 1.822.591 2.375.395.553.935.83 1.622.83.534 0 .98-.201 1.336-.601.356-.401.642-.875.858-1.421v-6.027a3.314 3.314 0 0 0-.086-.8 8.325 8.325 0 0 1-.047-.24 1.111 1.111 0 0 1-.02-.2c0-.203.1-.365.297-.486.197-.12.435-.181.715-.181.649 0 1.164.168 1.546.505.381.337.572.74.572 1.211v6.447c0 .216.025.429.076.639.051.21.127.4.23.572.1.171.238.311.41.42.171.107.372.161.6.161z"/><path d="M220.898 16.259c.293.025.617.045.974.057.305.026.674.042 1.106.048.433.006.916.016 1.45.028V9.775c0-.28-.022-.503-.066-.668a2.489 2.489 0 0 0-.134-.39 1.221 1.221 0 0 0-.134-.23.29.29 0 0 1-.066-.18c0-.077.038-.14.114-.191a1.15 1.15 0 0 1 .305-.134 2.6 2.6 0 0 1 .41-.086c.147-.019.29-.028.43-.028.649 0 1.16.168 1.536.505.375.337.563.74.563 1.21v6.848c1.196 0 2.458-.013 3.787-.039 1.33-.025 2.662-.07 3.998-.133.178-.19.32-.26.429-.21.108.051.178.172.21.363.032.19.035.426.01.705-.026.28-.077.55-.153.81-.077.261-.182.487-.315.678-.134.19-.283.286-.449.286-1.564.038-2.947.06-4.15.067-1.201.006-2.324.01-3.367.01v12.377c0 .635.12 1.093.362 1.373s.566.42.974.42c.394 0 .734-.14 1.02-.42.286-.28.535-.63.744-1.05.21-.419.382-.873.516-1.363.133-.49.244-.95.333-1.382.077-.407.204-.703.382-.887.178-.185.363-.277.554-.277.152 0 .311.048.476.143.166.096.315.22.449.372.133.153.242.324.324.515.083.19.124.381.124.572v.095a.61.61 0 0 1-.038.172 16.247 16.247 0 0 1-.677 2.04 8.498 8.498 0 0 1-1.107 1.965 6.08 6.08 0 0 1-1.612 1.488c-.624.394-1.355.591-2.195.591-.52 0-1.001-.08-1.44-.238a2.805 2.805 0 0 1-1.135-.763c-.318-.35-.566-.798-.744-1.345-.179-.547-.268-1.208-.268-1.983V18.967c-.432 0-.817-.003-1.154-.01-.337-.006-.62-.015-.849-.028a48.405 48.405 0 0 1-.706-.038c-.305 0-.576-.137-.81-.41a2.394 2.394 0 0 1-.497-.906c-.096-.33-.108-.633-.038-.906s.245-.41.525-.41z"/><path d="M233.568 15.84c-.318 0-.62-.064-.906-.191a2.361 2.361 0 0 1-.744-.515 2.567 2.567 0 0 1-.506-.753 2.25 2.25 0 0 1-.19-.925 2.41 2.41 0 0 1 .697-1.707c.209-.21.456-.376.743-.496.286-.121.588-.181.906-.181.344 0 .661.06.954.18.293.121.544.287.754.497.21.21.375.46.496.753.12.292.181.61.181.954 0 .33-.06.638-.181.925a2.333 2.333 0 0 1-1.25 1.268c-.293.127-.61.19-.954.19zm.897 15.505c0 .089.006.232.019.429.013.197.05.397.114.6.064.204.166.382.306.535.14.152.337.228.591.228.382 0 .716-.14 1.002-.42.286-.279.534-.629.744-1.048.21-.42.385-.874.525-1.364.14-.49.254-.95.343-1.382.077-.395.194-.68.353-.859.16-.178.33-.276.515-.295a.866.866 0 0 1 .554.143 1.938 1.938 0 0 1 .82 1.068c.07.229.08.445.029.648-.178.649-.41 1.329-.697 2.04a8.71 8.71 0 0 1-1.097 1.965 5.948 5.948 0 0 1-1.603 1.488c-.623.394-1.354.591-2.194.591-.521 0-.986-.099-1.393-.296a3.105 3.105 0 0 1-1.03-.791 3.446 3.446 0 0 1-.64-1.163 4.491 4.491 0 0 1-.219-1.412V21.618c0-.369-.028-.636-.086-.8a1.407 1.407 0 0 1-.085-.459c0-.19.101-.346.305-.467.203-.12.445-.181.725-.181.649 0 1.16.168 1.536.505.375.337.563.74.563 1.211z"/><path d="M252.553 28.179a.572.572 0 0 1 .258-.382c.146-.101.315-.171.506-.21.19-.038.39-.038.6 0 .21.039.395.125.554.258.159.133.273.318.343.553.07.235.06.537-.028.906a5.305 5.305 0 0 1-.563 1.497c-.26.464-.588.874-.983 1.23a4.38 4.38 0 0 1-1.393.84 5.007 5.007 0 0 1-1.793.304c-.356 0-.69-.019-1.002-.057a4.366 4.366 0 0 1-.906-.21 6.05 6.05 0 0 1-1.87 2.031c-.763.515-1.705.773-2.824.773-.992 0-1.844-.194-2.557-.582a5.168 5.168 0 0 1-1.774-1.583c-.47-.667-.817-1.44-1.04-2.317a11.283 11.283 0 0 1-.334-2.784c0-1.437.169-2.724.506-3.862.337-1.138.728-2.104 1.173-2.9.445-.794.887-1.4 1.326-1.82.44-.42.767-.63.983-.63.254 0 .486.111.696.334.21.222.363.483.458.782.096.299.121.6.077.906a.972.972 0 0 1-.449.705c-.152.242-.334.522-.544.84-.21.317-.407.715-.591 1.192a9.887 9.887 0 0 0-.468 1.744c-.127.687-.19 1.514-.19 2.48 0 .826.073 1.545.219 2.155.146.61.35 1.122.61 1.535.261.413.56.722.897.925.338.204.697.305 1.079.305.56 0 1.02-.136 1.383-.41.362-.273.67-.632.925-1.077-.916-.789-1.612-1.79-2.09-3.004-.476-1.214-.715-2.527-.715-3.938 0-.61.067-1.192.2-1.745.134-.553.331-1.04.592-1.46.26-.419.588-.753.983-1 .394-.249.852-.372 1.374-.372.458 0 .89.165 1.297.495.407.33.763.789 1.069 1.374.305.584.543 1.277.715 2.078.172.801.258 1.672.258 2.613 0 .725-.045 1.443-.134 2.155a13.401 13.401 0 0 1-.42 2.06c.14.05.27.08.392.086.12.006.25.01.39.01.42 0 .793-.077 1.117-.23.324-.152.601-.356.83-.61a3.04 3.04 0 0 0 .553-.896c.14-.343.242-.706.306-1.087zm-7.46-3.624c0 .877.137 1.71.41 2.499a7.346 7.346 0 0 0 1.078 2.06c.077-.624.115-1.221.115-1.794 0-.66-.01-1.274-.029-1.84a10.943 10.943 0 0 0-.133-1.459c-.07-.407-.166-.728-.287-.963-.12-.235-.283-.353-.486-.353-.445 0-.668.617-.668 1.85z"/><path d="M252.573 21.618c0-.369-.029-.636-.086-.8a1.407 1.407 0 0 1-.086-.459c0-.19.102-.346.305-.467.204-.12.446-.181.725-.181.65 0 1.161.168 1.536.505.376.337.563.74.563 1.211v1.755a13.41 13.41 0 0 1 .868-1.526c.312-.47.65-.88 1.012-1.23a4.41 4.41 0 0 1 1.164-.82 3.085 3.085 0 0 1 1.345-.296c.648 0 1.184.121 1.602.363.42.241.751.553.993.934.242.382.41.808.505 1.278.096.47.143.928.143 1.373v8.087c0 .089.007.232.02.429.012.197.05.397.113.6.065.204.163.382.296.535.135.152.328.228.583.228.394 0 .734-.14 1.02-.42.287-.279.534-.629.744-1.048.21-.42.382-.874.515-1.364.135-.49.245-.95.334-1.382.078-.407.204-.703.382-.887.179-.185.363-.277.554-.277.152 0 .311.048.476.143.166.096.315.22.448.372.135.153.242.324.326.515.082.19.123.381.123.572v.095a.627.627 0 0 1-.037.172 16.571 16.571 0 0 1-.678 2.04 8.53 8.53 0 0 1-1.107 1.965 6.085 6.085 0 0 1-1.613 1.488c-.623.394-1.353.591-2.194.591-.52 0-.983-.099-1.382-.296a3.25 3.25 0 0 1-1.031-.791 3.353 3.353 0 0 1-.648-1.163 4.486 4.486 0 0 1-.22-1.412v-7.934c0-.305-.007-.59-.02-.858a3.184 3.184 0 0 0-.104-.705 1.207 1.207 0 0 0-.248-.487.57.57 0 0 0-.448-.18c-.28 0-.624.19-1.03.571-.408.382-.809.878-1.203 1.488s-.74 1.3-1.04 2.069a8.742 8.742 0 0 0-.563 2.317v5.703c0 .19-.003.384-.01.581a1.433 1.433 0 0 1-.114.534.988.988 0 0 1-.324.4c-.146.109-.36.163-.64.163-.19 0-.397-.022-.62-.067a1.717 1.717 0 0 1-.61-.248 1.395 1.395 0 0 1-.458-.515c-.12-.222-.181-.518-.181-.886z"/><path d="M268.887 29.266c-.101.407-.292.658-.572.753-.28.095-.557.086-.83-.028a1.524 1.524 0 0 1-.687-.592 1.134 1.134 0 0 1-.163-.915c.19-.865.468-1.822.83-2.87.363-1.05.722-2.095 1.079-3.138a4.78 4.78 0 0 1-.459-.886 2.63 2.63 0 0 1-.172-.944c0-.331.125-.678.374-1.04a5.25 5.25 0 0 1 .896-1.001 5.587 5.587 0 0 1 1.088-.754c.375-.197.695-.295.963-.295.471 0 .823.159 1.058.477.236.318.354.743.354 1.277 0 .293-.048.582-.144.868a7.72 7.72 0 0 1-.313.801c-.116.248-.221.461-.316.64-.096.177-.15.291-.163.342a16.39 16.39 0 0 0 1.431 2.155c.498.623.951 1.24 1.365 1.85.413.61.754 1.26 1.02 1.946.269.686.402 1.494.402 2.422 0 .229-.016.464-.048.705-.033.242-.08.47-.143.687.457-.09.861-.229 1.212-.42.348-.19.655-.41.916-.658.26-.247.476-.518.648-.81a5.41 5.41 0 0 0 .429-.915c.14-.37.28-.636.42-.801.14-.166.3-.248.476-.248.167 0 .335.054.507.162.171.108.324.244.457.41.134.165.241.337.325.515.083.178.123.337.123.476 0 .191-.05.42-.152.687-.102.267-.239.54-.41.82a7.11 7.11 0 0 1-.582.81 5.23 5.23 0 0 1-.669.678 8.411 8.411 0 0 1-2.156 1.249c-.826.337-1.849.55-3.071.639-.47.407-1.027.74-1.67 1-.642.262-1.364.392-2.164.392a5.37 5.37 0 0 1-1.25-.153 8.276 8.276 0 0 1-2.28-.915 3.948 3.948 0 0 1-.764-.572c-.484-.458-.796-.919-.936-1.383-.14-.464-.173-.88-.105-1.249.07-.369.207-.67.412-.906.203-.235.413-.353.629-.353.127 0 .327.054.6.162.275.108.589.248.946.42.356.172.744.353 1.163.543.42.191.84.372 1.26.544.42.172.83.311 1.23.42.401.108.767.162 1.097.162.217-.255.415-.591.592-1.011a3.47 3.47 0 0 0 .268-1.373c0-.61-.083-1.176-.25-1.698a6.805 6.805 0 0 0-.647-1.45 8.812 8.812 0 0 0-.907-1.248 21.125 21.125 0 0 0-1.021-1.097 28.16 28.16 0 0 0-.8 2.222c-.23.73-.472 1.56-.726 2.489z"/></g></g></svg>