<svg xmlns="http://www.w3.org/2000/svg" version="1.1" viewBox="-3.75 -3.75 371.884 124.041"><g fill-opacity="1" stroke="none"><path fill="#07284a" fill-rule="evenodd" d="M259.395 75.353c0-8.512 5.175-16.758 14.034-16.758 8.779 0 13.955 8.246 13.955 16.758 0 7.984-4.304 16.762-13.955 16.762-9.737 0-14.034-8.778-14.034-16.762m-8.776 0c0 12.81 9.303 23.428 22.81 23.428 13.428 0 22.725-10.618 22.725-23.428 0-13.6-9.124-23.428-22.725-23.428-13.689 0-22.81 9.828-22.81 23.428m-2.424-21.673c-2.37-.965-6.67-1.755-10.007-1.755-13.685 0-22.813 9.829-22.813 23.428 0 12.81 9.3 23.428 22.813 23.428 2.985 0 6.932-.263 10.357-1.846l-.611-7.368c-2.548 1.668-6.059 2.548-8.866 2.548-10.615 0-14.913-8.778-14.913-16.762 0-8.512 5.174-16.758 14.39-16.758 2.628 0 5.781.613 8.948 1.931zm-69.457 17.372c.614-5.79 3.943-12.457 12.019-12.457 7.106 0 11.143 5.616 11.143 12.457zm28.515 16.587c-2.021 1.666-8.335 4.476-13.776 4.476-7.81 0-14.739-6.056-14.739-14.916h31.934c0-14.393-4.822-25.275-19.735-25.275-12.639 0-20.977 9.391-20.977 22.64 0 14.565 7.286 24.216 23.167 24.216 7.369 0 10.966-1.756 14.126-2.895zm-51.47-12.46c.174 7.016-3.512 16.936-12.372 16.936-9.3 0-13.161-9.214-13.161-16.674 0-8.336 4.3-16.846 13.249-16.846 8.953 0 12.458 8.51 12.285 16.585m-33.782 22.547h7.895v-6.316h.175c2.195 3.331 7.283 7.37 15.27 7.37 13.517 0 19.214-11.934 19.214-24.218 0-12.018-6.314-22.638-19.297-22.638-7.814 0-12.29 3.07-14.834 7.193h-.175V31.92h-8.248zM83.43 71.052c.617-5.79 3.95-12.457 12.022-12.457 7.107 0 11.145 5.616 11.145 12.457zm28.518 16.587c-2.018 1.666-8.338 4.476-13.778 4.476-7.807 0-14.74-6.056-14.74-14.916h31.94c0-14.393-4.826-25.275-19.742-25.275-12.635 0-20.971 9.391-20.971 22.64 0 14.565 7.283 24.216 23.165 24.216 7.368 0 10.968-1.756 14.126-2.895zM66.706 38.5c-5.09-1.753-9.038-3.071-17.989-3.071-18.689 0-32.375 12.547-32.375 31.411 0 19.48 12.898 31.94 32.29 31.94 9.565 0 15.355-1.579 18.686-2.717V64.21H45.647v7.194h12.899v18.6c-2.193.442-3.773 1.054-9.829 1.054-12.721 0-23.075-9.565-23.075-23.954 0-13.687 9.387-23.956 23.514-23.956 7.899 0 12.549 1.406 16.849 4.214z" transform="translate(34.115 8.88)"/><path fill="#9d212c" fill-rule="nonzero" d="M.005 30.177c34.14-15.363 78.974-24.69 128.167-24.69 43.364 0 83.347 7.247 115.608 19.488l9.11-4.423C220.161 7.668 179.058 0 134.448 0 82.237 0 34.807 10.506 0 27.584v2.594z" transform="translate(34.115 8.88)"/></g></svg>