<svg xmlns="http://www.w3.org/2000/svg" fill="none" version="1.1" viewBox="0 0 131.579 32.895"><g fill="#0fd354" clip-path="url(#a)" transform="translate(6.788 1.698)"><path d="M25.075 12.32H16.91c.28 1.33 1.192 2.134 2.4 2.134.807 0 1.77-.192 2.366-1.277l3.154.648c-.964 2.344-2.979 3.464-5.52 3.464-3.223 0-5.886-2.362-5.886-5.879 0-3.517 2.663-5.895 5.904-5.895s5.677 2.256 5.747 5.895zm-8.095-2.17h4.59c-.332-1.206-1.226-1.749-2.242-1.749a2.42 2.42 0 0 0-2.348 1.75m16.943 2.099 3.259.7c-.56 2.642-2.908 4.339-5.677 4.339-3.328 0-6.062-2.362-6.062-5.879 0-3.517 2.733-5.895 6.062-5.895 2.716 0 5.064 1.662 5.677 4.268l-3.329.805c-.298-1.347-1.209-1.977-2.348-1.977-1.594 0-2.663 1.172-2.663 2.8 0 1.626 1.069 2.781 2.663 2.781 1.14 0 2.05-.595 2.418-1.942m26.527-.84c0 3.517-2.786 5.86-6.097 5.86-3.311 0-6.168-2.343-6.168-5.86 0-3.516 2.804-5.843 6.168-5.843 3.364 0 6.097 2.343 6.097 5.843m-3.417 0c0-1.732-1.296-2.886-2.68-2.886-1.384 0-2.751 1.154-2.751 2.886 0 1.732 1.314 2.87 2.75 2.87 1.437 0 2.681-1.12 2.681-2.87m28.786 0c0 3.517-2.786 5.86-6.097 5.86-3.311 0-6.15-2.343-6.15-5.86 0-3.516 2.786-5.843 6.15-5.843 3.364 0 6.097 2.344 6.097 5.843m-3.416 0c0-1.732-1.297-2.886-2.681-2.886-1.384 0-2.75 1.154-2.75 2.886 0 1.732 1.313 2.87 2.75 2.87s2.68-1.12 2.68-2.87M96.84 9.923v7.033h-3.417v-.822c-.771.665-1.84 1.155-3.33 1.155-2.487 0-4.134-1.435-4.134-3.622s1.647-3.586 4.625-3.586h2.839v-.228c0-.927-.649-1.54-1.577-1.54-.929 0-1.682.42-1.857 1.383l-3.347-.682c.49-2.152 2.436-3.5 5.099-3.5 3.118 0 5.098 1.575 5.098 4.41m-3.417 2.66v-.245h-2.436c-.893 0-1.454.455-1.454 1.154 0 .7.63 1.137 1.56 1.137 1.226 0 2.33-.804 2.33-2.046m12.158-6.807-.157 3.551h-.649c-2.47 0-3.836 1.277-3.836 4.164v3.464h-3.54V5.846h3.54v2.135c.805-1.33 2.032-2.292 3.836-2.292q.409 0 .806.088M13.074 15.942V5.847H9.517v.892c-.858-.77-2.015-1.224-3.451-1.224C3.122 5.515.634 7.91.634 11.41c0 3.5 2.488 5.879 5.432 5.879 1.436 0 2.575-.438 3.451-1.208v6.893c0 .7-.525 2.975-2.978 2.975-2.856 0-2.979-2.817-2.979-2.975-.017-1.417.596-1.434.894-1.417a.75.75 0 0 1 .508.28c.13.191.161.43.088.648a1.784 1.784 0 0 0 1.384 2.099 1.77 1.77 0 0 0 2.1-1.358v-.007a4.27 4.27 0 0 0-.823-3.621 4.31 4.31 0 0 0-3.259-1.592c-2.663 0-4.45 1.994-4.45 4.968S2.034 29.5 6.537 29.5s6.553-3.901 6.553-6.526c0-1.679-.018-7.032-.018-7.032zM6.802 14.28c-1.56 0-2.699-1.138-2.699-2.87 0-1.732 1.14-2.886 2.699-2.886s2.715 1.172 2.715 2.886c0 1.714-1.279 2.87-2.715 2.87m111.219 2.676h-3.539v-.875c-.876.77-2.014 1.208-3.469 1.208-2.943 0-5.431-2.362-5.431-5.879 0-3.517 2.488-5.895 5.431-5.895 1.455 0 2.593.437 3.469 1.224V-.03h3.539zm-3.539-5.546c0-1.714-1.296-2.886-2.733-2.886-1.436 0-2.68 1.172-2.68 2.886 0 1.714 1.138 2.87 2.68 2.87 1.542 0 2.733-1.155 2.733-2.87m-41.209 0c0 3.517-2.487 5.879-5.43 5.879-1.438 0-2.594-.438-3.452-1.208v.875h-3.557V-.03h3.557v6.77c.858-.787 2.014-1.224 3.451-1.224 2.944 0 5.431 2.396 5.431 5.895m-3.486 0c0-1.714-1.121-2.886-2.68-2.886-1.559 0-2.717 1.171-2.717 2.885 0 1.714 1.279 2.87 2.715 2.87 1.437 0 2.68-1.155 2.68-2.87"/><path d="m45.889 16.921-2.961-3.796-1.682 1.907v1.89H37.69V-.049h3.556v10.304l4.012-4.444h4.135l-4.1 4.636 4.959 6.473z"/></g><defs><clipPath id="a"><path fill="#fff" d="M0 0h118v29.5H0z"/></clipPath></defs></svg>