<svg xmlns="http://www.w3.org/2000/svg" width="250" height="74.499" class="styles_logo__P4juv" viewBox="0 0 312.5 93.123"><g fill="none" fill-rule="evenodd"><path fill="#000" d="M40.729 66.846c.328 2.189 1.313 3.83 2.9 5.473 1.587 1.094 3.612 2.189 6.13 2.189 3.338 0 5.855-1.095 7.661-2.737 1.806-1.641 2.682-4.378 2.682-8.263v-2.791c-.821 1.258-2.08 2.408-3.886 3.393-1.751 1.094-4.104 1.641-6.895 1.641-2.573 0-4.98-.547-7.17-1.641-2.243-.821-4.159-2.135-5.746-3.831-1.592-1.642-2.857-3.667-3.776-5.91-.92-2.3-1.379-4.817-1.379-7.553.002-2.572.449-4.98 1.34-7.278.893-2.299 2.13-4.324 3.706-6.02a16.51 16.51 0 0 1 5.691-4.105c2.19-.985 4.652-1.477 7.334-1.477 3.064 0 5.527.547 7.333 1.641 1.751 1.095 3.01 2.299 3.667 3.612v-4.542h10.124v34.587c0 2.517-.383 5.254-1.15 7.443-.766 2.736-1.97 4.925-3.611 6.567-1.642 2.189-3.722 3.283-6.294 4.378-2.572 1.095-5.691 2.189-9.303 2.189-2.682 0-5.09-.547-7.279-1.642-2.189-.547-4.104-1.642-5.746-2.736-1.609-1.642-2.922-2.736-3.918-4.378-.996-2.19-1.631-3.831-1.894-5.473l9.468-2.736zm10.398-10.18c2.681 0 4.87-.875 6.567-2.68 1.696-1.752 2.572-4.16 2.572-7.17s-.93-5.363-2.682-7.114c-1.806-1.751-3.94-2.627-6.457-2.627-1.314 0-2.573.219-3.667.657a7.798 7.798 0 0 0-2.955 1.97 8.42 8.42 0 0 0-1.97 3.12c-.493 1.203-.712 2.517-.712 3.994 0 3.065.876 5.473 2.572 7.224 1.751 1.751 3.995 2.627 6.732 2.627zm29.935 10.727V28.647H91.35v38.746Zm-1.259-51.442c0-1.856.602-3.404 1.86-4.669 1.26-1.258 2.792-1.888 4.762-1.888 1.642 0 3.283.63 4.378 1.888 1.095 1.265 2.189 2.813 2.189 4.669 0 1.696-1.094 3.228-2.189 4.487s-2.736 1.86-4.378 1.86c-1.97 0-3.503-.601-4.761-1.86-1.259-1.259-1.861-2.79-1.861-4.487Zm35.627 12.696h8.209v9.249h-8.21v16.253c0 1.697.548 2.846 1.095 3.503 1.095.657 2.19.985 3.831.985.547 0 1.095 0 1.642-.055.547-.054 1.094-.164 1.642-.273v8.537c-.548.547-1.642.547-2.19.547-1.094.547-2.188.547-3.83.547-3.831 0-7.115-1.094-9.304-3.283-2.189-1.97-3.283-4.925-3.283-8.702v-18.06h-6.567v-9.248h1.641c2.19 0 3.831-.602 4.379-1.806 1.094-1.15 1.641-2.627 1.641-4.378v-5.418h9.304zm16.418 38.746V28.647h9.85v4.707c.548-.93 1.095-1.806 2.19-2.518.547-.766 1.641-1.368 2.736-1.806 1.094-.492 2.189-.875 3.283-1.094 1.095-.274 2.19-.438 3.284-.438 2.736 0 4.925.547 7.114 1.696 1.642 1.095 3.284 2.682 4.378 4.762 1.642-2.354 3.284-3.995 5.473-4.98 2.189-.986 4.378-1.478 6.567-1.478 2.19 0 3.83.273 5.473.82 1.641.603 3.283 1.478 4.378 2.682 1.642 1.204 2.189 2.737 3.283 4.597.548 1.861 1.095 4.105 1.095 6.677v25.12h-10.398V44.407c0-2.134 0-3.885-1.095-5.253-1.094-1.423-3.283-2.08-5.472-2.08-2.19 0-3.831.711-5.473 2.244-1.094 1.477-1.642 3.283-1.642 5.363v22.711h-10.398V44.408c0-2.134-.547-3.885-1.641-5.253-1.095-1.423-2.737-2.08-5.473-2.08-2.19 0-3.83.711-4.925 2.189-1.642 1.478-2.19 3.284-2.19 5.418v22.711Zm87.014-8.373c1.642 0 2.736-.219 3.831-.711 1.095-.438 2.19-1.15 3.284-2.08.547-.93 1.641-2.025 2.189-3.393.547-1.368.547-3.01.547-4.816 0-1.86 0-3.448-.547-4.816-.548-1.368-1.642-2.517-2.19-3.448a13.656 13.656 0 0 0-3.283-2.08c-1.095-.492-2.189-.71-3.83-.71a7.903 7.903 0 0 0-3.284.71c-1.642.493-2.737 1.15-3.284 2.08-1.094.93-1.642 2.08-2.189 3.448-.547 1.368-1.095 2.955-1.095 4.816 0 1.806.548 3.448 1.095 4.816.547 1.368 1.095 2.463 2.189 3.393.547.93 1.642 1.642 3.284 2.08a7.903 7.903 0 0 0 3.283.711zm0-31.577c3.284 0 6.02.493 8.21 1.532 2.735 1.04 4.924 2.463 6.566 4.27 1.642 1.805 3.284 3.94 4.378 6.511 1.095 2.518 1.095 5.254 1.095 8.264 0 2.955 0 5.746-1.095 8.21-1.094 2.516-2.736 4.65-4.378 6.511-1.642 1.916-3.83 3.01-6.567 4.105-2.189 1.094-4.925 1.642-8.209 1.642-2.736 0-5.472-.548-7.661-1.642-2.737-1.095-4.926-2.19-6.568-4.105-2.189-1.86-3.283-3.995-4.378-6.512-1.094-2.463-1.641-5.254-1.641-8.209 0-3.01.547-5.746 1.641-8.264 1.095-2.572 2.19-4.706 4.378-6.512 1.642-1.806 3.831-3.229 6.568-4.269 2.189-1.04 4.925-1.532 7.661-1.532zm29.005 1.204h10.398v42.03c0 2.189-.547 3.83-1.095 5.472-.547 1.095-1.094 2.737-2.189 3.831-1.094 1.095-2.189 2.19-3.83 2.737-1.642.547-3.284 1.094-4.926 1.094-1.642 0-3.283-.547-4.378-.547-1.094-.547-1.642-.547-1.642-.547V73.96h1.095c.547.548 1.094.548 2.189.548 1.642 0 2.736-.548 3.284-1.642.547-.547 1.094-1.642 1.094-3.284zm-1.642-12.806c0-1.828.548-3.376 2.19-4.635 1.094-1.264 2.736-1.894 4.377-1.894 1.642.001 3.284.63 4.926 1.894 1.094 1.259 1.642 2.807 1.642 4.635 0 1.806-.548 3.284-1.642 4.542-1.642 1.26-3.284 1.861-4.926 1.861-1.641 0-3.283-.602-4.378-1.86-1.641-1.26-2.189-2.737-2.189-4.543zm22.985 51.552V28.647h10.398v38.746Zm-1.094-51.442c0-1.856.547-3.404 1.642-4.669 1.641-1.258 2.736-1.888 4.925-1.888 1.642 0 3.283.63 4.378 1.888 1.094 1.265 2.189 2.813 2.189 4.669 0 1.696-1.095 3.228-2.189 4.487-1.095 1.259-2.736 1.86-4.378 1.86-2.19 0-3.284-.601-4.925-1.86-1.095-1.259-1.642-2.79-1.642-4.487z"/><g transform="translate(197.519 26.349) scale(.54726)"><circle cx="39" cy="39" r="39" fill="#ffdd67"/><path fill="#664e27" d="M62 42.2c-.5-.7-1.5-.6-2.5-.6h-41c-1 0-2-.1-2.5.6-5.1 6.4.9 25.4 23 25.4s28.1-19 23-25.4z"/><path fill="#4c3526" d="M41.4 51.7c-.8-.1-1.9.6-1.5 2.5.2.9 1.6 2.1 1.6 3.6 0 3.1-5 3.1-5 0 0-1.5 1.4-2.7 1.6-3.6.4-1.9-.7-2.6-1.5-2.5-2 0-5.4 2.2-5.4 5.9 0 4.2 3.5 7.6 7.8 7.6s7.8-3.4 7.8-7.6c0-3.7-3.4-5.9-5.4-5.9z"/><path fill="#ff717f" d="M29 63.3c2.9 1.2 6.2 1.9 10 1.9s7.1-.7 10-1.9c-2.8-1.4-6.1-2.2-10-2.2-3.9 0-7.2.8-10 2.2z"/><path fill="#fff" d="M58.4 44.2H19.6c-2.7 0-2.7 5.2-.1 5.2h39c2.6 0 2.6-5.2-.1-5.2z"/><path fill="#65b1ef" d="M74.7 45.34c9.5 9.96-3.4 23.6-12.9 13.6-7-7.3-7.3-21.2-7.3-21.2 0 .013 13.2.347 20.2 7.64zm-58.5 13.6c-9.46 10-22.4-3.6-12.9-13.6 7-7.25 20.2-7.59 20.2-7.59 0 .003-.3 13.9-7.3 21.2z"/><path fill="#664e27" d="M34.5 34.67c-2.4-6.64-6.1-9.97-9.7-9.97-3.66 0-7.3 3.33-9.71 9.97-.243.63 1 1.83 1.63 1.23 2.34-2.48 5.14-3.47 8.08-3.47 2.9 0 5.7.99 8.1 3.47.6.6 1.8-.6 1.6-1.23zm28.4 0c-2.4-6.64-6-9.97-9.7-9.97-3.6 0-7.3 3.33-9.7 9.97-.2.63 1 1.83 1.6 1.23 2.4-2.48 5.2-3.47 8.1-3.47 2.9 0 5.7.99 8.1 3.47.6.6 1.9-.6 1.6-1.23z"/></g></g></svg>