<svg xmlns="http://www.w3.org/2000/svg" fill="none" version="1.1" viewBox="0 0 166.667 22.727"><g clip-path="url(#a)" transform="translate(17.333 2.365)"><mask id="b" width="132" height="18" x="0" y="0" maskUnits="userSpaceOnUse"><path fill="#fff" d="M132 0H0v18h132z"/></mask><g fill="#000" mask="url(#b)"><path d="M78.457 0c-2.727 0-5.392 2.47-5.699 6.038V.295h-3.916v17.318h3.964V9.23c0-2.348 1.664-5.66 5.651-5.66zM120.04 14.84V2.975h2.296c3.062 0 5.55 1.914 5.55 5.837s-2.488 6.028-5.55 6.028zm-3.924 2.775h6.699c4.114 0 9.185-2.68 9.185-8.803 0-6.028-5.071-8.516-9.185-8.516h-6.699zM101.105 9.004c0-3.158 1.627-5.741 4.306-5.741 2.583 0 4.019 2.583 4.019 5.74 0 3.158-1.436 5.742-4.019 5.742-2.679 0-4.306-2.584-4.306-5.741zm-4.019.191c0 5.167 2.68 8.803 6.89 8.803 3.061 0 4.879-2.01 5.836-5.263v4.88h3.923V.296h-3.923V4.89c-.861-3.062-2.679-4.88-5.549-4.88-4.306 0-7.177 3.923-7.177 9.186zM7.75 17.998C2.87 17.998 0 14.075 0 9.195 0 4.124 3.158.009 9.186.009c6.22 0 8.324 4.21 8.42 6.603h-4.497c-.096-1.34-1.244-3.35-4.019-3.35-2.966 0-4.88 2.584-4.88 5.742 0 3.157 1.914 5.74 4.88 5.74 2.68 0 3.827-2.104 4.306-4.21H9.09V8.813h9.035v8.803h-3.964v-5.55c-.287 2.01-1.53 5.933-6.41 5.933zM26.162 17.998c-3.732 0-6.028-2.488-6.028-7.464V.296h4.019v10.238c0 2.584 1.244 3.828 3.349 3.828 4.114 0 5.645-5.072 5.645-8.612V.296h4.019v17.319h-3.923v-6.411c-.766 3.54-2.87 6.794-7.081 6.794zM61.181 0c-3.429 0-5.592 3.312-6.298 6.375C54.763 2.27 52.744 0 49.515 0c-2.79 0-5.378 2.488-6.05 6.424V.294h-3.918v17.32h3.968v-6.209c0-1.54.641-7.856 4.636-7.856 2.587 0 2.857 2.334 2.857 5.524v8.541h3.966v-6.209c0-1.54.668-7.856 4.663-7.856 2.585 0 2.852 2.334 2.852 5.524v8.541h3.971V7.37C66.478 2.455 64.743 0 61.181 0zM86.97 0c-5.136 0-8.617 4.028-8.617 8.999 0 5.478 3.31 8.999 8.617 8.999 5.137 0 8.68-4.028 8.68-9C95.65 3.522 92.274 0 86.97 0zm0 14.932c-2.99 0-4.927-2.531-4.927-5.933 0-3.402 1.943-5.933 4.927-5.933 2.983 0 4.85 2.531 4.85 5.933 0 3.402-1.868 5.933-4.85 5.933z"/></g></g><defs><clipPath id="a"><path fill="#fff" d="M0 0H132V18H0z"/></clipPath></defs></svg>