<svg xmlns="http://www.w3.org/2000/svg" version="1.1" viewBox="0 0 250 48.338"><g fill="#004c80" data-name="Group 221"><g data-name="Group 214"><path d="M73.937 27.3h-1.982v-7.933h-8.873V27.3H61.1V10.5h1.982v7.079h8.872V10.4h1.982z" data-name="Path 95" transform="translate(-1381.63 1061.463) translate(1477.512 -1044.515) translate(-61.1 -10.4)"/><path d="M84.541 27.725a5.9 5.9 0 0 1-4.436-1.7 6.8 6.8 0 0 1-1.6-4.719 6.855 6.855 0 0 1 1.51-4.814 4.983 4.983 0 0 1 4.054-1.792 4.777 4.777 0 0 1 3.775 1.51 5.991 5.991 0 0 1 1.416 4.153v1.227h-8.683a4.615 4.615 0 0 0 1.133 3.4 3.986 3.986 0 0 0 3.02 1.133 10.439 10.439 0 0 0 4.059-.849v1.7c-.661.283-1.321.472-1.888.661-.756-.004-1.511.09-2.36.09zM84.069 16.3a3.2 3.2 0 0 0-2.454.944 4.786 4.786 0 0 0-1.038 2.737h6.607a3.962 3.962 0 0 0-.849-2.737 2.8 2.8 0 0 0-2.266-.944z" data-name="Path 96" transform="translate(-1381.63 1061.463) translate(1477.512 -1044.515) translate(-62.077 -10.641)"/><path d="m100.984 27.548-.378-1.793h-.094a5.71 5.71 0 0 1-1.888 1.6 5.9 5.9 0 0 1-2.36.378 4.051 4.051 0 0 1-2.926-.944 3.429 3.429 0 0 1-1.038-2.733c0-2.548 2.077-3.87 6.135-3.964l2.171-.092v-.755a3 3 0 0 0-.661-2.171 2.62 2.62 0 0 0-2.077-.661 8.132 8.132 0 0 0-3.587.944l-.566-1.416a7.8 7.8 0 0 1 2.076-.755 9.309 9.309 0 0 1 2.265-.283 4.609 4.609 0 0 1 3.3 1.038 4.016 4.016 0 0 1 1.133 3.209v8.589h-1.51zm-4.342-1.416a3.959 3.959 0 0 0 2.832-.944 3.776 3.776 0 0 0 1.038-2.737v-1.133l-1.888.094a8.349 8.349 0 0 0-3.3.661 2.12 2.12 0 0 0-1.038 1.982 1.944 1.944 0 0 0 .661 1.6 2.8 2.8 0 0 0 1.695.477z" data-name="Path 97" transform="translate(-1381.63 1061.463) translate(1477.512 -1044.515) translate(-62.851 -10.653)"/><path d="M109.719 27.548 105 14.9h2.077l2.737 7.457c.566 1.793.944 2.926 1.038 3.4h.094c.094-.378.378-1.227.755-2.548.472-1.321 1.416-4.059 3.02-8.306h2.079l-4.814 12.554h-2.265z" data-name="Path 98" transform="translate(-1381.63 1061.463) translate(1477.512 -1044.515) translate(-63.564 -10.653)"/><path d="M124.841 27.725a5.9 5.9 0 0 1-4.436-1.7 6.8 6.8 0 0 1-1.6-4.719 6.855 6.855 0 0 1 1.51-4.814 4.983 4.983 0 0 1 4.059-1.793 4.777 4.777 0 0 1 3.775 1.51 5.991 5.991 0 0 1 1.416 4.153v1.228h-8.684a4.615 4.615 0 0 0 1.133 3.4 3.986 3.986 0 0 0 3.02 1.133 10.439 10.439 0 0 0 4.059-.849v1.7c-.661.283-1.321.472-1.888.661-.76-.004-1.515.09-2.364.09zm-.472-11.425a3.2 3.2 0 0 0-2.454.944 4.786 4.786 0 0 0-1.038 2.737h6.607a3.962 3.962 0 0 0-.849-2.737 2.8 2.8 0 0 0-2.266-.944z" data-name="Path 99" transform="translate(-1381.63 1061.463) translate(1477.512 -1044.515) translate(-64.339 -10.641)"/><path d="M142.189 27.537v-8.118a3.1 3.1 0 0 0-.661-2.265 3.019 3.019 0 0 0-2.171-.755 3.934 3.934 0 0 0-2.926 1.038 5.717 5.717 0 0 0-.944 3.492v6.607H133.6V14.889h1.51l.283 1.7h.094a3.332 3.332 0 0 1 1.6-1.416 4.811 4.811 0 0 1 2.36-.472 4.615 4.615 0 0 1 3.4 1.133 4.709 4.709 0 0 1 1.133 3.492v8.212z" data-name="Path 100" transform="translate(-1381.63 1061.463) translate(1477.512 -1044.515) translate(-65.169 -10.641)"/><path d="M162.781 27.3h-3.587v-7.267h-6.607V27.3H149V10.5h3.587v6.607h6.607V10.5h3.587z" data-name="Path 101" transform="translate(-1381.63 1061.463) translate(1477.512 -1044.515) translate(-66.034 -10.406)"/><path d="M171.587 20.788v6.418H168V10.5h4.908a8.469 8.469 0 0 1 5.1 1.227 4.325 4.325 0 0 1 1.6 3.775 4.415 4.415 0 0 1-.849 2.643 5.345 5.345 0 0 1-2.265 1.793c2.548 3.775 4.153 6.23 4.908 7.362h-3.964l-3.964-6.418h-1.888zm0-2.832h1.133a4.083 4.083 0 0 0 2.454-.566 1.965 1.965 0 0 0 .849-1.793 1.906 1.906 0 0 0-.849-1.7 4.719 4.719 0 0 0-2.548-.472h-1.038z" data-name="Path 102" transform="translate(-1381.63 1061.463) translate(1477.512 -1044.515) translate(-67.1 -10.406)"/></g><g data-name="Group 222"><path fill-rule="evenodd" d="M44.324 28.591a7.087 7.087 0 0 0-2.077-2.36 11.25 11.25 0 0 0-1.888-.755 4.088 4.088 0 0 1-.472-.094c-.189-.094-.378-.566-.472-.849h-.283c0-.378.283-.378.283-.661.094-.189 0-.566.094-.755.094-.189.283-.189.378-.283a.721.721 0 0 0 .189-.472 1.3 1.3 0 0 0 0-.849c-.094-.189-.189-.189-.189-.378s.094-.944.094-1.133a2.613 2.613 0 0 0-.094-.849s-.094-.378-.283-.472l-.378-.094-.283-.094a2.751 2.751 0 0 0-2.454 0c-.755.283-1.321.944-.944 2.548.094.283-.189.378-.094.566 0 .283 0 1.133.378 1.321l.283.094c0 .283.094.661.094.944.094.189.283.189.283.566l-.283.094c-.755-.283-1.51-.661-2.171-.944-.283-.094-.661-.189-.944-.283a5.071 5.071 0 0 1-.944-1.51c-.189 0-.378-.094-.661-.094 0-.661.472-.661.661-1.227.189-.472 0-1.038.283-1.416.189-.283.566-.283.661-.566a1.318 1.318 0 0 0 .283-.849 2.66 2.66 0 0 0-.094-1.7 4.6 4.6 0 0 1-.28-.66 14.615 14.615 0 0 1 .094-2.077 3.912 3.912 0 0 0-.189-1.51s-.189-.661-.566-.849l-.849-.094-.472-.378c-1.793-1.038-3.681-.283-4.719.094-1.51.472-2.454 1.888-1.793 4.908.094.472-.283.755-.283 1.038.094.566.094 2.077.661 2.454a4.088 4.088 0 0 1 .472.094c.094.566.094 1.227.189 1.793.189.378.472.472.566 1.038h-.283c-.189.378-.566 1.321-.944 1.51-.283.094-.661.189-.944.283-1.133.472-2.36.944-3.492 1.416l-.849.283a1.342 1.342 0 0 0-.566-.189c-.283-.094-.472-.094-.755-.189a4.743 4.743 0 0 1-.755-1.133.851.851 0 0 1-.472-.094c0-.472.378-.566.472-.944a4.737 4.737 0 0 1 .189-1.133c.094-.189.378-.189.472-.378.094-.189.189-.472.283-.661a1.841 1.841 0 0 0-.094-1.227c-.094-.189-.189-.189-.189-.472s.094-1.321.094-1.6a5.382 5.382 0 0 0-.094-1.227 1.69 1.69 0 0 0-.472-.661l-.566-.094-.283-.283a3.472 3.472 0 0 0-3.492.094c-1.133.378-1.793 1.416-1.321 3.681.094.378-.189.566-.189.755 0 .472.094 1.6.472 1.888l.378.094c0 .472.094.944.094 1.321.094.283.378.378.472.755l-.378.094a4.743 4.743 0 0 1-.755 1.133c-.283.094-.472.094-.755.189-.849.378-1.793.755-2.548 1.133a6.193 6.193 0 0 0-2.65 2.268c-.283.378-.094.755.094 1.133l.283.378 3.3 2.548 20.86.472 6.89-.189 3.02-.661 2.548-1.6.094-.566h.283c1.516-.291.855-1.046.761-1.424z" data-name="Path 94" transform="translate(-1381.63 1061.463) translate(1421.446 -1053.765) translate(-1.944 -1.124)"/><path d="M29.544 2.582a11.724 11.724 0 0 1 11.61 11.61 9.1 9.1 0 0 1 5.38 8.306 8.964 8.964 0 0 1-8.872 9.061H12.649A8.964 8.964 0 0 1 3.777 22.5a9.1 9.1 0 0 1 5.38-8.306c0-.283-.094-.472-.094-.755a5.35 5.35 0 0 1 9.722-3.115 11.314 11.314 0 0 1 10.76-7.74m0-1.982a13.386 13.386 0 0 0-11.422 6.416 7.225 7.225 0 0 0-3.681-1.038 7.5 7.5 0 0 0-7.362 6.985 11.078 11.078 0 0 0 5.474 20.576h24.919A10.9 10.9 0 0 0 48.327 22.5a11.093 11.093 0 0 0-5.38-9.533A13.531 13.531 0 0 0 29.544.6z" data-name="Path 103" transform="translate(-1381.63 1061.463) translate(1421.446 -1053.765) translate(-1.7 -.6)"/></g></g></svg>