<svg xmlns="http://www.w3.org/2000/svg" width="250" height="67.275" class="site-logo-svg" viewBox="0 0 312.5 84.094"><g fill="none" fill-rule="evenodd"><path fill="#0087ff" d="M87.509 59.508c-2.217-9.602-9.774-17.16-19.376-19.377 1.933-6.374 7.856-11.016 14.861-11.016 8.577 0 15.53 6.954 15.53 15.53 0 7.007-4.64 12.93-11.015 14.863z"/><path fill="#ff8100" d="M77.818 60.155c0 8.576-6.952 15.53-15.53 15.53-7.006 0-12.928-4.642-14.861-11.017 9.601-2.216 17.16-9.774 19.375-19.376 6.376 1.933 11.016 7.856 11.016 14.863z"/><path fill="#00c8ff" d="M31.25 39.448c0-7.007 4.64-12.929 11.016-14.862 2.216 9.602 9.774 17.16 19.376 19.376-1.934 6.375-7.856 11.016-14.863 11.016-8.576 0-15.529-6.953-15.529-15.53Z"/><path fill="#fb0" d="M51.956 23.939c0-8.577 6.953-15.53 15.53-15.53 7.006 0 12.928 4.641 14.86 11.017-9.6 2.215-17.159 9.774-19.374 19.376-6.375-1.934-11.016-7.856-11.016-14.863Z"/><path fill="#2c3038" fill-rule="nonzero" d="M118.552 59.717c-1.211 0-2.17-.35-2.876-1.05-.707-.699-1.06-1.648-1.06-2.847V27.79c0-1.166.353-2.098 1.06-2.798.706-.7 1.665-1.05 2.876-1.05 1.211 0 2.17.35 2.877 1.05.706.7 1.06 1.632 1.06 2.798v28.03c0 1.199-.354 2.148-1.06 2.848-.707.7-1.666 1.049-2.877 1.049zm21.851.1c-2.557 0-4.794-.517-6.712-1.55-1.917-1.032-3.39-2.497-4.415-4.396-1.026-1.899-1.54-4.13-1.54-6.695 0-2.565.547-4.822 1.64-6.77 1.094-1.949 2.633-3.456 4.618-4.522 1.985-1.066 4.273-1.599 6.863-1.599 1.346 0 2.7.184 4.063.55 1.362.366 2.582.883 3.659 1.549 1.042.633 1.564 1.565 1.564 2.798 0 .866-.202 1.574-.606 2.123-.403.55-.942.825-1.615.825-.437 0-.849-.075-1.236-.225a25.7 25.7 0 0 1-1.54-.675 15.873 15.873 0 0 0-1.891-.85c-.556-.199-1.186-.299-1.893-.299-1.884 0-3.322.591-4.315 1.774-.992 1.182-1.488 2.906-1.488 5.171s.496 3.997 1.488 5.196c.993 1.2 2.431 1.799 4.315 1.799.707 0 1.329-.092 1.867-.275.539-.183 1.195-.474 1.968-.874.64-.3 1.144-.525 1.514-.675.37-.15.774-.225 1.211-.225.64 0 1.17.284 1.59.85.42.566.63 1.282.63 2.148 0 1.233-.52 2.149-1.563 2.748-1.077.666-2.322 1.183-3.735 1.55-1.413.366-2.893.549-4.44.549zm25.384 0c-2.624 0-4.929-.525-6.914-1.574-1.985-1.05-3.515-2.532-4.592-4.447-1.077-1.915-1.615-4.172-1.615-6.77s.538-4.855 1.615-6.77c1.077-1.915 2.607-3.39 4.592-4.422 1.985-1.032 4.29-1.549 6.914-1.549 2.624 0 4.929.517 6.914 1.55 1.985 1.032 3.515 2.506 4.592 4.421 1.076 1.915 1.615 4.172 1.615 6.77s-.539 4.855-1.615 6.77c-1.077 1.915-2.607 3.398-4.592 4.447-1.985 1.05-4.29 1.574-6.914 1.574zm0-5.746c3.7 0 5.551-2.348 5.551-7.045 0-2.365-.48-4.13-1.438-5.296-.959-1.166-2.33-1.749-4.113-1.749-3.7 0-5.551 2.348-5.551 7.045s1.85 7.045 5.551 7.045zm33.307-19.786c2.96 0 5.164.858 6.61 2.573 1.447 1.716 2.17 4.306 2.17 7.77v11.541c0 1.1-.344 1.966-1.034 2.599-.69.632-1.623.949-2.8.949-1.178 0-2.104-.317-2.776-.95-.673-.632-1.01-1.498-1.01-2.598V44.978c0-1.666-.31-2.882-.933-3.648s-1.59-1.149-2.902-1.149c-1.581 0-2.851.5-3.81 1.499-.959 1-1.438 2.332-1.438 3.997V56.17c0 1.1-.337 1.966-1.01 2.599-.672.632-1.598.949-2.775.949-1.178 0-2.111-.317-2.801-.95-.69-.632-1.034-1.498-1.034-2.598V37.833c0-1.033.361-1.866 1.085-2.498.723-.633 1.656-.95 2.8-.95 1.043 0 1.893.308 2.549.925.656.616.984 1.407.984 2.373v.7a8.653 8.653 0 0 1 3.406-3.048c1.396-.7 2.97-1.05 4.719-1.05zm23.87 25.532c-2.053 0-3.836-.167-5.35-.5-1.514-.333-2.843-.866-3.987-1.599a3.07 3.07 0 0 1-1.16-1.199c-.27-.5-.404-1.066-.404-1.699 0-.766.219-1.407.656-1.923.437-.516.976-.775 1.615-.775.437 0 .875.075 1.312.225.437.15.892.325 1.363.525.942.433 1.867.774 2.775 1.024.908.25 2.036.375 3.381.375 1.178 0 2.095-.183 2.75-.55.657-.366.985-.866.985-1.499 0-.466-.143-.84-.43-1.124-.285-.283-.815-.541-1.589-.774-.774-.233-2.002-.517-3.684-.85-2.994-.566-5.147-1.415-6.46-2.548-1.311-1.132-1.967-2.715-1.967-4.746 0-1.5.462-2.848 1.387-4.047.925-1.2 2.196-2.14 3.81-2.823 1.615-.683 3.432-1.025 5.45-1.025 1.447 0 2.86.184 4.24.55 1.379.366 2.607.883 3.683 1.549 1.043.633 1.565 1.565 1.565 2.798 0 .8-.219 1.465-.656 1.998-.438.533-.976.8-1.615.8-.774 0-1.699-.3-2.776-.9-.84-.433-1.606-.757-2.296-.974-.69-.216-1.505-.325-2.447-.325-1.043 0-1.867.192-2.473.575-.606.383-.908.908-.908 1.574 0 .7.353 1.232 1.06 1.599.706.366 2.068.732 4.087 1.099 2.254.433 4.02.957 5.299 1.574 1.278.616 2.203 1.39 2.775 2.323.572.933.858 2.115.858 3.547 0 2.365-.984 4.247-2.952 5.646-1.968 1.4-4.6 2.099-7.898 2.099zm35.072-7.695c.673 0 1.22.267 1.64.8.42.533.631 1.216.631 2.048 0 .567-.168 1.091-.504 1.574-.337.483-.808.891-1.413 1.224-1.144.6-2.473 1.091-3.987 1.474-1.514.383-2.91.575-4.189.575-2.691 0-5.038-.517-7.04-1.55-2.001-1.032-3.54-2.506-4.617-4.42-1.077-1.916-1.615-4.173-1.615-6.771 0-2.498.522-4.713 1.564-6.645 1.043-1.932 2.49-3.44 4.34-4.522 1.85-1.082 3.953-1.624 6.309-1.624 2.254 0 4.23.492 5.93 1.474 1.698.983 3.019 2.382 3.96 4.197.943 1.816 1.414 3.939 1.414 6.37 0 .733-.177 1.291-.53 1.674-.354.383-.85.575-1.489.575h-14.13c.235 1.965.841 3.39 1.817 4.272.975.883 2.371 1.324 4.188 1.324.976 0 1.85-.117 2.624-.35.774-.233 1.632-.55 2.574-.95.471-.199.925-.374 1.363-.524.437-.15.824-.225 1.16-.225zm-8.68-12.64c-1.446 0-2.607.458-3.482 1.374-.874.916-1.396 2.24-1.564 3.972h9.74c-.101-1.766-.547-3.098-1.338-3.997-.79-.9-1.909-1.35-3.356-1.35zm28.967 14.739c1.01.066 1.75.316 2.22.75.472.432.707 1.065.707 1.898 0 .966-.387 1.699-1.16 2.198-.774.5-1.885.7-3.331.6l-1.413-.1c-5.888-.466-8.832-3.514-8.832-9.143V40.53h-2.018c-1.11 0-1.952-.242-2.523-.725-.572-.483-.858-1.174-.858-2.073 0-.933.286-1.64.858-2.124.571-.483 1.413-.724 2.523-.724h2.018v-3.897c0-1.1.345-1.966 1.035-2.598.69-.633 1.623-.95 2.8-.95 1.178 0 2.103.317 2.776.95.673.632 1.01 1.498 1.01 2.598v3.897h3.532c2.288 0 3.432.95 3.432 2.848 0 .9-.286 1.59-.858 2.073-.572.483-1.43.725-2.574.725h-3.532v10.442c0 1 .235 1.757.706 2.274.471.516 1.16.807 2.069.874z" class="logo-text"/></g></svg>