<?xml version="1.0" encoding="UTF-8" standalone="no"?>
<svg xmlns="http://www.w3.org/2000/svg" width="250" height="75" viewBox="0 0 300 90">
  <defs>
    <linearGradient id="ingGradient" x1="0%" y1="0%" x2="100%" y2="0%">
      <stop offset="0%" style="stop-color:#FF6200;stop-opacity:1" />
      <stop offset="100%" style="stop-color:#FF6200;stop-opacity:1" />
    </linearGradient>
  </defs>
  <g transform="translate(30, 15)">
    <!-- ING Logo -->
    <rect x="0" y="0" width="60" height="60" fill="#FF6200" rx="5"/>
    <path d="M 15 20 L 20 20 L 20 45 L 15 45 Z" fill="white"/>
    <path d="M 25 20 L 30 20 L 45 40 L 45 20 L 50 20 L 50 45 L 45 45 L 30 25 L 30 45 L 25 45 Z" fill="white"/>
    <path d="M 55 20 L 65 20 Q 75 20 75 30 Q 75 35 70 37.5 L 77 45 L 71 45 L 65 37.5 L 60 37.5 L 60 45 L 55 45 Z M 60 25 L 60 33 L 65 33 Q 70 33 70 29 Q 70 25 65 25 Z" fill="white"/>
    
    <!-- DiBa text -->
    <text x="90" y="40" font-family="Arial, sans-serif" font-size="32" font-weight="bold" fill="#FF6200">DiBa</text>
  </g>
</svg>
