<svg xmlns="http://www.w3.org/2000/svg" version="1.1" viewBox="0 0 625 222.662"><g fill="#ff1515" transform="translate(53.7 19.131)"><path d="M497.2 20.4 497.2 50.9 517.6 50.9 517.6 0 466.7 0 466.7 20.4z"/><path d="M466.7 30.5H487V50.85H466.7z"/><path d="M0 20.4H30.5V50.92H0z"/><path d="M248.3 113.7c0-4.8-.2-17.2-7.2-25.6-10.3-12-28.5-13.4-37.1-13.4-8.6 0-22.1 1.6-31.6 8.4-9.5 6.8-11.5 19-11.8 24.6h30a16.13 16.13 0 0 1 2.2-9.3 14 14 0 0 1 11.6-5.8c2.9 0 10.9 1.1 13.6 8.7 1.2 3.7 1.4 7 1.4 13.8-10.1 0-28.4 0-41.2 5.8-19.2 8.9-22.1 24.1-22.1 32.4a32.42 32.42 0 0 0 9.1 22.9c4.1 3.9 10.9 8.2 26 8.2 5.7 0 19.6 0 31.1-16.7a85.48 85.48 0 0 0 1 14.2H251a122.54 122.54 0 0 1-2.5-26.4zm-34.6 44.9a17.49 17.49 0 0 1-13 6c-10.1 0-14.9-7.8-14.9-14.8 0-12.4 14-18.6 33.6-17 0 11.2-.4 19.2-5.7 25.8zM425.7 51.3l-30.3 8.3v18h-20v20.2h20v57.9c0 8.7 0 28.1 30.7 28.1a93.52 93.52 0 0 0 23.7-3.3v-20a80.65 80.65 0 0 1-10.3.6c-13.6 0-13.6-6-13.8-15.5V97.8h24.7V77.6h-24.7z"/><path d="M0 77.6H30.5V181.95H0z"/><path d="M82.9 181.9 116.8 181.9 154.4 77.6 124.9 77.6 101 148.3 77.5 77.6 44.7 77.6z"/><path d="M361.7 94.5c-2.7-7.2-11.4-19.6-31.8-19.6-22.7 0-30.9 13.4-33.8 18.1l-.8-15.4H266c.6 7.2.6 18.3.6 18.7v85.6h30.7v-61c0-8.1 1.9-13.2 3.7-15.9a19.11 19.11 0 0 1 15.9-8 16.1 16.1 0 0 1 14.9 8.8c1.6 3.3 1.6 7 1.6 11.4v64.7h31.1v-56.3c0-19.4-.6-24.7-2.8-31.1z"/><path d="M466.7 77.6H497.2V181.95H466.7z"/></g></svg>