<svg xmlns="http://www.w3.org/2000/svg" xml:space="preserve" width="250" height="195.266" viewBox="0 0 312.5 244.082"><path d="m119.95 56.686 4.308-7.063c10.042-14.274 23.715-22.663 41.07-24.792 25.418-3.08 49.91 10.894 59.977 34.209 3.38 7.788 4.958 15.952 4.483 24.466-.05.977.25 1.352 1.101 1.753 14.65 6.536 23.54 21.437 22.313 37.238-1.277 16.303-13.448 30.227-29.625 33.758-3.481.751-6.987 1.152-10.568.851-.526-.05-1.027-.025-1.553-.025H99.216c-6.737 0-13.123-1.327-19.133-4.432-18.832-9.592-26.32-32.606-16.728-51.438a38.343 38.343 0 0 1 13.648-14.975c1.001-.651 1.252-1.152.951-2.33-3.881-14.8 6.461-30.226 21.612-32.28 7.237-.976 13.899.502 19.834 4.709.2.15.4.25.55.35zm25.344 58.825c-.902.776-1.678 1.477-2.48 2.103-4.282 3.356-9.065 4.758-14.449 3.656-4.883-1.001-8.64-5.108-9.14-9.866-.551-4.884 2.128-9.567 6.586-11.595 3.13-1.453 6.41-1.553 9.691-.626 5.71 1.577 9.942 5.184 13.648 9.641 4.007 4.808 7.939 9.692 12.171 14.3 9.366 10.167 20.91 14.174 34.434 10.793 9.54-2.38 16.127-8.465 18.13-18.331 2.054-10.042-.75-18.632-9.19-24.993-4.783-3.606-10.318-5.033-16.228-5.309-9.015-.4-17.004 2.029-23.64 8.364-.275.276-.776.376-1.077.501l8.915 10.468c.2-.05.25-.05.276-.075l1.553-1.327c4.081-3.406 8.664-5.11 14.048-4.433a11.859 11.859 0 0 1 10.268 10.393c.576 5.108-2.705 10.092-7.889 11.77-3.255 1.077-6.56.876-9.741-.276-5.36-1.953-9.266-5.66-12.872-9.992-4.107-4.983-8.164-10.042-12.672-14.65-8.94-9.09-19.783-12.671-32.405-9.916-9.59 2.103-19.683 10.242-19.683 23.565 0 9.315 3.831 16.453 11.795 21.31 3.882 2.38 8.189 3.482 12.747 3.832 6.711.501 13.122-.375 19.007-3.906 2.504-1.503 4.808-3.28 6.862-5.36l-8.615-10.041zm-5.209 62.33c.125-.05.2-.15.3-.15 6.812.125 13.724-.4 20.46.501 11.545 1.553 18.657 12.096 16.754 23.615-1.753 10.418-8.99 16.829-20.235 17.38l-17.229.05V177.84zm9.742 7.338v26.57l8.314-.05a9.772 9.772 0 0 0 8.54-6.636c1.677-4.358 1.677-8.79 0-13.148-1.553-4.006-4.609-6.285-8.84-6.686-2.605-.25-5.26-.05-8.014-.05zm32.705 33.958v-41.32c.25-.05.501-.176.776-.176l17.78.175c11.145.576 19.158 9.291 19.208 20.535.05 11.295-7.813 20.084-18.932 20.736l-18.08.225c-.2 0-.401-.075-.677-.125zm9.692-33.983v26.645l7.237-.025c4.633-.225 8.039-2.479 9.716-6.861 1.628-4.258 1.603-8.59.025-12.872-1.527-4.082-4.632-6.436-8.915-6.837-2.63-.25-5.284-.05-8.063-.05zm72.047-.1v9.666h12.947v7.237h-12.847v9.867h16.854v7.413H254.68V177.69h26.57v7.313h-16.979zm-208.404 29.2 2.704-4.258c1.027-1.578 2.33-1.878 3.932-1.002l4.032 2.204a8.96 8.96 0 0 0 6.035.551c2.079-.526 3.08-1.603 3.381-3.681.3-2.029-.376-3.456-2.254-4.458-1.152-.6-2.429-1.001-3.681-1.427l-5.109-1.678c-4.407-1.678-6.962-4.808-7.337-9.591-.376-4.733 1.327-8.515 5.209-11.22 5.66-3.956 15.826-3.355 20.985 1.203.3.275.426 1.102.25 1.527-.45 1.152-1.076 2.179-1.677 3.23-1.027 1.804-2.104 2.154-3.932 1.178-2.204-1.202-4.407-2.354-7.012-2.104-.876.075-1.803.226-2.604.601-2.705 1.227-3.03 4.808-.576 6.411 1.227.801 2.654 1.277 4.032 1.803l5.083 1.753c7.613 3.08 10.092 10.543 5.935 17.68-2.053 3.481-5.233 5.51-9.115 6.286-6.085 1.177-11.645-.3-16.703-3.782-.526-.35-.977-.8-1.553-1.277zm43.75-11.195v16.228h-6.712c-3.105 0-3.105 0-3.105-3.08v-38.49h26.77v7.262H99.666v10.517h14.024v7.488H99.566Zm134.853 8.49h15.301v7.688H224.98V177.69h9.542v33.833zm-203.22 7.763.55-5.635c.126-1.502 1.003-2.003 2.38-1.928l2.053.25c3.381.276 5.41-1.277 5.86-4.607.176-1.202.276-2.43.276-3.631v-26.02h9.641v1.478l-.025 24.617c0 2.003-.225 4.006-.676 5.96-1.402 5.86-5.685 9.49-11.72 9.842-2.704.15-5.359-.2-8.264-.376zm91.33-.175V177.74h9.592v41.396h-9.592z" style="stroke-width:.250426;fill-rule:evenodd;clip-rule:evenodd;fill:#487aa5"/></svg>