<svg xmlns="http://www.w3.org/2000/svg" xmlns:xlink="http://www.w3.org/1999/xlink" width="99.772" height="81.432" viewBox="0 0 124.715 101.79"><defs><path id="a" d="M33.45.155H.08v24.02h33.37z"/><path id="c" d="M14.778.155H.078v34.24h14.7V.156Z"/><path id="e" d="M33.45.155H.08v24.02h33.37z"/><path id="g" d="M14.778.155H.078v34.24h14.7V.156Z"/></defs><g fill="none" fill-rule="evenodd"><path fill="#005e8d" d="m66.237 70.594-8.082 11.084-8.08-11.083-1.53-.49-.955 1.31v18.83l.54.54.63.63.195.195 1.365-1.365V75.59l7.835 9.747 7.81-9.747v14.654l.538.54.632.63.194.195 1.365-1.365v-18.83l-.927-1.31-1.528.49zm31.755.93v18.72l.25.25 1.048 1.047.068.068 1.295-1.295.07-.07v-8l8.795 8.156.944.875h1.782v-1.93l-.69-.69-.145-.145-.003.002-8.158-7.924 7.592-7.272.147-.14.67-.67.022-.022v-1.933h-1.93l-.835.837-8.19 7.847v-7.71l-1.366-1.366zm-63.502-.602-.585 1.205-8.066 16.617-8.112-8.157 7.593-7.272.003.004.145-.144.67-.67.02-.022v-1.932h-1.93l-.835.837h.002l-8.193 7.848v-7.71l-1.365-1.366-1.365 1.364v18.727l.07.063 1.295 1.295 1.115-1.115.25-.25v-8l9.486 8.99h2.868l8.162-16.6 4.55 9.306h-6.09l-1.364 1.365 1.365 1.366h7.425l2.032 4.155 1.83.6.627-1.8-8.754-17.903-.39-.8-1.23-.763-1.228.764zm59.273-.612-1.19 1.19-.05.05v18.7l.025.02 1.34 1.34.183-.184 1.074-1.074.108-.108V71.551l-.147-.147-1.218-1.22-.124.126zm-5.564.093-.874.874-.274.273v14.987L73.837 70.704l-1.5-.41-.902 1.284v18.666l1.325 1.326.04.04.746-.747.62-.62v-14.9l12.883 14.791 1.365 1.477 1.366-1.365V71.551l-1.367-1.366-.217.22z"/><path fill="#0085b8" d="m35.005 37.642 7.05-8.472-2.523-10.096-5.42-4.54-.924-.002"/><path fill="#0093c3" d="m41.452 44.024 6.456-4.61-5.852-10.245-7.05 8.473m-1.82-23.11-13.592 7.856 15.41 15.254M12.472 64.716l4.35-25.846-4.35-1.422"/><path fill="#0085b8" d="m15.162 20.02-2.69 2.36v15.068l4.35 1.423 2.77-16.483-1.566-2.448"/><path fill="#0085b8" d="m12.472 64.716 17.84-21.434-13.49-4.412"/><path fill="#00a896" d="M79.629 46.038c-.35-.227-.68-.18-.953-.044-.437.223-.697.69-.697 1.18v1.574h2.21v-1.64c0-.427-.2-.84-.56-1.07"/><path fill="#0093c3" d="m42.057 29.17 5.85 10.244 6.383-4.556 3.964-2.83"/><path fill="#0085b8" d="m35.005 37.642-4.694 5.64 8.353 2.732 2.787-1.99"/><path fill="#007caa" d="m30.312 43.282 4.693-5.64-15.41-15.254L16.82 38.87"/><g transform="translate(78.792 10.026)"><mask id="b" fill="#fff"><use xlink:href="#a"/></mask><path fill="#97c93c" d="m33.45 5.492-5.368-1.795-3.87-2.002-1.163.04-4.09 2.483L.08.155l14.698 24.02" mask="url(#b)"/></g><g transform="translate(78.792 10.026)"><mask id="d" fill="#fff"><use xlink:href="#c"/></mask><path fill="#50b748" d="m.08.155.233 18.75.403 1.67-.102.167v.872l.353.362-.322.432 1.875 7.295-.598.84v.96l2.642 2.893 10.214-10.22" mask="url(#d)"/></g><path fill="#b2d234" d="m100.016 44.734 12.226-29.216-18.67 18.683"/><path fill="#00b26a" d="m67.574 16.968-4.397 9.907-4.923 5.153-3.964 2.83 20.567 9.564 2.64-2.893v-.96l-.597-.84 1.875-7.294-.322-.432.354-.362v-.873l-.102-.165.4-1.67-.233-18.754"/><path fill="#007caa" d="m30.312 43.282-17.84 21.434 26.193-18.702"/><path fill="#becc30" d="M91.652 64.716h20.59l-12.226-19.98"/><path fill="#97c93c" d="m93.57 34.201-10.215 10.22-.49.78-.422.218-.148.236.007 3.467 6.393 5.216.01 1.258-.256.247.02 7.116 3.184 1.76 8.364-19.982"/><path fill="#cfdc27" d="m100.016 44.734 12.226 19.983v-49.2"/><path fill="#0085b8" d="m58.279 57.574-3.614-6.327-6.757-11.832-6.456 4.61 4.38 4.334 9.738 9.64 6.787 6.718"/><path fill="#005e8d" d="M12.472 64.716h49.885l-6.788-6.72"/><path fill="#0071a2" d="m45.832 48.358-4.38-4.334-2.787 1.99-26.193 18.702 43.097-6.72"/><path fill="#00a896" d="m47.908 39.414 6.757 11.833 10.854 3.55 5.282-2.884 5.115-2.794v-3.465l-.148-.234-.422-.218-.49-.78-20.567-9.564"/><path fill="#0093c3" d="M65.264 56.2v-.206l.008-1.052.037-.03.21-.116-10.854-3.55 3.613 6.33 4.08 7.14 3.142-1.76h.013l.006-6.51-.005-.005"/><path fill="#0085b8" d="m35.005 37.642 7.05-8.472-2.523-10.096-5.42-4.54-.924-.002"/><path fill="#0093c3" d="m41.452 44.024 6.456-4.61-5.852-10.245-7.05 8.473m-1.82-23.11-13.592 7.856 15.41 15.254m-22.532-.194v27.268l4.35-25.846"/><path fill="#0085b8" d="m19.594 22.388-1.566-2.448-2.866.08-2.69 2.359v15.068l4.35 1.422m0 .002-4.35 25.845 17.84-21.434"/><path fill="#00a896" d="M79.629 46.038c-.35-.227-.68-.18-.953-.044-.437.223-.697.69-.697 1.18v1.574h2.21v-1.64c0-.427-.2-.84-.56-1.07"/><path fill="#0093c3" d="m42.057 29.17 5.85 10.244 6.383-4.556 3.964-2.83"/><path fill="#0085b8" d="m35.005 37.642-4.694 5.64 8.353 2.732 2.787-1.99"/><path fill="#007caa" d="m30.312 43.282 4.693-5.64-15.41-15.254L16.82 38.87"/><g transform="translate(78.792 10.026)"><mask id="f" fill="#fff"><use xlink:href="#e"/></mask><path fill="#97c93c" d="m33.45 5.492-5.368-1.795-3.87-2.002-1.163.04-4.09 2.483L.08.155l14.698 24.02" mask="url(#f)"/></g><g transform="translate(78.792 10.026)"><mask id="h" fill="#fff"><use xlink:href="#g"/></mask><path fill="#50b748" d="m.08.155.233 18.75.403 1.67-.102.167v.872l.353.362-.322.432 1.875 7.295-.598.84v.96l2.642 2.893 10.214-10.22" mask="url(#h)"/></g><path fill="#b2d234" d="m100.016 44.734 12.226-29.216-18.67 18.683"/><path fill="#00b26a" d="m67.574 16.968-4.397 9.907-4.923 5.153-3.964 2.83 20.567 9.564 2.64-2.893v-.96l-.597-.84 1.875-7.294-.322-.432.354-.362v-.873l-.102-.165.4-1.67-.233-18.754"/><path fill="#007caa" d="m30.312 43.282-17.84 21.434 26.193-18.702"/><path fill="#becc30" d="M91.652 64.716h20.59l-12.226-19.98"/><path fill="#97c93c" d="m93.57 34.201-10.215 10.22-.49.78-.422.218-.148.236.007 3.467 6.393 5.216.01 1.258-.256.247.02 7.116 3.184 1.76 8.364-19.982"/><path fill="#cfdc27" d="m100.016 44.734 12.226 19.983v-49.2"/><path fill="#0085b8" d="m58.279 57.574-3.614-6.327-6.757-11.832-6.456 4.61 4.38 4.334 9.738 9.64 6.787 6.718"/><path fill="#005e8d" d="M12.472 64.716h49.885l-6.788-6.72"/><path fill="#0071a2" d="m45.832 48.358-4.38-4.334-2.787 1.99-26.193 18.702 43.097-6.72"/><path fill="#00a896" d="m47.908 39.414 6.757 11.833 10.854 3.55 5.282-2.884 5.115-2.794v-3.465l-.148-.234-.422-.218-.49-.78-20.567-9.564"/><path fill="#0093c3" d="M65.264 56.2v-.206l.008-1.052.037-.03.21-.116-10.854-3.55 3.613 6.33 4.08 7.14 3.142-1.76h.013l.006-6.51-.005-.005"/></g></svg>