<svg xmlns="http://www.w3.org/2000/svg" id="svg8" version="1.1" viewBox="0 0 277.778 138.889"><defs id="defs1"><style id="style1">.a{fill:#fff;}.b,.c{fill-rule:evenodd;}.c{fill:#59e37c;}</style></defs><g id="g8" transform="translate(-691.111 -3340.556)"><path id="rect1" d="M0 0H300V150H0z" class="a" transform="translate(680 3335)"/><g id="g7" transform="translate(700 3379)"><g id="g1"><path id="path1" d="M33.412 58.228a9.159 9.159 0 0 1-1.454.154h-1.881a11.624 11.624 0 0 1-1.625-.152A27.744 27.744 0 0 1 3.293 31.805C2.9 17.57 13.134 5.2 26.872 3.336c.666-.09 1.382-.161 2.058-.184h3.59c9.683 0 20.152 7.427 24.156 17.438 6.808 17.02-5.04 36.189-23.264 37.637zm28.114-30.237a31.321 31.321 0 0 0-.717-3.73C57.525 8.164 41.641-2.441 25.223.485 9.029 3.371-2.247 19.2.38 35.352A30.676 30.676 0 0 0 47.367 56.5c8.349-5.35 13.437-13.227 14.22-23.249.112-2.11-.056-3.035-.049-5a2.352 2.352 0 0 0-.012-.251z" class="b"/></g><path id="path2" d="M42.019 46.888a12.569 12.569 0 0 1-1.554.957 2.01 2.01 0 0 1-2.987-.684c-.753-1.228-.234-2.194.827-2.959.605-.434 1.236-.832 1.829-1.281a16.421 16.421 0 0 0 .99-25.112 4.786 4.786 0 0 0-2.831-1.462l-.613-.086c-.436-.029-.512 0-1.025 0a2.046 2.046 0 0 0-.547.034l-.243.066c-4.139 1.248-5.329 5.587-2.353 8.729.979 1.033 2.118 1.943 2.369 3.438a7.963 7.963 0 0 1 .013 2.9 5.816 5.816 0 0 1-11.014.829c-1.042-2.425-.489-4.726 1.846-6.888a5.133 5.133 0 0 0 1.67-5.477 4.4 4.4 0 0 0-3.925-3.556 9.555 9.555 0 0 0-2.05 0c-2.715.374-4.173 2.455-5.544 4.41a16.215 16.215 0 0 0 4.446 22.879c.282.186.581.349.86.54a2.087 2.087 0 0 1 .793 2.992 2.038 2.038 0 0 1-3.012.661 19.479 19.479 0 0 1-6.191-5.485 20.578 20.578 0 0 1 19.665-32.67c8.7 1.551 15.435 7.853 16.965 16.224 1.587 8.682-1.343 15.7-8.383 21zm11.164-22.106a23.606 23.606 0 0 0-20.24-18.405 1.211 1.211 0 0 1-.152-.028 19.047 19.047 0 0 0-5.291-.006 23.2 23.2 0 0 0-16.786 9.921 23.718 23.718 0 0 0 7.5 34.06 5.175 5.175 0 0 0 7.038-1.383 5.08 5.08 0 0 0-1.173-7.208c-.527-.424-1.116-.765-1.669-1.157a13.245 13.245 0 0 1-1.266-20.534c1.1-1 2.332-1.619 3.567-.359 1.235 1.26.681 2.381-.5 3.454a7.391 7.391 0 0 0-2.775 5.263 9.547 9.547 0 0 0 .031 3.216c.828 4.513 4.625 7.329 9.452 7.012a8.786 8.786 0 0 0 8.022-8.068 8.925 8.925 0 0 0-3.173-7.579 2.2 2.2 0 0 1-.724-2.722 1.966 1.966 0 0 1 1.943-1.222 3.233 3.233 0 0 1 2.088 1.14c6.5 5.96 5.41 15.869-2.32 21.062-2.82 1.9-3.66 5.043-2 7.515 1.734 2.592 4.761 3.087 7.677 1.257a23.6 23.6 0 0 0 10.751-25.229z" class="b" transform="translate(.776 .742)"/><path id="path3" d="M30.683 27.72a2.7 2.7 0 1 1-2.664-2.705 2.662 2.662 0 0 1 2.664 2.705z" class="c" transform="translate(3.052 3.019)"/><g id="g4" transform="translate(75.77 16.011)"><path id="path4" d="M82.108 27.056 92.1 42.34a1.009 1.009 0 0 1-.844 1.56h-6.179a1.01 1.01 0 0 1-.844-.456l-6.665-10.181a1.008 1.008 0 0 0-1.609-.1l-.914 1.067a1 1 0 0 0-.242.656v8.011a1.009 1.009 0 0 1-1.009 1.003h-5.175a1.009 1.009 0 0 1-1.009-1.009V15.422a1.009 1.009 0 0 1 1.009-1.009h5.175a1.009 1.009 0 0 1 1.006 1.009v5.208a1.008 1.008 0 0 0 1.777.652l5.623-6.639a1.009 1.009 0 0 1 .77-.356h6.8a1.008 1.008 0 0 1 .771 1.659l-8.356 9.909a1.009 1.009 0 0 0-.077 1.201z" class="b" transform="translate(-67.61 -14.287)"/></g><path id="path5" d="M103.458 14.33h21.124a1.009 1.009 0 0 1 1.009 1.009v5.217a1.009 1.009 0 0 1-1.009 1.009H110.65a1.008 1.008 0 0 0-1.007 1.009v1.916a1.008 1.008 0 0 0 1.007 1.01h10.464a1.009 1.009 0 0 1 1.009 1.009v5.175a1.009 1.009 0 0 1-1.009 1.009H110.65a1.008 1.008 0 0 0-1.007 1.009v1.916a1.008 1.008 0 0 0 1.007 1.009h13.932a1.009 1.009 0 0 1 1.009 1.009v5.175a1.009 1.009 0 0 1-1.009 1.009h-21.124a1.008 1.008 0 0 1-1.007-1.009V15.338a1.008 1.008 0 0 1 1.007-1.008zm56.8.084h5.175a1.009 1.009 0 0 1 1.009 1.009v27.468a1.009 1.009 0 0 1-1.009 1.009h-6.317a1.007 1.007 0 0 1-.842-.454l-9.442-14.335a1.009 1.009 0 0 0-1.851.554v13.142a1.008 1.008 0 0 1-1.008 1.009H140.8a1.009 1.009 0 0 1-1.009-1.009V15.294a1.009 1.009 0 0 1 1.009-1.009h6.36a1.008 1.008 0 0 1 .842.454l9.4 14.255a1.008 1.008 0 0 0 1.85-.555V15.422a1.008 1.008 0 0 1 1.008-1.009zm35.721-.127h7.193v18.2a11.158 11.158 0 0 1-11.164 11.2 10.96 10.96 0 0 1-10.75-10.956v-.474a1.3 1.3 0 0 1 1.3-1.3h4.587a1.3 1.3 0 0 1 1.3 1.3v.337a3.859 3.859 0 0 0 3.5 3.893 3.773 3.773 0 0 0 4.029-3.757z" class="b" transform="translate(12.365 1.724)"/><g id="g6" transform="translate(229.71 15.63)"><path id="path6" d="M228.071 29.092a7.954 7.954 0 1 0-7.953 7.954 7.944 7.944 0 0 0 7.953-7.954zm7.191 0a15.145 15.145 0 1 1-15.145-15.145 15.13 15.13 0 0 1 15.145 15.145z" class="b" transform="translate(-204.972 -13.947)"/></g></g></g></svg>