<svg xmlns="http://www.w3.org/2000/svg" version="1.0" viewBox="0 0 66.851 18.345"><path fill="#df0023" fill-opacity="1" fill-rule="nonzero" stroke="none" d="M361.577 524.752c-1.218 0-2.218 1-2.218 2.219 0 1.217 1 2.187 2.219 2.187 1.217 0 2.187-.97 2.187-2.187 0-1.219-.97-2.219-2.188-2.219zm-14.343.156v14.782h3.906v-3.844l.094.062 3.125 3.782h5.093l-4.718-5.157 4.468-4.625h-5.03l-2.282 2.72-.656.78-.094.063v-8.563zm25.625 0v14.782h3.906v-3.844l.125.062 3.094 3.782h5.125l-4.719-5.157 4.438-4.625h-5l-2.313 2.72-.625.78-.125.063v-8.563zm-3.313 4.72c-3.012 0-5.312 2.2-5.312 5.25 0 3.068 2.351 5.093 5.344 5.093 1.392 0 2.5-.534 2.5-.531 0 0-.03-3.284-.032-3.282-.406.335-1.12.72-1.75.72-1.203 0-2.093-.906-2.093-2.095 0-1.183.908-2.062 2.093-2.062.659 0 1.274.355 1.782.75v-3.281a6.133 6.133 0 0 0-2.532-.563zm19.375 0c-3.162 0-5.469 1.994-5.469 5.25 0 3.37 2.57 5.093 5.75 5.093 2.22 0 4.542-1.059 5.125-3.375h-3.75c-.283.584-.747.875-1.406.875-1.3 0-1.844-.824-1.844-2.031h7.157c0 .005.031-.37.031-.438 0-3.295-2.264-5.375-5.594-5.375zm13.156.124c-.872.034-2.194.292-2.968 1.688h-.063l.031-1.532h-3.906v9.782h3.906v-3.875c0-1.525.525-2.625 2.22-2.625.564 0 .978.125 1.468.406v-3.844c-.155 0-.397-.011-.688 0zm-42.468.156v9.782h3.906v-9.782zm29.5 2.094c.847 0 1.544.621 1.656 1.469h-3.406c.131-.904.829-1.469 1.75-1.469z" transform="translate(-341.574 -523.19)"/></svg>