<svg xmlns="http://www.w3.org/2000/svg" fill="currentColor" version="1.1" viewBox="0 0 131.579 31.803"><path fill-rule="evenodd" d="M10.235 2.493v26.836h1.473l4.295-5.175 2.741-3.313 2.925-3.498h-2.7l-6.648 7.998V4.579h22.603v22.664H21.771l-2.68-3.784-1.37 1.657 2.966 4.193H36.99V2.493zm59.031 5.503h3.56c.777 0 1.39-.634 1.39-1.432v-1.35a1.38 1.38 0 0 0-1.39-1.39h-3.56zm3.294 1.289h-3.273v2.659h-1.616v-9.47h5.155c1.636 0 2.986 1.35 2.986 3.027v.777c0 1.207-.695 2.25-1.738 2.72l1.861 2.905h-1.677zm15.627-.307-1.554-5.154h-1.391l-1.556 5.154h4.5zm.41 1.33h-5.298l-.491 1.636h-1.596l2.844-9.47h3.784l2.844 9.47h-1.598l-.49-1.636zm10.615-6.484v2.985h5.524v1.31h-5.523v3.805h-1.595v-9.43h7.772v1.33h-6.177zm20.864-.205-3.743.307v7.998h-1.596V3.926l-3.743-.307V2.494h9.082zM59.264 25.096h-5.38v2.803h5.38c.45 0 .819-.348.819-.798v-1.207a.803.803 0 0 0-.819-.798zm0-1.31a.818.818 0 0 0 .819-.817v-1.064a.82.82 0 0 0-.819-.818h-5.38v2.72h5.38zm1.637.656a2.454 2.454 0 0 1 .757 1.738v.655a2.41 2.41 0 0 1-2.393 2.393h-6.976v-9.43h6.976a2.396 2.396 0 0 1 2.393 2.394v.49c0 .696-.287 1.33-.757 1.76zm15.424 3.45v1.33h-8.386v-9.43h1.595v8.1zm10.493.103c.92 0 1.637-.757 1.637-1.657v-3.682c0-.9-.716-1.636-1.637-1.636h-2.986a1.678 1.678 0 0 0-1.636 1.636v3.682c0 .9.715 1.657 1.636 1.657zm-6.238-1.943v-3.09a3.287 3.287 0 0 1 3.293-3.272h2.966c1.8 0 3.252 1.453 3.252 3.273v3.068a3.273 3.273 0 0 1-3.273 3.273h-2.966a3.273 3.273 0 0 1-3.252-3.252zm15.73 0v-3.09a3.252 3.252 0 0 1 3.251-3.272h2.639a3.27 3.27 0 0 1 3.273 3.273v.348h-1.617v-.634c0-.92-.736-1.678-1.657-1.678H99.56a1.677 1.677 0 0 0-1.657 1.678v3.66c0 .9.737 1.658 1.657 1.658h2.639c.92 0 1.657-.757 1.657-1.657v-.511h1.595v.204a3.273 3.273 0 0 1-3.272 3.273H99.56a3.273 3.273 0 0 1-3.272-3.273m24.401-6.232h-1.984l-5.4 6.484v-6.484h-1.595v9.409h1.145l7.834-9.41zm-2.393 5.093-1.002 1.227 2.189 3.068h1.861zM61.249 2.494h-1.984l-5.4 6.484V2.494H52.29v9.41h1.124zm-2.394 5.115-1.002 1.207 2.189 3.088h1.882z" clip-rule="evenodd"/></svg>