<svg xmlns="http://www.w3.org/2000/svg" width="250" height="73.124" fill="none" viewBox="0 0 312.5 91.405"><mask id="c" width="131" height="153" x="35" y="21" maskUnits="userSpaceOnUse"><path fill="#fff" d="M143.829 36.507c15.489 14.802 25.078 42.139 20.336 65.536-4.847 23.517-24.024 43.214-46.89 56.703-22.97 13.49-49.523 20.772-64.38 9.192-14.858-11.579-17.808-41.9-17.281-65.537.527-23.755 4.636-40.706 13.593-53.957 8.956-13.131 22.654-22.562 40.25-25.904 17.492-3.462 38.882-.955 54.372 13.967Z"/></mask><g filter="url(#a)" transform="translate(30.904 8.825) scale(.3698)"><path fill="#f63b89" d="M143.829 36.507c15.489 14.802 25.078 42.139 20.336 65.536-4.847 23.517-24.024 43.214-46.89 56.703-22.97 13.49-49.523 20.772-64.38 9.192-14.858-11.579-17.808-41.9-17.281-65.537.527-23.755 4.636-40.706 13.593-53.957 8.956-13.131 22.654-22.562 40.25-25.904 17.492-3.462 38.882-.955 54.372 13.967Z"/></g><g filter="url(#b)" opacity=".5" transform="translate(30.904 8.825) scale(.3698)"><path fill="#00c2ff" d="M166.489 43.184c10.964 7.645 6.737 29.162 6.737 50.569 0 21.516 4.227 42.923-6.605 59.307-10.964 16.273-36.855 27.523-54.953 20.861-17.965-6.554-28.137-30.801-45.705-47.184-17.57-16.273-42.668-24.683-52.047-40.739-9.379-16.055-3.038-39.975 14.53-47.62 17.57-7.646 46.5.874 73.843 2.075 27.344 1.202 53.368-4.915 64.2 2.73z"/></g><g mask="url(#c)" transform="translate(30.904 8.825) scale(.3698)"><path fill="#4b80ac" d="M166.489 43.184c10.964 7.645 6.737 29.162 6.737 50.569 0 21.516 4.227 42.923-6.605 59.307-10.964 16.273-36.855 27.523-54.953 20.861-17.965-6.554-28.137-30.801-45.705-47.184-17.57-16.273-42.668-24.683-52.047-40.739-9.379-16.055-3.038-39.975 14.53-47.62 17.57-7.646 46.5.874 73.843 2.075 27.344 1.202 53.368-4.915 64.2 2.73z"/></g><path fill="#615656" d="M129.628 60.967V28.902h6.78v26.475h13.746v5.59Zm24.89 0V36.919h6.67v24.048Zm3.35-27.148c-.99 0-1.841-.33-2.551-.987-.7-.668-1.05-1.466-1.05-2.395 0-.919.35-1.707 1.05-2.364.71-.668 1.56-1.002 2.552-1.002.991 0 1.837.334 2.536 1.002.71.657 1.065 1.445 1.065 2.364 0 .929-.355 1.727-1.065 2.395-.7.658-1.545.987-2.536.987zM173.2 47.064v13.903h-6.67V36.919h6.357v4.243h.282a6.708 6.708 0 0 1 2.678-3.32c1.252-.824 2.77-1.237 4.556-1.237 1.67 0 3.125.366 4.368 1.096 1.242.731 2.207 1.775 2.896 3.132.689 1.346 1.034 2.954 1.034 4.822v15.312h-6.67V46.845c.01-1.472-.366-2.62-1.127-3.445-.763-.835-1.811-1.252-3.147-1.252-.898 0-1.692.193-2.38.58-.679.385-1.211.949-1.597 1.69-.376.73-.569 1.613-.58 2.646zm31.717 14.373c-2.474 0-4.603-.501-6.388-1.503-1.775-1.013-3.142-2.443-4.102-4.29-.96-1.858-1.44-4.055-1.44-6.592 0-2.473.48-4.644 1.44-6.513.96-1.868 2.312-3.324 4.055-4.368 1.753-1.044 3.81-1.566 6.168-1.566 1.587 0 3.064.256 4.431.768a9.83 9.83 0 0 1 3.601 2.27c1.034 1.012 1.837 2.286 2.411 3.82.575 1.524.862 3.309.862 5.355v1.832h-20.307v-4.134h14.028c0-.96-.209-1.81-.626-2.552a4.485 4.485 0 0 0-1.738-1.738c-.73-.428-1.581-.642-2.552-.642-1.012 0-1.91.235-2.693.705a4.943 4.943 0 0 0-1.816 1.863c-.438.772-.663 1.633-.673 2.583v3.93c0 1.19.219 2.218.657 3.084a4.815 4.815 0 0 0 1.895 2.005c.814.47 1.78.704 2.896.704.741 0 1.42-.104 2.036-.313a4.221 4.221 0 0 0 1.58-.94 4.083 4.083 0 0 0 1.003-1.534l6.169.407c-.314 1.482-.956 2.776-1.926 3.883-.96 1.096-2.202 1.952-3.726 2.568-1.514.605-3.262.908-5.245.908zm15.39-.47V36.919h6.466v4.196h.25c.439-1.493 1.175-2.62 2.208-3.382 1.033-.773 2.223-1.159 3.57-1.159.334 0 .694.021 1.08.063.386.042.726.099 1.018.172v5.918c-.313-.094-.747-.177-1.3-.25-.553-.073-1.06-.11-1.518-.11-.982 0-1.858.214-2.63.642a4.723 4.723 0 0 0-1.817 1.753c-.438.752-.657 1.618-.657 2.6v13.605Zm19.183.407c-1.033 0-1.92-.365-2.662-1.096-.73-.741-1.095-1.628-1.095-2.661 0-1.023.365-1.9 1.095-2.63.741-.732 1.629-1.097 2.662-1.097 1.002 0 1.879.365 2.63 1.096.752.73 1.128 1.608 1.128 2.63 0 .69-.178 1.32-.533 1.895a4.046 4.046 0 0 1-1.362 1.362 3.588 3.588 0 0 1-1.863.501zm16.091.047c-1.534 0-2.901-.266-4.102-.798-1.2-.543-2.15-1.342-2.85-2.396-.688-1.065-1.033-2.39-1.033-3.977 0-1.336.245-2.458.736-3.366a5.96 5.96 0 0 1 2.004-2.192c.845-.553 1.806-.97 2.88-1.252a21.99 21.99 0 0 1 3.414-.595 86.935 86.935 0 0 0 3.382-.407c.856-.136 1.477-.334 1.863-.595.386-.261.58-.647.58-1.159v-.094c0-.991-.314-1.758-.94-2.301-.616-.543-1.493-.814-2.63-.814-1.2 0-2.156.266-2.865.798-.71.522-1.18 1.18-1.41 1.973l-6.168-.501c.313-1.461.929-2.724 1.847-3.789.919-1.075 2.104-1.9 3.554-2.474 1.461-.584 3.152-.877 5.073-.877 1.336 0 2.615.157 3.836.47 1.231.313 2.322.799 3.272 1.456a7.076 7.076 0 0 1 2.27 2.537c.553 1.022.83 2.249.83 3.679v16.22h-6.325v-3.335h-.188a6.785 6.785 0 0 1-1.55 1.989c-.647.563-1.425 1.007-2.333 1.33-.908.313-1.957.47-3.147.47zm1.91-4.603c.981 0 1.848-.193 2.6-.58.75-.396 1.34-.928 1.768-1.596.428-.668.642-1.425.642-2.27V49.82c-.209.135-.495.26-.86.375-.356.105-.757.204-1.206.298-.45.083-.898.162-1.347.235-.449.062-.856.12-1.22.172-.784.115-1.468.297-2.052.548-.584.25-1.039.59-1.362 1.018-.324.417-.485.939-.485 1.565 0 .908.328 1.602.986 2.082.668.47 1.513.705 2.536.705zm16.807 4.149V36.919h6.67v24.048Zm3.35-27.148c-.99 0-1.841-.33-2.551-.987-.7-.668-1.05-1.466-1.05-2.395 0-.919.35-1.707 1.05-2.364.71-.668 1.56-1.002 2.552-1.002s1.837.334 2.536 1.002c.71.657 1.065 1.445 1.065 2.364 0 .929-.355 1.727-1.065 2.395-.699.658-1.544.987-2.536.987z"/><defs><filter id="a" width="174.028" height="196.748" x="18.865" y=".853" color-interpolation-filters="sRGB" filterUnits="userSpaceOnUse"><feFlood flood-opacity="0" result="BackgroundImageFix"/><feColorMatrix in="SourceAlpha" result="hardAlpha" values="0 0 0 0 0 0 0 0 0 0 0 0 0 0 0 0 0 0 127 0"/><feOffset dx="5.409" dy="1.792"/><feGaussianBlur stdDeviation="11.051"/><feColorMatrix values="0 0 0 0 0 0 0 0 0 0 0 0 0 0 0 0 0 0 0.2 0"/><feBlend in2="BackgroundImageFix" result="effect1_dropShadow_980_1053"/><feBlend in="SourceGraphic" in2="effect1_dropShadow_980_1053" result="shape"/></filter><filter id="b" width="192.575" height="168.774" x=".937" y="29.818" color-interpolation-filters="sRGB" filterUnits="userSpaceOnUse"><feFlood flood-opacity="0" result="BackgroundImageFix"/><feColorMatrix in="SourceAlpha" result="hardAlpha" values="0 0 0 0 0 0 0 0 0 0 0 0 0 0 0 0 0 0 127 0"/><feOffset dx="5.409" dy="8.655"/><feGaussianBlur stdDeviation="7.032"/><feColorMatrix values="0 0 0 0 0 0 0 0 0 0 0 0 0 0 0 0 0 0 0.25 0"/><feBlend in2="BackgroundImageFix" result="effect1_dropShadow_980_1053"/><feBlend in="SourceGraphic" in2="effect1_dropShadow_980_1053" result="shape"/></filter></defs></svg>