<svg xmlns="http://www.w3.org/2000/svg" version="1.1" viewBox="0 0 91.468 21.952"><path fill="#00ddfc" fill-opacity="1" d="M22.237 15.4V.1h2.3v13.2h7.3v2.1zm13.5 0h2.3V.1h-2.3zm14-2.9c.7-.8.9-1.7.9-4.7s-.2-4-.9-4.8a3.013 3.013 0 0 0-2.3-.9 2.792 2.792 0 0 0-2.2.9c-.7.8-.9 1.7-.9 4.7s.1 3.9.9 4.7a3.013 3.013 0 0 0 2.3.9 2.732 2.732 0 0 0 2.2-.8m1.7-10.9c1.5 1.5 1.5 3.2 1.5 6.2 0 2.9 0 4.6-1.5 6.1a5.09 5.09 0 0 1-2.9 1.5v2.5h-2.3v-2.5a4.82 4.82 0 0 1-2.8-1.5c-1.5-1.5-1.5-3.2-1.5-6.1 0-2.9 0-4.6 1.5-6.1a5.203 5.203 0 0 1 4-1.6 4.998 4.998 0 0 1 4 1.5m5.4 13.8h2.3V.1h-2.3zm14.2-12.2c.8.9.8 2.3.8 4.4 0 2.1 0 3.8-.8 4.6a3.253 3.253 0 0 1-2.6 1h-2.8v-11h2.8a3.253 3.253 0 0 1 2.6 1m1.6 10.8c1.6-1.7 1.5-4.1 1.5-6.3s.1-4.4-1.5-6.1a5.21 5.21 0 0 0-3.9-1.4h-5.3v15.3h5.3a5.995 5.995 0 0 0 3.9-1.5" transform="translate(8.247 1.985)"/><path fill="#fff" d="M74.237 15.4a.7.7 0 1 1 .7-.7.751.751 0 0 1-.7.7zm0-1.3a.6.6 0 1 0 .6.6.645.645 0 0 0-.6-.6zm.1 1-.2-.3h-.1v.3h-.1v-.8h.3a.2.2 0 0 1 0 .4l.2.3h-.1zm-.1-.7h-.1v.3h.1a.098.098 0 0 0 .1-.1c0-.2 0-.2-.1-.2z" transform="translate(8.247 1.985)"/><path fill="#00defc" d="M15.337 5.9a.098.098 0 0 1-.1.1h-2.2a.55.55 0 0 0-.5.3l-4.7 7.3a.842.842 0 0 1-.7.4h-1.9c-.1 0-.1 0-.1-.1l-.9-1.4v-.2a.098.098 0 0 1 .1-.1h2a.55.55 0 0 0 .5-.3l4.7-7.3a.842.842 0 0 1 .7-.4h2.1c.1 0 .1 0 .1.1l.9 1.4v.2m-12 5.2-.9-1.4v-.2a.098.098 0 0 1 .1-.1h2.2a.367.367 0 0 0 .3-.1c.1 0 .1-.1.2-.2l4.7-7.2.3-.3a.601.601 0 0 1 .4-.1h1.9c.1 0 .1 0 .1.1l.9 1.4v.2a.098.098 0 0 1-.1.1h-2a.367.367 0 0 0-.3.1c-.1 0-.1.1-.2.2l-4.7 7.3a1.238 1.238 0 0 1-.3.2.601.601 0 0 1-.4.1h-2.1a.098.098 0 0 1-.1-.1m14.4-3.9-.4-.6-4-6.4-.1-.1h-3.4a.601.601 0 0 0-.4.1q-.3.15-.3.3l-4.7 7.3c-.1.1-.1.2-.2.2a.367.367 0 0 1-.3.1h-3.8c-.1 0-.1 0-.1.1v.2l.4.6 4 6.4.1.1h3.4a.601.601 0 0 0 .4-.1l.3-.3 4.7-7.3c0-.1.1-.1.2-.2.1 0 .2-.1.3-.1h3.8c.1 0 .1 0 .1-.1.1-.1.1-.2 0-.2" transform="translate(8.247 1.985)"/></svg>