<svg xmlns="http://www.w3.org/2000/svg" xmlns:xlink="http://www.w3.org/1999/xlink" width="250" height="66.327" viewBox="0 0 312.5 82.908"><defs><path id="a" d="M14.732 0h9.012c3.567 0 4.86.371 6.163 1.069a7.27 7.27 0 0 1 3.024 3.024C33.63 5.396 34 6.689 34 10.256v13.488c0 3.567-.371 4.86-1.069 6.163a7.27 7.27 0 0 1-3.024 3.024C28.604 33.63 27.311 34 23.744 34H10.256c-3.567 0-4.86-.371-6.163-1.069a7.27 7.27 0 0 1-3.024-3.024C.37 28.604 0 27.311 0 23.744v-8.703z"/><path id="b" d="M10.256 0h13.488c3.567 0 4.86.371 6.163 1.069a7.27 7.27 0 0 1 3.024 3.024C33.63 5.396 34 6.689 34 10.256V19L19.5 34h-9.244c-3.567 0-4.86-.371-6.163-1.069a7.27 7.27 0 0 1-3.024-3.024C.37 28.604 0 27.311 0 23.744V10.256c0-3.567.371-4.86 1.069-6.163a7.27 7.27 0 0 1 3.024-3.024C5.396.37 6.689 0 10.256 0Z"/><path id="c" d="M33.999 18 34 23.744c0 3.567-.371 4.86-1.069 6.163a7.27 7.27 0 0 1-3.024 3.024C28.604 33.63 27.311 34 23.744 34H18v-5.744c0-3.567.371-4.86 1.069-6.163a7.27 7.27 0 0 1 3.024-3.024C23.396 18.37 24.689 18 28.256 18Z"/></defs><g fill="none" fill-rule="evenodd"><path fill="#000" fill-opacity=".803" fill-rule="nonzero" d="M42.904 72.288V8.642H31.25v63.646Zm29.992 1.434c13.805 0 23.756-9.86 23.756-24.382 0-14.523-9.95-24.383-23.756-24.383-13.894 0-23.845 9.86-23.845 24.383 0 14.522 9.95 24.382 23.845 24.382zm0-9.86c-7.26 0-12.012-5.648-12.012-14.522 0-8.696 4.751-14.523 12.012-14.523 7.172 0 11.923 5.827 11.923 14.523 0 8.874-4.751 14.522-11.923 14.522zm55.093 9.681c11.654 0 20.35-9.502 20.35-24.203 0-14.523-8.517-24.204-20.26-24.204-5.917 0-10.488 2.062-13.805 6.185V8.641H102.62v63.647h10.847v-5.827c3.227 4.751 8.068 7.082 14.522 7.082zm-2.689-10.13c-6.723 0-11.474-5.378-11.474-14.073 0-8.606 4.75-14.164 11.564-14.164 6.812 0 11.115 5.558 11.115 14.164 0 8.605-4.482 14.073-11.205 14.073zm51.328 10.31c7.799 0 13.984-2.421 20.438-8.965l-6.544-7.171c-2.868 2.42-5.199 4.034-7.081 4.93-1.793.896-3.945 1.345-6.544 1.345-7.62 0-11.833-4.393-12.909-11.475h32.899c.09-1.344.18-2.868.18-4.571 0-14.343-7.71-22.86-21.425-22.86-14.253 0-23.038 10.4-23.038 24.653 0 14.611 9.233 24.113 24.024 24.113zm9.054-29.672h-21.425c1.345-6.186 5.02-9.95 11.026-9.95 6.185 0 9.95 3.764 10.399 9.95z"/><g transform="translate(214.923 8.29) scale(1.27551)"><use xlink:href="#a" fill="#f34747" fill-rule="nonzero" transform="translate(18 18)"/><use xlink:href="#b" fill="#00ddb3" fill-rule="nonzero"/><use xlink:href="#c" fill="#333" fill-rule="nonzero"/></g></g></svg>