<svg xmlns="http://www.w3.org/2000/svg" fill="none" version="1.1" viewBox="0 0 1250 330.993"><path fill="#5846f6" d="m73.649 217.478 30.215-58.681c1.432-2.868.781-6.389-1.693-8.606L70.393 123.85l-2.996-2.478c-1.432-1.174-2.214-2.999-2.214-4.955s1.173-4.304 2.996-5.347l5.08-3.26 108.877-69.635c.912-.521 1.042-1.825.26-2.608L156.61 9.878c-13.285-13.17-34.774-13.17-48.058 0L9.963 108.071c-13.284 13.171-13.284 34.687 0 47.858l62.123 61.81c.521.522 1.433.391 1.693-.261zM255.069 108.071l-62.123-61.81c-.521-.522-1.433-.391-1.693.26l-30.215 58.682c-1.433 2.869-.782 6.389 1.693 8.606l32.429 26.993 2.214 1.826a6.453 6.453 0 0 1 2.344 4.955c0 1.956-1.172 4.173-2.865 5.347l-3.647 2.347-110.31 70.548c-.912.521-1.042 1.825-.26 2.608l25.786 25.689c13.284 13.171 34.773 13.171 48.057 0l98.59-98.193c13.284-13.17 13.284-34.687 0-47.858z" transform="translate(126.5 33.496)"/><path fill="#201e26" d="M437.919 156.45V94.9h25.028v106.147h-24.246v-18.908h-1.043c-2.346 5.998-6.387 10.823-11.731 14.605-5.475 3.782-12.123 5.607-20.205 5.607-8.082 0-13.035-1.565-18.38-4.694-5.344-3.13-9.515-7.694-12.514-13.562-2.998-5.999-4.432-13.171-4.432-21.647V94.769h25.028v63.767c0 6.781 1.825 12.127 5.475 16.039 3.65 3.913 8.473 5.999 14.469 5.999 5.996 0 7.3-.913 10.689-2.738 3.519-1.826 6.257-4.434 8.473-8.085 2.216-3.521 3.389-8.085 3.389-13.432zM488.626 201.048V94.9h23.854v17.996h1.304c2.216-6.129 5.866-10.824 10.95-14.214 5.083-3.39 11.21-5.216 18.379-5.216 7.17 0 13.296 1.695 18.25 5.216 4.953 3.521 8.472 8.215 10.428 14.214h1.043c2.346-5.869 6.387-10.563 11.862-14.084 5.605-3.52 12.253-5.346 19.944-5.346 7.69 0 17.728 3.13 23.854 9.258 6.127 6.129 9.255 15.127 9.255 26.993v71.331h-25.028V133.63c0-6.651-1.694-11.476-5.214-14.475-3.519-2.999-7.821-4.564-12.905-4.564-5.083 0-10.689 1.825-14.078 5.607-3.389 3.782-5.083 8.607-5.083 14.605v66.245h-24.507v-68.462c0-5.477-1.694-9.91-4.953-13.17-3.259-3.26-7.56-4.956-12.905-4.956-5.344 0-6.909.913-9.776 2.739a20.086 20.086 0 0 0-7.039 7.694c-1.695 3.26-2.607 7.172-2.607 11.475v64.549h-25.028zM710.355 203.134c-10.689 0-19.814-2.216-27.504-6.65-7.691-4.434-13.687-10.824-17.859-18.908-4.171-8.216-6.257-17.866-6.257-28.95s2.086-20.473 6.257-28.819c4.172-8.215 10.037-14.735 17.468-19.299 7.56-4.695 16.294-6.912 26.461-6.912 10.167 0 12.775 1.044 18.51 3.13 5.866 2.087 10.95 5.347 15.512 9.65 4.432 4.434 8.082 9.91 10.559 16.691 2.476 6.781 3.91 14.736 3.91 24.125v7.694h-87.075v-16.822h63.09c0-4.825-1.043-9.129-3.128-12.78-2.086-3.781-4.823-6.781-8.473-8.867-3.65-2.217-7.821-3.26-12.644-3.26s-9.646 1.173-13.427 3.651c-3.91 2.478-6.908 5.738-8.994 9.65-2.086 4.042-3.259 8.346-3.259 13.04v14.736c0 6.128 1.174 11.475 3.39 15.909 2.216 4.433 5.474 7.824 9.515 10.041 4.041 2.347 8.864 3.52 14.209 3.52 5.344 0 6.908-.521 9.906-1.564 2.999-1.044 5.475-2.608 7.691-4.564 2.216-2.087 3.78-4.565 4.954-7.564l23.333 2.608c-1.434 6.129-4.302 11.606-8.343 16.17-4.171 4.564-9.385 8.085-15.773 10.693-6.387 2.608-13.686 3.782-22.029 3.782zM803.688 138.846v62.202H778.66V94.9h23.855v17.996h1.303c2.477-5.999 6.387-10.693 11.732-14.214 5.344-3.521 11.992-5.216 19.944-5.216 7.951 0 13.687 1.564 19.162 4.694 5.474 3.13 9.646 7.694 12.774 13.562 2.998 5.998 4.562 13.171 4.432 21.647v67.679h-25.027v-63.767c0-7.042-1.825-12.649-5.475-16.692-3.65-4.042-8.734-5.998-15.121-5.998-6.387 0-8.212.913-11.601 2.869-3.39 1.956-5.997 4.694-7.952 8.215s-2.868 7.954-2.868 13.04zM946.293 203.004c-9.255 0-17.467-1.695-24.767-5.216-7.299-3.521-13.035-8.216-17.337-14.345-4.301-6.128-6.517-13.04-6.778-20.864h24.897c.522 5.868 2.998 10.563 7.561 14.214 4.562 3.651 10.037 5.477 16.424 5.477 6.388 0 9.516-1.174 13.426-3.521 3.911-2.347 7.039-5.477 9.255-9.65 2.216-4.042 3.39-8.737 3.259-14.083 0-5.347-1.043-10.041-3.389-14.214s-5.475-7.433-9.516-9.78c-4.04-2.348-8.603-3.521-13.817-3.521-4.302 0-8.473.782-12.514 2.347-4.041 1.565-7.3 3.782-9.776 6.39l-23.203-3.782 7.43-73.025h82.122v21.386h-60.874l-4.041 37.556h.782c2.607-3.13 6.387-5.608 11.08-7.694 4.823-2.087 10.037-3.13 15.772-3.13 8.604 0 16.164 1.956 22.942 5.999 6.779 4.042 11.993 9.519 15.903 16.691 3.911 7.042 5.866 15.127 5.866 24.255 0 9.128-2.216 17.735-6.517 25.037-4.302 7.303-10.298 13.041-17.859 17.213-7.56 4.173-16.424 6.26-26.461 6.26zM333.246 165.969V59.822h-25.289v84.501c0 13.301-1.173 27.515 4.563 39.903 2.998 6.52 8.473 11.736 14.86 14.866a34.437 34.437 0 0 0 21.638 3.26 43.113 43.113 0 0 0 5.475-1.565c1.825-.652 1.434-.652 2.086-.913.652-.261.651-.391.912-.391v-17.735c-26.983 4.695-24.115-15.648-24.115-15.648z" transform="translate(126.5 33.496)"/></svg>