<svg xmlns="http://www.w3.org/2000/svg" width="250" height="60.067" fill="currentColor" viewBox="0 0 312.5 75.084"><path d="M193.034 64.887h9.354V53.59h-6.943a5.985 5.985 0 0 1-5.978-5.978V29.635h12.92v-10.63h-12.92V7.508H174.75v39.475c0 12.886 5.129 17.904 18.285 17.904zM223.958 7.508H209.24v57.379h14.717zM255.775 16.725c-14.476 0-25.389 10.878-25.389 25.306 0 14.427 10.678 25.136 25.389 25.136 14.71 0 25.475-10.843 25.475-25.223 0-14.379-10.95-25.223-25.475-25.223zm0 37.87c-6.905 0-11.726-5.166-11.726-12.564 0-7.399 4.821-12.731 11.726-12.731 6.904 0 11.89 5.318 11.89 12.648s-5 12.648-11.89 12.648zM88.694 29.96c5.415 0 9.82 4.405 9.82 9.82v25.106h14.248v-28.07c0-11.923-7.578-19.332-19.773-19.332-7.578 0-12.986 3.39-16.08 10.073l-.836 1.804-.67-1.873c-2.37-6.638-7.388-10.007-14.911-10.007-5.868 0-10.83 1.914-13.25 6.24-.8 1.438-1.188 2.765-1.188 2.765v-7.488H31.25v45.888h14.376l.432-26.457c.663-4.81 4.357-8.47 9.288-8.47 5.416 0 9.821 4.406 9.821 9.821v25.106h13.81V38.394c.663-4.81 4.789-8.435 9.717-8.435zM143.974 17.195c-14.386 0-25.234 10.903-25.234 25.358s11.003 25.023 26.761 25.023c11.086 0 18.47-5.519 21.688-10.685l.992-1.597-10.796-5.619c-1.69 3.259-6.165 5.592-11.435 5.592-6.718 0-12.167-3.788-12.167-8.46h.014v-.014h34.802l.238-1.99c.104-.875.104-1.704.104-2.506 0-15.253-9.8-25.109-24.967-25.109zm10.294 20.32h-20.485v-.021c0-4.568 4.586-8.273 10.243-8.273 5.656 0 10.242 3.705 10.242 8.273v.02z"/></svg>