<svg class="c-header-logo__icon" viewBox="0 0 300 124.303" width="250" height="103.586" xmlns="http://www.w3.org/2000/svg"><path fill="#fff" d="M28.586 70.001c0 22.286 18.071 40.358 40.357 40.358 22.286 0 40.357-18.072 40.357-40.358 0-22.285-18.057-40.357-40.357-40.357-22.286 0-40.357 18.072-40.357 40.357"/><path fill="#004976" d="M81.5 27.887v-7.214c0-1.986-1.6-3.586-3.586-3.586a3.579 3.579 0 00-3.585 3.586v5.714a44.506 44.506 0 00-5.386-.328c-1.829 0-3.614.114-5.386.328V13.944c0-1.985-1.6-3.585-3.586-3.585a3.579 3.579 0 00-3.585 3.585v13.943C38.257 33.301 25 50.13 25 70.001c0 24.229 19.714 43.943 43.943 43.943 24.228 0 43.943-19.714 43.943-43.943.014-19.871-13.243-36.7-31.386-42.114m13.414 16.114H42.986c6.657-6.642 15.843-10.757 25.971-10.757 10.129 0 19.3 4.1 25.957 10.757m-57.528 7.172h62.957l.171-.014a36.584 36.584 0 014.815 24.228H32.57a36.571 36.571 0 014.814-24.214m31.558 55.614c-15.872 0-29.414-10.1-34.557-24.214h69.128c-5.143 14.1-18.7 24.214-34.571 24.214"/><path fill="#ff671f" d="M86.886 68.216H67.829a4.93 4.93 0 010-9.857h19.057a4.93 4.93 0 010 9.857m-35.872.671a5.6 5.6 0 100-11.2 5.61 5.61 0 00-5.6 5.6c-.014 3.086 2.5 5.6 5.6 5.6"/><path fill="#004976" d="M137.114 47.587h6.9c.729 0 1.372.443 1.657 1.1l10.486 25.229L166.43 48.7a1.789 1.789 0 011.657-1.114h6.9c.5 0 .9.4.9.9v43.057c0 .5-.4.9-.9.9h-5.5c-.5 0-.9-.4-.9-.9V61.816l-10.029 25.843a.902.902 0 01-.843.571h-3.485a.916.916 0 01-.843-.571l-10.015-25.8v29.685c0 .5-.4.9-.9.9H137.1c-.5 0-.9-.4-.9-.9V48.487c.014-.5.414-.9.914-.9m46.257 28.029c0-11.215 7.629-17.686 16.015-17.686 8.4 0 16.014 6.471 16.014 17.686 0 11.157-7.629 17.643-16.014 17.643-8.4 0-16.015-6.486-16.015-17.643m23.915 0c0-6.743-2.957-11.243-7.9-11.243-4.943 0-7.9 4.5-7.9 11.243s2.957 11.185 7.9 11.185c4.928 0 7.9-4.442 7.9-11.185m12.828 12.243l2.629-3.586a.892.892 0 011.243-.2c2.743 2.014 5.443 3.214 8.585 3.214 3.672 0 5.4-1.728 5.4-4.028 0-2.829-3.642-4.086-7.242-5.458-4.415-1.657-9.458-4.2-9.458-9.814 0-5.843 4.715-10.071 12.258-10.071 4.285 0 7.785 1.585 10.457 3.485.414.286.5.872.2 1.272l-2.557 3.428a.9.9 0 01-1.229.2c-2.129-1.457-4.286-2.442-6.671-2.442-3.386 0-4.986 1.614-4.986 3.728 0 2.657 3.4 3.672 7.043 5.014 4.557 1.7 9.657 3.9 9.657 10.172 0 5.786-4.586 10.443-13.086 10.443-4.286 0-8.8-1.715-12.057-4.143-.4-.257-.486-.814-.186-1.214m29.557 0l2.629-3.586a.892.892 0 011.243-.2c2.743 2.014 5.443 3.214 8.586 3.214 3.671 0 5.4-1.728 5.4-4.028 0-2.829-3.643-4.086-7.243-5.458-4.415-1.657-9.457-4.2-9.457-9.814 0-5.843 4.714-10.071 12.257-10.071 4.285 0 7.785 1.585 10.457 3.485.414.286.5.872.2 1.272l-2.557 3.428a.9.9 0 01-1.229.2c-2.128-1.457-4.286-2.442-6.671-2.442-3.386 0-4.986 1.614-4.986 3.728 0 2.657 3.4 3.672 7.043 5.014 4.557 1.7 9.657 3.9 9.657 10.172 0 5.786-4.586 10.443-13.086 10.443-4.285 0-8.8-1.715-12.057-4.143-.386-.257-.471-.814-.186-1.214"/></svg>