<svg xmlns="http://www.w3.org/2000/svg" xml:space="preserve" id="Ebene_1" width="250" height="29.985" x="0" y="0" version="1.1" viewBox="0 0 312.5 37.481"><style id="style1" type="text/css">.st2{display:none;fill:#214b9d}.st3{fill-rule:evenodd;clip-rule:evenodd;fill:#fff}</style><g id="g1" transform="matrix(1.23396 0 0 1.23396 -56.114 -11.8)"><path id="Troll" d="M174.2 13.2c-.9 0-1.5-.1-1.8-.2l-1.3 4.1c.7-.5 1.4-.9 1.9-1 .6-.2 1.3-.3 2.3-.3.8 0 1.8.1 3.1.2v15.5c0 1.5-.1 2.5-.3 3.1-.2.6-.6 1-1.3 1.4h6.8c-.7-.5-1.2-1-1.4-1.5-.2-.5-.4-1.4-.4-2.5V15.9c1.2-.1 2.2-.2 3.1-.2.9 0 1.6.1 2.1.3.4.2.8.5 1 1l1.1-4.1c-.3.1-1 .2-2 .2zM207.5 32c-1.6-1.8-3.6-4.1-5.8-7.2 1-.3 1.8-.6 2.5-1 1-.6 1.7-1.4 2.3-2.2.6-.9.8-1.8.8-2.7 0-.8-.2-1.6-.6-2.4-.4-.8-1-1.4-1.7-2-1.2-.9-2.9-1.4-5.1-1.4h-8.1c.6.3 1.1.8 1.3 1.4.2.6.3 1.6.3 3v13.9c0 1.5-.1 2.5-.3 3.1-.2.6-.6 1-1.3 1.4h6.6c-.6-.3-1.1-.8-1.3-1.4-.2-.6-.3-1.6-.3-3.1V15.6c1-.2 1.8-.3 2.4-.3 1.3 0 2.3.4 3.1 1.1.8.7 1.2 1.6 1.2 2.8 0 2.6-1.9 4.3-5.8 5 .6 1.1 1.5 2.5 2.7 4.3 1.2 1.8 2.4 3.3 3.5 4.5 1.1 1.3 2 2.2 2.7 2.6.7.4 1.5.6 2.6.6.5 0 1.5-.1 3.1-.2l-.4-.3c-1.3-.8-2.7-2-4.4-3.7zm22.7-18c-1.9-.9-3.9-1.4-6.1-1.4-2.1 0-4.1.5-6 1.3-2.2 1-3.9 2.5-5.1 4.4-1.2 2-1.9 4.1-1.9 6.2 0 1.7.3 3.3.9 4.7.8 1.9 2.1 3.5 3.8 4.7 2.3 1.7 4.9 2.5 7.9 2.5 1.8 0 3.6-.3 5.2-1 2.2-.9 4-2.3 5.3-4.2 1.5-2.1 2.2-4.4 2.2-6.9 0-1.8-.4-3.5-1.2-5.2-1.1-2.2-2.8-4-5-5.1zm.3 17.1c-1.6 1.9-3.8 2.8-6.6 2.8-3.3 0-5.8-1.5-7.4-4.5-.9-1.7-1.4-3.5-1.4-5.5 0-1.4.3-2.7.9-4 .7-1.6 1.7-2.8 3.1-3.6 1.5-.9 3.1-1.3 4.9-1.3 2.6.1 4.8 1 6.4 3 1.6 1.9 2.4 4.2 2.4 6.8-.2 2.6-.9 4.7-2.3 6.3zm18.4 2.3c-1.5 0-3-.1-4.6-.3V17.6c0-1.5.1-2.5.3-3.1.2-.6.6-1 1.3-1.4h-6.6c.6.3 1.1.8 1.3 1.4.2.6.3 1.6.3 3.1v13.9c0 1.5-.1 2.5-.3 3.1-.2.6-.6 1-1.3 1.4h14.1l1.8-4.6c-1.1.8-2.1 1.4-3.1 1.7-.9.2-2 .3-3.2.3zm21.4-.4c-.9.3-2 .5-3.2.5-1.5 0-3-.1-4.6-.3V17.6c0-1.5.1-2.5.3-3.1.2-.6.6-1 1.3-1.4h-6.6c.6.3 1 .8 1.3 1.4.3.6.3 1.6.3 3.1v13.9c0 1.5-.1 2.5-.3 3.1-.2.6-.6 1-1.3 1.4h14.1l1.8-4.6c-1.2.7-2.2 1.3-3.1 1.6z" style="fill:#89c6f4"/><path id="News_1_" d="M89.1 14.7c.3.6.4 1.4.4 2.5v13.5L76.7 14.4c-.4-.6-.7-1.1-.8-1.3h-5.1c.7.5 1.2 1 1.4 1.5.2.5.4 1.4.4 2.5v14.6c0 1.1-.1 2-.4 2.5-.3.5-.7 1.1-1.4 1.5H77c-.7-.5-1.2-1-1.4-1.5-.2-.5-.4-1.4-.4-2.5V18l12.1 15.3c1.3 1.8 2.9 3 4.8 3.6V17.2c0-1.1.1-2 .4-2.5.3-.5.7-1.1 1.4-1.5h-6.2c.7.4 1.2.9 1.4 1.5zm17.3 18.6c-1.4 0-2.9-.1-4.3-.4v-8.2h3.1c.8 0 1.3.1 1.7.2.4.1.7.4 1 .7V22c-.3.2-.7.2-1.2.2h-4.6v-6.4c.9-.1 2.1-.2 3.6-.2 1.1 0 2 .1 2.5.3.6.2 1.1.5 1.7 1.1v-4c-.3.1-.8.2-1.3.2H97.1c.6.3 1.1.8 1.3 1.4.2.6.3 1.6.3 3.1v13.9c0 1.5-.1 2.5-.3 3-.2.6-.6 1-1.3 1.4h14.4l1.6-4.5c-.9.7-1.9 1.2-2.9 1.5-1.1.2-2.3.3-3.8.3zm35.4-19.2c.3.4.5.9.5 1.5 0 .5-.2 1.5-.7 3l-4 13-4.9-15.4c-.3-1-.5-1.8-.5-2.4 0-.2 0-.4.1-.6h-4.9c.8.6 1.2 1.3 1.2 2.1 0 .7-.2 1.6-.6 2.9l-4.2 13.5-5.3-16.4c-.2-.8-.4-1.3-.4-1.7 0-.1 0-.2.1-.4h-5c.6.5 1.1 1.1 1.5 1.7.3.6.8 1.7 1.3 3.3l4.3 13.5c.4 1.2.7 2 1.1 2.5.3.5.9 1 1.9 1.6.2.1.7.5 1.6 1.1l5.4-17.4 3.9 12.3c.4 1.3.8 2.2 1.1 2.6.3.4 1 1 2.1 1.7.3.2.7.5 1.2.8l7.3-23.7h-5.3c.5.2.9.5 1.2.9zM162 25.5c-.9-.7-2.6-1.6-5-2.8-2.1-1-3.4-1.7-4.1-2.3-.7-.6-1-1.3-1-2.1 0-.9.3-1.5.9-2.1.9-.8 2.1-1.2 3.6-1.2 1 0 2 .2 2.9.6.9.4 1.8.9 2.5 1.7v-3.9c-1.7-.5-3.5-.8-5.3-.8-2.9 0-5.2.7-6.7 2-.6.5-1 1.1-1.4 1.8-.3.8-.5 1.5-.5 2.3 0 1.6.6 2.9 1.8 4 .9.8 2.4 1.7 4.8 2.7 1.4.6 2.4 1.1 3 1.4.6.3 1.1.6 1.4 1 .8.7 1.1 1.5 1.1 2.5 0 .9-.4 1.7-1.3 2.4-1 .8-2.3 1.2-3.8 1.2-2.8 0-5.3-.9-7.6-2.8l1 4.3c2 .7 4.1 1.1 6.1 1.1 3.1 0 5.5-.8 7.2-2.5 1.4-1.4 2.1-2.9 2.1-4.7.2-1.6-.4-2.8-1.7-3.8z" style="fill:#fff"/></g></svg>