<svg xmlns="http://www.w3.org/2000/svg" width="250" height="93.75" fill="none" viewBox="0 0 312.5 117.188"><g fill="currentColor"><path d="M116.647 43.668c-3.477-3.9-7.778-5.864-12.889-5.864-3.15 0-6.052.615-8.719 1.857-2.666 1.242-4.967 2.925-6.915 5.075-1.934 2.164-3.463 4.675-4.588 7.587-1.124 2.898-1.686 6.037-1.686 9.43 0 3.325.523 6.357 1.555 9.095 1.046 2.725 2.497 5.063 4.38 7.013 1.882 1.95 4.117 3.472 6.705 4.568 2.589 1.095 5.425 1.643 8.51 1.643a23.11 23.11 0 0 0 3.87-.308c1.176-.2 2.3-.534 3.372-.988a19.68 19.68 0 0 0 3.163-1.763c1.033-.721 2.118-1.63 3.242-2.712v11.58h-.013v1.122H102.36l-10.732 12.342v2.124h40.274v-66.45h-15.255zm-.04 21.223a11.318 11.318 0 0 1-2.104 3.233 9.353 9.353 0 0 1-3.11 2.15 9.543 9.543 0 0 1-3.83.775c-1.413 0-2.72-.254-3.922-.775-1.203-.52-2.249-1.229-3.125-2.15-.875-.922-1.555-2.004-2.065-3.233s-.758-2.577-.758-4.007c0-1.375.261-2.671.797-3.873.536-1.202 1.242-2.244 2.157-3.139a10.874 10.874 0 0 1 3.111-2.15c1.177-.548 2.445-.815 3.791-.815 1.294 0 2.536.254 3.752.775a9.63 9.63 0 0 1 3.163 2.15 11.031 11.031 0 0 1 2.157 3.179c.536 1.202.797 2.524.797 3.967-.013 1.376-.274 2.684-.81 3.913zM74.086 44.39a16.486 16.486 0 0 0-2.706-2.565 15.82 15.82 0 0 0-2.81-1.697 13.035 13.035 0 0 0-1.53-.587c-.77-.254-1.608-.428-2.47-.575H53.694l-7.19 8.375V39.14H31.25v44.184h15.255V53.51H60.83l1.19-.026V83.31h15.254V55.676c0-2.351-.222-4.448-.666-6.291-.445-1.83-1.281-3.486-2.523-4.996zM176.763 39.02h-16.64l-6.614 7.613v-7.614H138.24v44.184h15.294l.013-29.572H164.646l12.117-13.997zM259.195 59.428l20.862-19.66v-.748h-20.104l-16 15.934V11.72H228.7V83.19h15.254V65.199l16.771 17.991h20.526v-.841zM216.776 44.055c-2.327-2.097-5.085-3.727-8.261-4.902-3.177-1.175-6.614-1.763-10.327-1.763-3.765 0-7.242.601-10.405 1.803-3.176 1.202-5.908 2.859-8.222 4.942a22.59 22.59 0 0 0-5.399 7.413c-1.294 2.845-1.934 5.904-1.934 9.176 0 3.62.64 6.906 1.934 9.857 1.294 2.952 3.072 5.49 5.36 7.614 2.274 2.123 4.98 3.766 8.13 4.915 3.15 1.148 6.575 1.723 10.288 1.723 3.765 0 7.255-.575 10.496-1.723 3.23-1.149 6-2.765 8.3-4.876a22.838 22.838 0 0 0 5.439-7.493c1.32-2.898 1.987-6.09 1.987-9.603 0-3.5-.654-6.705-1.935-9.603a22.408 22.408 0 0 0-5.451-7.48zm-9.53 20.916a11.318 11.318 0 0 1-2.104 3.233 9.343 9.343 0 0 1-3.11 2.15 9.587 9.587 0 0 1-3.83.775 9.65 9.65 0 0 1-3.844-.775c-1.203-.52-2.248-1.229-3.111-2.15-.876-.922-1.569-2.004-2.104-3.233-.536-1.228-.798-2.59-.798-4.087 0-1.376.262-2.671.798-3.873a11.133 11.133 0 0 1 2.104-3.179 9.155 9.155 0 0 1 3.111-2.15 9.606 9.606 0 0 1 3.843-.775c1.347 0 2.628.254 3.83.774a9.032 9.032 0 0 1 3.111 2.151c.876.922 1.569 2.003 2.105 3.232a9.696 9.696 0 0 1 .797 3.914c0 1.43-.261 2.765-.797 3.993z"/></g></svg>