<svg xmlns="http://www.w3.org/2000/svg" fill="none" class="wordmark_wordmark__gPyj1" version="1.1" viewBox="0 0 118.778 34.61"><g fill="#191918" clip-path="url(#a)" transform="translate(8.032 2.34)"><mask id="b" width="29" height="30" x="0" y="0" fill="#191918" maskUnits="userSpaceOnUse"><path fill="#fff" d="M28.714 0H0v29.995h28.714z"/></mask><g fill="#191918" mask="url(#b)"><path fill="#fff" d="M1.805 1.29 18.403.069c2.038-.175 2.563-.057 3.844.873l5.298 3.724c.874.64 1.166.815 1.166 1.513v20.424c0 1.28-.467 2.037-2.097 2.153L7.34 29.919c-1.224.058-1.806-.116-2.447-.931L.99 23.925c-.7-.931-.99-1.628-.99-2.444V3.326c0-1.046.466-1.92 1.805-2.035z"/><path fill="#000" fill-rule="evenodd" d="M18.403.068 1.805 1.291C.466 1.406 0 2.28 0 3.326v18.155c0 .816.29 1.513.99 2.444l3.902 5.063c.64.815 1.223.99 2.447.93l19.275-1.163c1.63-.116 2.097-.873 2.097-2.153V6.178c0-.662-.262-.853-1.034-1.416a89.567 89.567 0 0 1-.132-.097L22.247.941C20.966.011 20.44-.107 18.403.068zM7.776 5.843c-1.574.106-1.931.13-2.825-.596L2.678 3.443c-.232-.233-.115-.524.467-.581l15.957-1.164c1.339-.117 2.038.35 2.562.756l2.737 1.979c.116.058.407.407.058.407l-16.48.99zM5.94 26.427V9.087c0-.756.233-1.105.932-1.164l18.926-1.105c.642-.058.933.35.933 1.105v17.223c0 .758-.117 1.398-1.166 1.456L7.455 27.65c-1.05.058-1.515-.29-1.515-1.223zm17.88-16.41c.116.525 0 1.049-.526 1.108l-.872.174v12.8c-.758.408-1.457.64-2.039.64-.932 0-1.165-.29-1.864-1.163l-5.707-8.96v8.67l1.806.407s0 1.047-1.458 1.047l-4.017.233c-.117-.233 0-.815.408-.931l1.048-.29V12.287l-1.456-.117c-.116-.524.174-1.28.99-1.338l4.31-.29 5.94 9.077v-8.03l-1.514-.174c-.117-.641.349-1.107.931-1.164z" class="wordmark_fill__RZFeq" clip-rule="evenodd"/></g><path fill="#000" d="M50.995 7.02v16.21h-2.587l-7.669-11.09h-.134v11.09h-2.913V7.02h2.612l7.652 11.087h.15V7.021h2.89zm7.715 16.446c-1.187 0-2.216-.261-3.087-.784a5.269 5.269 0 0 1-2.018-2.192c-.474-.939-.712-2.036-.712-3.292 0-1.256.237-2.356.712-3.3s1.148-1.678 2.018-2.2c.87-.522 1.9-.784 3.087-.784 1.182 0 2.208.262 3.078.784a5.256 5.256 0 0 1 2.018 2.2c.48.944.72 2.044.72 3.3 0 1.256-.24 2.353-.72 3.292a5.269 5.269 0 0 1-2.018 2.193c-.87.522-1.896.783-3.078.783zm.008-2.28c.654 0 1.197-.176 1.63-.53.433-.358.757-.838.973-1.44.217-.607.325-1.282.325-2.026 0-.744-.108-1.419-.325-2.026-.216-.607-.54-1.09-.973-1.448-.433-.364-.976-.546-1.63-.546-.66 0-1.209.182-1.646.546-.438.359-.765.841-.982 1.448a6.165 6.165 0 0 0-.316 2.026c0 .744.105 1.42.316 2.026.217.602.544 1.082.982 1.44.438.354.986.53 1.646.53zM72.33 11.074v2.2h-6.964v-2.2zM67.09 8.16h2.842v11.42c0 .385.058.68.174.887.121.205.28.345.475.419.195.074.414.11.657.11a2.8 2.8 0 0 0 .49-.039c.148-.026.264-.05.349-.071l.474 2.224a6.49 6.49 0 0 1-.648.174c-.28.063-.623.1-1.03.11-.712.022-1.355-.086-1.93-.324a3.04 3.04 0 0 1-1.361-1.116c-.333-.506-.496-1.142-.491-1.907V8.16zm6.983 15.069V11.073h2.85v12.156zm1.433-13.89c-.454 0-.842-.15-1.164-.45a1.456 1.456 0 0 1-.483-1.093c0-.427.161-.791.483-1.092a1.645 1.645 0 0 1 1.163-.459c.454 0 .842.153 1.164.46.327.3.49.664.49 1.091 0 .422-.163.786-.49 1.092-.322.301-.71.452-1.163.452zm8.99 14.127c-1.187 0-2.216-.261-3.087-.784a5.268 5.268 0 0 1-2.018-2.192c-.474-.939-.712-2.036-.712-3.292 0-1.256.238-2.356.712-3.3.475-.944 1.148-1.678 2.018-2.2.871-.522 1.9-.784 3.087-.784 1.182 0 2.208.262 3.078.784.871.522 1.544 1.256 2.019 2.2.48.944.72 2.044.72 3.3 0 1.256-.24 2.353-.72 3.292a5.267 5.267 0 0 1-2.019 2.193c-.87.522-1.896.783-3.078.783zm.008-2.28c.654 0 1.197-.176 1.63-.53.433-.358.757-.838.974-1.44.216-.607.324-1.282.324-2.026 0-.744-.108-1.419-.324-2.026-.217-.607-.541-1.09-.974-1.448-.433-.364-.976-.546-1.63-.546-.66 0-1.208.182-1.646.546-.438.359-.765.841-.982 1.448a6.165 6.165 0 0 0-.316 2.026c0 .744.105 1.42.316 2.026.217.602.544 1.082.982 1.44.438.354.986.53 1.646.53zm10.406-5.088v7.13h-2.848V11.074h2.722v2.057h.143a3.48 3.48 0 0 1 1.337-1.614c.617-.401 1.38-.602 2.288-.602.833 0 1.561.18 2.184.539a3.63 3.63 0 0 1 1.456 1.559c.348.68.522 1.506.522 2.477v7.74h-2.84v-7.305c0-.813-.212-1.448-.634-1.907-.423-.464-1.006-.697-1.75-.697-.5 0-.946.111-1.337.333-.39.216-.696.532-.918.95-.216.41-.325.91-.325 1.495z" class="wordmark_fill__RZFeq"/></g><defs><clipPath id="a"><path fill="#fff" d="M0 0h104.229v30H0z"/></clipPath></defs></svg>