<svg xmlns="http://www.w3.org/2000/svg" version="1.1" viewBox="0 0 1250 671.702"><path fill="none" fill-rule="evenodd" d="M-217.5-116.6h1384v862h-1384z" clip-rule="evenodd"/><path fill="#e50028" fill-opacity="1" d="M747 375.3H486v390.1h122.2V492.8h83.3c17.1 0 25.9 8.4 25.9 26v246.6h122.2V468.1c0-54.9-37.7-92.8-92.6-92.8zm620.7-.2-81.2 233.4-81-233.4h-181.9V225.6l-122.2 24.2v425.3c0 58.9 36.6 95.6 95.8 95.6h99.5V656.3h-46.9c-15.7 0-26.1-5.8-26.1-27.2V492.9h95.3l106.4 272.9h122.7l152.3-390.7z" transform="translate(-368.2 -162.299)"/></svg>