<svg xmlns="http://www.w3.org/2000/svg" id="Logo" x="0" y="0" version="1.1" viewBox="0 0 138.889 50.56" xml:space="preserve"><style id="style1" type="text/css">.st0{fill:#C72426;}</style><g id="g31" transform="translate(11.894 4.23)"><path id="path29" d="M61.9 23.4c.1-5.9-3.3-11.2-9.5-11.9-2.9-.3-6 .8-8.3 2.7v-.9c.1-3.3.1-9.9.1-13.2h-6.4V42h6.4V23.8c.1-1.9.4-3.8 1.8-4.9 1.7-1.3 4.7-1.5 6.6-.6 1.6.8 2.2 1.9 2.7 3.7.1.7.2 2.4.2 4.6 0 5-.1 14 0 15.4h6.4V23.4z" class="st0"/><path id="path30" d="M108.9 35.8s-.1 0 0 0c-.1-5.2-.1-11.8-.1-12.4.2-5.7-3.4-11.5-9.5-12-3.8-.3-8.2 1-10.5 4.2-1.6-2.3-4.1-3.9-7.2-4.2-1-.1-2 0-3 .2-2 .4-3.8 1.3-5.4 2.5v-2.7h-6.3v30.4h6.4V23.4c0-.7.1-1.2.1-1.6.1-.7.4-1.5.7-2.1.2-.3.4-.5.6-.8l.3-.3c1.3-.9 3-1.2 4.6-1.1.7.1 1.4.2 2 .5.8.4 1.4.9 1.8 1.5.1.2.2.4.4.6.2.5.4 1 .5 1.6 0 .2.1.4.1.7V41.6h6.5V23.5c0-1.4.3-3.2 1.1-4.2 1.1-1.4 2.7-1.8 4.6-1.9 1.8-.1 3.5.4 4.5 1.9.7.9 1.1 2.5 1.1 3.9v18.5h12.9v-6.4c-1.6.1-3.9 0-6.2.5z" class="st0"/><path id="path31" d="M18.5 11.1c-6.5.1-12.3 3.1-14.3 9.5-1.5 4.8-1 9.8 1.6 14 .2.4.5.7.8 1.1-2.2-.4-4.4-.3-6.6-.3v6.4h16.4v-6.2c-4.6-.6-6.4-3.7-6.5-9.3-.2-6.1 2.7-9.4 8.6-9.6 3.8 0 7.2 1.8 8.1 5.6.6 2.4.6 5.6 0 8-.7 3.3-3.1 4.8-6 5.2v6.1c1.2-.1 2.4-.3 3.6-.7 8.7-2.5 10.9-12.5 8.5-20.3-2-6.4-7.8-9.4-14.2-9.5z" class="st0"/></g></svg>