<svg xmlns="http://www.w3.org/2000/svg" id="Ebene_1" x="0" y="0" version="1.1" viewBox="0 0 59.524 20.131" xml:space="preserve"><style id="style1" type="text/css">.st0{fill:#D4021D;}</style><g id="DOC_HEADER_FOOTER" transform="translate(5.85 1.966)"><g id="HEADER_x5F_FOOTER-BRP_x5F_1_x5F_Small-_x2265_576-px" transform="translate(-232 -1862)"><g id="Group-9" transform="translate(232 1862)"><path id="Fill-1" d="M43.3 7.1v.5c-.3 3.8-1.5 4.9-3 4.9-1.3 0-2.3-.9-2.1-3.4v-.5c.3-3.7 1.5-4.9 3-4.9 1.4 0 2.3.9 2.1 3.4m-33.6 0v.5c-.3 3.8-1.5 4.9-3 4.9-1.3 0-2.3-.9-2.1-3.4v-.5c.3-3.7 1.5-4.9 3-4.9 1.4 0 2.3.9 2.1 3.4m32-7.1c-2.4 0-4.3.7-5.7 2.3.2-.5.3-1.2.3-1.9H28c-1.8 0-2.9.8-3.6 2.9l.4-2.9h-8.4c-1.5 0-2.6.7-3 2.2C12.3.8 10.4 0 8.1 0 3.6 0 .7 2.6.2 8.1l-.1.7c-.5 5 2.1 7.4 6.1 7.4 4.5 0 7.4-2.6 7.9-8.2l.1-.7c.1-1.3 0-2.4-.2-3.3h3.8l-1.1 9.3c-.2 1.9.8 2.7 2.4 2.7 1 0 1.4-.1 1.8-.1L22.2 4h4.4l-1.1 9.3c-.2 1.9.8 2.7 2.4 2.7 1 0 1.4-.1 1.8-.1L31 4h2.2c.7 0 1.4-.2 1.8-.5-.7 1.2-1.1 2.7-1.3 4.6l-.1.7c-.5 5 2.1 7.4 6.1 7.4 4.5 0 7.4-2.6 7.9-8.2l.1-.7c.6-4.9-2-7.3-6-7.3" class="st0"/></g></g></g></svg>