<svg xmlns="http://www.w3.org/2000/svg" width="250" height="81.688" viewBox="0 0 312.5 102.111"><g fill="currentColor"><path d="M279.557 33.98q-4.01.394-7.53.394-3.095 0-5.304-.2l-1.687-.164a1.51 1.51 0 0 0-1.674 1.498v.395a1.505 1.505 0 0 0 1.608 1.499h.297a5.916 5.916 0 0 1 2.033.358 3.447 3.447 0 0 1 1.62 1.213 3.483 3.483 0 0 1 .607 2.142 10.619 10.619 0 0 1-1.256 4.35l-4.248 8.733a1.51 1.51 0 0 1-2.676.073l-5.425-9.71q-1.82-3.197-1.82-4.926a1.553 1.553 0 0 1 1.025-1.548 7.682 7.682 0 0 1 2.38-.394 1.517 1.517 0 0 0 1.45-1.511v-.722a1.517 1.517 0 0 0-1.663-1.499c-12.221 1.129-25.025 1.371-37.24.055a1.51 1.51 0 0 0-1.68 1.498v.389a1.505 1.505 0 0 0 1.59 1.505h.297a5.916 5.916 0 0 1 2.033.358 3.447 3.447 0 0 1 1.62 1.213 3.483 3.483 0 0 1 .607 2.142 10.619 10.619 0 0 1-1.256 4.351l-4.248 8.732a1.51 1.51 0 0 1-2.676.073l-5.425-9.71q-1.82-3.197-1.82-4.926a1.553 1.553 0 0 1 1.025-1.548 7.682 7.682 0 0 1 2.379-.394 1.517 1.517 0 0 0 1.45-1.511v-.728a1.517 1.517 0 0 0-1.662-1.499 144.114 144.114 0 0 1-26.517 0 1.51 1.51 0 0 0-.498.043V17.493a1.51 1.51 0 0 0-.837-1.354l-.674-.34a1.493 1.493 0 0 0-1.177-.066 88.671 88.671 0 0 1-19.108 4.618 1.505 1.505 0 0 0-.352 2.894 32.433 32.433 0 0 1 3.362 1.45 3.999 3.999 0 0 1 1.656 1.402 3.75 3.75 0 0 1 .413 1.85v34.449q0 3.64-1.329 5.66a4.248 4.248 0 0 1-2.427 1.821l-.23.055a4.727 4.727 0 0 1-.996.11c-.273 0-.516 0-.734-.037h-.176a3.64 3.64 0 0 1-.4-.073 3.64 3.64 0 0 1-2.1-1.505q-1.365-1.705-1.365-5.734v-45.2a1.51 1.51 0 0 0-.838-1.354l-.673-.34a1.493 1.493 0 0 0-1.178-.066 88.671 88.671 0 0 1-19.108 4.618 1.505 1.505 0 0 0-.352 2.894 32.433 32.433 0 0 1 3.362 1.45 3.999 3.999 0 0 1 1.657 1.402 3.75 3.75 0 0 1 .412 1.85v34.449q0 3.64-1.329 5.66a4.248 4.248 0 0 1-2.117 1.7 6.068 6.068 0 0 1-1.25.26c-.103 0-.194.037-.304.037a5.88 5.88 0 0 1-1.177-.103 5.413 5.413 0 0 1-2.105-.965c-.941-.661-1.712-1.893-1.712-4.696V45.405a12.803 12.803 0 0 0-1.71-6.723 10.922 10.922 0 0 0-5.286-4.369q-3.574-1.53-9.041-1.53a41.371 41.371 0 0 0-11.25 1.603q-5.176 1.529-8.162 4.514a9.757 9.757 0 0 0-2.967 7.112 11.778 11.778 0 0 0 .115 1.626 1.523 1.523 0 0 0 2.076 1.214l11.159-4.527a1.48 1.48 0 0 0 .88-1.82 5.352 5.352 0 0 1-.316-1.784 4.593 4.593 0 0 1 1.214-3.162 4.12 4.12 0 0 1 3.234-1.329q2.087 0 2.894 1.214.807 1.214.813 4.06v4.672a1.505 1.505 0 0 1-1.013 1.426l-5.868 2.05q-5.048 1.76-7.312 2.537a16.614 16.614 0 0 0-2.263.844 15.655 15.655 0 0 0-5.534 2.949 8.034 8.034 0 0 0-2.464 3.64 20.71 20.71 0 0 0-.703 4.764q-.007 10.145 12.876 10.145 5.534 0 8.307-1.82a22.215 22.215 0 0 0 2.724-2.045 1.535 1.535 0 0 1 2.245.164 6.814 6.814 0 0 0 1.432 1.396 11.905 11.905 0 0 0 3.92 1.887 15.661 15.661 0 0 0 4.205.607c2.203 0 5.085-.698 7.889-.971l1.772-.17c.8-.08 1.577-.152 2.354-.219l1.632-.14q5.51-.43 10.316-.436h26.487c4.029 0 8.385.23 13.07.661a1.068 1.068 0 0 0 1.001-1.159v-1.062a1.074 1.074 0 0 0-.88-1.14 4.393 4.393 0 0 1-3.343-1.705q-1.365-1.706-1.365-5.735V37.735c.036 0 .066.03.103.037a4.612 4.612 0 0 1 2.494 1.42 34.964 34.964 0 0 1 3.828 5.788l16.863 30.559a4.794 4.794 0 0 1 .686 2.014q0 2.482-5.898 2.482l-.752-.073h-1.214a28.52 28.52 0 0 0-3.198.219 5.831 5.831 0 0 0-3.756 2.032 5.704 5.704 0 0 0-1.456 3.793 5.831 5.831 0 0 0 1.705 4.06 6.007 6.007 0 0 0 4.618 1.82 8.98 8.98 0 0 0 6.328-2.694 17.633 17.633 0 0 0 4.206-5.935l1.76-3.64 4.247-8.775 5.145-10.667 4.49-9.309c.856-1.778 1.767-3.537 2.561-5.345a22.882 22.882 0 0 1 3.125-5.395c1.481-1.778 2.78-.224 3.61 1.214 2.197 3.81 4.109 7.785 6.245 11.632 2.251 4.053 4.557 8.076 6.808 12.136 1.918 3.477 3.902 6.93 5.759 10.437a4.794 4.794 0 0 1 .685 2.014q0 2.482-5.898 2.482l-.752-.073h-1.214a28.52 28.52 0 0 0-3.198.219 5.831 5.831 0 0 0-3.756 2.033 5.704 5.704 0 0 0-1.456 3.792 5.831 5.831 0 0 0 1.705 4.06 6.007 6.007 0 0 0 4.618 1.82 8.98 8.98 0 0 0 6.329-2.694 17.633 17.633 0 0 0 4.205-5.935l17.955-37.251a32.106 32.106 0 0 1 3.362-5.752 6.632 6.632 0 0 1 2.524-2.136 7.22 7.22 0 0 1 1.286-.334 1.53 1.53 0 0 0 1.323-1.487v-.825a1.517 1.517 0 0 0-1.693-1.499zM115.722 66.357a1.365 1.365 0 0 1-.315.928q-1.11 1.214-3.532 1.214a4.812 4.812 0 0 1-3.64-1.329q-1.257-1.329-1.257-4.35 0-4.279 1.214-6.918a9.612 9.612 0 0 1 5.68-5.461 8.732 8.732 0 0 1 1.777-.431c.049 0 .073.048.073.145zM95.443 29.629a18.993 18.993 0 0 0-1.82-8.09 15.419 15.419 0 0 0-5.334-5.976q-3.64-2.464-9.46-3.78a58.174 58.174 0 0 0-7.603-1.135 105.111 105.111 0 0 0-9.575-.437q-3.641 0-13.793.516-7.773.358-15.224.965a1.51 1.51 0 0 0-1.384 1.51v1.42a1.499 1.499 0 0 0 1.547 1.505h.395a6.99 6.99 0 0 1 4.484 1.511q1.9 1.511 1.9 5.461v40.656q0 3.968-2.112 5.352a9.958 9.958 0 0 1-4.8 1.335 1.51 1.51 0 0 0-1.414 1.492v1.426a1.517 1.517 0 0 0 1.608 1.505q14.94-.898 18.95-.898 8.702 0 19 .85a1.517 1.517 0 0 0 1.643-1.5v-1.006a1.499 1.499 0 0 0-1.559-1.505h-.977a13.629 13.629 0 0 1-6.474-1.493q-2.858-1.51-2.858-5.394V50.69a1.505 1.505 0 0 1 1.735-1.492 53.89 53.89 0 0 0 8.307.74q7.755 0 13.398-2.591a19.078 19.078 0 0 0 8.513-7.22 19.466 19.466 0 0 0 2.907-10.498ZM71.851 41.764Q69.66 45 65.443 45a12.02 12.02 0 0 1-3.119-.346l-.667-.188a1.499 1.499 0 0 1-1.074-1.444V16.455a1.53 1.53 0 0 1 1.213-1.487 13.908 13.908 0 0 1 2.828-.358q9.417 0 9.417 17.343.006 6.601-2.19 9.811z"/></g></svg>