<svg xmlns="http://www.w3.org/2000/svg" id="Layer_1" x="0" y="0" version="1.1" viewBox="0 0 227.273 50.702" xml:space="preserve"><style id="style1" type="text/css">.st0{fill:#4A4C52;}
	.st1{fill:#999999;}
	.st2{fill:#919296;}
	.st3{fill:#F6F6F7;}
	.st4{fill:#10141B;}</style><g id="g27" transform="translate(13.645 -74.629)"><path id="path1" d="M49.7 98.1c-.2 4.1-1.8 7.7-4.2 11-3.3 4.5-7.6 7.8-12.8 9.8-6 2.4-12.6 1-16.7-3.5-3.1-3.4-4.8-7.4-5.6-11.8-.6-3.6-.7-7.1.7-10.6 1.8-4.4 4.9-7.6 9-10 3.4-2 7.1-3.1 11.1-3.1 9.4.1 16.7 5.8 18.3 15.4.1.9.1 1.8.2 2.8zm-12.3 16.5c5.4-3.4 9.4-7.8 10.7-14.2.8-3.8-.1-7.3-2.3-10.6-.7-1.3-1.7-2.5-2.9-3.4-3.4-2.7-7.3-4.2-11.7-4.4-2.6-.1-5.2 0-7.7 1.1-1.6.4-3.1 1.2-4.5 2.2-4.1 2.7-6.9 6.3-7.6 11.2-.7 5 .4 9.7 2.9 14.1.9 1.6 2 3.1 3.6 4.2 2 1.8 4.5 2.8 7.2 3.1 4.6.5 8.6-.7 12.3-3.3z" class="st0"/><path id="path2" d="M58.8 108.5c-1.6 0-1.6 0-1.3-1.5.9-5 1.8-10 2.6-15.1.1-.8.5-1.1 1.3-1.1 1.9.1 3.7 0 5.6 0 3 0 4.9 1.3 5.5 3.8.6 2.6-.8 5.3-3.3 6.5-1.6.7-3.2.8-4.9.7-2.7 0-2.7 0-3.2 2.7-.1.7-.3 1.5-.4 2.2-.3 1.8-.3 1.8-1.9 1.8zm5.9-9.3c.8 0 1.9.1 3-.4 1-.4 1.6-1.2 1.7-2.3.1-.9 0-1.8-.8-2.3-1.6-1-3.5-.7-5.1-.5-.9.1-.5 1.7-.8 2.6-.1.2-.1.5-.1.7-.5 2.2-.5 2.2 2.1 2.2z" class="st1"/><path id="path3" d="M91.7 97.2c1.2-.8 2-1.4 3.1-1.5 3.2-.5 5.4 1.7 4.9 4.9-.2 1.1-.3 2.1-.6 3.2-.6 2.9-2.5 4.7-5.4 5.1-1.5.2-2.7-.3-3.8-1.5-.3 1.8-.7 3.4-.9 5.1-.1.8-.4 1-1.2 1-2 0-2 0-1.6-2 .9-4.8 1.7-9.6 2.5-14.4.1-.9.4-1.3 1.4-1.1h.4c.9-.3 1.6-.2 1.2 1.2zm2.7 1c-1.5 0-2.8.9-3.2 2.4-.3 1-.4 2-.6 3.1-.3 1.7.6 2.7 2.3 2.7 1.6 0 2.9-1 3.2-2.6.2-1 .4-2 .5-3 .3-1.6-.6-2.6-2.2-2.6z" class="st1"/><path id="path4" d="M142 97.1c.6-.4 1.2-.8 1.8-1.1 1.7-.6 3.3-.6 4.7.5 1.4 1.1 1.5 2.6 1.2 4.2-.2 1.3-.4 2.6-.8 3.9-.7 2.6-3.1 4.2-5.7 4.3-1.2 0-2.2-.5-3.2-1.5-.3 1.7-.7 3.3-.9 4.9-.1.9-.4 1.1-1.3 1.1-1.9-.1-1.9 0-1.6-1.9.9-4.8 1.7-9.7 2.6-14.5.1-.4-.1-1 .5-1.1.8-.1 1.6-.2 2.3.1.5.1.1.7.4 1.1zm2.5 1.1c-1.5 0-2.8.9-3.2 2.4-.3 1.2-.5 2.5-.6 3.7-.1.9.4 1.6 1.3 1.9 1.9.7 3.9-.3 4.3-2.3.2-1 .3-2 .5-3 .2-1.7-.6-2.7-2.3-2.7z" class="st1"/><path id="path5" d="M82.5 97c.4-.4.1-1.1.7-1.1.8-.1 1.6-.1 2.4 0 .4 0 .2.4.2.6-.7 3.8-1.4 7.6-2 11.4-.1.4-.3.6-.7.6h-1.7c-.2 0-.5-.1-.5-.1-.1-1.3-.7-.5-1.2-.3-.6.3-1.2.6-1.9.7-3 .6-5.3-1.5-4.8-4.5.2-1.5.4-2.9.8-4.3.8-3 3.5-4.7 6.5-4.2.7.1 1.5.5 2.2 1.2zm-3.1 1.1c-1.5 0-2.5.8-2.9 2.2-.3 1.1-.4 2.2-.6 3.3-.3 1.7.6 2.6 2.2 2.7 1.5 0 2.8-.8 3.2-2.3.3-1 .4-2 .6-3.1.2-1.8-.6-2.8-2.5-2.8z" class="st1"/><path id="path6" d="M161 97c.5-1.1 1.4-1.5 2.8-1.2.6.1.4.5.3.8-.5 3.1-1.1 6.1-1.6 9.2 0 .2-.1.5-.1.7-.5 2.3.1 1.9-2.4 1.9-.4 0-.8.1-.8-.6-.1-.7-.5-.2-.7 0-1.3.7-2.7 1.2-4.2.9-1.9-.5-3-1.8-3-3.7.1-2 .4-3.9 1.1-5.8 1.2-3.5 5.9-4.8 8.6-2.2zm-3.1 1.1c-1.3 0-2.5.7-2.8 1.9-.4 1.3-.6 2.7-.8 4.1-.1 1 .4 1.7 1.4 2 1.9.6 3.7-.4 4.1-2.3.2-.9.3-1.8.5-2.7.4-1.9-.5-3-2.4-3z" class="st1"/><path id="path7" d="M108.4 103.1h-3.3c-.5 0-.8.2-.8.7-.2 1.5.6 2.5 2.2 2.6 1.4.1 2.6-.3 3.9-.8.4-.2.9-.4 1 .3.1.6 1.2 1.2.1 1.8-2.5 1.3-5.1 1.8-7.8.8-1.5-.6-2.4-1.7-2.5-3.4 0-1.9.3-3.9 1.1-5.7 1.4-2.8 4.5-4.3 7.6-3.6 2.1.5 3.2 1.9 3.2 4-.1 3.3-.1 3.3-3.3 3.3h-1.4zm-1.1-2.1h1.6c1.1 0 1.4-.5 1.1-1.5-.2-.7-.7-1.1-1.4-1.2-1.3-.3-2.7.3-3.4 1.4-.2.4-.5.8-.3 1.2.2.3.7.1 1 .1h1.4z" class="st1"/><path id="path8" d="M185.4 103.1h-3.2c-.7 0-.9.3-.9.9-.2 1.4.7 2.3 2.2 2.4 1.3.1 2.6-.3 3.7-.8.7-.4 1 0 1.2.5.2.5.8 1.1-.1 1.6-2.4 1.2-5 1.7-7.6.8-1.6-.6-2.6-1.9-2.6-3.6 0-1.8.3-3.5.9-5.2 1.2-3.1 5.2-4.8 8.3-3.7 1.8.6 2.7 1.9 2.7 3.7 0 3.2-.2 3.4-3.3 3.4h-1.3zm-1.1-2.1h2c.3 0 .6 0 .7-.5.2-1-.2-1.9-1.2-2.2-1.3-.4-2.9.1-3.6 1.3-.2.4-.6.8-.4 1.3.2.3.7.1 1.1.1h1.4z" class="st1"/><path id="path9" d="M175.4 100.8c-.7.2-1.3 0-1.3-1.2 0-.9-.8-1.3-1.6-1.5-1.1-.2-2.2.1-2.9 1.1-1 1.7-1.2 3.6-1 5.5.1.8.8 1.2 1.5 1.4 1.4.3 2.7-.1 4-.6.6-.3.9-.1 1.1.5.6 1.6.7 1.7-1 2.2-2 .7-4 1-6 .2-1.9-.7-2.8-2-2.8-4 .1-2.2.4-4.3 1.7-6.1 1.7-2.5 5.3-3.4 8-2.1 1.2.6 1.9 1.5 2 2.8.2 1.6 0 1.8-1.7 1.8z" class="st1"/><path id="path10" d="M129.2 108.9c-1.5-.1-3-.3-4.4-1.4-.5-.4-.8-.8-.1-1.3l.6-.6c.4-.6.8-.5 1.3-.1 1.2.9 2.6 1.2 4.1.9.7-.1 1.3-.5 1.4-1.3.1-.8-.5-1.1-1.1-1.4-.9-.4-1.9-.6-2.8-1-1.2-.5-2.2-1.2-2.3-2.7-.1-1.5.5-2.7 1.8-3.5 2.4-1.3 4.8-1.3 7.2-.1.7.4 1 .8.3 1.5s-1.2 1.1-2.2.4c-.9-.6-2.1-.6-3.2-.3-.6.2-1 .6-1.1 1.2-.1.7.5.9 1 1.1 1 .4 2.1.7 3.1 1.2 1.3.6 2.4 1.4 2.3 3.1-.1 1.8-1.1 2.9-2.7 3.6-1 .5-2.1.6-3.2.7z" class="st1"/><path id="path11" d="M119.5 97.6c1.2-1 2.4-1.8 3.9-2 1.4-.2 1.4-.1 1.3 1.3-.1 1.1-.5 1.5-1.7 1.4-2.4-.1-4 1.3-4.4 3.8-.3 1.8-.7 3.7-1 5.5-.1.7-.4.9-1 .9-2.2 0-2.2 0-1.8-2.1.6-3.2 1.1-6.4 1.7-9.6.1-.3 0-.9.5-1 .8-.1 1.6-.3 2.3.1.5.3-.1 1.1.2 1.7z" class="st1"/><path id="path12" d="M23.6 83.2c2.5-1.1 5.1-1.3 7.7-1.1 4.4.2 8.3 1.7 11.7 4.4 1.2 1 2.2 2.1 2.9 3.4-.1.5.2.8.3 1.2 1.9 4.6 2 9.1-.3 13.6-.2.3-.2.8-.8.7.1-.3.3-.7.4-1 1.9-4.2 1.8-8.4-.5-12.5-.8-1.5-2.1-2.7-3.3-3.9-.1-.4-.4-.4-.7-.5-.1-.4-.3-.5-.7-.4 0-.6-.5-.7-.8-.9-3.3-2-6.9-2.7-10.7-2.4-.6.6-1.4.4-2.1.4-5.4.5-9.6 2.8-12.2 7.7-2.3 4.3-2.1 8.8-.9 13.3 1 3.8 3 6.8 6.4 8.8 1.3.8 2.9 1 4.3 1.7 2 .6 4 .5 6-.2 1.6-.4 3.2-.8 4.7-1.4 3.9-1.7 7-4.3 9.5-7.7.1.3 0 .6-.1.8-1.3 1.9-2.8 3.6-4.5 5.1-.8.7-1.9 1.1-2.4 2.2-3.7 2.6-7.8 3.8-12.3 3.3-2.7-.3-5.1-1.2-7.2-3.1 0-.5-.4-.8-.7-1.1-.7-.7-1.3-1.4-1.8-2.3-1.9-3.2-3-6.6-3.4-10.3-.5-4.1.4-7.8 2.9-11.1 2.1-2.8 4.8-5 8.1-6.4.2.1.5 0 .5-.3z" class="st2"/><path id="path13" d="M23.6 83.2c-.1.3-.3.5-.6.6-3.3 1.4-6 3.6-8.1 6.4-2.4 3.3-3.4 7-2.9 11.1.5 3.7 1.5 7.1 3.4 10.3.5.8 1.1 1.6 1.8 2.3.3.3.7.5.7 1.1-1.6-1.1-2.6-2.6-3.6-4.2-2.6-4.3-3.6-9.1-2.9-14.1.7-4.9 3.5-8.5 7.6-11.2 1.5-1.1 3-1.9 4.6-2.3z" class="st1"/><path id="path14" d="M45.1 105.4c.6.1.6-.4.8-.7 2.3-4.5 2.2-9 .3-13.6-.2-.4-.4-.8-.3-1.2 2.2 3.2 3.1 6.8 2.3 10.6-1.3 6.4-5.4 10.8-10.7 14.2.4-1.1 1.6-1.5 2.4-2.2 1.7-1.5 3.2-3.2 4.5-5.1.2-.3.2-.5.1-.8.7-.1.7-.6.6-1.2z" class="st1"/><path id="path15" d="M44.5 106.5c-2.5 3.4-5.6 6-9.5 7.7-1.5.7-3.1 1.1-4.7 1.4-2 .3-4 .2-6 .2-1.4-.6-2.9-.9-4.3-1.7-3.4-2-5.4-5.1-6.4-8.8-1.1-4.5-1.3-9.1.9-13.3 2.6-4.9 6.8-7.2 12.2-7.7.7-.1 1.5.2 2.1-.4.1.3.4.3.6.3 3.9.1 7.5 1 10.9 3 .2.1.4.3.7.4.2.2.4.3.7.5 1.3 1.2 2.5 2.3 3.3 3.9 2.2 4.1 2.3 8.3.5 12.5-.1.3-.3.7-.4 1-.3.2-.5.6-.6 1zm-16.2 7.4c5.6-.4 11.2-3.3 14.9-9.2 3.4-5.4 1.9-12.2-3.4-15.6-4.9-3.2-10.3-3.8-15.9-2.2-4.6 1.3-7.5 4.4-8.6 9-.7 3-.4 6.1.4 9.1 1.4 5.8 5.5 8.9 12.6 8.9z" class="st3"/><path id="path16" d="M40.5 87.2c-3.4-2-7-2.8-10.9-3-.2 0-.5 0-.6-.3 3.8-.3 7.4.4 10.7 2.4.3.2.7.3.8.9z" class="st0"/><path id="path17" d="M24.3 115.9c2-.1 4 .1 6-.2-2 .7-4 .7-6 .2z" class="st0"/><path id="path18" d="M41.1 87.6c-.2-.1-.4-.3-.7-.4.4-.1.7 0 .7.4z" class="st0"/><path id="path19" d="M41.8 88.1c-.2-.2-.4-.3-.7-.5.3 0 .6.1.7.5z" class="st0"/><path id="path20" d="M44.5 106.5c.1-.4.3-.8.7-1.1 0 .6 0 1.1-.7 1.1z" class="st2"/><path id="path21" d="M28.3 113.9c-7.1 0-11.2-3.2-12.7-8.9-.8-3-1.1-6-.4-9.1 1.1-4.7 4-7.7 8.6-9 5.6-1.6 11-1 15.9 2.2 5.3 3.5 6.8 10.2 3.4 15.6-3.6 6-9.1 8.8-14.8 9.2zm-4.6-7.3c.1.4-.4 1.2.6.9-.2 1 .3 1.2 1.2 1.1.4-.1.9 0 1.3 0 .6.1.8-.2.9-.8.2-1.3.5-2.6.6-3.9.1-.6.3-.9.9-.8 1 0 1.9.1 2.9 0 2.3-.1 4.2-1 5.2-3.2 1-2.1.6-4-1-5.7-.1-.7-.7-.9-1.1-1.3-.6-1.2-1.7-1.3-2.8-1.4-2-.1-4 0-6 0-.6 0-.9.2-.9.8-.1 1.1-.4 2.1-.5 3.2-.6 3.3-1.2 6.7-1.8 10 0 .4-.3 1 .5 1.1z" class="st4"/><path id="path22" d="M36.4 94.3c1.6 1.7 2 3.6 1 5.7-1 2.2-2.9 3-5.2 3.2-1 .1-1.9 0-2.9 0-.6 0-.9.2-.9.8-.2 1.3-.5 2.6-.6 3.9-.1.6-.3.8-.9.8-.4 0-.9-.1-1.3 0-.9.1-1.3-.2-1.2-1.1.1-.2.2-.5.2-.7.6-3.5 1.2-7 1.8-10.6.5-2.9.5-2.9 3.4-2.9 2.2 0 4.5-.3 6.6.9zm-2.3 2.5c-.1-.3-.4-.5-.7-.5-.4-.2-.8-.2-1.3-.2-2.5 0-2.5 0-2.7 2.5-.2.3-.2.6-.1.9-.1.4-.5 1 .2 1 1.2.1 2.5.3 3.7-.2 1.4-.7 1.9-2.4.9-3.5z" class="st3"/><path id="path23" d="M36.4 94.3c-2.1-1.2-4.4-.8-6.6-.8-2.9 0-2.9 0-3.4 2.9-.6 3.5-1.2 7-1.8 10.6 0 .2-.2.5-.2.7-1 .2-.6-.5-.6-.9.3-1.3.5-2.7.8-4 .5-3.1 1.1-6.1 1.6-9.2.1-.4.1-1 .8-.9 2.8.2 5.7-.4 8.4.4.3.3.9.5 1 1.2z" class="st1"/><path id="path24" d="M35.3 92.9c-2.8-.8-5.6-.3-8.4-.4-.7 0-.7.5-.8.9-.5 3.1-1.1 6.1-1.6 9.2-.2 1.3-.5 2.7-.8 4-.8-.1-.6-.7-.5-1.2.6-3.3 1.2-6.7 1.8-10 .2-1.1.4-2.1.5-3.2.1-.6.4-.8.9-.8 2 0 4-.1 6 0 1.2.2 2.4.3 2.9 1.5z" class="st0"/><path id="path25" d="M29.4 98.6c.2-2.5.2-2.5 2.7-2.5.4 0 .9 0 1.3.2.1 1.1-.5 1.6-1.3 2.1-.9.4-1.9.2-2.7.2z" class="st4"/><path id="path26" d="M34.1 96.8c1 1.1.6 2.8-.9 3.4-1.2.5-2.5.3-3.7.2-.7 0-.3-.6-.2-1h1.5c2.1.1 2.8-.5 3.3-2.6z" class="st1"/><path id="path27" d="M34.1 96.8c-.4 2.1-1.1 2.6-3.3 2.6h-1.5c0-.3 0-.6.1-.9.9 0 1.8.2 2.6-.3.8-.4 1.5-1 1.3-2.1.4.2.6.4.8.7z" class="st0"/></g></svg>