<svg xmlns="http://www.w3.org/2000/svg" xml:space="preserve" width="250" height="88.103" viewBox="0 0 312.5 110.128"><path d="M217.035 50.467c-.223-12.035-10.046-21.736-22.163-21.736-.811 0-1.623.04-2.435.142-3.694.487-7.022 2.11-9.681 4.485l.04-4.627v-.163h-10.35v51.713h10.35V50.812c.082-6.596 5.46-11.913 12.076-11.913 2.558 0 4.932.791 6.9 2.151 3.187 2.212 5.054 5.866 5.136 9.742.02.71.02 1.624.02 2.8v26.832h10.087zM166.621 72.366v.02zM156.169 11.013c-3.41 0-6.17 2.76-6.17 6.17s2.76 6.17 6.17 6.17 6.17-2.76 6.17-6.17-2.76-6.17-6.17-6.17ZM140.054 50.467c-.223-12.035-10.046-21.736-22.163-21.736h-.202c-4.567.081-8.707 2.13-11.894 5.378v-.771s-.02 0-.02.02l.04-4.729V11.013h-10.35V80.28h10.35V50.812c.082-6.596 5.46-11.913 12.076-11.913 2.558 0 4.932.791 6.901 2.151 3.186 2.212 5.054 5.866 5.135 9.742.02.71.02 1.624.02 2.8v26.71h10.087ZM276.278 68.185V11.297h-10.635v23.096s-.02 0-.02-.02v1.502c-3.633-3.511-8.2-5.947-13.253-6.779a25.004 25.004 0 0 0-3.715-.284c-12.583.365-23.481 9.742-25.308 22.61-.995 6.96.791 13.902 5.013 19.523 4.221 5.622 10.391 9.276 17.332 10.27 6.962.994 13.903-.792 19.525-5.013a25.34 25.34 0 0 0 1.968-1.624l7.408 5.988 6.657-8.281zm-26.993 3.613c-7.286 0-13.477-4.709-15.689-11.264a16.412 16.412 0 0 1-.873-5.318c0-7.63 5.176-14.064 12.218-15.952 1.38-.385 2.842-.568 4.344-.568 2.841 0 5.5.71 7.834 1.969a16.08 16.08 0 0 1 5.419 4.647 16.012 16.012 0 0 1 3.105 7.51c.122.791.182 1.583.182 2.415 0 9.153-7.407 16.56-16.54 16.56zM36.263 42.227v56.889h10.615V76.04s.02 0 .02.02v-1.502c3.633 3.511 8.2 5.947 13.253 6.779 1.218.182 2.456.284 3.714.284 12.583-.365 23.482-9.742 25.308-22.61.995-6.96-.791-13.902-5.013-19.524-4.221-5.621-10.39-9.275-17.332-10.27-6.961-.994-13.902.792-19.524 5.014a25.34 25.34 0 0 0-1.969 1.624l-7.428-5.967-6.657 8.28Zm26.993-3.612c7.286 0 13.476 4.708 15.688 11.264.569 1.664.873 3.45.873 5.317 0 7.631-5.175 14.065-12.218 15.952-1.38.386-2.841.569-4.343.569-2.841 0-5.5-.71-7.834-1.969a16.08 16.08 0 0 1-5.419-4.648 16.012 16.012 0 0 1-3.105-7.509 15.73 15.73 0 0 1-.183-2.415c0-9.153 7.408-16.561 16.541-16.561zM161.628 49.595V28.487h-10.695V80.281h10.695V53.898z"/></svg>