<svg xmlns="http://www.w3.org/2000/svg" xml:space="preserve" width="250" height="78.646" viewBox="0 0 83.906 26.395">
  <path d="M20.939 23.373c-1.187-.32-2.118-.85-2.948-1.682-3.22-3.22-2.389-8.52 1.648-10.516.729-.36 1.36-.555 1.983-.611l.912-.083v13.12l-.408-.01c-.225-.005-.76-.103-1.187-.219zM10.42 22.76c-.688-.364-.984-.667-1.281-1.313-.347-.756-.347-1.476.001-2.23.375-.812.918-1.274 1.745-1.484 2.485-.63 4.399 2.002 2.983 4.104-.707 1.048-2.368 1.493-3.448.923zm40.725-3.421c-1.56-.35-2.898-1.536-2.898-2.567 0-.272.091-.304.854-.304.792.001.873.034 1.106.443.42.74 1.102 1.068 2.084 1.005 1.07-.069 1.455-.379 1.455-1.17 0-.72-.259-.897-1.927-1.32-1.604-.406-2.21-.662-2.716-1.148-1.175-1.126-.372-3.298 1.417-3.83 2.042-.606 3.95.111 4.63 1.742.127.304.23.588.23.631 0 .044-.39.08-.867.08-.777 0-.885-.039-1.034-.365-.556-1.221-3.304-.98-3.121.273.068.468.866.91 2.282 1.266 2.202.552 2.834 1.025 2.997 2.24.11.82-.298 1.84-.932 2.323-.854.652-2.413.959-3.56.7zm8.77-.097c-1.395-.463-2.215-1.173-2.779-2.403-.482-1.053-.48-2.95.003-4.029 1.566-3.49 7.06-3.353 8.12.202.096.322.065.334-.839.333-.885 0-.953-.026-1.19-.442-.877-1.541-3.457-1.335-4.268.34-.216.446-.311.932-.311 1.59 0 .657.095 1.143.311 1.59.811 1.675 3.391 1.88 4.268.34.237-.417.305-.442 1.19-.443.905-.001.935.01.836.333-.304.984-1.248 2.02-2.204 2.419-.788.328-2.399.415-3.138.17zm-30.842-6.208V6.776l2.936.06c3.244.067 3.691.17 4.625 1.056.734.695 1.053 1.492 1.057 2.638.005 1.637-.793 2.825-2.301 3.422-.245.098-1.366.21-2.49.25l-2.043.074v5.016h-1.784zm5.797-.691c1.362-.68 1.363-2.912.002-3.629-.417-.22-.858-.273-2.267-.273h-1.748v4.162h1.746c1.365 0 1.86-.057 2.267-.26zm4.161 2.49v-4.46h1.784v8.919h-1.784zm3.568 0v-4.46h.8c.88 0 .977.115.981 1.166l.002.497.653-.672c.467-.48.877-.739 1.44-.906 1.189-.353 1.177-.36 1.177.733v.966h-.622c-.895 0-1.785.48-2.175 1.172-.3.535-.324.778-.324 3.27v2.693H42.6zM66.826 12.9V6.51h1.784v5.408l.483-.527c.755-.822 1.37-1.083 2.564-1.088 1.388-.005 2.205.452 2.831 1.583l.439.791.05 3.308.049 3.307h-1.782l-.052-3.01c-.044-2.52-.095-3.088-.313-3.49-.373-.688-1.02-.98-1.996-.898-.973.08-1.49.429-1.939 1.307-.31.608-.334.847-.334 3.372v2.719h-1.784zM9.455 9.354v-6.56h.34c.597 0 2.066.442 2.807.845.394.215 1.088.78 1.54 1.254 1.939 2.032 2.364 4.927 1.095 7.442-.934 1.85-2.936 3.288-4.853 3.485l-.929.095zm10.357-.623c-.674-.116-1.243-.51-1.696-1.174-1.213-1.784.08-4.164 2.263-4.164s3.477 2.38 2.263 4.164c-.64.942-1.678 1.372-2.83 1.174zm19.565.007c-.644-.26-.847-1.201-.382-1.77.143-.176.506-.358.807-.406.455-.073.61-.024.929.295.977.977-.052 2.406-1.354 1.881z"/>
</svg>
