<svg viewBox="0 0 300 64.44" aria-hidden="true" width="250" height="53.7" xmlns="http://www.w3.org/2000/svg"><path fill="currentColor" d="M30.25 36.745a5.25 5.25 0 110 10.5 5.25 5.25 0 010-10.5m0-15.675a5.25 5.25 0 110 10.5 5.25 5.25 0 010-10.5m0-14.525a4.088 4.088 0 110 8.175 4.088 4.088 0 010-8.175zm0-1.175a5.25 5.25 0 10.025 10.5 5.25 5.25 0 000-10.5m15.1 31.375a5.25 5.25 0 110 10.5 5.25 5.25 0 010-10.5m0-15.675a5.25 5.25 0 110 10.5 5.25 5.25 0 010-10.5m0-15.7a5.25 5.25 0 110 10.5 5.25 5.25 0 010-10.5M60.5 36.745a5.25 5.25 0 110 10.5 5.25 5.25 0 010-10.5m0-14.5a4.075 4.075 0 110 8.15 4.075 4.075 0 010-8.15zm0-1.175a5.25 5.25 0 100 10.5 5.25 5.25 0 000-10.5m0-15.7a5.25 5.25 0 110 10.5 5.25 5.25 0 010-10.5m15.1 31.375a5.25 5.25 0 110 10.5 5.25 5.25 0 010-10.5m0-15.675a5.25 5.25 0 110 10.5 5.25 5.25 0 010-10.5m0-15.7a5.25 5.25 0 110 10.5 5.25 5.25 0 010-10.5m12.225 41.8V6.52a146 146 0 0114.15-.525c5.05 0 8.55.9 10.45 2.7 1.9 1.8 2.85 5.175 2.85 10.125 0 5-.9 8.4-2.75 10.2-1.825 1.8-5.1 2.7-9.85 2.7-3 0-5.975-.175-8.95-.525V47.17zm5.9-20.5h8.125c2.85-.05 4.825-.6 5.9-1.65 1.05-1.075 1.575-3.125 1.575-6.2 0-3.05-.525-5.125-1.575-6.2-1.075-1.05-3.025-1.6-5.9-1.575-3.925 0-6.65 0-8.125.05zm46.675-5.55c2.075-2.325 5.6-3.5 10.6-3.5s8.55 1.175 10.6 3.5c2.075 2.325 3.1 6.225 3.1 11.725s-1.025 9.375-3.1 11.675c-2.05 2.25-5.575 3.4-10.6 3.4-5 0-8.525-1.15-10.6-3.4-2.05-2.3-3.1-6.175-3.1-11.675 0-5.5 1.05-9.4 3.1-11.725zm16.725 3.55c-1.1-1.475-3.15-2.2-6.125-2.2-3 0-5.025.75-6.125 2.2-1.1 1.425-1.65 4.175-1.65 8.175 0 4 .55 6.725 1.65 8.125 1.1 1.45 3.15 2.175 6.125 2.175 3 0 5.025-.75 6.125-2.175 1.1-1.475 1.65-4.175 1.65-8.15 0-3.95-.55-6.675-1.65-8.175m63.475 10.9h-12.9c.275 3 1.05 5 2.325 6 1.25 1.025 3.375 1.55 6.25 1.55 3.4-.05 6.75-.3 10.1-.7l.525 3.75c-2.6 1.15-6.375 1.725-11.375 1.725-4.975 0-8.525-1.15-10.675-3.425-2.1-2.275-3.175-6.175-3.15-11.725 0-5.525 1.025-9.425 3.1-11.725 2.05-2.25 5.45-3.35 10.2-3.35 4.4 0 7.6.8 9.625 2.425 2 1.6 3 4 3 7.25 0 5.5-2.35 8.25-7 8.25zm-12.925-4.4H219.1c1.875 0 2.825-1.275 2.825-3.825-.025-1.775-.525-3.025-1.5-3.75-.95-.75-2.65-1.1-5.1-1.1-2.825 0-4.8.625-5.875 1.8-1.1 1.175-1.7 3.5-1.775 6.875M194.15 21.17c-1.675-2.35-4.3-3.5-7.875-3.525-3.75 0-7.175 1.5-10.25 4.525V5.92H170.3v39.875a38.964 38.964 0 0013.425 2.075c4.85 0 8.225-1.25 10.125-3.725 1.9-2.475 2.85-6.3 2.85-11.45 0-5.3-.85-9.125-2.55-11.5zm-5 19.6c-1.05 1.525-2.9 2.3-5.525 2.35-2.575 0-5.125-.275-7.6-.875v-15.65a29.75 29.75 0 014.45-3.05 8.004 8.004 0 013.8-.95c2.575 0 4.325.725 5.175 2.15.85 1.425 1.325 4.075 1.35 7.925.05 3.85-.575 6.55-1.65 8.05m-55.275-22.85a21.75 21.75 0 00-9 4.325V18.42h-5.725v28.75h5.725V26.295a34.225 34.225 0 019-3.175zm134.975.55l-7.05 20.9c-.4 1.3-.8 2.5-1.2 3.525h-.675l-.425-1.275c-.2-.75-.425-1.5-.7-2.25l-1.525-4.45-1.5-4.375-4.125-12.075h-6.125l5 13.375 2.25 5.975.75 2.075L257.4 50.27a11.175 11.175 0 01-4.75 4.2v4.6c5.1-.75 8.825-4.275 11.2-10.525l11.15-30.1zm-28.5-12.425h-5.775V47.17h5.775z"/></svg>