<svg viewBox="0 0 300 70.232" height="58.527" width="250" xmlns="http://www.w3.org/2000/svg"><defs><clipPath id="a" clipPathUnits="userSpaceOnUse"><path d="M0 640h1425V0H0z"/></clipPath></defs><g clip-path="url(#a)" transform="matrix(.24386 0 0 -.24386 -23.772 113.152)"><path d="M440 320c0-66.274-53.726-120-120-120s-120 53.726-120 120 53.726 120 120 120 120-53.726 120-120" fill="#da552f"/><path d="M336 320h-34v36h34c9.941 0 18-8.059 18-18 0-9.94-8.059-18-18-18m0 60h-58V260h24v36h34c23.196 0 42 18.804 42 42s-18.804 42-42 42" fill="#fff"/><path d="M566.068 334.668c0 6.6-5.075 10.606-11.666 10.606H536.73v-21.092h17.67c6.592 0 11.667 4.006 11.667 10.486M520 280v80h36.753c17.086 0 26.39-11.546 26.39-25.332 0-13.666-9.42-25.212-26.39-25.212H536.73V280zM593.323 280v58.324h14.956v-7.661c4.125 4.95 11.08 9.071 18.15 9.071v-14.606c-1.064.235-2.36.35-4.124.35-4.95 0-11.551-2.825-14.026-6.481V280zM676.757 309.927c0 8.836-5.19 16.496-14.61 16.496-9.316 0-14.497-7.66-14.497-16.496 0-8.956 5.181-16.611 14.496-16.611 9.421 0 14.611 7.655 14.611 16.61m-44.658 0c0 16.142 11.311 29.808 30.047 29.808 18.851 0 30.162-13.666 30.162-29.807S680.998 280 662.146 280c-18.736 0-30.047 13.786-30.047 29.927M742.655 299.796v20.146c-2.475 3.771-7.895 6.481-12.846 6.481-8.595 0-14.486-6.716-14.486-16.496 0-9.896 5.891-16.61 14.486-16.61 4.951 0 10.371 2.71 12.846 6.48m0-19.797v8.72c-4.48-5.655-10.601-8.72-17.556-8.72-14.256 0-25.212 10.84-25.212 29.927 0 18.496 10.726 29.807 25.212 29.807 6.715 0 13.076-2.826 17.556-8.716V360h15.081v-80zM811.028 280v8.601c-3.885-4.241-10.716-8.601-20.022-8.601-12.49 0-18.381 6.835-18.381 17.911v40.413h14.957v-34.523c0-7.895 4.125-10.485 10.485-10.485 5.775 0 10.37 3.18 12.96 6.48v38.528h14.967V280zM837.227 309.927c0 17.436 12.721 29.807 30.162 29.807 11.666 0 18.736-5.065 22.506-10.251l-9.785-9.185c-2.706 4.005-6.83 6.125-12.01 6.125-9.076 0-15.436-6.6-15.436-16.496 0-9.896 6.36-16.611 15.436-16.611 5.18 0 9.305 2.355 12.01 6.245l9.785-9.19c-3.77-5.186-10.84-10.371-22.506-10.371-17.44 0-30.162 12.37-30.162 29.927M902.76 295.67v29.573h-9.42v13.08h9.42v15.552h14.966v-15.551h11.541v-13.081h-11.54v-25.567c0-3.65 1.88-6.36 5.18-6.36 2.235 0 4.364.825 5.18 1.765l3.185-11.426c-2.235-2.005-6.246-3.655-12.49-3.655-10.487 0-16.022 5.42-16.022 15.67M1025.111 280v34.522h-37.117V280h-16.722v80h16.722v-30.867h37.117V360h16.846v-80zM1095.498 280v8.601c-3.885-4.241-10.716-8.601-20.022-8.601-12.49 0-18.38 6.835-18.38 17.911v40.413h14.955v-34.523c0-7.895 4.126-10.485 10.486-10.485 5.775 0 10.371 3.18 12.961 6.48v38.528h14.966V280zM1163.746 280v35.817c0 7.896-4.116 10.606-10.486 10.606-5.89 0-10.36-3.3-12.96-6.6V280h-14.957v58.324h14.957v-7.306c3.655 4.24 10.725 8.716 19.916 8.716 12.605 0 18.611-7.066 18.611-18.141V280zM1196.661 295.67v29.573h-9.42v13.08h9.42v15.552h14.966v-15.551h11.541v-13.081h-11.54v-25.567c0-3.65 1.88-6.36 5.18-6.36 2.235 0 4.364.825 5.19 1.765l3.175-11.426c-2.236-2.005-6.246-3.655-12.49-3.655-10.487 0-16.022 5.42-16.022 15.67" fill="#da552f"/></g></svg>