<svg xmlns="http://www.w3.org/2000/svg" width="200" height="31.643" fill="currentColor" class="w-[160px]" viewBox="0 0 250 39.554"><path d="M70.52 15.181h-6.025v14.332h3.27v-5.15l2.754-.023c2.665 0 4.904-1.791 4.904-4.568 0-2.777-2.24-4.59-4.904-4.59zm-.964 6.74-1.791-.022v-4.254l1.791-.023c1.613 0 2.508.784 2.508 2.15 0 1.366-.895 2.15-2.508 2.15zM83.318 18.899c-1.321 0-2.06.739-2.62 1.657l-.38-1.389h-2.666v10.346h3.046v-4.926c0-1.68.873-3.068 2.418-3.068.38 0 .74.09 1.03.224l.851-2.464s-.671-.38-1.68-.38zM91.283 29.85c3.382 0 5.755-2.33 5.755-5.465 0-3.157-2.373-5.486-5.755-5.486-3.381 0-5.733 2.329-5.733 5.486 0 3.135 2.352 5.464 5.733 5.464zm0-2.576c-1.5 0-2.598-1.21-2.598-2.889 0-1.702 1.098-2.911 2.598-2.911 1.523 0 2.62 1.21 2.62 2.911 0 1.68-1.097 2.889-2.62 2.889zM103.655 16.413c.291 0 .605.067.85.201l.852-2.261c-.627-.336-1.254-.515-2.128-.515-2.105 0-3.717 1.5-3.717 4.434v.895h-1.276v2.307h1.276v8.04h3.046v-8.04h2.06v-2.307h-2.06v-1.276c0-.896.38-1.478 1.097-1.478zm4.568 1.12c.963 0 1.747-.74 1.747-1.68 0-.918-.784-1.68-1.747-1.68-.963 0-1.746.762-1.746 1.68 0 .94.783 1.68 1.746 1.68zm-1.612 11.98h3.023V19.167h-3.023zM112.533 29.513h3.045V14.286h-3.045zM128.516 24.363c0-3.36-2.217-5.464-5.352-5.464-3.247 0-5.576 2.329-5.576 5.486 0 3.135 2.284 5.464 5.957 5.464 1.881 0 3.269-.582 4.277-1.568l-2.038-1.657c-.605.627-1.321.986-2.33.986-1.544 0-2.462-.963-2.686-2.486h7.748zm-5.352-3.247c1.41 0 2.194.94 2.351 2.284h-4.702c.246-1.366 1.052-2.284 2.35-2.284zM136.89 15.181h-6.024v14.332h3.27v-5.15l2.754-.023c2.665 0 4.904-1.791 4.904-4.568 0-2.777-2.239-4.59-4.904-4.59zm-.963 6.74-1.791-.022v-4.254l1.791-.023c1.613 0 2.508.784 2.508 2.15 0 1.366-.895 2.15-2.508 2.15zM145.524 17.533c.963 0 1.747-.74 1.747-1.68 0-.918-.784-1.68-1.747-1.68-.963 0-1.747.762-1.747 1.68 0 .94.784 1.68 1.747 1.68zm-1.501 11.98h3.024V19.167h-3.024zM154.611 29.85c1.59 0 2.732-.426 3.74-1.143l-1.68-2.284c-.493.537-1.209.806-1.903.806-1.59 0-2.62-1.164-2.62-2.844 0-1.702 1.03-2.866 2.62-2.866.694 0 1.41.268 1.903.806l1.702-2.284c-1.03-.717-2.172-1.142-3.762-1.142-3.225 0-5.576 2.329-5.576 5.486 0 3.135 2.351 5.464 5.576 5.464zM165.855 19.167h-2.172v-3h-3.046v3h-1.366v2.307h1.366v8.04h3.046v-8.04h2.172zM172.611 29.782c2.508 0 4.994-1.008 4.994-4.994v-5.62h-3.046V24.9c0 1.41-.627 2.329-1.948 2.329s-1.948-.918-1.948-2.329v-5.733h-3.046v5.621c0 3.986 2.486 4.994 4.994 4.994zM185.947 18.899c-1.321 0-2.06.739-2.62 1.657l-.381-1.389h-2.664v10.346h3.045v-4.926c0-1.68.874-3.068 2.419-3.068.38 0 .739.09 1.03.224l.851-2.464s-.672-.38-1.68-.38zM199.108 24.363c0-3.36-2.217-5.464-5.352-5.464-3.247 0-5.576 2.329-5.576 5.486 0 3.135 2.284 5.464 5.956 5.464 1.881 0 3.27-.582 4.278-1.568l-2.038-1.657c-.605.627-1.321.986-2.329.986-1.545 0-2.463-.963-2.687-2.486h7.748zm-5.352-3.247c1.411 0 2.194.94 2.351 2.284h-4.703c.247-1.366 1.053-2.284 2.352-2.284zM202.451 29.76c.963 0 1.724-.762 1.724-1.68 0-.94-.761-1.702-1.724-1.702s-1.747.761-1.747 1.702c0 .918.784 1.68 1.747 1.68zM216.526 29.513h3.516l-5.643-14.332h-3.359l-5.644 14.332h3.516l1.053-3.023h5.509zm-5.778-5.285 1.971-5.688 1.971 5.688zM225 15.181h-3.269v14.332H225ZM40.939 35.598c-.903 0-1.65-.486-1.65-1.082 0-.597.738-1.085 1.65-1.085.911 0 1.649.486 1.649 1.085s-.738 1.082-1.65 1.082zm4.786-1.082c0-.387-.476-.699-1.064-.699-.59 0-1.063.312-1.063.699 0 .386.476.696 1.063.696.586 0 1.064-.312 1.064-.696zm-9.57 0c0 .384.473.696 1.062.696.589 0 1.062-.312 1.062-.696 0-.384-.476-.699-1.062-.699-.587 0-1.07.312-1.07.699zm-2.017-2.776c-1.609-.87-2.736-2.222-3.273-4.353h-.71c-2.902 0-2.893-7.04 0-7.04h.805a9.24 9.24 0 0 1 2.463-4.405l.284-4.73c.106-1.763 1.613-1.763 1.719 0l.192 3.198c1.506-.737 3.297-1.11 5.325-1.11 5.116 0 8.764 2.341 9.984 7.047h.8c2.901 0 2.892 7.04 0 7.04h-.71c-.537 2.131-1.667 3.485-3.275 4.355a16.71 16.71 0 0 1 3.4 1.938 1.25 1.25 0 0 0 1.373.076l3.097-1.79a2.555 2.555 0 0 0 1.274-2.212V14.258a2.561 2.561 0 0 0-1.274-2.212L42.218 4.298a2.544 2.544 0 0 0-2.55 0l-13.391 7.748A2.554 2.554 0 0 0 25 14.258v15.496a2.56 2.56 0 0 0 1.277 2.212l3.092 1.79a1.257 1.257 0 0 0 1.374-.076 16.612 16.612 0 0 1 3.395-1.94zm14.529-8.136c0 6.371-1.877 6.507-7.728 6.507s-7.728-.136-7.728-6.507c0-3.248 1.877-6.505 7.728-6.505s7.728 3.248 7.728 6.496zm-12.553-3.266c-1.128 1.033-.812 4.138 1.804 1.731 1.13-1.044.817-4.15-1.804-1.74z"/></svg>