<svg xmlns="http://www.w3.org/2000/svg" width="250" height="39.554" fill="currentColor" class="w-[160px]" viewBox="0 0 312.5 49.442"><path d="M88.149 18.977h-7.53V36.89h4.087v-6.438l3.443-.028c3.33 0 6.13-2.239 6.13-5.71s-2.8-5.738-6.13-5.738zm-1.204 8.425-2.24-.028v-5.318l2.24-.028c2.016 0 3.135.98 3.135 2.687 0 1.707-1.12 2.687-3.135 2.687zM104.147 23.623c-1.651 0-2.575.924-3.275 2.072l-.476-1.736h-3.33v12.932h3.806v-6.158c0-2.1 1.092-3.835 3.023-3.835.476 0 .924.112 1.288.28l1.064-3.079s-.84-.476-2.1-.476zM114.104 37.311c4.227 0 7.194-2.91 7.194-6.83 0-3.947-2.967-6.858-7.194-6.858s-7.166 2.911-7.166 6.858c0 3.92 2.939 6.83 7.166 6.83zm0-3.219c-1.876 0-3.247-1.511-3.247-3.61 0-2.128 1.371-3.64 3.247-3.64 1.903 0 3.275 1.512 3.275 3.64 0 2.099-1.372 3.61-3.275 3.61zM129.569 20.516c.364 0 .755.084 1.063.252l1.064-2.827c-.784-.42-1.567-.644-2.66-.644-2.63 0-4.646 1.876-4.646 5.543v1.12h-1.595v2.882h1.595v10.05h3.807v-10.05h2.575V23.96h-2.575v-1.595c0-1.12.476-1.848 1.372-1.848zm5.71 1.4c1.204 0 2.183-.924 2.183-2.1 0-1.147-.98-2.099-2.183-2.099-1.204 0-2.183.952-2.183 2.1 0 1.175.98 2.099 2.183 2.099zm-2.016 14.975h3.78V23.96h-3.78zM140.666 36.891h3.807V17.857h-3.807zM160.645 30.453c0-4.198-2.771-6.83-6.69-6.83-4.059 0-6.97 2.911-6.97 6.858 0 3.92 2.855 6.83 7.446 6.83 2.352 0 4.087-.727 5.347-1.96l-2.548-2.07c-.756.783-1.652 1.231-2.911 1.231-1.932 0-3.08-1.204-3.36-3.107h9.686zm-6.69-4.059c1.763 0 2.743 1.176 2.939 2.856h-5.878c.308-1.708 1.315-2.856 2.939-2.856zM171.113 18.977h-7.53V36.89h4.087v-6.438l3.443-.028c3.33 0 6.13-2.239 6.13-5.71s-2.8-5.738-6.13-5.738zm-1.204 8.425-2.239-.028v-5.318l2.239-.028c2.016 0 3.135.98 3.135 2.687 0 1.707-1.119 2.687-3.135 2.687zM181.905 21.916c1.204 0 2.184-.924 2.184-2.1 0-1.147-.98-2.099-2.184-2.099-1.204 0-2.184.952-2.184 2.1 0 1.175.98 2.099 2.184 2.099zm-1.876 14.975h3.78V23.96h-3.78zM193.264 37.311c1.987 0 3.415-.532 4.675-1.427l-2.1-2.855c-.616.671-1.511 1.007-2.379 1.007-1.988 0-3.275-1.455-3.275-3.555 0-2.127 1.288-3.583 3.275-3.583.867 0 1.762.336 2.379 1.008l2.127-2.855c-1.287-.896-2.715-1.428-4.702-1.428-4.031 0-6.97 2.911-6.97 6.858 0 3.92 2.939 6.83 6.97 6.83zM207.319 23.96h-2.715v-3.752h-3.808v3.751h-1.707v2.883h1.707v10.05h3.808v-10.05h2.715zM215.764 37.227c3.135 0 6.242-1.26 6.242-6.242V23.96H218.2v7.166c0 1.764-.784 2.911-2.435 2.911-1.652 0-2.435-1.147-2.435-2.91v-7.167h-3.808v7.026c0 4.983 3.108 6.242 6.243 6.242zM232.434 23.623c-1.651 0-2.575.924-3.275 2.072l-.476-1.736h-3.33v12.932h3.806v-6.158c0-2.1 1.092-3.835 3.024-3.835.475 0 .923.112 1.287.28l1.064-3.079s-.84-.476-2.1-.476zM248.885 30.453c0-4.198-2.771-6.83-6.69-6.83-4.059 0-6.97 2.911-6.97 6.858 0 3.92 2.855 6.83 7.445 6.83 2.351 0 4.088-.727 5.347-1.96l-2.547-2.07c-.756.783-1.651 1.231-2.911 1.231-1.932 0-3.079-1.204-3.359-3.107h9.685zm-6.69-4.059c1.764 0 2.742 1.176 2.939 2.856h-5.879c.309-1.708 1.316-2.856 2.94-2.856zM253.064 37.2c1.204 0 2.155-.952 2.155-2.1a2.132 2.132 0 0 0-2.155-2.127c-1.204 0-2.184.951-2.184 2.127 0 1.148.98 2.1 2.184 2.1zM270.658 36.891h4.395l-7.054-17.914H263.8l-7.055 17.914h4.395l1.316-3.778h6.886zm-7.223-6.606 2.464-7.11 2.464 7.11zM281.25 18.977h-4.086V36.89h4.086ZM51.173 44.498c-1.128 0-2.06-.607-2.06-1.353s.921-1.357 2.06-1.357c1.14 0 2.061.608 2.061 1.357 0 .748-.922 1.353-2.06 1.353zm5.983-1.353c0-.483-.594-.873-1.33-.873-.736 0-1.328.39-1.328.873s.595.87 1.328.87c.733 0 1.33-.39 1.33-.87zm-11.963 0c0 .48.592.87 1.328.87.736 0 1.328-.39 1.328-.87s-.595-.873-1.328-.873c-.733 0-1.337.39-1.337.873zm-2.52-3.47c-2.011-1.087-3.421-2.777-4.092-5.44h-.888c-3.626 0-3.615-8.801 0-8.801h1.006a11.55 11.55 0 0 1 3.08-5.506l.355-5.913c.132-2.204 2.016-2.204 2.148 0l.24 3.997c1.883-.92 4.122-1.387 6.657-1.387 6.395 0 10.954 2.927 12.48 8.809h1c3.626 0 3.615 8.8 0 8.8h-.888c-.67 2.664-2.083 4.356-4.094 5.444a20.886 20.886 0 0 1 4.25 2.421 1.561 1.561 0 0 0 1.717.096l3.87-2.237a3.193 3.193 0 0 0 1.594-2.766v-19.37a3.201 3.201 0 0 0-1.593-2.765L52.772 5.372a3.18 3.18 0 0 0-3.186 0l-16.74 9.685a3.193 3.193 0 0 0-1.596 2.766v19.369a3.2 3.2 0 0 0 1.596 2.766l3.866 2.237a1.572 1.572 0 0 0 1.717-.096 20.765 20.765 0 0 1 4.243-2.424zm18.16-10.17c0 7.964-2.345 8.133-9.66 8.133-7.314 0-9.66-.17-9.66-8.133 0-4.06 2.346-8.131 9.66-8.131s9.66 4.06 9.66 8.12zm-15.69-4.083c-1.41 1.292-1.016 5.173 2.255 2.165 1.412-1.306 1.02-5.187-2.256-2.176z"/></svg>