<svg xmlns="http://www.w3.org/2000/svg" xmlns:xlink="http://www.w3.org/1999/xlink" id="Layer_1" version="1.1" viewBox="0 0 277.778 92.998"><defs id="defs2"><style id="style1">.cls-1{fill:url(#linear-gradient);}.cls-2{fill:#fff;}.cls-3{fill:#302e2e;}.cls-4{fill:#4529cb;}.cls-5{fill:url(#linear-gradient-3);}.cls-6{fill:url(#linear-gradient-4);}.cls-7{fill:url(#linear-gradient-2);}</style><linearGradient id="linear-gradient" x1="65.54" x2="65.54" y1="88.15" y2="8.64" gradientUnits="userSpaceOnUse"><stop id="stop1" offset="0" stop-color="#0077e8"/><stop id="stop2" offset="1" stop-color="#6b00a9"/></linearGradient><linearGradient id="linear-gradient-2" x1="47.89" x2="47.89" y1="56.9" y2="49.72" xlink:href="#linear-gradient"/><linearGradient id="linear-gradient-3" x1="65.54" x2="65.54" y1="64.57" y2="55.84" xlink:href="#linear-gradient"/><linearGradient id="linear-gradient-4" x1="82.86" x2="82.86" y1="56.9" y2="49.72" xlink:href="#linear-gradient"/><linearGradient id="linearGradient34" x1="65.54" x2="65.54" y1="88.15" y2="8.64" gradientUnits="userSpaceOnUse" xlink:href="#linear-gradient"/></defs><g id="g34" transform="translate(8.489 -1.891)"><path id="path2" d="M153.08 76.57c-.3-1.06-.75-2.12-1.34-3.02-1.49-2.11-3.88-3.17-6.41-2.87h-4.03V60.41h-5.82v27.34h9.7c1.34 0 2.83-.3 4.03-.91l.6-1.36 3.28-8.91zm-6.27 4.83c-.75.6-1.79.91-2.83.91h-2.69v-6.34h2.69c1.04-.15 2.09.15 2.98.91.45.6.75 1.51.75 2.27 0 .91-.3 1.66-.89 2.27z" class="cls-3"/><path id="path3" d="M164.87 79.9c0 .76-.15 1.66-.75 2.27-.6.6-1.34.76-2.09.76-.75 0-1.64-.3-2.24-.76-.6-.6-.75-1.51-.75-2.27v-9.37l-5.07 13.44c.15.45.45.76.75 1.21 1.49 1.66 3.88 2.57 7.31 2.57 1.49 0 2.98-.15 4.33-.6 2.69-.75 4.47-3.32 4.33-6.04V70.69h-5.82z" class="cls-3"/><path id="path4" d="M180.53 64.19c0 1.81-1.34 3.17-3.13 3.32h-.15c-.9 0-1.64-.3-2.24-.91-.6-.6-.9-1.51-.9-2.42 0-1.81 1.49-3.17 3.28-3.17.9 0 1.64.3 2.24.91.6.6.89 1.51.89 2.27zm-.3 23.56h-5.67V70.53h5.67z" class="cls-3"/><path id="path5" d="M189.78 87.75h-5.82V60.41h5.82z" class="cls-3"/><path id="path6" d="M193.51 79.29c-.15-1.96.45-4.08 1.64-5.74 1.49-2.11 3.88-3.17 6.41-2.87h4.03V60.41h5.82v27.34h-9.7c-2.39.15-4.62-.76-6.27-2.72-1.34-1.51-2.09-3.63-1.94-5.74zm5.82-.15c0 .91.3 1.66.89 2.27.75.6 1.79.91 2.83.91h2.54v-6.34h-2.69c-1.04-.15-2.09.15-2.98.91-.45.6-.75 1.51-.6 2.27z" class="cls-3"/><path id="path7" d="M233.05 79.9h-12.08c0 2.42 1.19 3.78 3.58 3.78 1.19 0 2.24-.6 2.69-1.51h5.52c-.3 1.36-1.04 2.57-1.94 3.47a9.717 9.717 0 0 1-6.27 2.27c-2.83.15-5.67-.91-7.46-3.02-1.34-1.51-1.94-3.63-1.94-5.59a8.24 8.24 0 0 1 2.39-6.34 9.047 9.047 0 0 1 6.71-2.42c2.98-.3 5.97 1.21 7.61 3.93.89 1.51 1.34 3.32 1.34 5.14l-.15.3zm-5.37-3.32c-.15-1.66-1.64-2.87-3.28-2.72-.89 0-1.79.3-2.39.91-.45.45-.89 1.21-.89 1.96h6.56z" class="cls-3"/><path id="path8" d="M249.01 75.97c-.75-.3-1.64-.6-2.39-.6-1.64-.15-3.13.76-3.73 2.42-.3.76-.3 1.51-.3 2.27v7.1h-5.82V70.54h5.82v2.72c.45-.91 1.19-1.51 1.94-2.11 1.04-.6 2.24-.91 3.28-.91h1.04l.15 5.74z" class="cls-3"/><path id="path9" d="m232.6 9.2-5.97 15.86 4.18 12.39h-8.8l-3.43 8.91h15.37l2.83 7.85h12.38z" class="cls-3"/><path id="path10" d="m214.4 9.2-11.34 29-8.65-29h-9.25l-9.4 29-4.47-11.93-6.27 16.46 4.18 11.48h11.79l8.5-25.98 8.06 25.98h11.79L226.5 9.2h-12.08z" class="cls-3"/><path id="path11" d="M165.76 13.89c-2.69-3.02-6.71-4.68-11.93-4.68h-18.35v45.01h11.49V39.27h7.16c2.09 0 4.33-.3 6.41-.91l7.76-20.24c-.6-1.66-1.49-3.02-2.54-4.23zm-9.7 14.35c-.9 1.06-2.69 1.66-5.22 1.66h-3.88V18.57h3.88c1.79-.15 3.58.3 4.92 1.51 1.04 1.06 1.49 2.57 1.49 3.93.15 1.51-.3 3.02-1.19 4.23z" class="cls-3"/><path id="path12" fill="url(#linearGradient34)" d="M119.44 45.09V56.4c0 1.36-1.11 2.46-2.46 2.46h-3.08c-.05 0-.09 0-.15-.01-.43 11.15-4.67 21.35-11.44 29.3-.05-10.61.59-26.3.59-26.3 0-3.28-.7-6.24-1.95-8.89a5.743 5.743 0 0 0 2.24-4.58c0-3.23-2.61-5.83-5.83-5.83-1.46 0-2.79.53-3.81 1.42-8.05-6.29-19.67-9.2-28.18-9.2-8.51 0-19.99 2.88-28.04 9.1a5.805 5.805 0 0 0-3.7-1.32c-3.23 0-5.83 2.61-5.83 5.83 0 1.79.8 3.38 2.07 4.45-1.29 2.69-2.02 5.69-2.02 9.02 0 0 .63 15.3.59 25.9-6.58-7.89-10.69-17.94-11.11-28.9-.05.01-.09.01-.15.01H14.1c-1.36 0-2.46-1.11-2.46-2.46V45.09c0-1.37 1.11-2.46 2.46-2.46h3.08c.8 0 1.51.38 1.96.99C24.92 23.41 43.5 8.64 65.54 8.64s40.62 14.77 46.39 34.97a2.42 2.42 0 0 1 1.96-.99h3.08c1.36 0 2.46 1.09 2.46 2.46z" class="cls-1"/><g id="g33"><path id="path13" fill="url(#linear-gradient-2)" d="M51.48 53.31a3.585 3.585 0 1 1-3.59-3.58c1.97 0 3.59 1.61 3.59 3.58z" class="cls-7"/><path id="path14" fill="url(#linear-gradient-3)" d="M74.69 60.1c-4.11-.16-4.11.29-4.11 3.08-1.54 1.25-4.12 1.38-4.12 1.38H64.6s-2.57-.13-4.12-1.38c0-2.79 0-3.24-4.1-3.08.49-4.77 8.22-4.24 8.22-4.24h1.86s7.74-.53 8.23 4.24z" class="cls-5"/><path id="path15" fill="url(#linear-gradient-4)" d="M86.45 53.31a3.585 3.585 0 1 1-3.59-3.58c1.97 0 3.59 1.61 3.59 3.58z" class="cls-6"/><path id="path16" d="M51.48 53.31a3.585 3.585 0 1 1-3.59-3.58c1.97 0 3.59 1.61 3.59 3.58z" class="cls-2"/><path id="path17" d="M65.49 74.64h-.25c-1 0-5.88-.1-7.68-1.91-.48-.49-.72-1.06-.71-1.71v-.42l.39-.17c5.48-2.42 6.92-3.16 7.1-5.91l.04-.61h1.97l.04.61c.2 2.75 1.64 3.5 7.11 5.91l.39.17v.42c.02.64-.22 1.22-.71 1.71-1.8 1.82-6.69 1.91-7.69 1.91zm-7.26-3.21c.05.13.14.25.26.37 1.28 1.29 5.42 1.53 6.87 1.52 1.5 0 5.61-.23 6.89-1.53.12-.12.2-.24.26-.37-4.11-1.81-6.36-2.88-7.14-5.25-.77 2.36-3.02 3.43-7.13 5.25z" class="cls-3"/><path id="path18" d="M74.69 60.1c-4.11-.16-4.11.29-4.11 3.08-1.54 1.25-4.12 1.38-4.12 1.38H64.6s-2.57-.13-4.12-1.38c0-2.79 0-3.24-4.1-3.08.49-4.77 8.22-4.24 8.22-4.24h1.86s7.74-.53 8.23 4.24z" class="cls-2"/><path id="path19" d="M86.45 53.31a3.585 3.585 0 1 1-3.59-3.58c1.97 0 3.59 1.61 3.59 3.58z" class="cls-2"/><path id="path20" d="M51.48 53.31a3.585 3.585 0 1 1-3.59-3.58c1.97 0 3.59 1.61 3.59 3.58z" class="cls-3"/><path id="path21" d="M86.45 53.31a3.585 3.585 0 1 1-3.59-3.58c1.97 0 3.59 1.61 3.59 3.58z" class="cls-3"/><path id="path22" d="M30.97 67.77a.5.5 0 0 1-.49-.5c0-.31 0-.89 6.79-3.83 6.49-2.82 18-3.89 18.48-3.93.29-.05.51.18.54.45.03.27-.17.51-.45.54-.12.01-11.84 1.1-18.18 3.85-5.2 2.26-6.11 3.02-6.25 3.16-.08.16-.25.26-.44.26z" class="cls-3"/><path id="path23" d="M32.11 71.66c-.08 0-.15-.02-.22-.06a.485.485 0 0 1-.22-.65c.11-.21 1.22-2.16 7.68-4.98 6.47-2.81 16.1-4.46 16.19-4.47.28-.03.52.14.57.41.05.27-.14.52-.41.57-.1.02-9.61 1.64-15.96 4.4-6.13 2.67-7.18 4.5-7.19 4.52a.49.49 0 0 1-.44.26z" class="cls-3"/><path id="path24" d="M36.17 73.94a.493.493 0 0 1-.4-.79c4.06-5.43 18.08-9.02 18.67-9.17a.495.495 0 0 1 .24.96c-.14.04-14.28 3.66-18.12 8.81-.1.13-.25.2-.4.2z" class="cls-3"/><path id="path25" d="M100.1 67.77c-.19 0-.35-.11-.44-.26-.14-.14-1.05-.9-6.25-3.16-6.34-2.76-18.06-3.84-18.18-3.85a.496.496 0 0 1-.45-.54c.02-.27.25-.49.54-.45.49.04 12 1.11 18.48 3.93 6.78 2.95 6.79 3.52 6.79 3.83a.5.5 0 0 1-.49.5z" class="cls-3"/><path id="path26" d="M98.97 71.67c-.18 0-.35-.1-.44-.27-.03-.05-1.12-1.87-7.19-4.52-6.36-2.76-15.87-4.39-15.96-4.4a.504.504 0 0 1-.41-.57c.04-.27.29-.45.57-.41.1.02 9.72 1.66 16.19 4.47 6.47 2.81 7.58 4.76 7.68 4.98.12.24.02.54-.22.66-.07.03-.15.05-.22.05z" class="cls-3"/><path id="path27" d="M94.91 73.94c-.15 0-.3-.07-.4-.2-3.85-5.15-17.98-8.77-18.12-8.81a.503.503 0 0 1-.36-.6c.07-.26.33-.42.6-.36.6.15 14.62 3.74 18.67 9.17a.493.493 0 0 1-.4.79z" class="cls-3"/><path id="path28" d="M74.69 60.1c-4.11-.16-4.11.29-4.11 3.08-1.54 1.25-4.12 1.38-4.12 1.38H64.6s-2.57-.13-4.12-1.38c0-2.79 0-3.24-4.1-3.08.49-4.77 8.22-4.24 8.22-4.24h1.86s7.74-.53 8.23 4.24z" class="cls-3"/><g id="g30"><path id="path29" d="M54.91 72c-1.39 0-2.52-.32-3.36-.95-1.3-.98-1.4-2.36-1.4-2.42a.66.66 0 0 1 .62-.7c.39-.04.67.25.7.61 0 .05.09.87.91 1.47 1 .74 2.73.87 5 .37.36-.08.71.15.78.5.07.35-.15.71-.5.78-1 .22-1.92.33-2.74.33z" class="cls-3"/><path id="path30" d="M65 65.22h-.07a.656.656 0 0 1-.58-.73c.02-.21.04-.44.04-.68 0-.36.29-.66.66-.66.37 0 .66.29.66.66 0 .29-.02.56-.04.82-.04.34-.32.59-.65.59z" class="cls-3"/></g><g id="g32"><path id="path31" d="M75.83 72c-.82 0-1.73-.11-2.73-.33a.659.659 0 0 1-.5-.78c.08-.35.43-.58.78-.5 2.27.5 4.01.37 5.01-.39.81-.61.88-1.44.88-1.45a.661.661 0 1 1 1.32.08c0 .06-.1 1.44-1.4 2.42-.84.63-1.96.95-3.35.95z" class="cls-3"/><path id="path32" d="M65.74 65.22c-.35 0-.64-.27-.66-.62-.01-.25-.03-.51-.03-.79 0-.36.29-.66.66-.66.37 0 .66.29.66.66 0 .25.01.49.02.71.02.36-.26.67-.62.69h-.04z" class="cls-3"/></g></g><path id="path33" d="M117.91 10.76c0 .92-.59 1.7-1.41 1.99v30.54h-1.42V12.74a2.112 2.112 0 0 1-1.41-1.99 2.121 2.121 0 0 1 4.24 0z" class="cls-4"/></g></svg>