<svg xmlns="http://www.w3.org/2000/svg" width="250" height="70.588" fill="currentColor" class="footer-logo footer-logo" viewBox="0 0 312.5 88.235"><path d="M159.496 76.738h9.47V49.999c0-6.417 4.6-11.497 10.552-11.497S190.61 43.315 190.61 50v26.739h10.281V49.465c0-11.498-9.47-20.321-19.75-20.321-3.789 0-8.659 1.337-12.176 6.15v-5.08h-9.47zM256.358 29.144c-13.799 0-24.621 10.962-24.621 24.599 0 13.903 10.552 24.064 24.621 24.064 14.07 0 24.892-10.16 24.892-24.064 0-13.637-10.552-24.6-24.892-24.6zm0 39.037c-7.846 0-14.07-6.417-14.07-14.438 0-8.556 6.494-14.706 14.07-14.706 8.117 0 14.61 6.15 14.61 14.706 0 8.021-6.222 14.438-14.61 14.438zM230.114 76.737v-9.893c-7.035 3.476-13.799.802-13.799-6.951V39.572h12.717v-9.359h-12.717V18.181h-10.01v40.107c0 16.578 11.363 22.193 23.809 18.45zM129.193 29.144c-13.798 0-24.62 10.962-24.62 24.599 0 13.903 10.551 24.064 24.62 24.064 14.07 0 24.892-10.16 24.892-24.064 0-13.637-10.552-24.6-24.892-24.6zm0 39.037c-7.846 0-14.069-6.417-14.069-14.438 0-8.556 6.223-14.706 14.07-14.706 8.116 0 14.61 6.15 14.61 14.706 0 8.021-6.494 14.438-14.61 14.438zM65.611 8.824c-19.48 0-34.361 14.705-34.361 34.759 0 19.251 14.881 34.492 34.361 34.492 20.022 0 34.903-15.241 34.903-34.225 0-20.32-14.88-35.026-34.903-35.026Zm0 58.823c-13.528 0-23.539-10.16-23.539-24.064 0-14.439 10.011-25.134 23.54-25.134 13.798 0 23.809 10.695 23.809 24.867 0 14.17-10.01 24.331-23.81 24.331z"/><path d="M98.89 79.412c-19.48-2.14-31.926-11.765-38.149-29.947l9.74-3.208c4.87 14.438 14.07 21.657 29.492 23.262z"/></svg>