<svg xmlns="http://www.w3.org/2000/svg" xmlns:xlink="http://www.w3.org/1999/xlink" class="global-hero__logo-svg" version="1.1" viewBox="0 0 148.61 19.33"><defs><g id="a"><path d="M25.24 5.421c0 2.378-1.456 4.088-4.223 4.627l4.445 5.664h-5.229l-3.931-5.476H4.436v5.476H0V.288h18.905c4.153 0 6.336 2.023 6.336 5.133zM4.437 6.784h14.425c1.098 0 1.904-.43 1.904-1.367 0-.936-.806-1.38-1.904-1.38H4.436zM42.309 15.707h-12.77V.288h12.765v3.725h-8.328v2.04h7.748v3.723h-7.748v2.216h8.332z"/><path fill="#000" d="M58.438 5.057c-1.072-.572-2.697-1.287-4.716-1.287-1.19 0-2.098.31-2.098 1.003 0 .87 1.669.957 3.338 1.267l.527.1c3.374.619 5.087 2.148 5.087 4.518 0 3.9-3.489 5.342-6.969 5.342-2.93 0-5.587-.66-7.455-1.919l2.169-3.414c1.297.74 2.86 1.588 5.344 1.588 1.19 0 2.067-.31 2.067-1.07 0-.803-1.014-.949-3.046-1.279l-.62-.1c-3.758-.606-5.321-2.136-5.237-4.87.08-2.95 2.705-4.923 6.628-4.923 2.134 0 4.06.209 6.898 1.617z"/><path d="M69.205 5.994h11.857V.288h4.436v15.424h-4.436V9.839H69.205v5.873H64.77V.288h4.436zM106.843 7.996c0 4.606-3.582 8-8.634 8-5.052 0-8.633-3.394-8.633-8S93.153 0 98.209 0c5.052 0 8.634 3.394 8.634 7.996zm-12.663 0c0 2.357 1.647 3.987 4.025 3.987 2.382 0 4.024-1.63 4.024-3.987 0-2.358-1.647-3.988-4.024-3.988-2.378 0-4.025 1.63-4.025 3.988zM123.007 4.142h-4.644v11.565h-4.437V4.142h-4.644V.288h13.725z"/></g></defs><use transform="translate(12.801 1.665)" xlink:href="#a"/></svg>