<svg viewBox="0 0 300 37.997" width="250" height="31.664" xmlns="http://www.w3.org/2000/svg"><g fill="currentColor"><path d="M127.539 7.76a8.921 8.921 0 00-3.832-.972h-5.17a2.797 2.797 0 00-2.681 2.343l-2.702 19.013c-.1.632.082 1.276.5 1.762.418.476 1.027.742 1.662.727a2.818 2.818 0 002.713-2.344l.74-5.243h2.41l3.118 6.423a2.182 2.182 0 001.97 1.164c.45-.002.89-.126 1.276-.358a2.759 2.759 0 001.384-1.99 2.276 2.276 0 00-.196-1.3l-2.493-5.16a9.072 9.072 0 003.042-2.938 10.635 10.635 0 001.517-3.927c.478-3.265-.682-5.829-3.258-7.2zm-1.58 7.063a5.263 5.263 0 01-.773 1.858c-.69 1.038-1.662 1.495-3.096 1.495h-2.647l.922-6.54h2.801a4.157 4.157 0 011.704.416c.948.523 1.289 1.371 1.08 2.771zm23.603-8.052a2.797 2.797 0 00-2.681 2.343l-1.746 12.357c0 .042-.83 4.305-4.418 4.305a2.847 2.847 0 01-2.26-.902c-.936-1.08-.906-2.846-.832-3.257l1.746-12.349a2.177 2.177 0 00-.499-1.761 2.145 2.145 0 00-1.662-.728 2.797 2.797 0 00-2.68 2.344l-1.746 12.34a10.758 10.758 0 00.386 4.37c1.01 3.092 3.5 4.795 7.024 4.795a9.33 9.33 0 008.212-4.686 12.172 12.172 0 001.567-4.338l1.746-12.348a2.177 2.177 0 00-.5-1.762 2.145 2.145 0 00-1.653-.731zm21.757 0a2.784 2.784 0 00-2.71 2.343l-1.621 11.447-7.086-12.697a2.128 2.128 0 00-1.879-1.089 2.784 2.784 0 00-2.71 2.344l-2.684 19.029c-.101.632.081 1.276.499 1.762.419.476 1.027.742 1.662.727a2.818 2.818 0 002.71-2.344l1.62-11.442 7.087 12.706a2.128 2.128 0 001.911 1.088 2.797 2.797 0 002.677-2.343l2.685-19.03a2.177 2.177 0 00-.499-1.761 2.145 2.145 0 00-1.662-.732zm22.725 1.438a11.1 11.1 0 00-5.51-1.438c-6.543 0-12.619 5.318-13.541 11.858-.5 3.05.367 6.164 2.369 8.518a10.337 10.337 0 007.95 3.49 13.41 13.41 0 005.881-1.434c1.247-.648 1.845-2.077 1.388-3.228a2.111 2.111 0 00-1.205-1.184 2.565 2.565 0 00-2.024.137 7.483 7.483 0 01-3.504.831 6.019 6.019 0 01-4.634-2.015 6.136 6.136 0 01-1.371-4.986c.56-3.935 4.214-7.138 8.146-7.138a6.036 6.036 0 013.208.83h.025a2.66 2.66 0 003.408-.946 2.492 2.492 0 00.416-1.924 2.169 2.169 0 00-1.006-1.371zm12.423 17.558h-6.056l2.328-16.503a2.177 2.177 0 00-.5-1.762 2.145 2.145 0 00-1.662-.727 2.784 2.784 0 00-2.701 2.344l-2.689 19.029a2.135 2.135 0 002.178 2.493h8.54a2.818 2.818 0 002.71-2.343 2.16 2.16 0 00-2.173-2.522zm16.832-18.996c-6.276 0-12.128 5.318-13.05 11.858-.466 3.324.374 6.399 2.369 8.696a9.714 9.714 0 007.48 3.324c6.293 0 12.161-5.318 13.084-11.862.465-3.303-.374-6.386-2.37-8.684a9.751 9.751 0 00-7.513-3.336zm-2.681 18.996a5.404 5.404 0 01-4.156-1.84 6.439 6.439 0 01-1.372-5.144c.561-3.935 3.99-7.138 7.66-7.138a5.437 5.437 0 014.181 1.849 6.34 6.34 0 011.372 5.135c-.549 3.935-3.99 7.138-7.68 7.138zm31.628-18.996a2.797 2.797 0 00-2.68 2.343l-1.746 12.357c0 .042-.832 4.305-4.414 4.305a2.847 2.847 0 01-2.261-.902c-.931-1.08-.902-2.846-.831-3.257l1.745-12.349a2.177 2.177 0 00-.499-1.761 2.145 2.145 0 00-1.662-.728 2.797 2.797 0 00-2.676 2.344l-1.746 12.34a10.758 10.758 0 00.382 4.37c1.006 3.092 3.491 4.795 7.016 4.795a9.33 9.33 0 008.216-4.686 12.172 12.172 0 001.567-4.338l1.746-12.348a2.177 2.177 0 00-.499-1.762 2.145 2.145 0 00-1.654-.731zm13.985 0h-5.557a2.797 2.797 0 00-2.68 2.343l-2.685 19.03c-.103.63.076 1.275.49 1.762.42.476 1.028.742 1.663.727h5.544c.415 0 10.157-.137 11.803-11.858.553-3.894-.096-6.94-1.933-9.058-2.485-2.859-6.221-2.942-6.65-2.942zm.22 18.09a6.368 6.368 0 01-2.91.906h-3.008l1.995-14.126h3.158a5.167 5.167 0 012.494.83c1.613 1.073 2.215 3.146 1.787 6.166-.428 3.021-1.612 5.111-3.52 6.224zM86.35 14.021h-.023a1.669 1.669 0 100 3.338h.023a1.669 1.669 0 000-3.334zm3.21-5.01a1.669 1.669 0 01-1.67 1.673h-5.815a1.669 1.669 0 110-3.337h5.816c.918 0 1.665.742 1.669 1.66zm5.702 5.014H93.2a1.67 1.67 0 100 3.337h2.07a1.67 1.67 0 100-3.34zm.166 8.343a1.668 1.668 0 01-1.669 1.669H76.112a1.67 1.67 0 100 3.341H88.25a1.67 1.67 0 110 3.337h-7.401c-.185.27-.384.53-.597.778a9.593 9.593 0 01-6.22 3.337H33.247a8.193 8.193 0 01-.4-16.377 10.72 10.72 0 0115.52-9.578 14.653 14.653 0 0121.877-1.51h5.26a1.67 1.67 0 110 3.338h-5.377a1.67 1.67 0 100 3.333h9.637a1.669 1.669 0 110 3.338h-7.93a1.67 1.67 0 100 3.34h21.902a1.669 1.669 0 011.685 1.647z"/></g></svg>