<svg xmlns="http://www.w3.org/2000/svg" fill="none" version="1.1" viewBox="0 0 192.308 53.846"><path fill="#1d85ed" fill-opacity="1" d="M31.43 24.575c-2.683-1.085-3.558-1.726-3.558-2.969 0-1.207 1.003-2.13 2.893-2.13 1.762 0 3.395.643 4.399 1.168l1.172-4.177c-1.342-.683-3.395-1.243-5.78-1.243-5.198 0-8.547 3.051-8.547 7.065 0 2.45 1.593 4.818 5.95 6.504 2.555 1.044 3.355 1.767 3.355 3.132 0 1.365-1.05 2.252-3.226 2.252-1.925 0-4.23-.805-5.449-1.488l-1.172 4.3c1.552.88 4.02 1.487 6.574 1.487 5.822 0 9.176-2.812 9.176-7.064-.006-3.103-1.85-5.268-5.787-6.837zm17.769-9.35c-6.831 0-10.681 5.541-10.681 11.964 0 6.947 4.106 11.281 11.31 11.281 2.894 0 5.612-.484 7.543-1.283l-.88-4.095c-1.593.519-3.396.922-5.7.922-3.348 0-6.2-1.529-6.37-5.344H58.37c.128-.641.169-1.487.169-2.368 0-7.228-3.681-11.078-9.34-11.078zm-4.778 9.31c.17-2.211 1.423-5.18 4.398-5.18 3.057 0 4.02 2.852 3.979 5.18zm26.693-9.31c-6.323 0-11.06 4.258-11.06 11.765 0 7.269 4.527 11.521 10.81 11.521 5.191 0 10.89-3.29 10.89-11.807 0-6.784-4.106-11.48-10.64-11.48zm-.169 18.905c-3.016 0-4.608-3.29-4.608-7.268 0-3.413 1.213-7.268 4.65-7.268 3.184 0 4.48 3.733 4.48 7.227.005 3.978-1.588 7.31-4.522 7.31zm25.772-18.906c-2.975 0-5.15 1.202-6.493 3.174h-.081V5.786h-6.201v25.853c0 2.287-.082 4.819-.17 6.423h5.28l.292-3.092h.122c1.464 2.532 3.687 3.535 6.283 3.535 4.818 0 9.549-3.937 9.549-12.046.006-6.661-3.43-11.235-8.581-11.235zM94.325 33.77c-2.473 0-4.188-2.089-4.188-4.615V24.78c0-2.893 2.053-4.818 4.188-4.818 3.185 0 4.737 2.97 4.737 6.784 0 4.334-1.72 7.024-4.737 7.024zM110.46 6.428c-1.925 0-3.307 1.324-3.307 3.173 0 1.808 1.341 3.173 3.307 3.173 1.925 0 3.354-1.242 3.354-3.173 0-1.85-1.341-3.173-3.354-3.173zm-3.056 31.64h6.2V15.703h-6.2zm9.683 0h6.2V5.786h-6.2zm12.734-31.64c-1.925 0-3.307 1.324-3.307 3.173 0 1.808 1.342 3.173 3.307 3.173 1.925 0 3.349-1.242 3.349-3.173.006-1.85-1.336-3.173-3.35-3.173zm-3.056 31.64h6.2V15.703h-6.2zm16.8-28.187-6.114 1.727v4.095h-3.056v4.375h3.056v10.319c0 2.49.129 8.073 6.825 8.073 1.803 0 3.308-.204 4.148-.525l-.082-4.538a9.254 9.254 0 0 1-2.012.198c-1.884 0-2.765-1.126-2.765-3.815v-9.712h5.15v-4.375h-5.15zm20.825 5.822-2.934 11.684c-.333 1.406-.712 2.969-.963 4.177h-.128a116.666 116.666 0 0 0-1.091-4.177l-3.436-11.684h-6.784l7.834 20.556c.169.444.25.765.25 1.004 0 .443-1.05 2.73-3.097 4.136-1.09.723-2.263 1.365-3.266 1.645l1.55 5.016c1.384-.239 3.77-1.044 6.033-3.132 2.637-2.532 4.608-6.464 7.204-13.691l5.279-15.54h-6.451z"/></svg>