<svg viewBox="0 0 350 72.912" width="250" height="52.08" xmlns="http://www.w3.org/2000/svg"><path d="M124.649 34.953a54.252 54.252 0 00-4.33-1.905c-1.449-.563-2.682-1.213-3.697-1.95-1.016-.736-1.523-1.61-1.523-2.62 0-1.096.449-1.999 1.35-2.706.9-.708 2.028-1.061 3.384-1.061 1.18 0 2.375.253 3.585.758 1.211.506 2.014.913 2.409 1.223.395.31.71.567.94.769l2.482-4.633-.432-.386c-2.363-1.968-5.342-2.952-8.94-2.952-2.99 0-5.483.868-7.48 2.602-1.995 1.736-2.993 3.893-2.993 6.473 0 1.776.505 3.313 1.517 4.612a10.663 10.663 0 003.66 3.022 59.721 59.721 0 004.334 1.96c1.462.591 2.704 1.277 3.728 2.057s1.535 1.674 1.535 2.684c0 1.213-.443 2.152-1.329 2.816-.888.664-1.963.996-3.232.996-.831 0-1.675-.12-2.526-.357-.852-.238-1.56-.506-2.128-.802a14.89 14.89 0 01-1.666-1.017c-.544-.383-.906-.65-1.085-.801a7.084 7.084 0 01-.398-.358l-3.085 4.297.69.664c2.83 2.395 6.191 3.593 10.09 3.593 3.166 0 5.685-.88 7.556-2.644 1.872-1.764 2.807-3.936 2.807-6.516 0-1.863-.51-3.454-1.53-4.775-1.023-1.321-2.253-2.335-3.693-3.043zm18.63-6.619c-3.349 0-6.093 1.097-8.227 3.29-2.137 2.192-3.206 5.03-3.206 8.509 0 3.294 1.112 6.082 3.334 8.369 2.222 2.286 5.143 3.43 8.767 3.43 1.064 0 2.102-.122 3.118-.364 1.012-.243 1.841-.508 2.49-.795a15.348 15.348 0 001.877-.992c.604-.375.995-.64 1.175-.794.179-.154.312-.276.398-.364l-2.194-4.002-.8.593c-.56.41-1.383.815-2.468 1.217a9.21 9.21 0 01-3.226.604c-1.769 0-3.292-.51-4.572-1.536-1.28-1.023-2.005-2.46-2.177-4.31h15.568l.13-2.157c0-3.09-.877-5.647-2.63-7.667-1.756-2.02-4.207-3.03-7.358-3.03zm-5.566 9.016c.26-1.466.865-2.613 1.814-3.44.948-.827 2.142-1.24 3.58-1.24 1.267 0 2.318.413 3.16 1.24.841.827 1.276 1.974 1.306 3.44zm26.997-7.256c-1.278 1.031-2.186 2.343-2.72 3.94h-.089l.092-1.49v-3.67h-5.48v22.518h5.695v-9.085c0-1.464.164-2.707.496-3.731.505-1.58 1.324-2.775 2.46-3.589 1.134-.811 2.366-1.217 3.688-1.217.489 0 .927.029 1.316.086v-5.225l-1.015-.081c-1.681 0-3.163.515-4.443 1.544zm18.476 12.735c-.116.374-.237.849-.367 1.424l-.324 1.402-.107.56h-.086l-.086-.56-.324-1.402c-.13-.561-.252-1.036-.367-1.424l-4.702-13.955h-5.91l8.175 22.518h6.622l8.089-22.518h-5.932zm23.176-14.495c-3.35 0-6.093 1.097-8.228 3.29-2.136 2.192-3.204 5.03-3.204 8.509 0 3.294 1.111 6.082 3.333 8.369 2.222 2.286 5.144 3.43 8.767 3.43 1.064 0 2.102-.122 3.116-.364 1.014-.243 1.844-.508 2.491-.795a15.226 15.226 0 001.878-.992c.604-.375.996-.64 1.175-.794.179-.154.312-.276.398-.364l-2.193-4.002-.8.593c-.56.41-1.384.815-2.47 1.217a9.206 9.206 0 01-3.225.604c-1.768 0-3.292-.51-4.573-1.536-1.278-1.023-2.004-2.46-2.176-4.31h15.568l.131-2.157c0-3.09-.877-5.647-2.631-7.667-1.756-2.02-4.208-3.03-7.357-3.03zm-5.565 9.016c.258-1.466.862-2.613 1.812-3.44.948-.827 2.143-1.24 3.58-1.24 1.266 0 2.32.413 3.16 1.24.842.827 1.277 1.974 1.306 3.44zm26.112-7.256c-1.279 1.031-2.187 2.343-2.72 3.94h-.087l.09-1.49v-3.67h-5.479v22.518h5.695v-9.085c0-1.464.165-2.707.498-3.731.5-1.58 1.32-2.775 2.458-3.589 1.135-.811 2.365-1.217 3.687-1.217.49 0 .93.029 1.318.086v-5.225l-1.016-.081c-1.682 0-3.162.515-4.443 1.544zm21.643-10.064h-12.054v31.362h5.694V40.521h6.36c2.937 0 5.328-.956 7.174-2.869 1.848-1.911 2.773-4.385 2.773-7.42 0-3.034-.925-5.493-2.773-7.377-1.846-1.883-4.237-2.825-7.174-2.825zm2.857 14.14c-.929.97-2.222 1.455-3.88 1.455h-5.337V24.926h5.426c1.598 0 2.862.478 3.791 1.435.931.956 1.396 2.247 1.396 3.871 0 1.655-.465 2.966-1.396 3.938zm16.527-14.14h-5.65v4.896h5.65zm-5.65 31.362h5.693V28.874h-5.694zm17.277-5.35c-.367-.448-.551-1.263-.551-2.446V20.03h-5.694v24.33c0 1.525.21 2.805.63 3.84.418 1.035 1.008 1.784 1.765 2.243.757.461 1.5.77 2.23.928.727.158 1.543.237 2.45.237.603 0 1.187-.042 1.748-.127v-4.813l-.82.043c-.806 0-1.392-.223-1.758-.67zm25.658-14.326c-2.395-2.254-5.333-3.382-8.81-3.382-3.482 0-6.412 1.127-8.792 3.382-2.379 2.254-3.57 5.06-3.57 8.417 0 3.358 1.191 6.163 3.57 8.417 2.38 2.255 5.323 3.381 8.834 3.381 3.478 0 6.408-1.126 8.79-3.381 2.378-2.254 3.568-5.06 3.568-8.417 0-3.358-1.196-6.163-3.59-8.417zm-4.045 13.39c-1.295 1.286-2.868 1.929-4.723 1.929-1.885 0-3.474-.643-4.768-1.93-1.295-1.286-1.942-2.94-1.942-4.961 0-1.994.654-3.644 1.965-4.952 1.307-1.308 2.89-1.961 4.745-1.961s3.429.653 4.723 1.96c1.294 1.309 1.941 2.96 1.941 4.953 0 2.021-.647 3.675-1.942 4.961zm22.81 1.606a5.469 5.469 0 01-3.053-.91c-.926-.605-1.39-1.724-1.39-3.354v-8.765h5.047v-4.335h-5.047v-6.622h-5.544v6.622h-2.998v4.335h2.847v9.448c0 1.438.233 2.696.699 3.774.466 1.079 1.032 1.906 1.7 2.48.671.577 1.466 1.04 2.386 1.392.923.353 1.74.58 2.453.68.71.1 1.447.15 2.21.15.69 0 1.258-.042 1.704-.128v-4.854zM56.248 5.208C38.99 5.208 25 19.198 25 36.456c0 6.138 1.797 11.848 4.855 16.677 1.5.234 3.149.59 4.545.928 2.807-4.092 10.06-12.603 15.674-19.056-4.896-2.06-14.19-5.98-19.275-8.188-.639-.276 1.301-2.13 2.012-2.44 3.653-1.595 17.198 1.628 23.687 3.322.571-.642.898-1.006.898-1.006 1.26-1.321 9.829-9.925 13.149-6.635 3.325 3.292-4.267 12.863-5.53 14.185l-.741.707c1.78 6.27 5.61 20.762 4.092 24.647-.285.736-2.049 2.76-2.343 2.12-2.415-5.359-6.8-15.366-8.859-20.065C50.91 47.49 42.552 55.128 38.52 58.103c.382 1.455.796 3.193 1.07 4.758 4.825 3.051 10.527 4.843 16.658 4.843 17.258 0 31.248-13.99 31.248-31.248 0-17.258-13.99-31.248-31.248-31.248z"/></svg>