<svg viewBox="0 0 2423.314 523.824" width="2019.428" height="436.52" xmlns="http://www.w3.org/2000/svg"><path d="M876.08 251.894c-9.576-4.71-19.198-8.947-28.862-12.694-9.652-3.75-17.872-8.084-24.638-12.994-6.77-4.906-10.15-10.728-10.15-17.461 0-7.309 2.994-13.326 9-18.036 5.993-4.722 13.514-7.077 22.549-7.077 7.872 0 15.835 1.687 23.895 5.053 8.075 3.373 13.425 6.087 16.056 8.15 2.633 2.072 4.735 3.781 6.262 5.125l16.543-30.874-2.875-2.572c-15.75-13.115-35.608-19.673-59.583-19.673-19.926 0-36.546 5.785-49.851 17.34-13.301 11.566-19.95 25.943-19.95 43.138 0 11.836 3.362 22.083 10.108 30.741 6.757 8.659 14.887 15.371 24.393 20.137a398.028 398.028 0 0028.886 13.061c9.744 3.946 18.025 8.514 24.85 13.711 6.82 5.197 10.227 11.159 10.227 17.892 0 8.085-2.95 14.339-8.854 18.769-5.918 4.421-13.083 6.633-21.544 6.633-5.54 0-11.16-.797-16.832-2.378-5.681-1.587-10.403-3.371-14.186-5.34a99.237 99.237 0 01-11.102-6.784c-3.628-2.552-6.04-4.329-7.233-5.336-1.196-1.02-2.077-1.808-2.654-2.389l-20.557 28.64 4.6 4.425c18.855 15.967 41.259 23.95 67.247 23.95 21.098 0 37.884-5.87 50.357-17.626 12.476-11.756 18.71-26.23 18.71-43.424 0-12.415-3.404-23.02-10.205-31.826-6.815-8.803-15.01-15.56-24.606-20.281zm124.158-44.112c-22.313 0-40.604 7.309-54.822 21.928-14.247 14.608-21.367 33.518-21.367 56.708 0 21.952 7.41 40.538 22.217 55.777 14.807 15.237 34.279 22.856 58.43 22.856 7.09 0 14.012-.806 20.779-2.42 6.746-1.621 12.275-3.385 16.6-5.299a102.291 102.291 0 0012.505-6.611c4.028-2.499 6.636-4.265 7.83-5.292 1.196-1.026 2.08-1.84 2.655-2.427l-14.62-26.673-5.33 3.954c-3.738 2.726-9.221 5.43-16.453 8.11-7.232 2.688-14.4 4.024-21.498 4.024-11.791 0-21.94-3.403-30.474-10.233-8.527-6.818-13.361-16.395-14.51-28.725h103.757l.873-14.375c0-20.6-5.848-37.636-17.538-51.1-11.7-13.467-28.032-20.202-49.034-20.202zm-37.087 60.09c1.736-9.775 5.762-17.416 12.087-22.929 6.316-5.512 14.278-8.266 23.864-8.266 8.438 0 15.448 2.753 21.055 8.266 5.607 5.513 8.505 13.154 8.703 22.929zm179.928-48.358c-8.523 6.869-14.574 15.615-18.135 26.253h-.587l.609-9.925v-24.465h-36.515V361.46h37.953v-60.555c0-9.755 1.093-18.037 3.305-24.865 3.364-10.529 8.824-18.495 16.39-23.915 7.562-5.408 15.769-8.116 24.58-8.116 3.262 0 6.182.193 8.772.575V209.76l-6.76-.541c-11.208.001-21.085 3.434-29.612 10.295zm123.133 84.873c-.771 2.492-1.578 5.656-2.446 9.488l-2.155 9.344-.717 3.736h-.573l-.576-3.736-2.156-9.344c-.863-3.738-1.682-6.9-2.446-9.488l-31.338-93.01h-39.39l54.487 150.083h44.132l53.909-150.083h-39.534zm154.464-96.605c-22.328 0-40.607 7.309-54.838 21.928-14.233 14.608-21.354 33.518-21.354 56.708 0 21.952 7.408 40.538 22.215 55.777 14.809 15.237 34.282 22.856 58.432 22.856 7.09 0 14.01-.806 20.768-2.42 6.758-1.621 12.287-3.385 16.6-5.299a101.476 101.476 0 0012.516-6.611c4.024-2.499 6.637-4.265 7.83-5.292 1.193-1.026 2.08-1.84 2.656-2.427l-14.62-26.673-5.332 3.954c-3.736 2.726-9.221 5.43-16.454 8.11-7.23 2.688-14.396 4.024-21.498 4.024-11.787 0-21.94-3.403-30.477-10.233-8.523-6.818-13.358-16.395-14.508-28.725h103.762l.873-14.375c0-20.6-5.85-37.636-17.54-51.1-11.701-13.467-28.042-20.202-49.031-20.202zm-37.091 60.09c1.724-9.775 5.749-17.416 12.077-22.929 6.323-5.512 14.287-8.266 23.863-8.266 8.438 0 15.459 2.753 21.062 8.266 5.61 5.513 8.506 13.154 8.705 22.929zm174.034-48.358c-8.524 6.869-14.575 15.615-18.135 26.253h-.575l.597-9.925v-24.465h-36.515V361.46h37.952v-60.555c0-9.755 1.105-18.037 3.318-24.865 3.34-10.529 8.804-18.495 16.387-23.915 7.564-5.408 15.758-8.116 24.573-8.116 3.264 0 6.19.193 8.78.575V209.76l-6.768-.541c-11.214.001-21.077 3.434-29.614 10.295zm144.243-67.077h-80.335v209.022h37.949v-72.455h42.386c19.574 0 35.509-6.369 47.817-19.118 12.315-12.741 18.478-29.229 18.478-49.454 0-20.219-6.162-36.608-18.478-49.165-12.308-12.551-28.242-18.83-47.817-18.83zm19.044 94.237c-6.191 6.463-14.807 9.698-25.855 9.698h-35.574v-71.303h36.159c10.65 0 19.079 3.184 25.27 9.56 6.204 6.374 9.3 14.978 9.3 25.803-.001 11.026-3.096 19.768-9.3 26.242zm110.15-94.237h-37.663v32.632h37.663zm-37.663 209.022h37.95V211.377h-37.95zm115.15-35.663c-2.443-2.98-3.673-8.416-3.673-16.3V152.437h-37.95v162.156c0 10.162 1.403 18.69 4.199 25.591 2.787 6.9 6.724 11.887 11.769 14.949 5.042 3.072 9.995 5.133 14.862 6.182 4.844 1.054 10.283 1.581 16.322 1.581 4.025 0 7.915-.282 11.654-.846v-32.075l-5.463.288c-5.375 0-9.28-1.487-11.72-4.467zm171.004-95.477c-15.96-15.023-35.542-22.538-58.721-22.538-23.201 0-42.73 7.514-58.587 22.538-15.857 15.028-23.797 33.721-23.797 56.098 0 22.381 7.939 41.08 23.797 56.099 15.857 15.027 35.475 22.534 58.874 22.534 23.177 0 42.708-7.507 58.577-22.534 15.854-15.02 23.784-33.718 23.784-56.099 0-22.376-7.971-41.07-23.927-56.098zm-26.96 89.24c-8.625 8.576-19.11 12.859-31.474 12.859-12.563 0-23.154-4.283-31.78-12.859-8.626-8.572-12.94-19.595-12.94-33.07 0-13.286 4.359-24.284 13.094-33.002 8.715-8.716 19.266-13.071 31.627-13.071 12.364 0 22.849 4.355 31.474 13.071 8.626 8.718 12.938 19.716 12.938 33.002 0 13.475-4.313 24.497-12.94 33.07zm152.028 10.704c-7.387 0-14.155-2.02-20.348-6.061-6.172-4.035-9.268-11.489-9.268-22.354v-58.414h33.642v-28.896h-33.642v-44.133h-36.945v44.133h-19.983v28.896h18.978V306.4c0 9.585 1.549 17.969 4.655 25.155 3.107 7.188 6.878 12.701 11.335 16.532 4.468 3.838 9.765 6.924 15.9 9.272 6.15 2.352 11.59 3.861 16.347 4.528 4.732.676 9.643 1.007 14.726 1.007 4.604 0 8.385-.286 11.359-.856v-32.351zM420.203 53.652c-115.02 0-208.26 93.239-208.26 208.259 0 40.912 11.974 78.964 32.357 111.15 9.999 1.562 20.988 3.937 30.29 6.187 18.71-27.272 67.044-83.996 104.465-127.007-32.631-13.724-94.571-39.849-128.463-54.571-4.257-1.837 8.672-14.197 13.41-16.257 24.346-10.635 114.62 10.844 157.868 22.136 3.805-4.278 5.984-6.706 5.984-6.706 8.402-8.803 65.506-66.144 87.635-44.218 22.162 21.939-28.44 85.728-36.857 94.539 0 0-1.771 1.693-4.94 4.711 11.869 41.784 37.389 138.376 27.272 164.265-1.896 4.907-13.651 18.395-15.612 14.13-16.095-35.715-45.315-102.41-59.041-133.73-41.692 38.918-97.391 89.814-124.257 109.647 2.54 9.696 5.302 21.276 7.125 31.708 32.16 20.337 70.16 32.277 111.025 32.277 115.02 0 208.26-93.239 208.26-208.26 0-115.021-93.241-208.26-208.261-208.26z"/></svg>