<svg xmlns="http://www.w3.org/2000/svg" id="Layer_1" version="1.1" viewBox="0 0 500 147.15"><defs id="defs1"><style id="style1">.st0 {
        fill: #fff;
      }

      .st0, .st1 {
        fill-rule: evenodd;
      }

      .st1, .st2 {
        fill: #f2523b;
      }

      .st3 {
        fill: #0047ff;
      }</style></defs><g id="g11" transform="translate(50.005 14.715)"><path id="path1" d="M35.85 110.53C11.95 110.53 0 98.56 0 74.61V35.92C0 11.97 11.95 0 35.85 0h38.61c23.9 0 35.85 11.97 35.85 35.92v38.69c0 23.95-11.95 35.92-35.85 35.92z" class="st2"/><path id="path2" d="M27.19 61.77a5.74 5.74 0 0 1 11.48 0v13.07a5.74 5.74 0 0 1-11.48 0V61.77zM49.4 47.96a5.74 5.74 0 0 1 11.48 0v26.89a5.74 5.74 0 0 1-11.48 0zM77.36 26.1a5.74 5.74 0 0 0-5.74 5.74v43.01a5.74 5.74 0 0 0 11.48 0V31.84a5.74 5.74 0 0 0-5.74-5.74z" class="st0"/><path id="path3" d="m372.24 59.8 4.55-4.41 11.9 17.09h11.3l-16.84-23.25 15.54-15.04h-11.83l-14.64 13.98V17.78h-9.33v54.7h9.33V59.79h.02zm-45.77-.09h8.49c.38 3.65 3.19 5.93 7.35 5.93 3.64 0 6.07-1.83 6.07-4.11 0-3.58-3.7-4.22-7.99-4.96-5.91-1.02-12.94-2.23-12.94-11.61 0-6.69 5.84-11.4 13.73-11.4 8.95 0 15.09 4.94 15.47 12.39h-8.49c-.53-3.57-3.79-5.4-6.75-5.4-3.34 0-5.54 1.52-5.54 4.11 0 3.39 3.55 3.86 7.74 4.43 6.07.82 13.49 1.82 13.49 12.06 0 7.22-5.84 11.93-14.78 11.93s-15.4-5.17-15.85-13.37zm-12.58-10.63h-18.81c.98-5.78 4.32-8.51 9.55-8.51 5.54 0 8.87 3.65 9.25 8.51zm-8.48 24.01c9.4 0 16.53-5.24 17.97-13.37h-9.11c-.98 3.65-4.09 5.63-8.87 5.63-5.91 0-9.86-3.95-10.54-10.11h28.21c.08-.76.15-1.9.15-3.19 0-9.12-6.07-18.47-18.58-18.47-12.51 0-18.73 9.57-18.73 19.6 0 10.03 6.98 19.91 19.49 19.91zm-90.64-38.9h-9.49l13.96 38.3h8.72l14.03-38.3h-9.55l-8.79 26.44-8.87-26.44zm-37.74 14.89h18.81c-.38-4.87-3.72-8.51-9.25-8.51-5.23 0-8.57 2.73-9.55 8.51zm28.29 10.63c-1.44 8.13-8.57 13.37-17.97 13.37-12.51 0-19.49-9.88-19.49-19.91s6.22-19.6 18.73-19.6c12.51 0 18.58 9.35 18.58 18.47 0 1.29-.08 2.43-.15 3.19h-28.21c.68 6.16 4.63 10.11 10.54 10.11 4.78 0 7.89-1.97 8.87-5.63h9.11zm-71.27 0h8.49c.38 3.65 3.19 5.93 7.35 5.93 3.64 0 6.07-1.83 6.07-4.11 0-3.58-3.7-4.22-7.99-4.96-5.91-1.02-12.94-2.23-12.94-11.61 0-6.69 5.84-11.4 13.73-11.4 8.95 0 15.09 4.94 15.47 12.39h-8.49c-.53-3.57-3.79-5.4-6.75-5.4-3.34 0-5.54 1.52-5.54 4.11 0 3.39 3.55 3.86 7.74 4.43 6.07.82 13.49 1.82 13.49 12.06 0 7.22-5.84 11.93-14.78 11.93s-15.4-5.17-15.85-13.37zm137.79-6.36c0-7.07-4.1-11.71-10.31-11.71-6.21 0-10.31 4.64-10.31 11.71 0 7.07 4.1 11.71 10.31 11.71 6.21 0 10.31-4.64 10.31-11.71zm-29.87 0c0-11.71 6.75-19.76 18.05-19.76 5 0 9.02 2.13 11.22 5.24V17.78h9.25v54.71h-9.25V67.7c-2.2 3.35-6.45 5.4-11.07 5.4-11.45 0-18.2-8.05-18.2-19.76z" class="st1"/><g id="g10"><path id="path4" d="M147.97 96.4a6.74 6.74 0 0 1 2.54 2.72c.61 1.17.92 2.52.92 4.05 0 1.53-.31 2.88-.92 4.07-.62 1.19-1.46 2.1-2.54 2.75-1.08.65-2.31.97-3.69.97-1.13 0-2.17-.23-3.12-.69-.95-.46-1.67-1.08-2.17-1.88l-.27 2.13h-3.01V88h3.64v9.42c.5-.63 1.18-1.12 2.04-1.47.86-.35 1.81-.53 2.85-.53 1.41 0 2.66.32 3.73.97zm-1.42 10.01c.75-.82 1.13-1.9 1.13-3.24 0-1.34-.38-2.41-1.13-3.23-.75-.82-1.75-1.23-3-1.23s-2.22.4-2.97 1.21c-.75.81-1.13 1.88-1.13 3.21s.38 2.45 1.14 3.27c.76.82 1.76 1.23 3 1.23s2.22-.41 2.97-1.23z" class="st3"/><path id="path5" d="m168.16 95.89-6.73 17.23c-.54 1.36-1.25 2.43-2.12 3.21-.87.79-2.12 1.18-3.77 1.18-.9 0-1.78-.11-2.66-.32l.05-3.03c.81.15 1.47.23 1.99.24 1 0 1.73-.19 2.17-.56.44-.37.79-.95 1.05-1.71l.4-1.01-6.27-15.23h3.96l3.97 10.72 4.07-10.72z" class="st3"/><path id="path6" d="M182.43 109.6c-1.64-.91-2.92-2.2-3.84-3.86-.92-1.67-1.38-3.58-1.38-5.74s.45-4.05 1.36-5.71c.91-1.66 2.18-2.95 3.82-3.85 1.64-.91 3.52-1.36 5.65-1.36 1.75 0 3.35.3 4.81.9 1.45.6 2.66 1.46 3.61 2.59a8.262 8.262 0 0 1 1.83 3.92h-4.28c-.33-1.13-1.04-2.06-2.12-2.78-1.08-.72-2.37-1.08-3.88-1.08-1.36 0-2.55.3-3.58.91-1.03.61-1.82 1.48-2.38 2.6-.56 1.13-.83 2.43-.83 3.9 0 1.47.28 2.79.85 3.9.57 1.12 1.37 1.97 2.4 2.56 1.03.59 2.21.88 3.55.88 1.46 0 2.74-.35 3.84-1.07 1.09-.71 1.81-1.65 2.16-2.83h4.28a8.197 8.197 0 0 1-1.78 3.9c-.94 1.14-2.14 2.02-3.59 2.64-1.45.62-3.08.94-4.87.94-2.11 0-3.98-.45-5.62-1.36z" class="st3"/><path id="path7" d="M212.23 109.58c-1.31.92-2.88 1.38-4.7 1.38-1.51 0-2.83-.33-3.98-.99a6.912 6.912 0 0 1-2.68-2.76c-.64-1.18-.95-2.54-.95-4.08s.32-2.9.97-4.06c.65-1.16 1.54-2.06 2.68-2.69 1.14-.63 2.43-.95 3.87-.95s2.68.3 3.77.91c1.09.6 1.94 1.43 2.54 2.48.6 1.05.9 2.25.9 3.61 0 .73-.05 1.33-.16 1.81h-10.96c.04 1.11.43 2.01 1.16 2.68.73.68 1.68 1.02 2.84 1.02.88 0 1.63-.17 2.27-.52.64-.35 1.07-.83 1.31-1.45h3.57c-.32 1.5-1.14 2.7-2.45 3.62zm-1.32-7.82c-.02-1.03-.36-1.83-1.02-2.43-.66-.6-1.51-.89-2.56-.89s-1.95.3-2.64.91c-.69.6-1.06 1.41-1.11 2.41z" class="st3"/><path id="path8" d="M232.22 95.89v14.63c0 2.19-.7 3.94-2.1 5.24-1.4 1.3-3.3 1.96-5.71 1.96-2.1 0-3.84-.55-5.21-1.64-1.37-1.1-2.16-2.57-2.37-4.43h3.64c.17.92.61 1.62 1.33 2.12.72.49 1.59.74 2.61.74 1.31 0 2.33-.35 3.05-1.05.72-.7 1.08-1.63 1.08-2.8V108c-.46.71-1.12 1.26-1.99 1.67-.87.41-1.84.61-2.93.61-1.36 0-2.57-.31-3.63-.94a6.447 6.447 0 0 1-2.46-2.61c-.58-1.11-.87-2.39-.87-3.81s.3-2.73.9-3.87c.6-1.14 1.43-2.02 2.49-2.66 1.06-.64 2.27-.95 3.63-.95 1.11 0 2.1.21 2.98.64.88.43 1.53 1.01 1.97 1.75l.21-1.92h3.37v-.02zm-4.94 9.96c.76-.8 1.15-1.81 1.15-3.03 0-1.22-.38-2.21-1.15-3.01-.76-.8-1.74-1.19-2.92-1.19s-2.14.4-2.86 1.19c-.72.8-1.08 1.81-1.08 3.04s.37 2.24 1.1 3.02c.73.79 1.68 1.18 2.84 1.18s2.16-.4 2.92-1.2z" class="st3"/><path id="path9" d="M236 92.32c-.48-.47-.72-1.05-.72-1.75s.24-1.29.72-1.75c.48-.46 1.1-.69 1.84-.69s1.35.23 1.82.69c.46.46.7 1.04.7 1.75s-.24 1.25-.72 1.73-1.08.72-1.8.72-1.36-.23-1.84-.71zm0 3.57h3.67v14.63H236z" class="st3"/><path id="path10" d="M258.45 88.01v22.52h-3.06l-.26-2.13c-.48.79-1.19 1.42-2.12 1.88-.93.46-1.98.69-3.14.69-1.38 0-2.61-.32-3.69-.97-1.08-.65-1.93-1.56-2.54-2.74-.61-1.18-.91-2.54-.91-4.08s.3-2.88.91-4.05c.61-1.17 1.46-2.08 2.54-2.72 1.08-.65 2.32-.97 3.69-.97 1.07 0 2.02.17 2.87.52.84.35 1.53.84 2.05 1.48v-9.42h3.66zm-4.88 18.38c.77-.83 1.16-1.92 1.16-3.25s-.38-2.41-1.13-3.21c-.75-.81-1.75-1.21-3-1.21s-2.25.41-3.01 1.23c-.75.82-1.13 1.89-1.13 3.23s.38 2.41 1.14 3.24c.76.82 1.75 1.23 2.96 1.23s2.23-.42 3-1.25z" class="st3"/></g></g></svg>