<svg xmlns="http://www.w3.org/2000/svg" version="1.1" viewBox="0 0 138.889 28.826"><path fill="#000" d="M33.053 19.363c0 .825-.183 1.558-.55 2.2-.367.733-.917 1.283-1.558 1.833a6.62 6.62 0 0 1-2.384 1.284c-.916.275-1.925.458-3.025.458-1.008 0-1.925-.092-2.658-.183-.825-.092-1.558-.275-2.292-.459-.733-.183-1.375-.55-2.016-.825-.642-.366-1.284-.825-2.017-1.283l3.208-2.842c.917.734 1.834 1.192 2.75 1.467.917.275 1.834.458 2.842.458.458 0 .825-.091 1.192-.183a3.39 3.39 0 0 0 1.008-.458c.275-.184.458-.459.642-.642.183-.275.275-.55.275-.825 0-.367-.092-.642-.184-.917-.091-.275-.366-.55-.733-.733-.367-.275-.825-.458-1.467-.733a17.513 17.513 0 0 0-2.383-.825c-.825-.275-1.65-.55-2.475-.917-.825-.367-1.467-.825-2.017-1.283-.55-.459-1.1-1.1-1.375-1.742-.458-.825-.641-1.65-.641-2.567 0-.916.183-1.741.55-2.475.366-.733.916-1.375 1.65-1.925a8.284 8.284 0 0 1 2.383-1.191c.917-.275 1.925-.459 2.933-.459 1.742 0 3.3.184 4.492.642 1.192.458 2.292 1.008 3.208 1.833l-3.116 2.842c-.55-.458-1.192-.917-1.925-1.192-.734-.275-1.559-.366-2.475-.366-.459 0-.825.091-1.192.183-.458.092-.733.275-1.008.458-.275.184-.459.459-.642.734-.183.275-.275.55-.275.825 0 .366.092.641.275.916.092.275.367.459.733.734.367.275.825.458 1.467.733.642.275 1.375.55 2.292.825 1.191.367 2.108.733 2.933 1.192.825.458 1.467.916 2.017 1.466.55.55.916 1.1 1.191 1.742.275.642.367 1.375.367 2.2zm25.758 5.5H54.32v-9.167h-8.342v9.167h-4.492V4.055h4.492v8.25h8.342v-8.25h4.491zm24.842 0H67.245V4.055h16.408v3.3H71.645v4.95h11.091v3.208H71.645v5.683h12.008zm13.292 0h-4.492V4.055h4.492zm25.39-20.808v21.358l-12.557-10.908V24.68h-4.4V3.413l12.558 10.908V4.055z"/></svg>