<svg xmlns="http://www.w3.org/2000/svg" fill="none" class="app-header__logo app-header__logo--dark-theme" version="1.1" viewBox="0 0 227.273 30.216"><g fill-opacity="1" fill-rule="evenodd" clip-rule="evenodd"><path fill="#0b2b44" d="m124.32 6.021 4.278 14.627v.002h3.918l3.129-10.945 3.125 10.943h3.921l4.307-14.626h-3.746l-2.568 10.529-2.948-10.53h-4.187l-2.947 10.53-2.538-10.53zM113.756 6.018v14.628h3.773V13.98c0-1.12.173-1.996.528-2.624.376-.628.888-1.07 1.537-1.326.649-.256 1.386-.383 2.213-.383h1.058l-1.058-3.628c-.77 0-1.583.135-2.182.5a6.014 6.014 0 0 0-2.152 2.242l-.356-2.742zM80.96 6.018v14.628h3.774V6.018zM46.402 6.018v14.628h3.774V6.018zM155.168 5.668c-1.535 0-2.87.332-4.012 1.002-1.12.65-2.003 1.56-2.652 2.742-.627 1.177-.943 2.524-.943 4.04 0 1.492.323 2.806.972 3.948a6.829 6.829 0 0 0 2.686 2.657c1.142.628 2.447.945 3.922.945 1.178 0 2.23-.217 3.156-.65.943-.432 1.73-1.021 2.357-1.77a6.924 6.924 0 0 0 1.389-2.535h-3.834a3.302 3.302 0 0 1-1.182 1.357c-.514.333-1.154.5-1.92.5-1.02 0-1.896-.321-2.623-.97-.706-.65-1.1-1.545-1.177-2.686h11.115c.018-.256.027-.498.027-.736.021-.234.033-.462.033-.678 0-1.337-.315-2.548-.943-3.629a6.62 6.62 0 0 0-2.568-2.596c-1.1-.628-2.366-.941-3.803-.941zm0 3.062c.965 0 1.77.289 2.42.856.649.57 1 1.336 1.06 2.3h-7.285c.2-1.06.649-1.847 1.358-2.357.706-.532 1.522-.799 2.447-.799zM101.703 5.668c-1.376 0-2.601.332-3.683 1.002-1.078.649-1.937 1.553-2.565 2.713-.628 1.139-.943 2.452-.943 3.924 0 1.47.315 2.789.943 3.949a7.177 7.177 0 0 0 2.565 2.74c1.079.67 2.307 1.006 3.683 1.006h.002c1.238 0 2.238-.245 3.008-.738.787-.49 1.415-1.06 1.887-1.71l.412 2.096h3.361V6.02H106.6v2.01a5.183 5.183 0 0 0-2.004-1.743c-.827-.415-1.793-.619-2.893-.619zm.797 3.3c1.22 0 2.213.411 2.979 1.237.787.808 1.18 1.852 1.18 3.129 0 1.276-.393 2.33-1.18 3.154-.766.806-1.759 1.211-2.979 1.211-1.199 0-2.192-.415-2.98-1.238-.787-.826-1.18-1.88-1.18-3.156 0-1.28.393-2.322 1.18-3.127.788-.805 1.781-1.21 2.98-1.21zM37.564 5.662c-1.869 0-3.322.443-4.365 1.326-1.022.887-1.531 1.978-1.531 3.276 0 .708.166 1.307.5 1.797a4.167 4.167 0 0 0 1.297 1.18 9.98 9.98 0 0 0 1.799.738 24.653 24.653 0 0 0 1.914.5c.982.217 1.75.443 2.302.677.55.217.827.64.827 1.27 0 .434-.195.815-.588 1.148-.373.333-.972.5-1.8.5-.825 0-1.502-.194-2.034-.588l-.02-.015c-.039-.033-.076-.064-.113-.098-.506-.362-.982-1.06-1.106-1.334l-3.416.525a5.021 5.021 0 0 0 .965 2.045c.59.75 1.377 1.339 2.36 1.772.982.41 2.124.619 3.422.619 1.259 0 2.347-.204 3.273-.62.925-.41 1.632-.981 2.125-1.708a4.11 4.11 0 0 0 .709-2.447c-.004-1.043-.26-1.838-.77-2.391-.51-.571-1.199-.993-2.064-1.27a27.39 27.39 0 0 0-2.803-.796c-.944-.217-1.701-.456-2.27-.711-.566-.255-.853-.599-.853-1.032 0-.412.188-.756.56-1.033.394-.277.942-.41 1.651-.41.653 0 1.18.118 1.576.348.674.35 1.088 1.148 1.088 1.148l.004.016 3.152-.782a4.713 4.713 0 0 0-1.662-2.439c-1.02-.806-2.399-1.21-4.129-1.21zM71.76 5.66c-1.06 0-2.043.237-2.948.71a5.72 5.72 0 0 0-2.123 1.917c-.943-1.748-2.547-2.623-4.806-2.623-1.021 0-1.926.217-2.713.65a5.081 5.081 0 0 0-1.858 1.68l-.324-1.974h-3.334v14.628h3.776V13.1c0-1.336.304-2.38.914-3.127.627-.748 1.443-1.12 2.447-1.12 1.021 0 1.777.332 2.27 1.002.493.666.738 1.632.738 2.891v7.904h3.773V13.1c0-1.336.304-2.38.914-3.127.628-.748 1.455-1.12 2.477-1.12 1.003 0 1.74.332 2.213 1.002.492.666.738 1.632.738 2.891v7.897h3.773v-8.258c0-2.202-.51-3.874-1.533-5.016-1.022-1.138-2.486-1.709-4.394-1.709zM6.68 2.533a.73.73 0 0 0-.26.08 12.132 12.132 0 0 0-3.53 2.819 11.91 11.91 0 0 0-.785 14.54A9.466 9.466 0 0 0 4.3 22.136h-.004c4.22 3.046 7.842 1.443 7.842 1.443h.004a4.835 4.835 0 0 0 3.013-4.482 4.813 4.813 0 0 0-1.922-3.862l-1.912-1.546c-4.004-2.866-6.085-5.954-4.943-9.762a8.57 8.57 0 0 1 .375-1.016v-.002s.188-.385-.072-.375z" transform="translate(23.378 3.108)"/><path fill="#ff8138" d="M14.295 1.482a4.267 4.267 0 0 0-3.365 6.864l-.266-.34c.127.184.267.367.426.55.674.803 1.632 1.634 2.873 2.577 3.05 2.316 5.03 4.368 5.191 6.914.04.344.065.696.065 1.05 0 1.295-.288 2.664-.778 3.628h.004s-.21.376-.078.486c.067.057.214.098.469-.055a12.207 12.207 0 0 0 3.46-3.322 11.923 11.923 0 0 0 2.126-6.62 11.898 11.898 0 0 0-1.934-6.679c-1.305-1.996-3.195-3.663-5.363-4.51l-.64-.212a7.702 7.702 0 0 0-2.19-.33z" transform="translate(23.378 3.108)"/><path fill="#0b2b44" d="M164.656.123v20.522h3.364l.414-2.006a5.182 5.182 0 0 0 2.004 1.742c.826.414 1.787.619 2.89.619v.002c1.376 0 2.607-.325 3.682-.977a7.2 7.2 0 0 0 2.564-2.712c.628-1.16.944-2.48.944-3.952 0-1.47-.316-2.79-.944-3.95a7.177 7.177 0 0 0-2.564-2.74c-1.082-.67-2.31-1.003-3.686-1.003-1.238 0-2.248.244-3.035.736-.766.49-1.386 1.06-1.857 1.71V.122zm7.877 8.846c1.202 0 2.194.41 2.98 1.236.789.826 1.18 1.88 1.18 3.156 0 1.28-.391 2.322-1.18 3.127-.786.805-1.78 1.21-2.98 1.21v.001c-1.22 0-2.223-.406-3.006-1.21-.766-.827-1.148-1.88-1.148-3.157 0-1.28.382-2.322 1.148-3.127.787-.827 1.786-1.236 3.006-1.236zM88.217.123V20.65h3.773V.123zM82.848 0c-.62 0-1.136.196-1.543.586-.391.372-.586.857-.586 1.453 0 .596.196 1.092.586 1.482.407.39.923.586 1.543.586.62 0 1.127-.196 1.517-.586.408-.393.614-.886.614-1.482S84.773.958 84.365.586C83.975.196 83.468 0 82.848 0zM48.291 0c-.62 0-1.135.196-1.543.586-.39.372-.586.857-.586 1.453 0 .596.196 1.092.586 1.482.408.39.92.586 1.541.586.62 0 1.128-.196 1.518-.586.408-.393.615-.886.615-1.482S50.215.958 49.807.586C49.417.196 48.91 0 48.29 0z" transform="translate(23.378 3.108)"/></g></svg>