<svg xmlns="http://www.w3.org/2000/svg" fill="none" version="1.1" viewBox="0 0 555.556 338.425"><g fill="#ff4f64"><path fill-rule="evenodd" d="M225.483 152.362h26.409v73.791h-26.409zM285.968 107.409h26.408v118.744h-26.408zM348.156 65h26.409v161.153h-26.409z" clip-rule="evenodd" transform="translate(-22.274 -35.088)"/><path d="M87.038 332.812c-3.055 0-5.761-.541-8.12-1.624-2.359-1.083-4.215-2.668-5.568-4.756-1.315-2.127-1.972-4.698-1.972-7.714v-1.45h6.206v1.45c0 2.861.85 5.007 2.552 6.438 1.74 1.431 4.04 2.146 6.902 2.146 2.9 0 5.085-.599 6.554-1.798 1.47-1.237 2.204-2.823 2.204-4.756 0-1.276-.348-2.32-1.044-3.132-.696-.812-1.682-1.45-2.958-1.914-1.276-.503-2.803-.967-4.582-1.392l-2.146-.522c-2.59-.619-4.853-1.373-6.786-2.262-1.895-.928-3.364-2.146-4.408-3.654-1.044-1.508-1.566-3.441-1.566-5.8 0-2.397.58-4.447 1.74-6.148 1.199-1.701 2.842-3.016 4.93-3.944 2.088-.928 4.543-1.392 7.366-1.392 2.823 0 5.336.483 7.54 1.45 2.243.967 4.002 2.397 5.278 4.292 1.276 1.895 1.914 4.273 1.914 7.134v2.088h-6.206v-2.088c0-1.74-.367-3.151-1.102-4.234-.696-1.083-1.682-1.875-2.958-2.378-1.276-.503-2.765-.754-4.466-.754-2.475 0-4.408.522-5.8 1.566-1.353 1.005-2.03 2.417-2.03 4.234 0 1.237.29 2.262.87 3.074.619.773 1.508 1.411 2.668 1.914 1.16.503 2.61.947 4.35 1.334l2.146.522c2.63.58 4.95 1.334 6.96 2.262 2.01.889 3.596 2.107 4.756 3.654 1.16 1.547 1.74 3.538 1.74 5.974 0 2.436-.619 4.563-1.856 6.38-1.199 1.817-2.92 3.248-5.162 4.292-2.243 1.005-4.891 1.508-7.946 1.508zM108.752 332v-28.594h5.974V332zm3.016-32.48c-1.16 0-2.146-.367-2.958-1.102-.774-.773-1.16-1.759-1.16-2.958 0-1.199.386-2.165 1.16-2.9.812-.773 1.798-1.16 2.958-1.16 1.198 0 2.184.387 2.958 1.16.773.735 1.16 1.701 1.16 2.9 0 1.199-.387 2.185-1.16 2.958-.774.735-1.76 1.102-2.958 1.102zM123.592 332v-28.594h5.858v3.364h.928c.541-1.005 1.411-1.895 2.61-2.668 1.198-.773 2.822-1.16 4.872-1.16 2.126 0 3.828.445 5.104 1.334 1.314.851 2.3 1.953 2.958 3.306h.928c.657-1.315 1.604-2.417 2.842-3.306 1.276-.889 3.074-1.334 5.394-1.334 1.856 0 3.499.387 4.93 1.16 1.43.735 2.571 1.856 3.422 3.364.85 1.469 1.276 3.306 1.276 5.51V332h-5.974v-18.56c0-1.74-.484-3.074-1.45-4.002-.928-.967-2.262-1.45-4.002-1.45-1.856 0-3.345.599-4.466 1.798-1.122 1.199-1.682 2.919-1.682 5.162V332h-5.974v-18.56c0-1.74-.484-3.074-1.45-4.002-.928-.967-2.262-1.45-4.002-1.45-1.856 0-3.345.599-4.466 1.798-1.122 1.199-1.682 2.919-1.682 5.162V332zM173.322 343.6v-40.194h5.858v4.118h.928c.735-1.276 1.837-2.417 3.306-3.422 1.508-1.005 3.654-1.508 6.438-1.508 2.397 0 4.582.58 6.554 1.74 2.011 1.16 3.615 2.842 4.814 5.046 1.237 2.165 1.856 4.795 1.856 7.888v.87c0 3.093-.599 5.742-1.798 7.946-1.199 2.165-2.803 3.828-4.814 4.988-2.011 1.16-4.215 1.74-6.612 1.74-1.856 0-3.422-.232-4.698-.696-1.276-.464-2.301-1.044-3.074-1.74-.773-.735-1.392-1.489-1.856-2.262h-.928V343.6zm14.79-16.008c2.629 0 4.775-.831 6.438-2.494 1.663-1.663 2.494-4.041 2.494-7.134v-.522c0-3.055-.851-5.413-2.552-7.076-1.663-1.663-3.789-2.494-6.38-2.494-2.552 0-4.679.831-6.38 2.494-1.663 1.663-2.494 4.021-2.494 7.076v.522c0 3.093.831 5.471 2.494 7.134 1.701 1.663 3.828 2.494 6.38 2.494zM210.478 332v-40.6h5.974V332zM238.426 332.812c-2.9 0-5.432-.599-7.598-1.798-2.165-1.237-3.866-2.958-5.104-5.162-1.198-2.243-1.798-4.833-1.798-7.772v-.696c0-2.977.6-5.568 1.798-7.772 1.199-2.243 2.862-3.963 4.988-5.162 2.166-1.237 4.66-1.856 7.482-1.856 2.746 0 5.143.619 7.192 1.856 2.088 1.199 3.712 2.881 4.872 5.046 1.16 2.165 1.74 4.698 1.74 7.598v2.262h-21.982c.078 2.513.909 4.524 2.494 6.032 1.624 1.469 3.635 2.204 6.032 2.204 2.243 0 3.925-.503 5.046-1.508 1.16-1.005 2.05-2.165 2.668-3.48l4.93 2.552c-.541 1.083-1.334 2.223-2.378 3.422-1.005 1.199-2.339 2.204-4.002 3.016-1.662.812-3.789 1.218-6.38 1.218zm-8.352-18.038h15.834c-.154-2.165-.928-3.847-2.32-5.046-1.392-1.237-3.209-1.856-5.452-1.856-2.242 0-4.079.619-5.51 1.856-1.392 1.199-2.242 2.881-2.552 5.046zM270.046 332l11.6-40.6h11.02l11.542 40.6h-6.438l-2.668-9.57H279.21l-2.668 9.57zm10.73-15.37h12.76l-5.916-21.344h-.928zM309.883 332v-28.594h5.858v4.292h.928c.541-1.16 1.508-2.243 2.9-3.248 1.392-1.005 3.46-1.508 6.206-1.508 2.165 0 4.079.483 5.742 1.45 1.701.967 3.035 2.339 4.002 4.118.966 1.74 1.45 3.847 1.45 6.322V332h-5.974v-16.704c0-2.475-.619-4.292-1.856-5.452-1.238-1.199-2.939-1.798-5.104-1.798-2.475 0-4.466.812-5.974 2.436-1.47 1.624-2.204 3.983-2.204 7.076V332zM354.44 332.812c-2.049 0-3.886-.348-5.51-1.044-1.585-.696-2.861-1.721-3.828-3.074-.928-1.353-1.392-2.997-1.392-4.93 0-1.972.464-3.596 1.392-4.872.967-1.315 2.262-2.301 3.886-2.958 1.663-.657 3.538-.986 5.626-.986h8.7v-1.856c0-1.663-.502-2.997-1.508-4.002-1.005-1.005-2.552-1.508-4.64-1.508-2.049 0-3.615.483-4.698 1.45-1.082.967-1.798 2.223-2.146 3.77l-5.568-1.798a12.044 12.044 0 0 1 2.204-4.176c1.044-1.276 2.417-2.301 4.118-3.074 1.702-.773 3.751-1.16 6.148-1.16 3.712 0 6.632.947 8.758 2.842 2.127 1.895 3.19 4.582 3.19 8.062v11.774c0 1.16.542 1.74 1.624 1.74h2.436V332h-4.466c-1.353 0-2.455-.348-3.306-1.044-.85-.696-1.276-1.643-1.276-2.842v-.174h-.87c-.309.58-.773 1.257-1.392 2.03-.618.773-1.527 1.45-2.726 2.03-1.198.541-2.784.812-4.756.812zm.87-4.93c2.398 0 4.331-.677 5.8-2.03 1.47-1.392 2.204-3.287 2.204-5.684v-.58h-8.352c-1.585 0-2.861.348-3.828 1.044-.966.657-1.45 1.643-1.45 2.958 0 1.315.503 2.359 1.508 3.132 1.006.773 2.378 1.16 4.118 1.16zM379.041 332v-40.6h5.974V332zM397.187 343.6v-5.22h15.95c1.082 0 1.624-.58 1.624-1.74v-8.816h-.928c-.348.773-.89 1.527-1.624 2.262-.696.696-1.644 1.276-2.842 1.74-1.199.464-2.707.696-4.524.696-2.166 0-4.099-.483-5.8-1.45-1.702-.967-3.036-2.339-4.002-4.118-.967-1.779-1.45-3.886-1.45-6.322v-17.226h5.974v16.762c0 2.475.618 4.311 1.856 5.51 1.237 1.16 2.958 1.74 5.162 1.74 2.436 0 4.388-.812 5.858-2.436 1.508-1.624 2.262-3.983 2.262-7.076v-14.5h5.974v34.452c0 1.74-.522 3.132-1.566 4.176-1.006 1.044-2.398 1.566-4.176 1.566zM440.238 332c-1.74 0-3.132-.522-4.176-1.566-1.006-1.044-1.508-2.436-1.508-4.176v-17.806h-7.888v-5.046h7.888v-9.454h5.974v9.454h8.526v5.046h-8.526v16.762c0 1.16.541 1.74 1.624 1.74h5.974V332zM456.072 332v-28.594h5.974V332zm3.016-32.48c-1.16 0-2.146-.367-2.958-1.102-.773-.773-1.16-1.759-1.16-2.958 0-1.199.387-2.165 1.16-2.9.812-.773 1.798-1.16 2.958-1.16 1.199 0 2.185.387 2.958 1.16.773.735 1.16 1.701 1.16 2.9 0 1.199-.387 2.185-1.16 2.958-.773.735-1.759 1.102-2.958 1.102zM484.194 332.812c-2.745 0-5.239-.58-7.482-1.74-2.204-1.16-3.963-2.842-5.278-5.046-1.276-2.204-1.914-4.853-1.914-7.946v-.754c0-3.093.638-5.723 1.914-7.888 1.315-2.204 3.074-3.886 5.278-5.046 2.243-1.199 4.737-1.798 7.482-1.798s5.085.503 7.018 1.508c1.933 1.005 3.48 2.339 4.64 4.002a13.132 13.132 0 0 1 2.32 5.51l-5.8 1.218a9.553 9.553 0 0 0-1.218-3.48c-.619-1.044-1.489-1.875-2.61-2.494-1.121-.619-2.533-.928-4.234-.928-1.663 0-3.171.387-4.524 1.16-1.315.735-2.359 1.817-3.132 3.248-.773 1.392-1.16 3.093-1.16 5.104v.522c0 2.011.387 3.731 1.16 5.162.773 1.431 1.817 2.513 3.132 3.248 1.353.735 2.861 1.102 4.524 1.102 2.513 0 4.427-.638 5.742-1.914 1.315-1.315 2.146-2.977 2.494-4.988l5.8 1.334a15.184 15.184 0 0 1-2.494 5.452c-1.16 1.663-2.707 2.997-4.64 4.002-1.933.967-4.273 1.45-7.018 1.45zM516.952 332.812c-3.634 0-6.65-.812-9.048-2.436-2.397-1.624-3.866-4.079-4.408-7.366l5.568-1.334c.31 1.585.832 2.842 1.566 3.77a6 6 0 0 0 2.726 1.972c1.122.387 2.32.58 3.596.58 1.895 0 3.345-.367 4.35-1.102 1.044-.735 1.566-1.682 1.566-2.842 0-1.16-.483-2.011-1.45-2.552-.966-.541-2.397-.986-4.292-1.334l-1.972-.348c-1.933-.348-3.692-.851-5.278-1.508-1.585-.657-2.842-1.566-3.77-2.726-.928-1.16-1.392-2.649-1.392-4.466 0-2.707 1.006-4.795 3.016-6.264 2.011-1.508 4.679-2.262 8.004-2.262 3.21 0 5.839.735 7.888 2.204 2.088 1.431 3.442 3.383 4.06 5.858l-5.568 1.566c-.348-1.74-1.082-2.958-2.204-3.654-1.121-.735-2.513-1.102-4.176-1.102-1.624 0-2.9.309-3.828.928-.928.58-1.392 1.411-1.392 2.494 0 1.16.445 2.011 1.334 2.552.928.541 2.166.947 3.712 1.218l2.03.348c2.05.348 3.925.831 5.626 1.45 1.702.619 3.036 1.508 4.002 2.668 1.006 1.16 1.508 2.707 1.508 4.64 0 2.861-1.063 5.085-3.19 6.67-2.126 1.585-4.988 2.378-8.584 2.378z" transform="translate(-22.274 -35.088)"/></g></svg>