<svg xmlns="http://www.w3.org/2000/svg" version="1.1" viewBox="0 0 2500 833.333"><path fill="#198038" d="M1120.285 168.687c0 40.1-31.92 72.02-72.02 72.02-40.1 0-72.02-31.92-72.02-72.02 0-40.1 31.92-72.02 72.02-72.02 40.1 0 72.02 31.92 72.02 72.02zm-330.64-50.74h103.94v605.63h-103.94zm751.3 0h103.94v605.63h-103.94v-53.2c-38.46 43.37-92.48 66.29-146.49 66.29-104.76 0-211.15-82.66-211.15-229.16 0-148.13 106.39-229.15 211.15-229.15 54.01 0 108.03 22.91 146.49 65.47zm-834.78 477.95c0 80.21-85.93 140.77-202.97 140.77-117.85 0-209.51-61.38-209.51-157.95h103.94c0 37.64 45.01 68.74 105.57 68.74 55.66 0 93.3-23.73 93.3-51.56 0-72.02-300.35-.82-300.35-175.96 0-76.93 81.84-141.58 198.87-141.58 117.85 0 201.33 67.11 201.33 163.68h-103.94c0-36.83-36.01-74.47-97.39-74.47-57.29 0-93.3 22.09-93.3 52.37 0 76.12 304.45 5.73 304.45 175.96zm1500.15-88.39c0 126.04-100.66 229.16-238.97 229.16-138.32 0-239.8-103.12-239.8-229.16 0-135.03 101.48-229.15 239.8-229.15 138.31 0 238.97 94.12 238.97 229.15zm-1210.43-216.88h103.94v432.95h-103.94zm1104.86 216.88c0-81.02-59.75-135.03-133.4-135.03-75.3 0-134.22 53.19-134.22 135.03 0 79.39 58.92 134.22 134.22 134.22 73.65 0 133.4-54.83 133.4-134.22zm-559.8 0c0-83.47-61.38-134.22-126.85-134.22-66.29 0-126.86 49.93-126.86 134.22 0 82.66 60.57 133.41 126.86 133.41 65.47 0 126.85-50.75 126.85-133.41z"/></svg>