<svg viewBox="0 0 300 65.513" width="250" height="54.594" xmlns="http://www.w3.org/2000/svg"><path d="M70.945 16.946L52.344 6.157c-1.674-.93-4.279-.93-5.953 0l-18.6 10.789C26.301 18.062 25 20.294 25 22.154v21.391c0 1.86 1.302 4.093 2.976 5.023l18.601 10.788c1.674.93 4.279.93 5.953 0L71.13 48.568c1.674-.93 2.976-3.162 2.976-5.023V22.154c-.186-1.86-1.488-4.092-3.162-5.208zm-5.022 11.718h-1.86v-3.348c0-2.418-1.86-3.348-5.58-3.348h-.187c-8.928 0-8.184-3.348-8.37-4.65h-.186c-.186 1.302.558 4.65-8.37 4.65h-.187c-3.72 0-5.58.744-5.58 3.348v2.604l30.32 8.743v3.72c0 3.534-1.674 5.58-7.627 5.58h-.372c-4.464 0-7.44.93-7.44 4.65h-1.86c0-3.533-2.79-4.65-7.441-4.65-5.766 0-7.626-2.046-7.626-5.58v-3.162h1.86v3.348c0 2.418 1.86 3.348 5.58 3.348h.186c8.929 0 8.185 3.349 8.37 4.65h.187c.186-1.301-.558-4.65 8.37-4.65h.372c3.72 0 5.58-.744 5.58-3.348v-1.86l-30.505-8.928v-4.279c0-3.534 1.674-5.58 7.626-5.58h.372c4.65 0 7.44-.93 7.44-4.65h1.86c0 3.534 2.79 4.65 7.441 4.65h.186c5.767 0 7.627 2.046 7.627 5.58z" fill="#f6e767"/><path d="M95.87 27.734c0-2.604 2.79-3.72 5.023-3.72 2.232 0 4.65.744 4.836 3.348h2.046c-.558-4.278-4.278-5.208-7.068-5.208-3.534 0-6.883 2.046-6.883 5.952 0 4.65 5.395 5.767 8.929 7.069 1.86.558 3.348 1.674 3.348 3.72 0 2.79-2.79 4.278-5.208 4.278-2.976 0-5.394-.93-5.394-4.278h-2.047c0 3.534 2.977 6.138 6.51 6.138 4.465 0 8.557-1.488 8.557-6.138-.372-7.812-12.648-5.022-12.648-11.16zm38.319 13.951l-12.09-19.159h-2.233v21.763h2.046V25.502l11.719 18.787h2.418V22.526h-2.046zm15.253 2.79h2.046V22.526h-2.046zm21.02-21.949h-5.395v21.763h2.046v-9.486h3.534c4.279 0 8.929-.93 8.929-6.139-.186-5.208-5.022-6.138-9.115-6.138zm1.301 10.603h-4.836v-8.743h4.836c2.977 0 5.58.93 5.58 4.278-.185 3.535-2.79 4.465-5.58 4.465zm25.298 9.858c-5.58 0-7.254-5.022-7.254-9.486 0-4.465 1.674-9.487 7.254-9.487 2.418 0 4.836 1.116 5.208 3.72h2.046c-.372-3.906-3.72-5.58-7.254-5.58-6.51 0-9.487 5.394-9.487 11.347 0 6.138 2.79 11.346 9.487 11.346 3.534 0 6.882-2.046 7.44-5.766h-2.046c-.558 2.79-2.976 3.906-5.394 3.906zm22.135-20.461l-8.742 21.763h2.046l2.232-5.952h10.789l2.418 5.952h2.232l-8.742-21.763zm-3.72 14.137l4.836-12.277 4.65 12.277zm32.366-3.72c2.604-.744 4.279-2.418 4.279-4.837 0-2.046-.745-3.72-2.233-4.65-1.674-1.116-3.162-1.116-5.208-1.116h-7.068v21.763h2.046V33.687h5.394c3.906 0 4.278.93 4.65 5.952.186 1.488.186 3.162.744 4.464h2.233c-.93-1.302-.744-2.976-1.117-6.51-.372-2.232-.93-4.092-3.72-4.65zm-4.278-.744h-4.278v-7.813h4.464c2.046 0 5.952-.372 5.952 3.906.186 3.72-3.348 3.907-6.138 3.907zm15.625-9.673v1.86h7.068v20.09h1.86v-20.09H275v-1.86z" fill="#fff"/></svg>