<svg xmlns="http://www.w3.org/2000/svg" fill="none" aria-hidden="true" version="1.1" viewBox="0 0 48.077 14.997"><g transform="translate(4.803 1.498)"><rect width="38.47" height="12" x="0" y="0" fill="#d03d12" class="fill-current text-primary-base dark:text-dm-primary-base" rx="1.5"/><path fill="#fff" d="M3.998 8v-.664h.311V4.664h-.31V4h2.303c.254 0 .438.198.438.438v3.124A.431.431 0 0 1 6.303 8zm1.965-3.336h-.862v2.672h.862zM7.178 8v-.664h.311V4.664h-.31V4h2.727v1.159h-.763v-.495h-.862v.905H9.44v.65H8.28v1.117h.863v-.679h.763V8zm4.891 0v-.664h.254V6.233h-.933v1.103h.24V8h-1.342v-.664h.31V4.664h-.31V4h2.346c.255 0 .438.198.438.438V5.47c0 .184-.113.34-.268.41a.441.441 0 0 1 .31.424v1.032h.298V8zm.212-3.336h-.89v.919h.89zM15.348 8a.431.431 0 0 1-.438-.438v-.905h.791v.679h.863V6.247H14.91V4.438c0-.254.198-.438.438-.438h1.555c.254 0 .438.198.438.438v.75h-.792v-.524h-.848v.919h1.654v1.979a.431.431 0 0 1-.438.438zm2.431 0v-.664h.311V4.664h-.311V4h2.346c.255 0 .439.198.439.438v1.498a.431.431 0 0 1-.439.439h-1.244v.96h.311V8zm1.993-3.336h-.89V5.71h.89zM20.931 8v-.664h.31V4.664h-.31V4h1.413v.664h-.31v2.672h.31V8zm1.781 0v-.664h.31V4.664h-.31V4h2.728v1.159h-.764v-.495h-.862v.905h1.16v.65h-1.16v1.117h.863v-.679h.763V8zm3.618 0a.43.43 0 0 1-.438-.437V4.437A.43.43 0 0 1 26.33 4h1.57a.43.43 0 0 1 .437.437v.746h-.791v-.521h-.862v2.662h.862v-1h-.509v-.648h1.3V8zm2.431 0v-.664h.311V4.664h-.31V4h2.727v1.159h-.763v-.495h-.862v.905h1.159v.65h-1.16v1.117h.863v-.679h.763V8zm3.11 0v-.664h.311V4.664h-.311V4h1.442v.664h-.34v2.672h.764v-.877h.735V8z" class="fill-current text-white"/><path fill="#fff" d="M15.348 8a.431.431 0 0 1-.438-.438v-.905h.791v.679h.863V6.247H14.91V4.438c0-.254.198-.438.438-.438h1.555c.254 0 .438.198.438.438v.75h-.792v-.524h-.848v.919h1.654v1.979a.431.431 0 0 1-.438.438z" class="fill-current text-white"/></g></svg>