<svg viewBox="0 0 300 40.842" width="250" height="34.035" xmlns="http://www.w3.org/2000/svg"><path d="M98.175 19.802c-2.63 0-3.868 2.32-3.868 4.95 0 1.857 1.083 3.095 2.785 3.095 1.701 0 3.403-1.393 3.867-3.559l.464-2.165c-.619-1.393-1.392-2.321-3.248-2.321zM200.897 18.874c-2.01 0-3.713 1.392-4.486 3.249h1.547c4.022 0 5.105-.774 5.105-1.857 0-.619-.773-1.392-2.166-1.392zM220.39 19.802c-2.63 0-4.177 2.475-4.177 5.105 0 1.702 1.083 2.94 2.785 2.94 1.856 0 3.558-1.393 4.022-3.713l.464-2.166c-.619-1.238-1.547-2.166-3.094-2.166zM122.772 20.42c0-.773-.773-1.392-2.166-1.392-2.01 0-3.712 1.393-4.486 3.25h1.547c3.868-.155 5.105-.929 5.105-1.857zM178.62 14.697h-2.63l-.928 4.331h2.94c2.32 0 3.403-.928 3.403-2.63 0-1.082-.929-1.701-2.785-1.701z"/><path d="M275 19.028c0-1.856-.774-3.558-2.011-4.95-2.32-2.32-5.879-3.558-9.901-3.558-3.868 0-6.807 1.237-8.663 3.094-1.702-2.011-4.177-3.249-7.272-3.249-1.701 0-3.712.31-5.724 1.547a8.317 8.317 0 00-4.331-1.237c-1.702 0-2.94.309-4.023.928a8.87 8.87 0 00-3.867-.928c-2.011 0-3.558.464-4.641 1.082-1.547-.928-3.404-1.392-5.415-1.392-3.249 0-6.343 1.392-8.663 3.558-1.857-2.166-4.796-3.558-9.282-3.558-3.25 0-6.034.928-8.509 2.475-.773-3.867-4.177-7.425-11.603-7.425h-7.425c-3.25 0-5.88 1.392-7.271 3.867l-.929-1.237c-1.547-2.166-4.795-2.321-5.724-2.321-4.022 0-6.807 1.856-8.354 5.415-.773.154-1.547.618-2.32 1.237-1.547-1.237-3.558-2.01-6.034-2.01-1.701 0-3.713.309-5.724 1.546a8.317 8.317 0 00-4.331-1.237c-2.166 0-3.868.618-4.796 1.701-1.857-1.237-4.332-2.01-7.426-2.01-2.32 0-4.332.463-6.343 1.237.62-2.785-.31-4.641-1.237-5.724-.929-1.083-2.63-2.476-5.724-2.476h-.774c-2.63 0-6.033 1.083-7.116 6.498v1.083c-.928-.155-1.857-.31-2.785-.31-2.784 0-5.26.929-7.27 2.476-.93-1.083-2.63-2.166-5.57-2.166h-.774c-1.701 0-3.867.464-5.414 2.32-.929-1.082-2.63-2.32-5.724-2.32h-.774c-1.237 0-2.63.31-3.867 1.083a2.136 2.136 0 01-.62-.464l.465-1.702-1.238-1.547c-1.547-2.166-4.796-2.32-5.724-2.32-3.094 0-5.569 1.082-7.116 3.248-.155-.155-.31-.31-.31-.464-2.32-2.32-6.188-3.713-10.829-3.713-9.591 0-13.923 6.034-13.923 12.067 0 1.547.31 2.785.774 4.022C26.702 22.432 25 25.062 25 27.847c0 2.01.774 4.022 2.475 5.878 1.702 1.702 5.105 3.713 11.294 3.713 5.414 0 8.972-1.547 11.293-3.867.155.309.31.464.464.618 1.238 1.547 3.558 3.25 7.89 3.25 3.558 0 5.724-1.239 6.961-2.476 1.238 1.237 3.25 2.32 6.498 2.32 1.547 0 3.558-.309 5.57-1.392 1.392.928 3.093 1.392 5.105 1.392 2.475 0 4.486-.928 5.724-2.165 1.701 1.392 4.022 2.165 6.497 2.165 1.856 0 3.558-.464 5.105-1.392 1.393.928 2.94 1.392 4.95 1.392 2.785 0 4.797-.928 6.034-2.32 2.166 1.547 4.95 2.32 8.354 2.32 2.94 0 5.415-.618 7.426-1.856 1.237.928 2.94 1.547 4.796 1.547h.773c1.857 0 4.022-.619 5.57-2.63 1.237 1.702 3.403 2.94 6.806 2.94 3.094 0 5.106-1.238 6.034-2.321.155-.155.155-.155.155-.31 1.392 1.238 3.558 2.63 7.27 2.63 3.25 0 5.415-1.083 6.653-2.165 1.083.928 2.784 1.701 5.26 1.701h7.735c5.879 0 9.437-1.547 11.603-3.558 2.32 2.475 5.878 4.022 10.21 4.022 3.868 0 7.271-1.083 9.282-3.248 1.857 2.01 4.487 3.248 7.58 3.248 2.012 0 3.868-.464 5.415-1.392 1.393.928 3.094 1.392 5.105 1.392 1.857 0 3.404-.464 4.641-1.237 1.083.619 2.476.928 3.868.928h.774c1.856 0 4.022-.619 5.569-2.63 1.237 1.702 3.403 2.94 6.807 2.94 2.784 0 4.486-.929 5.57-1.857 2.165 1.238 4.95 1.856 8.044 1.856 8.818 0 11.912-5.414 11.912-10.055 0-1.238-.155-2.32-.619-3.249.773-1.083 1.547-2.785 1.547-4.95zM48.205 17.946c-1.547-2.012-4.022-3.404-6.342-3.404-1.857 0-2.785.774-2.785 1.857 0 1.082 1.702 1.547 3.868 2.32 3.094 1.083 6.188 2.63 6.188 6.343 0 4.641-3.25 8.2-10.52 8.2-4.177 0-6.962-1.084-8.509-2.63-.928-.929-1.392-1.857-1.392-2.94 0-2.166 2.475-3.713 2.63-3.404 1.547 1.857 4.486 3.404 7.116 3.404 1.857 0 2.63-.619 2.63-1.857 0-1.083-1.547-1.392-3.403-2.165-2.785-1.083-5.724-2.63-5.724-6.653 0-4.022 2.939-7.89 9.9-7.89 3.868 0 6.498.929 8.045 2.476a3.623 3.623 0 011.083 2.63c0 2.475-2.63 4.022-2.785 3.713zm17.327 1.547c-.464.464-.928.618-2.32.618h-2.476L59.5 25.835c-.31 1.547.31 2.166 1.237 2.166.774 0 1.547-.31 2.012-.773.154-.155.928.464.928 1.856 0 1.083-.464 1.857-1.083 2.63-.928.928-2.475 1.547-4.332 1.547-4.486 0-6.343-2.63-5.57-6.961l1.238-6.189h-.464c-1.547 0-2.32-.773-2.32-1.856 0-.619.31-2.011.928-2.63.619-.31 1.083-.619 2.475-.619h.62l.154-.464c.619-3.094 2.01-4.486 4.95-4.486 1.547 0 2.63.619 2.476.773l-.929 4.177h2.011c1.702 0 2.476.774 2.476 1.857.154.618-.155 2.01-.774 2.63zm21.35-1.238l-2.012 9.746c-.464 2.166-.155 2.94 1.083 3.249 0 0-.464 1.856-3.558 1.856-2.785 0-4.177-1.392-4.332-3.558-1.547 2.166-3.558 3.558-6.343 3.558-4.177 0-6.033-3.094-4.95-8.044l1.392-6.962c.464-2.475 1.392-3.249 3.249-3.249h.773c1.857 0 3.559.774 2.94 3.25l-1.393 6.187c-.464 1.857.155 3.25 1.857 3.25 1.237 0 1.856-.465 2.63-1.548l1.702-7.89c.464-2.475 1.392-3.249 3.094-3.249h.773c1.857 0 3.558.774 3.094 3.404zm17.635 15.006c-2.784 0-4.022-1.392-4.177-3.558-1.083 2.166-3.094 3.558-5.724 3.558-3.867 0-6.807-2.785-6.807-7.426 0-5.724 3.559-11.138 8.973-11.138 2.166 0 4.487.928 5.57 2.94l1.392-6.653c.464-2.475 1.392-3.404 3.249-3.404h.773c1.857 0 3.558.774 2.94 3.25l-3.559 17.017c-.464 2.165-.154 2.939 1.083 3.248-.155.31-.619 2.166-3.713 2.166zm14.388-4.641c2.01 0 3.713-1.083 4.795-2.32 0 0 2.785.309 2.785 2.475 0 1.237-.31 1.856-1.083 2.63-1.083 1.083-3.403 2.01-6.497 2.01-6.343 0-9.128-3.248-9.128-7.734 0-6.498 4.95-10.83 11.139-10.83 4.796 0 7.426 2.166 7.426 5.57 0 3.713-2.321 5.879-10.21 5.879h-2.785c.154 1.392 1.392 2.32 3.558 2.32zm29.239 2.166s-.62 2.475-4.023 2.475c-2.94 0-4.177-1.392-4.177-3.558 0-1.083.31-2.011.774-4.177.464-1.547.619-2.63.619-3.249 0-1.392-.774-2.166-2.012-2.166-1.237 0-1.856.464-2.63 1.547l-1.701 7.89c-.464 2.476-1.393 3.249-3.094 3.249h-.774c-1.856 0-3.558-.773-2.94-3.249l2.94-14.232c0-.155.928-.465 2.011-.465 1.702 0 3.404.929 3.713 3.404 1.547-2.166 3.558-3.713 6.498-3.713 3.403 0 5.414 2.32 5.414 5.57 0 1.237-.309 2.784-.928 5.105-.464 1.701-.773 3.094-.773 3.867-.31 1.083.154 1.547 1.083 1.702zm16.707-11.293c-.464.464-.928.618-2.32.618h-2.475l-1.238 5.724c-.31 1.547.31 2.166 1.238 2.166.773 0 1.547-.31 2.01-.773.156-.155.929.464.929 1.856 0 1.083-.464 1.857-1.083 2.63-.928.928-2.475 1.547-4.332 1.547-4.486 0-6.342-2.63-5.569-6.961l1.238-6.189h-.464c-1.547 0-2.32-.773-2.32-1.856 0-.619.309-2.011.927-2.63.774-.31 1.238-.619 2.63-.619h.62l.154-.464c.619-3.094 2.01-4.486 4.95-4.486 1.547 0 2.63.619 2.476.773l-.929 4.177h2.011c1.702 0 2.476.774 2.476 1.857 0 .618-.155 2.01-.929 2.63zm23.206 6.033c0 4.332-2.785 7.271-10.83 7.271h-7.734c-2.785 0-4.177-1.392-3.559-4.486l3.25-15.007c.463-2.475 2.01-3.558 4.33-3.558h7.427c5.105 0 7.735 1.857 7.735 5.105 0 2.94-1.393 4.951-4.95 5.88 2.939.618 4.33 2.474 4.33 4.795zm10.365.464h-2.785c.155 1.702 1.393 2.63 3.713 2.63 2.011 0 3.713-1.083 4.796-2.32 0 0 2.785.309 2.785 2.475 0 1.237-.31 1.856-1.083 2.63-1.083 1.083-3.249 2.01-6.498 2.01-6.343 0-9.127-3.248-9.127-7.734 0-6.498 4.95-10.83 11.138-10.83 4.796 0 7.426 2.166 7.426 5.57-.155 3.403-2.475 5.57-10.365 5.57zm30.477 2.011c-.465 2.166-.155 2.94 1.082 3.249 0 0-.464 1.856-3.558 1.856-2.784 0-4.177-1.547-4.331-3.712-1.238 2.165-3.404 3.712-6.189 3.712-3.867 0-6.497-2.784-6.497-7.116 0-5.879 3.868-11.448 9.592-11.448 2.32 0 4.486 1.083 5.414 3.094.928-2.011 2.32-2.785 4.641-2.785 1.393 0 2.32.62 2.32.774zm23.205 2.785s-.619 2.475-4.022 2.475c-2.94 0-4.177-1.392-4.177-3.558 0-1.083.31-2.011.773-4.177.464-1.547.619-2.63.619-3.249 0-1.392-.773-2.166-2.011-2.166s-1.857.464-2.63 1.547l-1.702 7.89c-.464 2.476-1.392 3.249-3.094 3.249h-.773c-1.857 0-3.559-.773-2.94-3.249l2.94-14.232c0-.155.928-.465 2.01-.465 1.703 0 3.404.929 3.714 3.404 1.547-2.166 3.558-3.713 6.497-3.713 3.404 0 5.415 2.32 5.415 5.57 0 1.237-.31 2.784-.928 5.105-.465 1.701-.774 3.094-.774 3.867-.31 1.083.155 1.547 1.083 1.702zm16.553-8.663c-1.237-1.548-3.094-2.785-5.105-2.785-1.083 0-1.702.464-1.702 1.083 0 .464.62.773 2.475 1.547 2.785 1.083 5.26 2.32 5.26 5.414 0 3.559-2.63 5.88-7.89 5.88-3.712 0-6.188-.93-7.58-2.321-.619-.62-1.083-1.393-1.083-2.321 0-1.856 1.857-2.94 2.011-2.785 1.393 1.393 3.713 2.785 5.724 2.785 1.083 0 1.702-.464 1.702-.928s-.619-.774-1.856-1.392c-2.476-.929-5.106-2.012-5.106-5.26 0-3.713 2.63-6.189 7.58-6.189 3.095 0 5.57.929 6.963 2.321.464.464.928 1.238.928 2.011 0 2.011-2.166 3.094-2.32 2.94z"/><path d="M177.692 23.205h-3.404l-1.083 4.487h3.713c2.63 0 3.868-.774 3.868-2.785 0-1.237-1.083-1.702-3.094-1.702z"/></svg>