<svg xmlns="http://www.w3.org/2000/svg" width="250" height="68.345" fill="none" viewBox="0 0 312.5 85.431"><path fill="#000427" d="M198.403 31.946c2.473 0 4.721.674 6.745 1.91 2.023 1.35 3.71 3.148 4.721 5.284 1.236 2.36 1.799 5.058 1.799 7.756 0 2.923-.563 5.396-1.687 7.756-1.011 2.136-2.697 4.047-4.72 5.396-2.024 1.237-4.272 1.911-6.633 1.911-1.686 0-3.372-.337-4.833-1.012-1.462-.674-2.698-1.46-3.822-2.585v.337c0 .9-.338 1.686-.9 2.36-.562.675-1.349.9-2.36.9-1.687 0-3.148-1.349-3.26-3.035V24.639c0-.9.337-1.686.899-2.36.562-.675 1.461-1.012 2.36-.9.9 0 1.687.337 2.361.9.562.674.9 1.46.9 2.36v11.24c1.011-1.236 2.248-2.135 3.597-2.81 1.46-.786 3.147-1.123 4.833-1.123zM141.75 55.215c.45 0 1.011.224 1.349.674.45.45.674 1.124.674 1.91 0 1.013-.562 1.8-1.574 2.474-1.011.674-2.248 1.012-3.597 1.012-2.023.112-3.934-.45-5.62-1.462-1.574-.9-2.248-3.035-2.248-6.07V38.915h-2.473c-1.574.112-2.923-1.236-3.035-2.81v-.225c0-.787.337-1.574.899-2.136s1.349-.787 2.136-.787h2.473v-3.484c0-.9.337-1.687.899-2.361.562-.674 1.461-1.012 2.36-.9.9 0 1.687.338 2.249.9.562.674.899 1.461.899 2.36v3.485h3.822c1.574-.112 2.922 1.237 3.035 2.81v.225c0 1.574-1.349 2.923-2.923 2.923h-3.934v14.613c0 .787.225 1.35.562 1.687.45.337.9.561 1.574.561.231 0 .462-.052.767-.122.139-.032.293-.067.47-.102.449-.225.786-.337 1.236-.337zm31.475-23.27c1.686 0 3.147 1.35 3.26 3.036v23.044c0 .899-.338 1.686-.9 2.36-.562.675-1.349.9-2.36.9-.9 0-1.687-.338-2.249-.9-.562-.674-.899-1.461-.899-2.36-1.012 1.124-2.248 2.023-3.597 2.697-1.461.675-3.148 1.125-4.834 1.125-2.473 0-4.72-.675-6.744-1.911-2.024-1.35-3.71-3.148-4.722-5.284a16.749 16.749 0 0 1-1.798-7.756c0-2.923.562-5.396 1.686-7.756 1.012-2.136 2.698-4.047 4.721-5.396 2.024-1.236 4.272-1.91 6.633-1.91 3.26 0 6.294 1.123 8.655 3.372 0-.9.337-1.687.9-2.361.561-.675 1.348-1.012 2.248-.9zm-5.171 21.358a10.117 10.117 0 0 0 2.248-6.407c0-2.585-.787-4.721-2.248-6.52a7.082 7.082 0 0 0-5.733-2.585c-2.36 0-4.16.9-5.62 2.585-1.462 1.799-2.249 4.16-2.249 6.52 0 2.586.787 4.721 2.136 6.407 1.461 1.687 3.597 2.698 5.733 2.586 2.36 0 4.271-.9 5.733-2.586zm35.184 0c1.461-1.798 2.248-4.159 2.248-6.52 0-2.585-.674-4.72-2.136-6.407a7.272 7.272 0 0 0-5.733-2.585c-2.36 0-4.271.9-5.733 2.585a10.342 10.342 0 0 0-2.248 6.408c0 2.585.675 4.72 2.248 6.52 1.462 1.686 3.598 2.697 5.733 2.585 2.361 0 4.16-.9 5.62-2.586zm20.908 4.722c0 .899-.337 1.686-.9 2.36-.561.675-1.46.9-2.36.9-.9 0-1.686-.338-2.248-.9-.562-.674-.9-1.461-.9-2.36V24.639c0-.9.338-1.686.9-2.36.674-.675 1.461-1.012 2.36-.9.9 0 1.687.337 2.249.9.674.674.9 1.46.9 2.36zm31.924-9.667c.675-.563 1.012-1.237 1.012-2.136 0-5.059-2.697-9.78-6.631-12.478-2.136-1.236-4.385-1.91-6.746-1.91-2.473 0-4.72.674-6.857 1.91-2.248 1.35-3.934 3.148-5.17 5.396-1.237 2.248-1.911 4.946-1.911 8.093-.113 2.698.562 5.284 1.798 7.532 1.237 2.136 2.923 3.934 5.17 5.17 2.25 1.237 4.835 1.912 7.87 1.912 1.799 0 3.484-.338 5.17-.9a13.625 13.625 0 0 0 4.048-2.135c1.01-.675 1.461-1.574 1.461-2.586 0-.787-.226-1.349-.788-1.91-.562-.563-1.123-.788-1.91-.788-.563 0-1.236.113-1.8.45l-1.01.562c-.675.45-1.35.675-2.025.9-.899.336-2.022.449-3.484.449-4.046.112-7.531-2.81-8.206-6.745h17.762c.9 0 1.572-.224 2.247-.786zM243.367 37.79c1.686 0 3.26.562 4.496 1.574 1.237 1.011 2.136 2.36 2.25 3.934v.337h-14.165c.787-3.934 3.26-5.845 7.42-5.845zm36.757-4.946c-.672-.562-1.574-.9-2.697-.9-1.685 0-3.372.338-4.833 1.125-1.574.787-2.811 1.91-3.597 3.372v-.674c0-.9-.224-1.687-.9-2.36-.674-.563-1.46-.9-2.361-.9-.9-.113-1.799.225-2.36.9-.562.673-.9 1.46-.9 2.36v22.144c0 .9.338 1.686.9 2.36.675.563 1.35.9 2.36.9 1.012 0 1.8-.225 2.362-.9.562-.674.899-1.46.899-2.36V45.098c-.113-1.462.224-2.81.786-4.16.45-1.011 1.237-1.91 2.136-2.585 1.125-.787 2.586-1.012 3.934-.674l.675.224c.675.225 1.236.338 1.798.338.788.112 1.461-.225 2.025-.787.673-.562.899-1.35.899-2.473 0-.787-.45-1.574-1.126-2.136z"/><path fill="#066fd1" d="M98.075 23.722a18.865 18.865 0 0 0-13.659-13.658 119.388 119.388 0 0 0-37.987 0A18.865 18.865 0 0 0 32.77 23.722a119.388 119.388 0 0 0 0 37.987 18.865 18.865 0 0 0 13.658 13.659 119.395 119.395 0 0 0 37.987 0 18.865 18.865 0 0 0 13.659-13.659 119.395 119.395 0 0 0 0-37.987z"/><path fill="#fff" d="M52.648 56.496A37.374 37.374 0 0 0 64.39 44.858c.952-1.481.952-3.491 0-4.972-3.068-4.655-6.983-8.57-11.743-11.532-2.328-1.481-5.396-.635-6.877 1.692-.106 0-.106.106-.106.106a4.866 4.866 0 0 0 1.798 6.666c2.434 1.586 4.55 3.385 6.454 5.607-1.798 2.221-4.02 4.126-6.454 5.607-1.587.846-2.539 2.54-2.539 4.338a5.12 5.12 0 0 0 7.724 4.126zM69.152 55.12h12.06c2.222 0 4.021-1.058 4.021-3.173 0-2.116-1.799-3.174-4.02-3.174H69.152c-2.222 0-4.02 1.058-4.02 3.174 0 2.115 1.798 3.174 4.02 3.174z"/></svg>