<svg xmlns="http://www.w3.org/2000/svg" fill="#fb7701" stroke="none" aria-label="temu" class="_1nkfa5vq" version="1.1" viewBox="0 0 1243.923 1243.923"><path fill="#fb7701" d="M851.362 212.362c99.5 0 180.2 80.7 180.2 180.2v458.8c0 99.5-80.7 180.2-180.2 180.2h-458.8c-99.5 0-180.2-80.7-180.2-180.2v-458.8c0-99.5 80.7-180.2 180.2-180.2zm63.1 423.8c-9.6 0-17.4 8-17.4 17.8v74.6c0 23.4-12.9 35.5-34.1 35.5-21.2 0-34.1-12.5-34.2-36.6v-73.5c0-9.8-7.8-17.8-17.4-17.8-9.6 0-17.4 8-17.4 17.8v74.4c0 43.5 26 65.7 68.5 65.6 42.5 0 69.4-22 69.4-66.7v-73.3c0-9.8-7.8-17.8-17.4-17.8zm-269.5 0h-10.8c-9.6 0-17.4 8-17.4 17.8v122.2c0 9.8 7.8 17.8 17.4 17.8 9.6 0 17.4-8 17.4-17.8v-80.2l29.3 42.4c6.1 8.8 18.8 8.8 24.9 0l29.4-42.4v80.2c0 9.8 7.8 17.8 17.4 17.8 9.6 0 17.4-8 17.4-17.8v-122.2c0-9.8-7.8-17.8-17.4-17.8h-10.8c-4.2 0-8.1 2.1-10.4 5.5l-38 58.5-38-58.5c-2.4-3.5-6.3-5.5-10.4-5.5zm-219.3 0h-101.7c-9.6 0-17.4 8-17.4 17.8s7.8 17.8 17.4 17.9h33.5v104.1c0 9.8 7.8 17.8 17.3 17.9 9.6 0 17.4-8 17.4-17.9v-104.1h33.5c9.6 0 17.4-8 17.4-17.9 0-9.8-7.8-17.8-17.4-17.8zm150.4 0h-94.2c-9.6 0-17.4 8-17.4 17.8v122c0 9.8 7.8 17.8 17.4 17.9h94.2c9.6 0 17.4-8 17.4-17.9 0-9.8-7.8-17.8-17.4-17.8h-76.8v-25.3h66.9c9.6 0 17.4-8 17.4-17.9 0-9.8-7.8-17.8-17.4-17.8h-66.9v-25.3h76.8c9.6 0 17.4-8 17.4-17.9 0-9.8-7.8-17.8-17.4-17.8zm-174.4-130.8-.4-1.2-.2-.7c-1.8-8.6 2.8-15.4 5.5-18.5l.7-.7c13.7-18 2.2-34.3 2.2-34.3h-3.3l-3.3.1c-13.5.9-22.8 6.9-28 15-6.1-9.3-17.5-15.9-34.7-15.1 0 0-11.5 16.3 2.2 34.3 2.5 2.7 8.5 10.3 6 19.9l-34.9 57.9c-2.8 4.7-1.6 10.8 2.8 13.9 9 6.5 27.2 15.4 58.6 15.5 31.4 0 49.5-9 58.5-15.5l1.4-1.1c3.3-3.3 4-8.6 1.4-12.8l-34.9-57.9zm117.6-28.3c-12-24.3-27.5-28.5-35.2-22.1-5.9 4.8-19.7 24.1-20.6 25.4-15.1 22-14.3 27.3 5.1 39.8 11 7 19.7-2 23.6-4.7-1.8 11.6-7.3 29.9-15.7 42.7-4.5-3.5-7.8-6.2-10-8.1-2.6-2.4-6.6-2.3-9.1.2-1.2 1.2-1.8 2.9-1.7 4.6.1 1.7.8 3.3 2 4.5 20.2 18.9 46.8 29.7 75 29.7 28.4 0 55.1-10.7 75.3-29.7 2.6-2.4 2.7-6.5.3-9-2.5-2.6-6.5-2.7-9.1-.3-1.6 1.5-3.2 2.9-4.9 4.2l-8.8-20.2c-1.4-3.5-3-7.9-4.8-13.2.9-2.2 2.7-4.3 5.4-7.1 1.9-2 3.5-3.9 4.6-5.8 5.9-9.5 2.5-15.1.8-18.8-4.2-8.8-10.8-5.9-15.6-.8-5.9 6.3-11.5 9.1-20.7 11.3-7.7 1.8-13.7.9-18.6-2.3-6.8-4.3-17.3-20.3-17.3-20.3zm219.8-24.8c-10 9.7-12.3 23.9-14.2 39l-.9 7c-2.7 21.1-6.9 42.7-32.1 55.2-5.1 2.5-9.3-5.8-16-5.7-19.3.1-56 17.5-57.5 26.3-1.2 7.2 14.5 13 60.8 13 40.2 0 53.2-62.8 67.3-62.8 14.1 0 7.5 56.9 6 62.8h14.8c-1.3-5.9-2.2-23.8-2.2-49.1 0-25.2 4.4-30.9 8-49.9 3.1-16.6-20.9-31-34-35.8zm144.5 2.1h-41.3c-26.7 0-48.9 21.2-50.7 48.4l-3 43.8c-1.4 20.8 14.6 38.4 35 38.5h78.7c20.3 0 36.4-17.7 35-38.5l-3-43.8c-1.9-27.3-24-48.5-50.7-48.4zm-350.7 100.6c12.4 0 21.9 6.3 25.5 17.9-8.4 2.3-17 3.4-25.7 3.4-13 0-17.6-1.2-25.9-3.6 3.4-10.2 14.4-17.7 26.1-17.6zm311.3-64.3v1.2c0 10.6 8.4 19.2 18.8 19.2 10.3 0 18.7-8.6 18.7-19.2v-1.2c0-4.7 16.6-4.7 16.6 0v1.2c0 20-15.9 36.2-35.3 36.2-19.5 0-35.3-16.2-35.4-36.2v-1.2c0-4.7 16.6-4.7 16.6 0z"/></svg>