<svg xmlns="http://www.w3.org/2000/svg" version="1.1" viewBox="0 0 31.398 24.946" xml:space="preserve"><path fill="#fefefe" d="m36.211 199.136-.58-.007-.22-.25-.221-.25v-1.109l.529-.494.529-.494v-.211H32.015v-.353h-.706v-.353h-.706v-.353h-.705v-.353h-.545l-.433-.433-.433-.432v-2.855l.433-.433.433-.433h.545v-.352h.705v-.353h.706v-.353h.706v-.353h3.88v-8.114h.353v-.545l.433-.433.433-.433h.545v-.353h1.058v-.352h5.292v.352h1.058v.353h.546l.433.433.432.433v.545h.353v8.114h3.88v.353h.706v.353h.706v.353h.705v.352h.546l.433.433.433.433v2.855l-.433.432-.433.433h-.546v.353h-.705v.353h-.706v.353h-.705v.353h-4.234v.211l.53.494.529.494V198.64l-.252.252-.252.252H45.934l-1.396-1.411-1.396-1.411h-3.558l-1.396 1.41-1.396 1.412zm0-.352.228.007 1.396-1.412 1.396-1.41h4.264l1.396 1.41 1.396 1.412h.393l.252-.252.252-.252v-.401l-.882-.86-.882-.858v-.2h4.939v-.352h.706v-.353h.705v-.353h.706v-.353h.545l.433-.433.433-.433v-2.148l-.433-.433-.433-.433h-.545v-.353h-.706v-.353h-.705v-.353h-.706v-.353h-3.88v-8.114h-.353v-.545l-.433-.433-.433-.433h-.545v-.353H43.656v-.352H39.07v.352H38.011v.353h-.544l-.433.433-.433.433v.545h-.353v8.114h-3.88v.353h-.706v.353h-.706v.353h-.705v.352h-.546l-.432.433-.433.433v2.149l.433.433.432.433h.546v.353h.705v.352h.706v.353h.705v.353h4.94v.2l-.883.858-.882.86v.39l.22.25.221.25zm-6.313-5.638h-.353V192.087h.706V193.147zm1.058 0h-.353V192.087h.706V193.147zm1.059 0h-.353V192.087h.705V193.147zm1.763 0h-.352V192.087h.705V193.147zm1.059 0h-.353V192.087h.706V193.147zm1.058 0h-.353V192.087h.706V193.147zm2.117 0h-.353V192.087h.706V193.147zm1.058 0h-.353V192.087h.706V193.147zm1.058 0h-.352V192.087h.705V193.147zm2.47 0h-.353V192.087h.706V193.147zm1.058 0h-.353V192.087h.706V193.147zm1.059 0h-.353V192.087h.705V193.147zm2.116 0h-.353V192.087h.706V193.147zm1.059 0h-.353V192.087h.705V193.147zm1.058 0h-.353V192.087h.706V193.147zm1.764 0h-.353V192.087h.706V193.147zm1.058 0h-.353V192.087h.706V193.147zm1.058 0h-.352V192.087h.705V193.147zm-12.876-9.525h-.53V182.562h1.06V183.621zm0-.353h.176v-.353h-.352v.353zm1.411.353h-.529V182.562h1.058V183.621zm0-.353h.177v-.353h-.353v.353zm1.411.353h-.529V182.562h1.058V183.621zm0-.353h.177v-.353h-.353v.353z" transform="translate(-81.115 -177.21) translate(55.45 .77)"/><path fill="#fefe00" d="M37.306 189.265h-.705v-7.76h.352v-.546l.433-.433.433-.433h.546v-.353h1.058v-.353h3.88v.353H44.362v.353h.545l.433.433.433.433v.545h.353V189.265h-.706v-3.175h.353V185.031h-1.411v1.06h.353v.705h-.706v.353h-1.058V185.902l.611-.611.612-.612h.893v-2.822h-.223l-.323.373-.324.373-.698-.726-.697-.726h-2.878l-.697.726-.698.726-.323-.373-.324-.373h-.223v2.822h.898l.444.444.444.444-.716.689-.717.689v2.32zm6.527 0h-.882v-1.058h1.058v.353h.706v.705z" transform="translate(-81.115 -177.21) translate(55.45 .77)"/><path fill="#0025fe" d="M40.481 189.265h-2.116v-1.952l.611-.611.612-.612h3.01v1.411h1.058v.353H42.597v1.411zm-.529-5.997h-.176v-.353h.352v.353zm1.411 0h-.176v-.353h.353v.353zm1.411 0h-.176v-.353h.353v.353z" transform="translate(-81.115 -177.21) translate(55.45 .77)"/><path fill="#fe0000" d="M33.602 195.615h-.882v-.352h-.705v-.353h-.706v-.353h-.706v-.353h-.545l-.433-.433-.433-.433v-1.443l.433-.433.433-.433h.545v-.353h.706v-.352h.706v-.353h.705v-.353h1.764v.2l-.882.858-.882.86v2.162l.882.859.882.859v.2zm-3.704-2.47h.353v-1.058h-.706V193.147zm1.058 0h.353v-1.058h-.706V193.147zm1.059 0h.352v-1.058h-.705V193.147zm4.63 2.457-1.367-.014-1.103-1.13-1.102-1.13v-1.423l1.143-1.144 1.143-1.143h2.653v.353h-.353v.705h-.353v.706h-.353V193.851h.353v.706h.353v.706h.353v.352zm-2.867-2.456h.353v-1.058h-.705v1.058zm1.059 0h.353v-1.058h-.706v1.058zm1.058 0h.353v-1.058h-.706v1.058zm3.88 2.47h-1.41v-.706h-.353v-.706h-.353v-.705h-.353v-1.764h.353v-.706h.353v-.705h.353v-.706h2.822v5.997zm-1.763-2.47h.353v-1.058h-.706v1.058zm1.058 0h.353v-1.058h-.706v1.058zm1.058 0h.353v-1.058h-.705v1.058zm2.823 2.47H41.54v-5.998h2.822v.706h.353v.705h.352v.706h.353v1.764h-.353v.705h-.352v.706h-.353v.705zm-.353-2.47h.353v-1.058h-.706v1.058zm1.058 0h.353v-1.058h-.706v1.058zm1.059 0h.352v-1.058h-.705v1.058zm1.326 2.47h-1.326v-.353h.352v-.706h.353v-.706h.353V191.382h-.353v-.706h-.353v-.705h-.352v-.353h2.652l1.143 1.143 1.143 1.144v1.424l-1.143 1.143-1.143 1.143zm.79-2.47h.353v-1.058h-.706v1.058zm1.059 0h.352v-1.058h-.705v1.058zm1.058 0h.353v-1.058h-.706v1.058zm.176 2.47h-.882v-.2l.882-.86.882-.858V191.535l-.882-.859-.882-.859v-.199h1.764v.353h.706v.353h.705v.352h.706v.353h.545l.433.433.433.433v1.443l-.433.433-.433.433h-.545v.353h-.706v.353h-.705v.353h-.706v.352zm1.588-2.47h.353v-1.058h-.706v1.058zm1.058 0h.353v-1.058h-.706v1.058zm1.058 0h.353v-1.058h-.705v1.058z" transform="translate(-81.115 -177.21) translate(55.45 .77)"/><path fill="#00ef00" d="m44.582 188.2-.485-.007-.23-.26-.23-.261.262-.262.261-.262h.907V188.207zm-3.25-2.47-1.115-.009-.618-.689-.617-.69-.485-.007-.485-.008v-1.764h.353v.353h.556l.678-.706.678-.705h2.172l.678.705.678.706h.557v-.353h.353v1.764h-.91l-.678.705-.678.706zm.384-.698h.53v-.353h1.058v-.353H42.244v-.352H41.186v.352h-1.763v.353h1.764v.353zm-1.764-1.411h.53v-1.058h-1.06v1.058zm1.411 0h.53v-1.058H40.833v1.058zm1.411 0h.53v-1.058H42.244v1.058z" transform="translate(-81.115 -177.21) translate(55.45 .77)"/><path fill="#000" d="m36.211 198.784-.228-.007-.22-.25-.22-.251v-.391l.881-.859.882-.859v-.2h-4.939v-.352h-.705v-.353h-.706v-.352h-.705v-.353h-.546l-.432-.433-.433-.433v-2.149l.433-.433.432-.433h.546v-.352h.705v-.353h.706v-.353h.705v-.353h3.88v-8.114h.354v-.545l.433-.433.433-.433h.545v-.353H39.07v-.352h4.585v.352H44.715v.353h.545l.433.433.433.433v.545h.352v8.114H50.36v.353h.706v.353h.705v.353h.706v.352h.545l.433.433.433.433v2.149l-.433.433-.433.433h-.545v.353h-.706v.352h-.705v.353h-.706v.353H45.42v.2l.882.858.882.86v.4l-.252.252-.252.252h-.393l-1.396-1.41-1.396-1.412h-4.264l-1.396 1.411-1.396 1.411zm-2.609-3.169h.882v-.199l-.882-.86-.882-.858V191.535l.882-.859.882-.859v-.199H32.72v.353h-.705v.353h-.706v.352h-.706v.353h-.545l-.433.433-.433.433v1.443l.433.433.433.433h.545v.353h.706v.353h.706v.352h.705v.353zm3.043-.013 1.367.013v-.353h-.353v-.705h-.353v-.706h-.353V191.382h.353v-.706h.353v-.705h.353v-.353h-2.653l-1.143 1.143-1.143 1.144v1.423l1.102 1.13 1.103 1.13zm3.13.013h1.412v-5.997h-2.822v.706h-.353v.705h-.353v.706h-.353v1.764h.353v.705h.353v.706h.353v.705zm3.176 0h1.41v-.705h.354v-.706h.352v-.705h.353v-1.764h-.353v-.706h-.352v-.705h-.353v-.706H41.54v5.997zm3.09 0h1.326l1.143-1.143 1.143-1.143v-1.424l-1.143-1.144-1.143-1.143h-2.652v.353h.352v.705h.353v.706h.353V193.85h-.353v.706h-.353v.705h-.352v.353zm3.083 0h.882v-.353h.706v-.352h.705v-.353h.706v-.353h.545l.433-.433.433-.433v-1.443l-.433-.433-.433-.433h-.545v-.353h-.706v-.352h-.705v-.353h-.706v-.353h-1.764v.2l.882.858.882.86v2.162l-.882.859-.882.859v.2zm-11.818-6.35h.706v-2.32l.717-.689.716-.689-.444-.444-.444-.444h-.898v-2.822h.202l.294.294.295.295-.22.073-.218.073v1.734h1.029l.103.22.103.221.102-.22.103-.22H41.187v-.353H42.246v.352h1.028l.103.22.103.221.103-.22.103-.22h1.029V182.591l-.22-.073-.218-.073.294-.295.295-.294h.201v2.822h-.893l-.612.612-.611.611V187.15h1.058v-.353h.706v-.706h-.353V185.031h1.411v1.06h-.353v3.174h.706v-7.76h-.353v-.546l-.433-.433-.433-.433h-.545v-.353H43.303v-.353h-3.88v.353h-1.058v.353h-.546l-.433.433-.433.433v.545h-.352V189.265zm1.337-6.35h-.278v-.185l.789-.79.789-.789h2.84l.79.79.789.789v.185h-.557l-.678-.705-.678-.706h-2.172l-.678.706-.678.705zm1.838 6.35h2.117v-1.411h1.411v.353h1.058v-1.058H44.01v.352h-1.411v-1.411h-3.01l-.612.612-.611.611v1.952zm3.352 0h.882v-.705h-.706v-.353h-1.058v1.058zm-2.506-3.538 1.11.01.434-.432.432-.433v-.193h-1.058v.353H41.186v-.353h-1.763v.189l.397.424.397.424z" transform="translate(-81.115 -177.21) translate(55.45 .77)"/></svg>