<svg xmlns="http://www.w3.org/2000/svg" width="250" height="89.469" fill="none" aria-label="TutaLogoWithText" viewBox="0 0 312.5 111.837"><path fill="#410002" d="M244.724 63.165c0-7.873 5.995-17.267 16.194-17.267h7.516l-2.685 8.589c-3.22 10.2-8.141 16.641-14.225 16.641-4.384 0-6.8-3.042-6.8-7.963m-38.203-4.294c-3.758 12.078 1.968 20.399 14.941 20.399 1.879 0 4.384-.179 5.19-.358.357-.09.536-.268.715-.716l2.237-7.515c.09-.447 0-.805-.627-.716-1.968.179-3.757.358-5.368.358-6.531 0-9.215-3.49-7.247-9.752l4.563-14.673h13.242c.358 0 .715-.18.805-.626l2.326-7.605c.09-.448-.09-.716-.626-.716h-13.063l1.7-5.547c.09-.448 0-.627-.268-.895l-6.89-6.263c-.357-.358-.805-.268-.983.269Zm-45.63.268c-3.847 12.258 2.326 20.31 11.99 20.31 5.546 0 9.93-2.684 13.062-7.068l-.09 5.636c0 .537.269.716.716.716h6.173c.448 0 .716-.179.806-.626l12.436-40.35c.179-.538-.09-.806-.537-.806h-8.857c-.448 0-.716.179-.806.626l-5.278 17c-3.31 10.557-8.5 16.551-13.958 16.551-5.457 0-7.783-4.294-5.726-10.915l6.979-22.457c.179-.537-.09-.805-.537-.805h-8.857c-.448 0-.716.179-.806.626zm-30.151-.268c-3.758 12.078 1.968 20.399 14.941 20.399 1.88 0 4.384-.179 5.19-.358.358-.09.536-.268.715-.716l2.237-7.515c.09-.447 0-.805-.626-.716-1.968.179-3.758.358-5.368.358-6.532 0-9.216-3.49-7.247-9.752l4.563-14.673h13.152c.357 0 .715-.18.805-.626l2.326-7.605c.09-.448-.09-.716-.626-.716h-13.063l1.7-5.547c.09-.448 0-.627-.268-.895l-6.89-6.263c-.357-.358-.805-.268-.984.269Zm117.563 20.578c5.19 0 9.484-2.326 12.705-7.068v5.636c0 .448.268.716.715.716h6.174c.447 0 .715-.179.805-.626l12.526-40.44c.09-.448-.09-.806-.537-.806h-19.505c-19.057 0-26.482 16.552-26.482 27.289 0 9.394 5.815 15.299 13.599 15.299"/><path fill="#850122" d="m38.318 12.078 15.3 15.479c.357.357.715.447 1.252.447h64.507c.448 0 .716-.537.269-.984l-15.12-15.3c-.358-.357-.716-.536-1.432-.536H38.676c-.626 0-.716.536-.358.894m-2.237 87.86c-.09.357.09.715.537.715h63.613c.626 0 .895-.268 1.074-.805l19.236-62.092c.178-.626-.09-.805-.627-.805H56.123c-.537 0-.716.179-.895.626zM31.25 82.042c0 .716.895.716 1.074 0l14.583-47.508c.18-.537.18-.894-.268-1.342L32.145 18.79c-.358-.358-.895-.18-.895.268Z"/></svg>