<svg xmlns="http://www.w3.org/2000/svg" width="250" height="94.215" viewBox="0 0 312.5 117.769"><g style="fill:#c5c7c7"><path d="M55.3.5C25 .5.5 25 .5 55.3v506.3c0 1.9.1 3.9.3 5.7 20.4-7.6 42-15.9 64.8-25 159-63.5 289-117.4 289.1-178.4 0-2-.1-3.9-.4-5.9-8.2-60.2-152-78.8-151.8-106.4 0-1.5.4-3 1.3-4.5 17.3-30.2 85.7-28.8 110.9-30.9 25.2-2.2 84.4-1.7 87.2-19.8.1-.5.1-1.1.1-1.7.1-16.8-40.7-23.3-40.7-23.3s49.5 7.4 49.3 26.6c0 1-.1 1.9-.4 2.9-5.3 20.7-48.9 24.6-77.6 26-27.2 1.4-68.7 4.5-68.8 17.8 0 .8.1 1.6.4 2.4 6.5 19.4 158.4 28.8 255.6 79.3 55.9 29 83.8 77.7 96.5 128V55.3C616.3 25 591.8.5 561.5.5Z" style="fill:#840010;fill-opacity:1" transform="matrix(.16622 0 0 .16622 31.167 11.694)"/><path d="M195.662 42.512h-17.786v47.54h-3.69v-47.54H156.3v-3.109h39.378v3.109zM221.759 54.43v35.622h-1.895c-.599 0-.948-.316-1.03-.931l-.317-5.303c-1.645 2.045-3.557 3.69-5.701 4.937-2.144 1.247-4.571 1.862-7.214 1.862-1.978 0-3.707-.316-5.186-.931-1.48-.615-2.71-1.513-3.69-2.693-.981-1.164-1.713-2.576-2.211-4.222-.499-1.646-.748-3.507-.748-5.585V54.413h3.44v22.773c0 3.34.765 5.95 2.294 7.862 1.53 1.895 3.857 2.843 6.982 2.843 2.31 0 4.471-.582 6.499-1.779 2.011-1.18 3.807-2.826 5.386-4.92V54.43zM243.201 90.617c-2.41 0-4.288-.665-5.635-2.012-1.346-1.346-2.027-3.407-2.027-6.183V58.07h-5.12c-.266 0-.482-.066-.648-.216-.167-.15-.25-.349-.25-.615v-1.33l6.084-.432.864-12.75c.05-.215.15-.398.283-.581.15-.166.35-.25.615-.25h1.612v13.598h11.237v2.576H238.98V82.24c0 .98.133 1.828.383 2.527.249.698.598 1.28 1.03 1.728.45.45.964.782 1.563.998a5.655 5.655 0 0 0 1.928.316c.864 0 1.596-.133 2.21-.383a9.102 9.102 0 0 0 1.613-.83c.449-.3.815-.583 1.114-.832.282-.25.515-.382.681-.382.2 0 .383.116.565.365l.931 1.496c-.914.998-2.06 1.812-3.457 2.41-1.396.599-2.826.965-4.339.965zM256.981 59.466c1.862-1.861 3.824-3.274 5.868-4.222 2.045-.947 4.372-1.43 6.981-1.43 1.912 0 3.574.3 5.02.915 1.43.615 2.627 1.48 3.558 2.61.947 1.13 1.645 2.51 2.127 4.122.482 1.612.715 3.408.715 5.386v23.188h-1.363c-.715 0-1.164-.333-1.33-.997l-.498-4.588c-.981.947-1.945 1.812-2.926 2.576a16.873 16.873 0 0 1-3.025 1.928c-1.047.532-2.178.931-3.408 1.214-1.213.282-2.56.432-4.006.432a12.1 12.1 0 0 1-3.54-.532 9.216 9.216 0 0 1-3.059-1.645c-.898-.748-1.612-1.696-2.144-2.843-.532-1.163-.798-2.543-.798-4.172 0-1.496.432-2.892 1.296-4.189.865-1.296 2.211-2.41 4.04-3.358 1.845-.947 4.189-1.712 7.064-2.294 2.876-.581 6.333-.914 10.356-.997v-3.723c0-3.291-.715-5.835-2.128-7.613-1.413-1.779-3.524-2.66-6.316-2.66-1.712 0-3.175.233-4.389.715-1.213.482-2.227.997-3.058 1.579s-1.513 1.097-2.045 1.58c-.532.481-.964.714-1.33.714-.265 0-.481-.067-.648-.183a1.659 1.659 0 0 1-.432-.465zm20.945 13.365c-3.391.116-6.3.382-8.76.798-2.444.415-4.455.98-6.051 1.695-1.596.715-2.76 1.563-3.524 2.56a5.382 5.382 0 0 0-1.147 3.374c0 1.197.2 2.228.599 3.092.398.864.914 1.58 1.579 2.144.648.566 1.413.964 2.277 1.23a9.104 9.104 0 0 0 2.693.4c1.38 0 2.66-.15 3.806-.45 1.164-.299 2.228-.714 3.225-1.246a15.842 15.842 0 0 0 2.776-1.912 42.627 42.627 0 0 0 2.543-2.393z"/></g></svg>