<svg xmlns="http://www.w3.org/2000/svg" width="250" height="57.565" fill="none" viewBox="0 0 312.5 71.956"><g fill-rule="evenodd" clip-rule="evenodd"><path fill="#00101f" d="M81.722 44.428V16.101h9.903v29.578c0 14.1-11.214 18.626-20.793 18.626-4.719 0-13.377-1.048-17.837-8.197-2.298-3.604-2.425-7.28-2.425-11.675v-11.35c1.332.343 2.693.54 4.1.54 2.416 0 4.436-.54 6.066-1.594v12.926c0 5.179.395 11.675 10.298 11.675 1.636 0 6.557-.066 9.18-4.132.982-1.442 1.508-3.28 1.508-8.07zm115.171-28.327h-9.705v47.42h9.705zM142.315 58.27c-6.754 0-6.754-6.688-6.754-8.855h22.236c.132-2.754.264-7.61-1.964-12.13-3.017-6.167-8.658-8.005-13.381-8.005-3.61 0-6.754 1.048-9.316 2.754-5.57 3.873-6.886 10.298-6.886 15.675 0 5.31 1.246 9.771 4.263 12.92 3.479 3.605 8.855 4.132 11.675 4.132 4.856 0 9.185-1.312 11.61-3.868 2.688-2.82 3.017-5.64 3.149-7.215h-8.855c-.922 3.676-3.347 4.592-5.777 4.592zm-38.696-4.329c.132 2.096 1.443 4.527 5.509 4.527 3.478 0 5.113-1.965 5.113-3.934 0-1.51-.79-2.689-4.592-3.737l-6.035-1.64-.035-.01c-2.704-.79-8.36-2.446-8.36-9.174 0-6.425 5.904-10.36 14.496-10.36 6.825 0 12.328 3.145 12.592 9.772h-8.856c-.258-3.67-3.215-3.934-4.723-3.934-2.623 0-4.592 1.246-4.592 3.276 0 2.233 1.64 2.689 4.526 3.478l5.97 1.64c6.034 1.641 8.854 4.72 8.854 9.25 0 5.707-4.921 11.413-15.214 11.413-4.263 0-8.328-.917-11.346-4.066-2.162-2.294-2.36-4.921-2.425-6.49h9.118zm58.36-15.411c0-1.575-.263-6.36-.46-8.263h9.118l.197 6.36c1.246-2.821 3.413-6.82 11.28-6.43v8.722c-9.837-.916-10.429 4.132-10.429 8.263V63.51h-9.71V38.53Zm41.294-8.202h9.705v33.187h-9.705Zm10.024-14.161h-10.364v8.46h10.364zm6.03-.066h9.645v27.937l10.035-13.842h10.956l-11.346 14.43 12.07 18.89h-11.483L228.972 45.48v18.034h-9.645Zm39.627 33.314c0 2.167 0 8.855 6.754 8.855 2.425 0 4.856-.916 5.772-4.592h8.855c-.132 1.575-.46 4.395-3.15 7.215-2.423 2.556-6.753 3.868-11.608 3.868-2.82 0-8.197-.527-11.675-4.131-3.018-3.15-4.263-7.61-4.263-12.921 0-5.377 1.311-11.807 6.885-15.675 2.557-1.706 5.706-2.754 9.316-2.754 4.724 0 10.365 1.838 13.38 8.004 2.23 4.526 2.097 9.377 1.97 12.131zm12.328-6.096c0-1.509-.13-7.412-5.771-7.412-4.263 0-6.035 3.54-6.233 7.412zm-129.16-7.412c5.64 0 5.772 5.903 5.772 7.412H135.89c.198-3.873 1.97-7.412 6.233-7.412z"/><path fill="#0d8cff" d="M33.559 7.92c2.182 3.174 4.1 5.564 5.736 7.169 2.835 2.835 5.513 4.253 8.04 4.253.719 0 1.301-.173 1.742-.512.41-.374.612-.9.612-1.59 0-.339-.04-.764-.126-1.28-.087-.512-.127-.871-.127-1.079 0-2.08.734-3.888 2.202-5.407 1.469-1.519 3.453-2.278 5.944-2.278 2.628 0 4.764.795 6.405 2.384 1.635 1.59 2.455 3.66 2.455 6.223 0 3.139-1.098 5.71-3.306 7.71-2.202 1.995-5.149 2.998-8.835 2.998-5.635 0-10.758-2.258-15.365-6.764-2.461-2.456-5.023-5.99-7.686-10.602Z"/></g></svg>