<svg viewBox="0 0 300 62.56" width="250" height="52.133" xmlns="http://www.w3.org/2000/svg"><g fill="none" transform="translate(25 5.213) scale(.84714)"><path d="M87.34 42.26h-4.49V38.2c-1.4 2.89-4 4.18-7.41 4.22-4.75 0-7.6-3.05-7.6-8V21.51h4.48v11.66c0 3.12 1.84 5 4.84 5 3.59-.08 5.69-2.84 5.69-6.47V21.51h4.49zm20.09-18.84l-1.64 3.32a12.23 12.23 0 00-6-1.84c-1.75 0-3 .59-3 2.07 0 3.82 11 1.76 11 9.28 0 4.25-3.79 6.17-8 6.17a12.82 12.82 0 01-8.34-2.89l1.59-3.2a11.32 11.32 0 007 2.58c1.91 0 3.39-.67 3.39-2.23 0-4.25-10.92-1.87-10.88-9.36 0-4.21 3.66-6 7.64-6a13.18 13.18 0 017.24 2.1zM131 33.6h-15.67a6.32 6.32 0 006.44 5.19 8.07 8.07 0 005.85-2.42l2.38 2.54a11.32 11.32 0 01-8.58 3.51c-6.4 0-10.61-4.26-10.61-10.5s4.33-10.53 10.49-10.56c7.29 0 10.26 4.75 9.7 12.24zm-3.9-3.27c-.16-3.36-2.38-5.39-5.77-5.39a5.91 5.91 0 00-6.09 5.39zm13.08-4.69a7.54 7.54 0 017.17-4.28v4.28c-4.17-.23-6.82 2.23-7.17 5.78v10.84h-4.49V21.51h4.49zm27.82-.97l-1.68 2.15a8.65 8.65 0 00-6.13-2.38c-4.25 0-7.29 3.08-7.29 7.56 0 4.48 3 7.61 7.29 7.61a8 8 0 006.39-2.61l1.76 1.88a10.34 10.34 0 01-8.23 3.55c-6 0-10.18-4.26-10.18-10.38 0-6.12 4.25-10.37 10.18-10.37a10.54 10.54 0 017.89 2.99zm22.61 8.5h-16.77a7.19 7.19 0 007.45 6.55 8.56 8.56 0 006.35-2.57l1.68 1.8a10.82 10.82 0 01-8.27 3.43c-6 0-10.22-4.26-10.22-10.38 0-6.12 4.22-10.37 10.17-10.37 6.64-.04 9.92 4.56 9.61 11.54zm-2.73-2.49c-.2-3.94-2.85-6.44-6.87-6.44a6.94 6.94 0 00-7.17 6.44zm25.75-1.1v12.68h-3V30.4c0-3.62-2.18-5.77-5.81-5.77-4.06 0-6.55 2.69-6.9 6.59v11h-3V21.71h3v4.52c1.44-3.12 4.21-4.6 8-4.64 4.83 0 7.71 3.04 7.71 7.99zM230 40.86a8.63 8.63 0 01-4.64 1.56c-3 0-5.23-1.8-5.23-5.85V24.83h-3v-2.46h3V17h3v5.42h6.51v2.5h-6.51V36c0 2.5 1 3.43 2.72 3.43a6.23 6.23 0 003.28-1.05zm8.67-14.59a7.69 7.69 0 017.38-4.68v3.08c-4.33-.08-7 2.61-7.38 6.67v10.92h-3V21.71h3zm15.94-10.45a2 2 0 11-4 0 2 2 0 014 0zm-3.47 26.44V21.71h3v20.55zm25.45-17.59l-1.68 2.15a8.64 8.64 0 00-6.12-2.38c-4.26 0-7.3 3.08-7.3 7.56 0 4.48 3 7.61 7.3 7.61a8 8 0 006.35-2.61l1.76 1.88a10.33 10.33 0 01-8.23 3.55c-6 0-10.18-4.26-10.18-10.38 0-6.12 4.25-10.37 10.18-10.37a10.54 10.54 0 017.92 2.99zm17.86-1.21l-1.17 2.42a10.91 10.91 0 00-5.58-1.68c-2.3 0-4.05.82-4.05 2.73 0 4.56 11.46 2.23 11.46 9.6 0 4-3.59 5.85-7.52 5.85a11.6 11.6 0 01-7.88-2.89l1.17-2.3a10.37 10.37 0 006.82 2.61c2.42 0 4.37-.89 4.41-2.92.12-5-11.39-2.42-11.35-9.71 0-3.94 3.39-5.58 7.14-5.58a11.9 11.9 0 016.55 1.87z" fill="#000"/><circle fill="#0095ff" cx="34.58" cy="31.24" r="13"/><circle fill="#b8cee1" cx="61.24" cy="5" r="5"/><circle fill="#0d47a1" cx="51.25" cy="52.54" r="9"/><circle fill="#f25900" cx="7" cy="42.16" r="7"/></g></svg>