<svg xmlns="http://www.w3.org/2000/svg" width="250" height="70.757" fill="none" viewBox="0 0 312.5 88.447"><mask id="a" width="44" height="44" x="0" y="5" mask-type="alpha" maskUnits="userSpaceOnUse"><circle cx="22" cy="27" r="22" fill="#4877b5"/></mask><path fill="#4a4a4a" d="M159.573 69.953h-2.638l-10.083-35.429c-.837-2.91-1.465-5.297-1.884-7.16-.335 1.82-.817 3.915-1.445 6.28-.607 2.367-3.978 14.47-10.113 36.31h-2.701l-12.627-45.92h3.36l8.041 29.587.88 3.33a81.98 81.98 0 0 1 .722 2.857c.23.88.43 1.738.597 2.576.189.816.356 1.643.503 2.481.502-2.848 1.57-7.172 3.203-12.972l7.852-27.86h3.55l9.202 31.975c1.068 3.685 1.833 6.659 2.293 8.92a77.79 77.79 0 0 1 1.037-4.806c.44-1.696 3.675-13.725 9.705-36.088h3.235zm42.935-16.207h-18.656l-6.407 16.207h-3.55l18.47-46.108h2.04l18.091 46.108h-3.611zm-17.494-2.89h16.427l-6.251-16.552c-.523-1.298-1.152-3.099-1.885-5.402-.564 2.01-1.182 3.832-1.852 5.465zm61.153-26.822h3.485l-17.18 45.92h-2.827l-17.116-45.92h3.422l11.559 31.251c1.76 4.712 2.941 8.25 3.549 10.617.418-1.57 1.246-4.01 2.481-7.319zm35.083 45.92h-25.096v-45.92h25.096v2.952h-21.891v17.37h20.666v2.952h-20.666V67h21.891z"/><g mask="url(#a)" transform="translate(31.25 .804) scale(1.60812)"><circle cx="22" cy="27" r="22" fill="#4877b5"/><path stroke="#fff" stroke-width="4" d="M0 17c6.075 0 4.925 20 11 20s4.925-20 11-20 4.925 20 11 20 4.925-20 11-20"/></g></svg>