<svg xmlns="http://www.w3.org/2000/svg" width="250" height="43.009" fill="none" viewBox="0 0 312.5 53.761"><g clip-path="url(#a)" transform="matrix(1.80777 0 0 1.80777 31.055 5.19)"><path fill="#22244e" d="M112.065 1.757h-4.951a.418.418 0 0 0-.419.42v19.685c0 .232.187.42.419.42h4.951a.418.418 0 0 0 .419-.42V2.176a.42.42 0 0 0-.419-.419z"/><path fill="#d33f1f" d="M21.414.104v9.594h-5.342V.104h-5.311v9.594H5.419V.104H3.04a2.931 2.931 0 0 0-2.932 2.93v17.93a2.931 2.931 0 0 0 2.932 2.93h20.755a2.931 2.931 0 0 0 2.932-2.93V3.033a2.931 2.931 0 0 0-2.932-2.93h-2.381ZM5.419 18.919v-3.878h15.997v3.878z"/><path fill="#22244e" d="m85.558 21.868-.076-19.706c0-.23.186-.415.413-.415l9.956.01c5.081 0 7.549 2.463 7.549 6.572 0 4.098-2.688 6.958-7.519 6.958h-4.123a.413.413 0 0 0-.413.413v6.166a.413.413 0 0 1-.413.413h-4.961a.41.41 0 0 1-.413-.41zm6.219-15.96a.433.433 0 0 0-.432.432v4.531c0 .238.191.43.43.43h3.148c1.662 0 2.824-1.156 2.824-2.81 0-1.494-1.255-2.583-2.983-2.583zm-10.698-.595V2.174a.418.418 0 0 0-.417-.417H68.47a.418.418 0 0 0-.417.417v19.7c0 .23.187.418.417.418h12.192c.23 0 .417-.188.417-.417v-3.139a.418.418 0 0 0-.417-.417H74.26a.418.418 0 0 1-.417-.417v-3.679c0-.23.187-.417.417-.417h6.402c.23 0 .417-.187.417-.417v-3.138a.418.418 0 0 0-.417-.417H74.26a.418.418 0 0 1-.417-.417V6.144c0-.23.187-.417.417-.417h6.402a.413.413 0 0 0 .417-.414zm49.48 4.863 7.367-8.008a.244.244 0 0 0-.18-.409h-6.239l-7.527 8.262a.549.549 0 0 1-.403.179h-.271c-.327 0-.537-.165-.537-.533l-.03-7.505a.406.406 0 0 0-.407-.405h-5.364a.407.407 0 0 0-.407.407l.004 19.71c0 .224.181.407.407.407l5.392-.004a.405.405 0 0 0 .405-.407v-3.41c0-.263.1-.517.281-.708l2.682-2.86a.605.605 0 0 1 .417-.215h.369c.128 0 .319.095.396.199l5.664 7.405h5.578c.201 0 .315-.23.195-.39L130.498 11.5a1.04 1.04 0 0 1 .061-1.324zM64.437 1.757l-5.01.002a.398.398 0 0 0-.389.316L56.18 15.557c-.035.159-.26.159-.293 0L53.009 1.938a.397.397 0 0 0-.332-.18l-5.92.001a.4.4 0 0 0-.39.316l-2.864 13.478c-.034.159-.26.159-.293 0L40.394 2.075a.399.399 0 0 0-.39-.318l-5.26.004a.305.305 0 0 0-.292.385l5.437 19.842a.399.399 0 0 0 .385.293l6.005-.002a.4.4 0 0 0 .383-.286l2.785-9.554a.15.15 0 0 1 .29 0l2.822 9.558c.05.169.205.286.382.286h6.002c.179 0 .337-.12.384-.295L64.73 2.142a.305.305 0 0 0-.293-.385Z"/></g><defs><clipPath id="a"><path fill="#fff" d="M0 0h138.581v24H0Z"/></clipPath></defs></svg>