<svg xmlns="http://www.w3.org/2000/svg" xmlns:xlink="http://www.w3.org/1999/xlink" xml:space="preserve" id="Ebene_1" width="250" height="148.803" x="0" y="0" version="1.1" viewBox="0 0 312.5 186.004"><style id="style1" type="text/css">.st2,.st3{fill:#fff}.st3{fill-rule:evenodd;clip-rule:evenodd}</style><path id="rect1" d="M31.25 18.6h250v148.803h-250z" style="stroke-width:1.32979;fill:#002d62"/><g id="g7" transform="translate(35.1 18.452)"><defs id="defs1"><path id="SVGID_1_" d="M-13-12.2h205.6v153.6H-13z"/></defs><clipPath id="SVGID_2_"><use xlink:href="#SVGID_1_" id="use1" style="overflow:visible"/></clipPath><g id="g6" clip-path="url(#SVGID_2_)" style="clip-path:url(#SVGID_2_)"><path id="path1" d="M93.6 52.3c0-1.1 1.3-1.9 2.9-1.9 1.6 0 2.9.8 2.9 1.9 0 1.1-1.3 1.9-2.9 1.9-1.6 0-2.9-.8-2.9-1.9" class="st2"/><path id="polygon1" d="M72 55.9h-4.3l-2.5 11.7h-.1l-2.5-11.7h-5.3l-3.1 11.7-2.1-11.7h-4.4L51.4 72h5.2l3.2-12.1L62.4 72h5.1z" class="st2"/><path id="polygon2" d="M77.2 55.9H73L72.9 72h4.2z" class="st2"/><path id="polygon3" d="m88 63.5 5.9-7.6h-4.8l-5.5 7.5.1-7.5h-4.2L79.3 72h4.2l.1-8h.1l5 8h4.9z" class="st2"/><path id="polygon4" d="M98.5 55.9h-4.1L94.3 72h4.2z" class="st2"/><path id="polygon5" d="M115.3 55.9h-3.8l-.1 10.5h-.1l-5.5-10.5h-5l-.2 16.1h3.8l.1-10.6 5.8 10.6h4.9z" class="st2"/><path id="path5" d="M131.5 63.2h-4l-.1 5.4c-.5.3-1 .4-1.6.4-3 0-4.8-2.3-4.8-5.2-.1-2.7 2-5 4.8-5.1h.5c1.2 0 2.3.3 3.3.8l1.3-3c-1.5-.8-3.3-1.2-5-1.2-5.8 0-9.2 3.3-9.2 8.4 0 5.1 3.3 8.7 8.7 8.7 2.1.1 4.2-.3 6.1-1.2z" class="st2"/><path id="polygon6" d="M144.9 62.3H138v-3.1h6.9v-3.3h-11.1V72h11v-3.4H138v-3.1h6.9z" class="st2"/><path id="path6" d="M151.4 65.8h.6c.9 0 1.3.7 1.8 1.7l2.3 4.5h4.8l-2.8-5c-.4-1-1.2-1.9-2.2-2.4 2.1 0 3.9-1.8 3.8-3.9v-.3c0-3.7-2.8-4.5-6.2-4.5H147l-.1 16.1h4.2zm-.1-6.9h1.7c1.7 0 2.5.6 2.5 1.9 0 1.6-1.4 1.9-2.4 1.9h-1.9z" class="st3"/></g></g><g id="g9" transform="translate(35.1 18.452)"><defs id="defs7"><path id="SVGID_3_" d="M18.8 16.4h141.9v96.4H18.8z"/></defs><clipPath id="SVGID_4_"><use xlink:href="#SVGID_3_" id="use7" style="overflow:visible"/></clipPath><g id="g8" clip-path="url(#SVGID_4_)" style="clip-path:url(#SVGID_4_)"><path id="path7" d="M38.5 41.5c-1.2 2.6-6 14.2-6.5 16.1-2.2 8 4.8 11.1 12.6 11.6 1 .1 1.9.1 2.9 0l.9 4.2v4.4l-4 .2c-9 .1-20.3-6.5-14-19.9.4-.9.5-1.5 3.2-7.1 1.7-3.8 3.8-7.6 4.9-9.5" class="st2"/><path id="path8" d="M36.7 22.9c0 .4.4.6.3 1-.1.4-.6.6-1.4.5-.4-.1-.8-.5-.7-1.5.1-1.4 1.2-2.4 2.6-2.3 1.1 0 2.2.8 2.5 1.9.8 2.1-.1 4.5-2.2 5.6-1.7.6-3.6.2-4.9-1.2-1.1-1.1-1.3-3.1-.9-4.9.6-3.6 4.1-6.1 7.7-5.5.7.1 1.3.3 1.9.6 3.4 1.6 4.4 5.7 4.4 8.1 0 2.5-.3 5.1-.9 7.5-.8 3.4-4 13.2-4.3 14.1-.3.9-2.7 6.2.2 8.6.7.6 1.7.9 2.6.7h.8l1.3 6.3h-1.2c-5.7.5-11.2-5.1-9.3-10.2 4.1-10.7 7.2-18.7 7.2-18.7s-15 23.8-16.5 31.1c-1.3 6.2.3 12.8 4.8 16.2 6.1 4.5 10.8 4.1 13.6 3.8l3.9-.7-.1 7.9-4.5.1c-2.6 0-13.2.8-19.8-7.2-14-17.3 4.7-34.2 14.7-49.4 1.6-2.4 3.7-7.1 3.4-10.8.1-1.3-.4-2.6-1.3-3.5-.9-.9-1.5-1.3-3.9-1.4-1.4-.1-2.6.9-3 2.2-.3 1.1 0 2.3.7 3.1.7.6 1.7.8 2.6.5.7-.2 1.5-.8 1.4-1.6-.1-.8-.4-1.2-.9-1.3-.4 0-.8 0-.8.4" class="st2"/></g></g><g id="g13" transform="translate(35.1 18.452)"><defs id="defs9"><path id="SVGID_5_" d="M-13-12.2h205.6v153.6H-13z"/></defs><clipPath id="SVGID_6_"><use xlink:href="#SVGID_5_" id="use9" style="overflow:visible"/></clipPath><g id="g12" clip-path="url(#SVGID_6_)" style="clip-path:url(#SVGID_6_)"><path id="path9" d="M55.7 85.9h.6c.9 0 1.3.7 1.8 1.7l2.3 4.5h4.7l-2.9-5c-.4-1-1.2-1.8-2.2-2.3 2.1 0 3.8-1.7 3.8-3.8v-.3c0-3.7-2.8-4.6-6.2-4.6h-6.2l-.2 16.1h4.2zm-.1-6.9h1.7c1.7 0 2.5.6 2.5 1.9 0 1.6-1.4 1.9-2.4 1.9h-1.9z" class="st3"/><path id="polygon9" d="M77.1 82.4h-6.8v-3.1h6.9V76H66.1l-.2 16h11.2v-3.3h-6.9v-3.1h6.9z" class="st2"/><path id="polygon10" d="M83.4 76h-4.1l-.2 16h4.2z" class="st2"/><path id="path10" d="M85.1 91.6c1.6.6 3.3.9 5 .9 3.6 0 6.8-1.5 6.8-5.4 0-2.2-1.1-3.9-5.2-4.8-1.9-.4-2.3-1-2.3-1.6 0-1.1.7-1.8 2.8-1.8 1.2.1 2.3.3 3.4.7l1.2-3c-1.6-.6-3.4-1-5.1-1.1-3 0-6.5 1.6-6.5 5.1 0 3.1 1.9 4.1 3.8 4.7 1.9.6 3.8.7 3.8 2.1 0 1.4-1.3 1.8-2.7 1.8-1.3-.1-2.5-.3-3.8-.7z" class="st2"/><path id="polygon11" d="M109.6 82.4h-6.9l.1-3.1h6.9V76H98.6l-.1 16h11v-3.3h-6.8v-3.1h6.9z" class="st2"/><path id="polygon12" d="M126.3 76h-3.7l-.2 10.5-5.5-10.5h-5.1l-.1 16h3.7l.1-10.6h.1l5.7 10.6h4.9z" class="st2"/></g></g></svg>