<svg xmlns="http://www.w3.org/2000/svg" width="250" height="52.459" class="NavbarLogo__Logo-sc-70825023-1 kyomOG full" viewBox="0 0 312.5 65.574"><path fill="hsla(230, 78%, 53%, 1)" d="M57.971 42.623h-8.36c-2.623 0-5.082.656-6.886 2.623L31.742 57.869c8.033.492 16.393.492 22.295.492 30 0 34.754-18.033 34.918-27.05-2.623 3.28-10.492 11.312-30.984 11.312zm27.213-29.016c-.164 1.475-.983 7.868-19.016 7.868-14.59 0-20.492 0-34.918-.327l10.82 12.459c2.13 2.459 5.082 3.278 8.36 3.442 3.607 0 8.525.164 9.18.164 20.165 0 28.69-9.344 28.69-16.065.163-3.607-.984-5.902-3.116-7.541z"/><path fill="hsla(230, 100%, 10%, 1)" d="M139.61 20.82h10.656v25.41c0 2.786-.655 5.245-1.803 7.213-1.147 1.967-2.623 3.278-4.59 4.262-1.967.984-4.098 1.311-6.557 1.311-2.46 0-4.59-.491-6.558-1.311-1.967-.984-3.442-2.295-4.59-4.262-.164-.164-.164-.492-.328-.656-.164.164-.164.492-.328.656-1.147 1.967-2.623 3.278-4.59 4.262-1.967.984-4.098 1.311-6.557 1.311-2.46 0-4.59-.491-6.394-1.311-1.967-.984-3.442-2.295-4.59-4.262-1.147-1.968-1.64-4.263-1.64-7.213l-.327-25.41h10.656v23.442c0 1.64.328 2.787 1.147 3.443.82.656 1.803.984 2.951.984 1.148 0 2.295-.328 3.115-.984.82-.656 1.311-1.803 1.311-3.443V20.82H131.25v23.442c0 1.64.492 2.787 1.311 3.443.82.656 1.968.984 3.115.984 1.148 0 2.131-.328 2.951-.984.656-.656.984-1.803.984-3.443Zm26.066-13.607c-.82-.492-1.803-.656-2.95-.656-1.148 0-2.132.164-2.951.656-.82.492-1.64 1.148-2.132 1.967-.491.82-.82 1.804-.82 2.787 0 1.64.493 2.951 1.64 3.935 1.148.983 2.623 1.475 4.262 1.475 1.148 0 2.132-.164 2.951-.656a4.982 4.982 0 0 0 2.131-1.967c.492-.82.82-1.803.82-2.95 0-1.148-.328-1.968-.82-2.788-.491-.655-1.147-1.311-2.13-1.803Zm-8.36 50.984h10.655V21.31h-10.655Zm35.41-17.213c-.492-.82-1.312-1.64-1.968-2.46-.656-.655-1.475-1.31-2.295-2.13l-1.64-1.64a2.77 2.77 0 0 1-.491-1.64c0-.983.492-1.639 1.64-2.13 1.147-.492 2.458-.656 4.098-.656h1.639l-.984-9.836c-.983-.164-1.967-.164-2.95-.164-2.623 0-5.082.328-7.541.983-2.295.656-4.263 1.804-5.738 3.443-1.476 1.64-2.295 3.77-2.295 6.557 0 1.968.328 3.607 1.147 5.082.82 1.476 1.804 2.787 2.951 4.099l1.967 1.967c.656.656 1.312 1.311 1.64 1.803.328.492.492.984.492 1.64 0 .983-.492 1.803-1.64 2.295-1.147.492-2.623.82-4.754.82-.82 0-1.475 0-1.803-.165l1.311 9.837c.984.327 1.804.327 2.951.327 3.115 0 5.738-.491 8.197-1.311 2.459-.82 4.426-2.131 5.901-3.935 1.476-1.803 2.132-3.934 2.132-6.72a12.48 12.48 0 0 0-.492-3.443c-.492-.984-.82-1.804-1.476-2.623Zm19.508 6.72c-.82-.819-1.148-1.966-1.148-3.442V30.656h7.705V21.31h-7.705v-9.344l-10.656 3.115v32.623c0 3.77.82 6.721 2.295 8.525 1.64 1.803 3.935 2.786 7.05 2.786 1.639 0 3.114-.164 4.59-.327a12.703 12.703 0 0 0 3.77-.984l1.967-9.18c-1.147.327-2.622.491-4.262.491-1.803-.164-2.95-.491-3.606-1.311zm13.278 10.493h10.656V21.31h-10.656zm8.361-50.984c-.82-.492-1.803-.656-2.95-.656-1.148 0-2.132.164-2.952.656-.82.492-1.639 1.148-2.13 1.967-.493.82-.82 1.804-.82 2.787 0 1.64.491 2.951 1.639 3.935 1.147.983 2.623 1.475 4.262 1.475 1.148 0 2.131-.164 2.951-.656a4.982 4.982 0 0 0 2.131-1.967c.492-.82.82-1.803.82-2.95 0-1.148-.328-1.968-.82-2.788-.492-.655-1.147-1.311-2.131-1.803zm47.377 14.098v36.886h-10.656V52.13c-1.147 1.803-2.459 3.279-4.098 4.426-2.295 1.64-5.082 2.46-8.197 2.46-3.115 0-5.901-.82-8.197-2.46-2.295-1.639-4.098-3.934-5.41-6.885-1.31-2.95-1.967-6.23-1.967-10 0-3.77.656-7.049 1.968-9.836 1.311-2.95 3.114-5.246 5.41-6.885 2.295-1.64 5.081-2.46 8.196-2.46 3.115 0 5.902.82 8.197 2.46 1.64 1.147 2.95 2.623 4.098 4.426v-6.066Zm-11.475 22.951c.82-1.311 1.147-2.95 1.147-4.59 0-1.64-.328-3.279-1.147-4.59-.656-1.312-1.64-2.459-2.951-3.115-1.312-.82-2.623-1.147-4.263-1.147-1.475 0-2.95.328-4.262 1.147-1.311.82-2.295 1.803-2.95 3.115-.82 1.311-1.148 2.787-1.148 4.59 0 1.64.328 3.279 1.147 4.59.82 1.312 1.804 2.46 2.951 3.115 1.312.82 2.623 1.148 4.262 1.148 1.476 0 2.951-.328 4.263-1.148 1.311-.656 2.295-1.803 2.95-3.115z"/></svg>